<?xml version="1.0" encoding="utf-8"?>
<!-- Generator: Adobe Illustrator 17.0.0, SVG Export Plug-In . SVG Version: 6.00 Build 0)  -->
<!DOCTYPE svg PUBLIC "-//W3C//DTD SVG 1.1//EN" "http://www.w3.org/Graphics/SVG/1.1/DTD/svg11.dtd">
<svg version="1.1" xmlns="http://www.w3.org/2000/svg" xmlns:xlink="http://www.w3.org/1999/xlink" x="0px" y="0px"
	 width="432.253px" height="785.703px" viewBox="-320.84 -1205.888 432.253 785.703"
	 enable-background="new -320.84 -1205.888 432.253 785.703" xml:space="preserve">
<g id="Layer_2_1_">
</g>
<g id="Layer_3_1_">
	<polygon fill="#DCDCF9" points="110.582,-1112.487 -52.927,-1206.888 -318.068,-1053.443 -318.068,-864.641 -154.56,-770.239 
		110.582,-923.685 	"/>
	<radialGradient id="SVGID_1_" cx="-78.088" cy="-1262.6849" r="383.5323" gradientUnits="userSpaceOnUse">
		<stop  offset="0.3696" style="stop-color:#1A1751;stop-opacity:0.8"/>
		<stop  offset="0.8571" style="stop-color:#000000;stop-opacity:0"/>
	</radialGradient>
	<polygon opacity="0.5" fill="url(#SVGID_1_)" points="-320.84,-1054.061 -320.84,-863.671 -155.958,-768.475 111.412,-923.211 
		111.412,-1113.601 -52.927,-1205.888 	"/>
	<g>
		<path fill="#FFFFFF" d="M-292.481-960.847c8.166-0.562,16.331-1.125,24.591-0.327c3.206,0.234,9.104-0.171,11.497,1.488
			c5.819,5.069-1.612,9.683,7.523,9.965c5.928,0.048,9.699-4.77,15.049-6.506c9.402-2.471,18.849,2.348,28.078,3.992
			c14.766,2.629,32.552,2.771,43.66-8.02c-6.272-5.038-21.478-0.8-29.674-0.691c-4.083,0.281-9.98,0.688-14.219-1.3
			c-4.271-2.44-4.849-4.224-10.027-6.602c-8.869-3.036-19.757-2.285-29.408-3.444c-5.506-0.533-23.636-5.665-19.71,5.004
			c-4.865,2.158-39.34-8.685-37.856,6.254c4.145,0.626,8.619-0.594,13.156-0.906"/>
	</g>
	<circle fill="#D96D63" cx="-8.718" cy="-1115.897" r="33.064"/>
	<circle fill="#F88F55" cx="-14.86" cy="-1117.276" r="27.538"/>
	<g>
		<path fill="#FFFFFF" d="M-119.517-1045.841c-6.649,3.879-30.851-0.555-37.5,0c-7.757,1.108-12.189,3.879-20.5,2.771
			c-16.067-1.108-28.256,6.094-43.216,7.757c1.108,7.757,12.189,7.757,17.73,9.973c-2.216,8.31-16.622,4.986-23.27,3.878
			c-9.973-1.663-18.283-1.108-28.256,0c-2.216,0-17.175-0.555-16.067,3.324c0,2.216,15.514,3.878,17.73,4.432
			c9.973,2.771,74.242,13.297,70.364-7.757c0-2.216-4.432-5.541-5.541-7.202c5.541-2.216,16.067,1.663,22.716,2.771
			c12.189,1.663,16.622,1.663,27.703-3.324"/>
	</g>
	<g>
		<path fill="#FFFFFF" d="M-141.878-1110.888c8.166-0.562,16.331-1.125,24.591-0.327c3.206,0.234,9.104-0.171,11.497,1.488
			c5.819,5.069-1.612,9.683,7.523,9.965c5.928,0.048,9.699-4.771,15.049-6.506c9.402-2.471,18.849,2.348,28.078,3.992
			c14.766,2.629,32.552,2.771,43.66-8.02c-6.272-5.038-21.478-0.8-29.674-0.691c-4.083,0.281-9.98,0.688-14.219-1.3
			c-4.271-2.44-4.849-4.224-10.027-6.602c-8.869-3.036-19.757-2.286-29.408-3.444c-5.506-0.533-23.636-5.665-19.71,5.004
			c-4.865,2.158-39.34-8.685-37.856,6.254c4.145,0.626,8.619-0.594,13.156-0.906"/>
	</g>
	<path fill="none" stroke="#070707" stroke-width="2" stroke-miterlimit="10" d="M-17.561-1045.326c0,1.507-1.222,3.435-2.729,4.305
		l-9.767,5.639l-12.4,7.159c-1.507,0.87-2.729,0.354-2.729-1.153l0,0c0-1.507,1.222-3.435,2.729-4.305l22.167-12.798
		C-18.783-1047.35-17.561-1046.833-17.561-1045.326L-17.561-1045.326z"/>
	<polyline fill="#EAEAEA" points="26.199,-978.537 26.199,-1001.31 3.014,-1015.12 2.891,-991.798 26.199,-978.537 	"/>
	<polygon fill="#ACACC6" points="40.412,-970.451 26.199,-978.537 26.199,-1001.31 40.412,-1008.185 	"/>
	<polygon fill="#EAEAEA" points="-0.088,-1016.852 26.199,-1001.31 26.199,-1007.602 -0.088,-1023.018 	"/>
	<polygon fill="#ACACC6" points="42.847,-1009.393 26.199,-1001.31 26.199,-1007.602 42.847,-1015.685 	"/>
	<polygon fill="#525263" points="0.245,-1023.018 26.199,-1007.602 42.847,-1015.685 16.745,-1031.018 	"/>
	<polygon opacity="0.3" fill="#020202" points="3.014,-1015.018 26.199,-1001.31 26.199,-996.829 6.995,-1008.497 	"/>
	<polygon fill="#202026" points="7.838,-1022.902 26.199,-1012.312 35.259,-1016.711 16.817,-1027.256 	"/>
	<path fill="#EDEDED" d="M20.12-1038.627c1.537,3.316,6.293-2.237,4.609-6.661c-1.76-4.624-6.4-6.718-5.109-12.839
		c0.754-3.577,2.295-3.064,4.387-5.652c2.428-3.004,2.007-1.183-0.25-4.46c-3.515-5.103-8.222-10.339-12.539-14.886
		c-7.371-7.765-4.462-8.62,2.68-15.125c7.351-6.695-2.441-8.368,0.99-15.879c2.394-5.24,7.226-11.098,12.822-11.498
		c8.587-0.614,18.704-2.77,26.202-0.063c5.521,1.994,17.936,12.511,19.719,19.025c2.512,9.174-12.908,11.07-18.46,11.589
		c-0.91,4.769,8.313,7.727,3.57,12.06c-4.088,3.734-11.212-1.444-15.647-0.611c-13.839,2.599,13.924,18.628,5.657,25.036
		c-3.163,2.451-8.988-0.39-12.719,2.327c-6.668,4.856,2.187,5.868,0.014,11.537c-0.265,0.691-3.399,2.326-4.037,3.086
		c-1.037,1.236-1.568,4.245-2.363,5.039c-2.965,2.961-7.362,2.407-9.586-1.037c0.213-0.929,0.577-0.1,1.06-0.488"/>
</g>
<g id="Layer_1">
	<polygon fill="#726F6A" points="-256.377,-544.857 -298.926,-521.101 -140.258,-425.633 87.217,-557.906 43.63,-583.149 
		43.63,-554.521 -141.361,-445.807 -256.377,-513.197 	"/>
	<polygon opacity="0.3" fill="#020202" points="-139.823,-447.126 -17.984,-453.685 111.412,-528.755 111.412,-600.099 
		60.498,-630.278 20.409,-633.293 	"/>
	<g>
		<path fill="#12121E" d="M68.024-582.778c0-2.498-2.025-4.524-4.524-4.524c-2.498,0-4.524,2.025-4.524,4.524v20.243h0.009
			c-0.002,0.033-0.009,0.065-0.009,0.099c0,1.46,2.025,2.644,4.524,2.644c2.498,0,4.524-1.184,4.524-2.644
			c0-0.033-0.006-0.066-0.009-0.099h0.009V-582.778z"/>
		<path fill="#161623" d="M65.334-667.618h-3.667v80.714h0.004c0,0.005-0.004,0.01-0.004,0.016c0,0.423,0.821,0.766,1.833,0.766
			c1.013,0,1.833-0.343,1.833-0.766c0-0.005-0.004-0.01-0.004-0.016h0.004V-667.618z"/>
		<circle fill="#E8E8E8" cx="63.501" cy="-676.679" r="10.827"/>
	</g>
	<g id="Layer_1_1_">
	</g>
	<g id="Layer_3">
	</g>
	<g id="Layer_2" display="none">
	</g>
	<polygon fill="#201F3F" points="43.63,-653.742 -70.808,-719.812 -256.377,-612.418 -256.377,-513.197 -141.94,-447.126 
		43.63,-554.521 	"/>
	<polygon fill="#EAEAEA" points="-141.361,-545.481 -256.377,-612.871 -256.377,-513.197 -141.361,-445.807 	"/>
	<polygon fill="#ACACC6" points="-141.361,-446.236 43.63,-553.259 43.63,-651.962 -141.361,-544.94 	"/>
	<polygon fill="#665654" points="63.501,-732.808 -91.031,-824.381 -289.154,-709.157 -289.154,-608.443 -134.623,-518.363 
		63.501,-633.588 	"/>
	<polygon fill="#EAEAEA" points="-134.044,-617.147 -289.154,-708.546 -289.154,-608.873 -134.044,-517.474 	"/>
	<polygon fill="#ACACC6" points="-134.623,-518.363 63.501,-633.215 63.501,-731.919 -134.044,-617.147 	"/>
	<polygon fill="#201F3F" points="19.977,-857.698 -94.461,-923.769 -207.738,-856.356 -207.738,-757.135 -195.568,-750.004 
		-191.088,-752.018 -105.855,-702.018 -106.531,-697.836 -93.301,-691.064 19.977,-758.478 	"/>
	<polygon fill="#EAEAEA" points="-92.722,-789.418 -207.738,-856.808 -207.738,-757.135 -195.568,-750.004 -191.088,-752.018 
		-105.855,-702.018 -106.531,-697.836 -92.722,-689.745 	"/>
	<polygon fill="#ACACC6" points="-92.722,-691.064 19.977,-758.105 19.977,-856.808 -92.722,-789.768 	"/>
	<polygon fill="#ACACC6" points="-226.131,-663.605 -284.102,-698.118 -284.102,-614.993 -226.131,-580.48 	"/>
	<polygon fill="#EAEAEA" points="57.373,-635.925 -0.597,-602.301 -0.597,-687.206 57.373,-720.829 	"/>
	<polygon fill="#4E4E68" points="-121.325,-466.315 -121.325,-526.665 -18.951,-588.222 -18.951,-543.944 -94.276,-499.888 
		-94.431,-480.69 -94.431,-480.69 	"/>
	<polygon fill="#80809E" points="-156.917,-472.924 -224.352,-513.258 -224.352,-569.278 -156.917,-529.519 	"/>
	<polygon fill="#8E8EA5" points="-226.131,-663.466 -279.723,-695.372 -279.723,-617.654 -226.131,-586.637 	"/>
	<polygon fill="#8E8EA5" points="-156.917,-478.127 -220.199,-515.978 -220.199,-567.202 -156.917,-529.891 	"/>
	<polygon fill="#1B4543" points="-0.597,-687.144 52.995,-718.16 52.995,-638.662 -0.597,-607.646 	"/>
	<polygon fill="#EAEAEA" points="-70.042,-562.072 -128.012,-528.449 -128.012,-613.354 -70.042,-646.977 	"/>
	<polygon fill="#4E4E68" points="-128.012,-613.292 -74.42,-644.308 -74.42,-564.81 -128.012,-533.794 	"/>
	<polygon fill="#4C765E" points="7.57,-534.174 19.281,-527.231 49.206,-544.711 49.206,-607.418 37.495,-614.361 7.57,-596.479 	
		"/>
	<polygon fill="#38544F" points="19.125,-589.418 49.206,-607.254 49.206,-544.827 19.125,-526.991 	"/>
	<polygon fill="#12121E" points="19.281,-527.231 7.57,-534.073 7.57,-596.239 19.125,-589.418 	"/>
	<polygon fill="#201F3F" points="42.847,-941.359 -96.814,-1021.762 -255.593,-926.123 -255.593,-826.903 -115.934,-746.499 
		42.847,-842.138 	"/>
	<polygon fill="#EAEAEA" points="-115.355,-844.854 -255.593,-926.576 -255.593,-826.903 -115.355,-745.18 	"/>
	<polygon fill="#ACACC6" points="-115.355,-746.499 42.847,-841.765 42.847,-940.469 -115.355,-845.203 	"/>
	<polygon fill="#EAEAEA" points="-51.077,-788.975 -109.048,-755.352 -109.048,-840.257 -51.077,-873.88 	"/>
	<polygon fill="#723953" points="-109.048,-844.195 -55.456,-875.211 -55.456,-795.713 -109.048,-765.697 	"/>
	<polygon fill="#ACACC6" points="-121.245,-840.26 -179.215,-874.773 -179.215,-791.648 -121.245,-757.135 	"/>
	<polygon fill="#723953" points="-121.245,-840.121 -174.837,-872.027 -174.837,-794.308 -121.245,-763.292 	"/>
	<polygon fill="#EAEAEA" points="37.696,-844.195 19.08,-832.834 19.08,-917.739 37.696,-929.1 	"/>
	<polygon fill="#4E4E68" points="19.08,-917.677 33.317,-926.431 33.317,-846.933 19.08,-838.179 	"/>
	<polygon fill="#1B4543" points="-195.568,-750.004 -195.568,-791.923 -115.355,-746.499 -105.855,-752.22 -105.855,-702.018 
		-191.088,-752.018 	"/>
	<polygon opacity="0.3" fill="#020202" points="-92.722,-691.064 -18.119,-684.498 63.501,-731.919 19.977,-758.105 	"/>
	<polygon opacity="0.3" fill="#020202" points="-255.593,-589.097 -141.361,-521.101 -141.361,-509.685 -246.795,-571.796 	"/>
	<polygon fill="#201F3F" points="-107.168,-1034.416 -284.293,-929.461 -284.293,-930.731 -106.928,-828.549 70.198,-933.504 	"/>
	<g>
		<polygon fill="#4C765E" points="70.198,-953.504 -107.168,-1054.416 -283.302,-930.16 -106.928,-828.549 		"/>
	</g>
	<polygon fill="#38544F" points="70.198,-953.504 70.198,-933.504 -106.928,-828.549 	"/>
	<polygon fill="#211E1D" points="-127.774,-519.505 -120.635,-515.211 -1.795,-586.291 -1.795,-619.355 -8.934,-623.649 
		-127.774,-552.079 	"/>
	<polygon fill="#AF5954" points="-120.825,-547.642 -1.795,-619.155 -1.795,-586.432 -120.825,-514.919 	"/>
	<polygon fill="#3D3D3D" points="-120.635,-515.211 -127.774,-519.383 -127.774,-551.787 -120.825,-547.642 	"/>
	<polygon fill="#4E4E68" points="-108.765,-827.628 -55.173,-858.644 -55.173,-796.146 -108.765,-766.13 	"/>
	<polygon fill="#8E8EA5" points="-120.963,-835.554 -174.555,-867.46 -174.555,-794.742 -120.963,-763.726 	"/>
	<polygon fill="#4E4E68" points="0.403,-687.144 53.995,-718.16 53.995,-638.662 0.403,-607.646 	"/>
	<polygon fill="#70708C" points="-195.087,-750.004 -195.087,-791.923 -114.874,-746.499 -105.374,-752.22 -105.374,-702.018 
		-190.607,-752.018 	"/>
	<polygon fill="#ACACC6" points="-195.568,-750.004 -195.568,-792.345 -190.521,-789.44 -191.088,-752.018 	"/>
	<polygon opacity="0.3" fill="#020202" points="-207.738,-799.016 -115.355,-746.499 -92.722,-760.128 -92.722,-719.812 
		-189.558,-773.697 	"/>
	<polygon fill="#E58883" points="-114.864,-756.958 -114.864,-746.958 -64.336,-717.913 	"/>
	<polygon fill="#5D846D" points="-94.88,-1038.352 -256.593,-923.769 -255.088,-922.591 -93.722,-1037.018 	"/>
	<polygon fill="#5D846D" points="-75.882,-1028.352 -237.595,-913.769 -236.09,-912.591 -74.724,-1027.018 	"/>
	<polygon fill="#38544F" points="-92.88,-1037.352 -254.593,-922.769 -253.088,-921.591 -91.722,-1036.018 	"/>
	<polygon fill="#38544F" points="-73.882,-1027.352 -235.595,-912.769 -234.09,-911.591 -72.724,-1026.018 	"/>
	<polygon fill="#5D846D" points="-56.487,-1016.12 -218.199,-901.537 -216.694,-900.36 -55.328,-1014.787 	"/>
	<polygon fill="#5D846D" points="-37.488,-1006.12 -199.201,-891.537 -197.696,-890.36 -36.33,-1004.787 	"/>
	<polygon fill="#38544F" points="-54.487,-1015.12 -216.199,-900.537 -214.694,-899.36 -53.328,-1013.787 	"/>
	<polygon fill="#38544F" points="-35.488,-1005.12 -197.201,-890.537 -195.696,-889.36 -34.33,-1003.787 	"/>
	<polygon fill="#5D846D" points="-19.143,-995.087 -180.855,-880.504 -179.35,-879.327 -17.984,-993.754 	"/>
	<polygon fill="#5D846D" points="-0.144,-985.087 -161.857,-870.504 -160.352,-869.327 1.014,-983.754 	"/>
	<polygon fill="#38544F" points="-17.143,-994.087 -178.855,-879.504 -177.35,-878.327 -15.984,-992.754 	"/>
	<polygon fill="#38544F" points="1.856,-984.087 -159.857,-869.504 -158.352,-868.327 3.014,-982.754 	"/>
	<polygon fill="#5D846D" points="19.251,-972.856 -142.462,-858.273 -140.957,-857.096 20.409,-971.522 	"/>
	<polygon fill="#5D846D" points="41.249,-961.856 -120.463,-847.273 -118.958,-846.096 42.408,-960.522 	"/>
	<polygon fill="#38544F" points="21.251,-971.856 -140.462,-857.273 -138.957,-856.096 22.409,-970.522 	"/>
	<polygon fill="#38544F" points="43.249,-960.856 -118.463,-846.273 -116.958,-845.096 44.408,-959.522 	"/>
	<g>
		<polygon fill="#0F0F0F" points="-254.088,-831.825 -240.35,-840.585 -240.35,-843.994 -254.088,-835.234 		"/>
		<g>
			<polygon fill="#0F0F0F" points="-244.121,-825.559 -264.569,-838.42 -264.569,-850.26 -261.569,-850.26 -261.569,-840.077 
				-244.319,-829.227 -244.319,-838.76 -241.319,-838.76 -241.319,-826.51 			"/>
		</g>
		<circle fill="#2D2D30" cx="-263.035" cy="-848.33" r="2.469"/>
		<path fill="#2D2D30" d="M-260.566-845.624c0,0.43-0.348,0.778-0.778,0.778h-3.382c-0.43,0-0.778-0.348-0.778-0.778l0,0
			c0-0.43,0.348-0.778,0.778-0.778h3.382C-260.914-846.402-260.566-846.054-260.566-845.624L-260.566-845.624z"/>
		<circle fill="#2D2D30" cx="-242.819" cy="-837.83" r="2.469"/>
		<path fill="#2D2D30" d="M-240.35-835.124c0,0.43-0.348,0.778-0.778,0.778h-3.382c-0.43,0-0.778-0.348-0.778-0.778l0,0
			c0-0.43,0.348-0.778,0.778-0.778h3.382C-240.699-835.902-240.35-835.554-240.35-835.124L-240.35-835.124z"/>
	</g>
	<g>
		<polygon fill="#0F0F0F" points="-0.634,-665.019 -14.371,-673.778 -14.371,-677.187 -0.634,-668.428 		"/>
		<g>
			<polygon fill="#0F0F0F" points="-10.601,-658.752 9.848,-671.613 9.848,-683.454 6.848,-683.454 6.848,-673.271 
				-10.402,-662.421 -10.402,-671.954 -13.402,-671.954 -13.402,-659.703 			"/>
		</g>
		<circle fill="#2D2D30" cx="8.313" cy="-681.523" r="2.469"/>
		<path fill="#2D2D30" d="M5.844-678.818c0,0.43,0.348,0.778,0.778,0.778h3.382c0.43,0,0.778-0.348,0.778-0.778l0,0
			c0-0.43-0.348-0.778-0.778-0.778H6.622C6.193-679.596,5.844-679.247,5.844-678.818L5.844-678.818z"/>
		<circle fill="#2D2D30" cx="-11.903" cy="-671.023" r="2.469"/>
		<path fill="#2D2D30" d="M-14.371-668.318c0,0.43,0.348,0.778,0.778,0.778h3.382c0.43,0,0.778-0.348,0.778-0.778l0,0
			c0-0.43-0.348-0.778-0.778-0.778h-3.382C-14.023-669.096-14.371-668.747-14.371-668.318L-14.371-668.318z"/>
	</g>
	<polygon fill="#ACACC6" points="-284.528,-735.197 -202.921,-784.314 -202.921,-754.636 -284.528,-705.862 	"/>
	<polygon fill="#EAEAEA" points="-289.154,-737.518 -289.154,-708.546 -284.528,-705.862 -284.528,-735.197 	"/>
	<polygon fill="#9F9FB7" points="-207.738,-786.685 -289.154,-737.518 -284.528,-735.197 -202.921,-784.314 	"/>
	<polygon fill="#EAEAEA" points="57.469,-757.91 13.624,-784.181 13.624,-754.845 57.469,-728.574 	"/>
	<polygon fill="#ACACC6" points="57.469,-757.91 63.501,-761.083 63.501,-731.882 57.469,-728.378 	"/>
	<polygon fill="#9F9FB7" points="18.334,-786.541 63.501,-761.083 57.469,-757.91 13.624,-783.874 	"/>
	<g>
		<polygon fill="#D96D63" points="-114.864,-756.958 -64.336,-717.913 93.374,-808.686 93.374,-807.416 42.847,-846.46 		"/>
		<path fill="#C9605B" d="M-64.336-718.372c0,12.483,13.064,3.82,12.906-7.428C-51.43-725.8-58.164-722.034-64.336-718.372z"/>
		<path fill="#CE932C" d="M-51.429-725.757c0,12.483,13.064,3.82,12.906-7.428C-38.523-733.185-45.257-729.419-51.429-725.757z"/>
		<path fill="#C9605B" d="M-38.522-733.233c0,12.483,13.064,3.82,12.906-7.428C-25.616-740.661-32.35-736.895-38.522-733.233z"/>
		<path fill="#CE932C" d="M-25.615-740.619c0,12.483,13.064,3.82,12.906-7.428C-12.709-748.047-19.443-744.281-25.615-740.619z"/>
		<path fill="#C9605B" d="M-12.708-748.534c0,12.483,13.064,3.82,12.906-7.428C0.198-755.963-6.536-752.196-12.708-748.534z"/>
		<path fill="#CE932C" d="M0.199-755.92c0,12.483,13.064,3.82,12.906-7.428C13.105-763.348,6.371-759.582,0.199-755.92z"/>
		<path fill="#C9605B" d="M13.107-763.396c0,12.483,13.064,3.82,12.906-7.428C26.012-770.824,19.278-767.058,13.107-763.396z"/>
		<path fill="#CE932C" d="M26.014-770.781c0,12.483,13.064,3.82,12.906-7.428C38.919-778.209,32.185-774.443,26.014-770.781z"/>
		<path fill="#C9605B" d="M39.029-777.741c0,12.483,13.064,3.82,12.906-7.428C51.934-785.169,45.2-781.403,39.029-777.741z"/>
		<path fill="#CE932C" d="M51.936-785.127c0,12.483,13.064,3.82,12.906-7.428C64.841-792.555,58.107-788.789,51.936-785.127z"/>
		<path fill="#C9605B" d="M64.843-792.603c0,12.483,13.064,3.82,12.906-7.428C77.748-800.031,71.015-796.265,64.843-792.603z"/>
		<path fill="#201F3F" d="M77.75-799.988c0,12.483,13.064,3.82,12.906-7.428C90.656-807.416,83.922-803.65,77.75-799.988z"/>
		<polygon fill="#EAB03D" points="-88.846,-771.609 -101.755,-763.962 -51.43,-725.8 -38.522,-733.447 		"/>
		<polygon fill="#EAB03D" points="-63.032,-786.63 -75.94,-778.983 -25.616,-740.821 -12.708,-748.468 		"/>
		<polygon fill="#EAB03D" points="-36.254,-801.504 -49.163,-793.856 0.343,-756.09 13.251,-763.738 		"/>
		<polygon fill="#EAB03D" points="-10.477,-816.563 -23.385,-808.915 26.12,-771.149 39.029,-778.797 		"/>
		<polygon fill="#EAB03D" points="16.023,-831.188 3.115,-823.541 52.62,-785.775 65.529,-793.422 		"/>
		<polygon fill="#EAB03D" points="42.523,-847.088 29.615,-839.44 79.12,-801.674 92.029,-809.322 		"/>
	</g>
	<g>
		<polygon fill="#12121E" points="71.153,-852.685 41.408,-872.435 41.408,-868.327 71.153,-848.46 		"/>
		<polygon fill="#12121E" points="91.153,-707.489 61.408,-726.239 61.408,-722.13 91.153,-703.264 		"/>
		<polygon fill="#6D6D6D" points="108.662,-838.179 77.008,-858.096 71.153,-854.574 71.153,-712.456 92.599,-699.57 97.956,-702.9 
					"/>
		<polygon fill="#4C765E" points="102.962,-834.779 71.153,-854.409 71.153,-712.572 92.599,-699.57 		"/>
		<polygon fill="#494949" points="92.599,-699.57 97.956,-702.9 108.662,-838.179 102.962,-834.779 		"/>
	</g>
	<polygon fill="#4C765E" points="-256.377,-513.197 -141.361,-446.236 -178.91,-420.185 -296.088,-491.185 	"/>
	<linearGradient id="SVGID_2_" gradientUnits="userSpaceOnUse" x1="-223.7547" y1="-835.9022" x2="-223.7547" y2="-835.9022">
		<stop  offset="0" style="stop-color:#C9683F;stop-opacity:0.8"/>
		<stop  offset="0.8058" style="stop-color:#000000;stop-opacity:0"/>
	</linearGradient>
	<path fill="url(#SVGID_2_)" d="M-223.755-835.902"/>
	<g>
		<path fill="none" stroke="#020202" stroke-miterlimit="10" d="M-234.767-814.616c48.665,78.315,109.36,61.903,109.36,61.903"/>
		<g>
			<circle fill="#66363C" cx="-226.24" cy="-795.75" r="2.457"/>
			
				<ellipse transform="matrix(0.8508 -0.5255 0.5255 0.8508 385.1768 -237.0023)" fill="#191919" cx="-224.741" cy="-796.745" rx="0.798" ry="1.286"/>
			
				<line fill="none" stroke="#161616" stroke-width="0.25" stroke-miterlimit="10" x1="-224.493" y1="-796.996" x2="-223.394" y2="-797.8"/>
		</g>
		<g>
			<circle fill="#F99055" cx="-219.321" cy="-787.304" r="2.457"/>
			
				<ellipse transform="matrix(0.7595 -0.6505 0.6505 0.7595 460.4784 -331.3986)" fill="#191919" cx="-217.993" cy="-788.518" rx="0.798" ry="1.286"/>
			
				<line fill="none" stroke="#161616" stroke-width="0.25" stroke-miterlimit="10" x1="-217.787" y1="-788.804" x2="-216.826" y2="-789.768"/>
		</g>
		<g>
			<circle fill="#66363C" cx="-213.158" cy="-780.025" r="2.878"/>
			
				<ellipse transform="matrix(0.6981 -0.716 0.716 0.6981 495.7088 -387.5985)" fill="#191919" cx="-211.737" cy="-781.581" rx="0.934" ry="1.506"/>
			
				<line fill="none" stroke="#161616" stroke-width="0.25" stroke-miterlimit="10" x1="-211.526" y1="-781.936" x2="-210.506" y2="-783.161"/>
		</g>
		<g>
			<circle fill="#E8E8E8" cx="-201.667" cy="-770.596" r="2.503"/>
			
				<ellipse transform="matrix(0.4971 -0.8677 0.8677 0.4971 569.0602 -562.5911)" fill="#191919" cx="-200.809" cy="-772.215" rx="0.813" ry="1.31"/>
			
				<line fill="none" stroke="#161616" stroke-width="0.25" stroke-miterlimit="10" x1="-200.709" y1="-772.56" x2="-200.116" y2="-773.813"/>
		</g>
		<g>
			<circle fill="#66363C" cx="-188.691" cy="-760.678" r="2.898"/>
			
				<ellipse transform="matrix(0.4021 -0.9156 0.9156 0.4021 585.9297 -628.0211)" fill="#191919" cx="-187.901" cy="-762.648" rx="0.941" ry="1.516"/>
			
				<line fill="none" stroke="#161616" stroke-width="0.25" stroke-miterlimit="10" x1="-187.829" y1="-763.057" x2="-187.3" y2="-764.573"/>
		</g>
		<g>
			<circle fill="#F99055" cx="-180.388" cy="-757.125" r="2.457"/>
			
				<ellipse transform="matrix(0.4897 -0.8719 0.8719 0.4897 569.8879 -543.7087)" fill="#191919" cx="-179.558" cy="-758.722" rx="0.798" ry="1.286"/>
			
				<line fill="none" stroke="#161616" stroke-width="0.25" stroke-miterlimit="10" x1="-179.463" y1="-759.061" x2="-178.891" y2="-760.297"/>
		</g>
		<g>
			<circle fill="#E8E8E8" cx="-167.56" cy="-751.933" r="2.457"/>
			
				<ellipse transform="matrix(0.2876 -0.9578 0.9578 0.2876 602.7894 -696.9615)" fill="#191919" cx="-167.099" cy="-753.672" rx="0.798" ry="1.286"/>
			
				<line fill="none" stroke="#161616" stroke-width="0.25" stroke-miterlimit="10" x1="-167.08" y1="-754.024" x2="-166.792" y2="-755.354"/>
		</g>
		<g>
			<circle fill="#66363C" cx="-152.081" cy="-748.168" r="2.749"/>
			
				<ellipse transform="matrix(0.1827 -0.9832 0.9832 0.1827 613.4843 -762.307)" fill="#191919" cx="-151.778" cy="-750.158" rx="0.893" ry="1.438"/>
			
				<line fill="none" stroke="#161616" stroke-width="0.25" stroke-miterlimit="10" x1="-151.8" y1="-750.552" x2="-151.639" y2="-752.066"/>
		</g>
		<g>
			<circle fill="#F99055" cx="-142.96" cy="-747.637" r="2.499"/>
			
				<ellipse transform="matrix(0.118 -0.993 0.993 0.118 618.2729 -802.8018)" fill="#191919" cx="-142.804" cy="-749.46" rx="0.811" ry="1.308"/>
			
				<line fill="none" stroke="#161616" stroke-width="0.25" stroke-miterlimit="10" x1="-142.847" y1="-749.816" x2="-142.791" y2="-751.199"/>
		</g>
	</g>
	<polyline fill="#3D312F" points="-279.723,-695.372 -279.723,-617.654 -226.131,-586.637 -226.131,-592.435 -275.838,-620.685 
		-276.014,-693.164 -279.723,-695.372 	"/>
	<g>
		<path fill="#12121E" d="M-271.491-510.543c0-2.498-2.025-4.524-4.524-4.524c-2.498,0-4.524,2.025-4.524,4.524v20.243h0.009
			c-0.002,0.033-0.009,0.065-0.009,0.099c0,1.46,2.025,2.644,4.524,2.644c2.498,0,4.524-1.184,4.524-2.644
			c0-0.033-0.006-0.066-0.009-0.099h0.009V-510.543z"/>
		<path fill="#161623" d="M-274.181-595.383h-3.667v80.714h0.004c0,0.005-0.004,0.01-0.004,0.016c0,0.423,0.821,0.766,1.833,0.766
			c1.013,0,1.833-0.343,1.833-0.766c0-0.005-0.004-0.01-0.004-0.016h0.004V-595.383z"/>
		<circle fill="#E8E8E8" cx="-276.014" cy="-604.444" r="10.827"/>
	</g>
	<polygon fill="#211E1D" points="-0.597,-607.646 53.995,-638.662 53.995,-718.16 49.797,-715.731 49.805,-641.404 -0.634,-613.01 	
		"/>
	<polygon fill="#3D312F" points="-174.796,-867.768 -174.837,-794.308 -120.963,-762.997 -120.963,-768.673 -170.873,-796.734 
		-170.838,-865.497 	"/>
	<polygon fill="#211E1E" points="-109.048,-765.697 -55.173,-795.685 -55.456,-859.049 -59.236,-856.808 -59.026,-798.264 
		-109.048,-770.56 	"/>
	<polygon fill="#211E1D" points="-220.199,-567.202 -220.199,-515.978 -156.917,-478.127 -156.917,-482.935 -216.088,-518.363 
		-215.963,-564.685 	"/>
	<polygon fill="#575777" points="-15.088,-578.185 -14.992,-538.925 -90.755,-494.805 -90.755,-476.352 -95.588,-478.685 
		-95.588,-497.841 -20.109,-541.939 -20.246,-575.346 	"/>
	<polygon fill="#211E1D" points="-122.482,-468.685 -99.027,-481.435 -99.027,-528.015 -95.588,-530.081 -95.588,-478.685 
		-122.482,-464.31 	"/>
	<polygon fill="#211E1D" points="-92.676,-531.831 -92.676,-502.935 -23.338,-543.843 -23.338,-573.406 -20.246,-575.346 
		-20.109,-541.939 -95.588,-497.841 -95.588,-530.081 	"/>
	<polygon fill="#28201F" points="-190.521,-788.982 -190.521,-751.686 -105.374,-701.284 -105.545,-704.884 -187.649,-753.595 
		-187.649,-787.712 	"/>
	<polygon fill="#D96D63" points="-226.131,-663.466 -226.131,-580.48 -201.307,-565.685 -201.307,-648.852 	"/>
	<polygon fill="#D96D63" points="-178.891,-870.008 -179.215,-791.648 -207.738,-807.416 -207.738,-886.355 	"/>
	<polygon fill="#665654" points="-116.921,-511.685 -116.921,-504.391 -104.286,-511.65 -104.286,-519.268 	"/>
	<g>
		<polygon fill="#2C4436" points="-253.573,-501.963 -263.548,-520.133 -253.573,-504.54 -260.876,-546.675 -250.366,-504.54 
			-250.366,-539.371 -247.694,-503.21 -238.253,-545.25 -244.31,-501.963 -234.691,-518.173 -241.714,-500.66 		"/>
		<polygon fill="#3B5E49" points="-254.82,-499.826 -262.48,-538.659 -251.792,-504.54 -257.136,-556.116 -248.229,-504.54 
			-244.31,-540.524 -244.31,-503.032 -238.143,-529.96 -241.884,-498.786 -243.598,-499.826 -246.982,-497.866 -248.942,-499.826 
			-252.148,-498.935 		"/>
	</g>
	<g>
		<polygon fill="#2C4436" points="-168.323,-447.896 -178.299,-466.066 -168.323,-450.473 -175.627,-492.608 -165.117,-450.473 
			-165.117,-485.304 -162.445,-449.143 -153.004,-491.183 -159.06,-447.896 -149.441,-464.106 -156.464,-446.593 		"/>
		<polygon fill="#3B5E49" points="-169.57,-445.758 -177.23,-484.592 -166.542,-450.473 -171.886,-502.049 -162.979,-450.473 
			-159.06,-486.457 -159.06,-448.965 -152.893,-475.892 -156.634,-444.719 -158.348,-445.758 -161.732,-443.799 -163.693,-445.758 
			-166.898,-444.868 		"/>
	</g>
	<g>
		<polygon fill="#EAB03D" points="-81.013,-538.838 -81.013,-513.455 -58.419,-526.449 -58.419,-552.414 		"/>
		<polygon fill="#E2E2E2" points="-66.671,-543.041 -78.338,-536.695 -78.338,-537.983 -66.671,-544.329 		"/>
		<polyline fill="#F99055" points="-65.088,-545.234 -61.619,-547.173 -61.619,-545.884 -65.088,-543.946 		"/>
		<polygon fill="#E2E2E2" points="-66.734,-539.711 -78.401,-533.364 -78.401,-534.653 -66.734,-540.999 		"/>
		<polyline fill="#F99055" points="-65.151,-541.904 -61.682,-543.843 -61.682,-542.554 -65.151,-540.615 		"/>
		<polygon fill="#E2E2E2" points="-66.734,-536.328 -78.401,-529.982 -78.401,-531.27 -66.734,-537.616 		"/>
		<polyline fill="#F99055" points="-65.151,-538.521 -61.682,-540.46 -61.682,-539.171 -65.151,-537.232 		"/>
		<polygon fill="#E2E2E2" points="-66.408,-527.85 -78.076,-521.504 -78.076,-522.792 -66.408,-529.138 		"/>
		<polyline fill="#F99055" points="-64.826,-530.043 -61.356,-531.982 -61.356,-530.693 -64.826,-528.755 		"/>
		<polygon fill="#E2E2E2" points="-66.408,-524.317 -78.076,-517.971 -78.076,-519.259 -66.408,-525.605 		"/>
		<polyline fill="#F99055" points="-64.826,-526.51 -61.356,-528.449 -61.356,-527.161 -64.826,-525.222 		"/>
		<path fill="#F99055" d="M-78.076-527.56c0,0,2.235,0.708,3.236,0.292c1.001-0.417,2.468-3.74,3.544-4.292
			c1.076-0.552,0.971,2.508,2.527,1.879c1.556-0.629,2.742-5.066,3.617-5.379s2.5,1.897,3.469,1.261
			c0.969-0.636,1.3-2.449,1.3-2.449s-0.769,1.688-1.581,1.688s-1.689-1.938-3.188-1.125c-1.499,0.813-2.611,4.625-3.617,4.813
			c-1.007,0.188-1.626-2.063-3.035-1.375c-1.409,0.688-2.754,4.237-3.346,4.313S-78.076-527.56-78.076-527.56z"/>
	</g>
	<g>
		<polygon fill="#48486D" points="-56.473,-553.666 -56.473,-528.283 -33.879,-541.278 -33.879,-567.242 		"/>
		<polygon fill="#E2E2E2" points="-42.131,-557.869 -53.798,-551.523 -53.798,-552.812 -42.131,-559.158 		"/>
		<polyline fill="#AF5954" points="-40.548,-560.063 -37.079,-562.002 -37.079,-560.713 -40.548,-558.774 		"/>
		<polygon fill="#E2E2E2" points="-42.194,-554.539 -53.862,-548.193 -53.862,-549.482 -42.194,-555.828 		"/>
		<polyline fill="#AF5954" points="-40.612,-556.733 -37.142,-558.671 -37.142,-557.383 -40.612,-555.444 		"/>
		<polygon fill="#E2E2E2" points="-42.194,-551.156 -53.862,-544.81 -53.862,-546.099 -42.194,-552.445 		"/>
		<polyline fill="#AF5954" points="-40.612,-553.35 -37.142,-555.289 -37.142,-554 -40.612,-552.061 		"/>
		<polygon fill="#E2E2E2" points="-41.869,-542.678 -53.536,-536.332 -53.536,-537.621 -41.869,-543.967 		"/>
		<polyline fill="#AF5954" points="-40.286,-544.872 -36.817,-546.811 -36.817,-545.522 -40.286,-543.583 		"/>
		<polygon fill="#E2E2E2" points="-41.869,-539.146 -53.536,-532.799 -53.536,-534.088 -41.869,-540.434 		"/>
		<polyline fill="#AF5954" points="-40.286,-541.339 -36.817,-543.278 -36.817,-541.989 -40.286,-540.05 		"/>
		<path fill="#F99055" d="M-53.536-542.389c0,0,2.235,0.708,3.236,0.292c1.001-0.417,2.468-3.74,3.544-4.292
			c1.076-0.552,0.971,2.508,2.527,1.879c1.556-0.629,2.742-5.066,3.617-5.379s2.5,1.897,3.469,1.261
			c0.969-0.636,1.3-2.449,1.3-2.449s-0.769,1.688-1.581,1.688s-1.689-1.938-3.188-1.125c-1.499,0.813-2.611,4.625-3.617,4.813
			c-1.007,0.188-1.626-2.063-3.035-1.375c-1.409,0.688-2.754,4.236-3.346,4.313C-51.204-542.688-53.536-542.389-53.536-542.389z"/>
	</g>
	<g>
		<path fill="#3B5E49" d="M-258.739-504.068c1.473,1.625,1.511,7.345,1.511,7.345h0.567c0,0-0.241-5.705-1.791-7.729
			C-260.003-506.476-260.212-505.694-258.739-504.068z"/>
		<g>
			
				<ellipse transform="matrix(0.9443 -0.329 0.329 0.9443 151.5765 -113.8315)" fill="#EAEAEA" cx="-260.579" cy="-504.818" rx="1.259" ry="0.739"/>
			
				<ellipse transform="matrix(0.9443 -0.329 0.329 0.9443 152.1133 -113.3882)" fill="#EAEAEA" cx="-259.001" cy="-506.182" rx="1.385" ry="0.769"/>
			
				<ellipse transform="matrix(0.9443 -0.329 0.329 0.9443 151.9099 -112.9022)" fill="#EAEAEA" cx="-257.666" cy="-505.338" rx="1.259" ry="0.738"/>
			
				<ellipse transform="matrix(0.9443 -0.329 0.329 0.9443 151.4083 -113.3266)" fill="#EAEAEA" cx="-259.171" cy="-504.068" rx="1.335" ry="0.795"/>
			
				<ellipse transform="matrix(0.9443 -0.329 0.329 0.9443 151.7317 -113.4002)" fill="#4B4B63" cx="-259.227" cy="-505.061" rx="0.803" ry="0.487"/>
		</g>
	</g>
	<g>
		<path fill="#3B5E49" d="M-263.782-499.053c1.061,1.17,1.088,5.289,1.088,5.289h0.408c0,0-0.173-4.108-1.29-5.565
			C-264.692-500.787-264.843-500.224-263.782-499.053z"/>
		<g>
			
				<ellipse transform="matrix(0.9443 -0.329 0.329 0.9443 149.6055 -115.0305)" fill="#EAEAEA" cx="-265.107" cy="-499.593" rx="0.907" ry="0.532"/>
			
				<ellipse transform="matrix(0.9443 -0.329 0.329 0.9443 149.992 -114.7113)" fill="#EAEAEA" cx="-263.971" cy="-500.576" rx="0.998" ry="0.554"/>
			
				<ellipse transform="matrix(0.9443 -0.329 0.329 0.9443 149.8456 -114.3613)" fill="#EAEAEA" cx="-263.01" cy="-499.968" rx="0.907" ry="0.531"/>
			
				<ellipse transform="matrix(0.9443 -0.329 0.329 0.9443 149.4844 -114.6669)" fill="#EAEAEA" cx="-264.094" cy="-499.053" rx="0.961" ry="0.573"/>
			
				<ellipse transform="matrix(0.9443 -0.329 0.329 0.9443 149.7173 -114.7199)" fill="#4B4B63" cx="-264.134" cy="-499.768" rx="0.578" ry="0.35"/>
		</g>
	</g>
	<g>
		<path fill="#0C1917" d="M-253.307-501.24c-1.473,1.625-1.511,7.345-1.511,7.345h-0.567c0,0,0.241-5.705,1.791-7.729
			C-252.043-503.647-251.833-502.865-253.307-501.24z"/>
		<g>
			
				<ellipse transform="matrix(-0.9443 -0.329 0.329 -0.9443 -323.782 -1058.7655)" fill="#EAB03D" cx="-251.466" cy="-501.99" rx="1.259" ry="0.739"/>
			
				<ellipse transform="matrix(-0.9443 -0.329 0.329 -0.9443 -326.4022 -1061.9374)" fill="#EAB03D" cx="-253.045" cy="-503.354" rx="1.385" ry="0.769"/>
			
				<ellipse transform="matrix(-0.9443 -0.329 0.329 -0.9443 -329.2741 -1060.7354)" fill="#EAB03D" cx="-254.379" cy="-502.51" rx="1.259" ry="0.738"/>
			
				<ellipse transform="matrix(-0.9443 -0.329 0.329 -0.9443 -326.7664 -1057.7712)" fill="#EAB03D" cx="-252.874" cy="-501.24" rx="1.335" ry="0.795"/>
			
				<ellipse transform="matrix(-0.9443 -0.329 0.329 -0.9443 -326.3311 -1059.6825)" fill="#4B4B63" cx="-252.819" cy="-502.232" rx="0.803" ry="0.487"/>
		</g>
	</g>
	<g>
		<path fill="#0C1917" d="M-238.691-498.423c-1.257,0.971-2.011,5.043-2.011,5.043l-0.404-0.072c0,0,0.897-4.036,2.259-5.282
			C-237.484-499.978-237.434-499.394-238.691-498.423z"/>
		<g>
			
				<ellipse transform="matrix(-0.8719 -0.4897 0.4897 -0.8719 -199.9638 -1049.7545)" fill="#EAEAEA" cx="-237.284" cy="-498.723" rx="0.912" ry="0.535"/>
			
				<ellipse transform="matrix(-0.8719 -0.4897 0.4897 -0.8719 -201.1709 -1052.4166)" fill="#EAEAEA" cx="-238.236" cy="-499.896" rx="1.003" ry="0.557"/>
			
				<ellipse transform="matrix(-0.8719 -0.4897 0.4897 -0.8719 -203.3637 -1052.1262)" fill="#EAEAEA" cx="-239.294" cy="-499.464" rx="0.912" ry="0.534"/>
			
				<ellipse transform="matrix(-0.8719 -0.4897 0.4897 -0.8719 -202.195 -1049.6274)" fill="#EAEAEA" cx="-238.383" cy="-498.368" rx="0.967" ry="0.576"/>
			
				<ellipse transform="matrix(-0.8719 -0.4897 0.4897 -0.8719 -201.5413 -1050.8571)" fill="#4B4B63" cx="-238.217" cy="-499.068" rx="0.581" ry="0.352"/>
		</g>
	</g>
	<g>
		<path fill="#3B5E49" d="M-177.33-451.17c1.544,1.703,1.584,7.697,1.584,7.697h0.594c0,0-0.252-5.979-1.877-8.099
			C-178.654-453.693-178.874-452.873-177.33-451.17z"/>
		<g>
			
				<ellipse transform="matrix(0.9443 -0.329 0.329 0.9443 138.7121 -84.1347)" fill="#EAEAEA" cx="-179.258" cy="-451.956" rx="1.32" ry="0.775"/>
			
				<ellipse transform="matrix(0.9443 -0.329 0.329 0.9443 139.2746 -83.6701)" fill="#EAEAEA" cx="-177.604" cy="-453.385" rx="1.452" ry="0.806"/>
			
				<ellipse transform="matrix(0.9443 -0.329 0.329 0.9443 139.0614 -83.1608)" fill="#EAEAEA" cx="-176.206" cy="-452.501" rx="1.32" ry="0.773"/>
			
				<ellipse transform="matrix(0.9443 -0.329 0.329 0.9443 138.5358 -83.6055)" fill="#EAEAEA" cx="-177.783" cy="-451.17" rx="1.399" ry="0.833"/>
			
				<ellipse transform="matrix(0.9443 -0.329 0.329 0.9443 138.8747 -83.6827)" fill="#4B4B63" cx="-177.841" cy="-452.21" rx="0.841" ry="0.51"/>
		</g>
	</g>
	<g>
		<path fill="#0C1917" d="M-182.615-445.915c1.112,1.226,1.14,5.542,1.14,5.542h0.428c0,0-0.182-4.305-1.352-5.832
			C-183.569-447.731-183.727-447.141-182.615-445.915z"/>
		<g>
			
				<ellipse transform="matrix(0.9443 -0.329 0.329 0.9443 136.6465 -85.3911)" fill="#EAB03D" cx="-184.004" cy="-446.48" rx="0.95" ry="0.558"/>
			
				<ellipse transform="matrix(0.9443 -0.329 0.329 0.9443 137.0516 -85.0566)" fill="#EAB03D" cx="-182.813" cy="-447.51" rx="1.045" ry="0.58"/>
			
				<ellipse transform="matrix(0.9443 -0.329 0.329 0.9443 136.8981 -84.6899)" fill="#EAB03D" cx="-181.806" cy="-446.873" rx="0.95" ry="0.557"/>
			
				<ellipse transform="matrix(0.9443 -0.329 0.329 0.9443 136.5196 -85.0101)" fill="#EAB03D" cx="-182.941" cy="-445.915" rx="1.007" ry="0.6"/>
			
				<ellipse transform="matrix(0.9443 -0.329 0.329 0.9443 136.7637 -85.0657)" fill="#4B4B63" cx="-182.984" cy="-446.664" rx="0.606" ry="0.367"/>
		</g>
	</g>
	<g>
		<path fill="#3B5E49" d="M-171.637-448.206c-1.544,1.703-1.584,7.697-1.584,7.697h-0.594c0,0,0.252-5.979,1.877-8.099
			C-170.313-450.729-170.093-449.909-171.637-448.206z"/>
		<g>
			
				<ellipse transform="matrix(-0.9443 -0.329 0.329 -0.9443 -182.2538 -928.8218)" fill="#EAB03D" cx="-169.709" cy="-448.992" rx="1.32" ry="0.775"/>
			
				<ellipse transform="matrix(-0.9443 -0.329 0.329 -0.9443 -184.9996 -932.1461)" fill="#EAB03D" cx="-171.363" cy="-450.421" rx="1.452" ry="0.806"/>
			
				<ellipse transform="matrix(-0.9443 -0.329 0.329 -0.9443 -188.0093 -930.8863)" fill="#EAB03D" cx="-172.761" cy="-449.537" rx="1.32" ry="0.773"/>
			
				<ellipse transform="matrix(-0.9443 -0.329 0.329 -0.9443 -185.3813 -927.78)" fill="#EAB03D" cx="-171.184" cy="-448.206" rx="1.399" ry="0.833"/>
			
				<ellipse transform="matrix(-0.9443 -0.329 0.329 -0.9443 -184.9252 -929.7829)" fill="#4B4B63" cx="-171.126" cy="-449.246" rx="0.841" ry="0.51"/>
		</g>
	</g>
	<g>
		<path fill="#3B5E49" d="M-156.321-445.254c-1.317,1.018-2.107,5.285-2.107,5.285l-0.423-0.076c0,0,0.94-4.23,2.368-5.535
			C-155.056-446.883-155.004-446.271-156.321-445.254z"/>
		<g>
			
				<ellipse transform="matrix(-0.8719 -0.4897 0.4897 -0.8719 -71.6757 -909.8864)" fill="#EAEAEA" cx="-154.846" cy="-445.568" rx="0.956" ry="0.561"/>
			
				<ellipse transform="matrix(-0.8719 -0.4897 0.4897 -0.8719 -72.9406 -912.6762)" fill="#EAEAEA" cx="-155.844" cy="-446.798" rx="1.051" ry="0.584"/>
			
				<ellipse transform="matrix(-0.8719 -0.4897 0.4897 -0.8719 -75.2386 -912.3718)" fill="#EAEAEA" cx="-156.953" cy="-446.345" rx="0.956" ry="0.56"/>
			
				<ellipse transform="matrix(-0.8719 -0.4897 0.4897 -0.8719 -74.0139 -909.7532)" fill="#EAEAEA" cx="-155.998" cy="-445.196" rx="1.013" ry="0.603"/>
			
				<ellipse transform="matrix(-0.8719 -0.4897 0.4897 -0.8719 -73.3288 -911.0419)" fill="#EAEAEA" cx="-155.824" cy="-445.93" rx="0.609" ry="0.369"/>
		</g>
	</g>
	<g>
		<path fill="#3B5E49" d="M-182.282-462.487c-1.199,1.323-1.23,5.978-1.23,5.978h-0.461c0,0,0.196-4.644,1.458-6.29
			C-181.254-464.446-181.083-463.81-182.282-462.487z"/>
		<g>
			
				<ellipse transform="matrix(-0.9443 -0.329 0.329 -0.9443 -199.1481 -959.8914)" fill="#EAEAEA" cx="-180.784" cy="-463.097" rx="1.025" ry="0.602"/>
			
				<ellipse transform="matrix(-0.9443 -0.329 0.329 -0.9443 -201.2807 -962.4732)" fill="#EAEAEA" cx="-182.069" cy="-464.208" rx="1.128" ry="0.626"/>
			
				<ellipse transform="matrix(-0.9443 -0.329 0.329 -0.9443 -203.6181 -961.4947)" fill="#EAEAEA" cx="-183.155" cy="-463.521" rx="1.025" ry="0.601"/>
			
				<ellipse transform="matrix(-0.9443 -0.329 0.329 -0.9443 -201.5771 -959.0822)" fill="#EAEAEA" cx="-181.93" cy="-462.487" rx="1.087" ry="0.647"/>
			
				<ellipse transform="matrix(-0.9443 -0.329 0.329 -0.9443 -201.2229 -960.6378)" fill="#4B4B63" cx="-181.885" cy="-463.295" rx="0.653" ry="0.396"/>
		</g>
	</g>
	<g>
		<path fill="#0C1917" d="M-187.734-458.766c0.949,1.047,0.973,4.729,0.973,4.729h0.365c0,0-0.155-3.674-1.154-4.977
			C-188.548-460.316-188.683-459.812-187.734-458.766z"/>
		<g>
			
				<ellipse transform="matrix(0.9443 -0.329 0.329 0.9443 140.5736 -87.719)" fill="#EAEAEA" cx="-188.919" cy="-459.249" rx="0.811" ry="0.476"/>
			
				<ellipse transform="matrix(0.9443 -0.329 0.329 0.9443 140.9193 -87.4335)" fill="#EAEAEA" cx="-187.903" cy="-460.127" rx="0.892" ry="0.495"/>
			
				<ellipse transform="matrix(0.9443 -0.329 0.329 0.9443 140.7883 -87.1206)" fill="#EAEAEA" cx="-187.043" cy="-459.584" rx="0.811" ry="0.475"/>
			
				<ellipse transform="matrix(0.9443 -0.329 0.329 0.9443 140.4653 -87.3938)" fill="#EAEAEA" cx="-188.012" cy="-458.766" rx="0.86" ry="0.512"/>
			
				<ellipse transform="matrix(0.9443 -0.329 0.329 0.9443 140.6736 -87.4412)" fill="#4B4B63" cx="-188.048" cy="-459.405" rx="0.517" ry="0.313"/>
		</g>
	</g>
	<g>
		<path fill="#3B5E49" d="M-220.333-486.02c1.361,1.501,1.396,6.785,1.396,6.785h0.524c0,0-0.223-5.271-1.655-7.14
			S-221.694-487.522-220.333-486.02z"/>
		<g>
			
				<ellipse transform="matrix(0.9443 -0.329 0.329 0.9443 147.7659 -100.1423)" fill="#EAB03D" cx="-222.033" cy="-486.713" rx="1.163" ry="0.683"/>
			
				<ellipse transform="matrix(0.9443 -0.329 0.329 0.9443 148.2617 -99.7327)" fill="#EAB03D" cx="-220.575" cy="-487.973" rx="1.28" ry="0.71"/>
			
				<ellipse transform="matrix(0.9443 -0.329 0.329 0.9443 148.0738 -99.2838)" fill="#EAB03D" cx="-219.342" cy="-487.194" rx="1.163" ry="0.682"/>
			
				<ellipse transform="matrix(0.9443 -0.329 0.329 0.9443 147.6104 -99.6758)" fill="#EAB03D" cx="-220.732" cy="-486.02" rx="1.233" ry="0.735"/>
			
				<ellipse transform="matrix(0.9443 -0.329 0.329 0.9443 147.9092 -99.7438)" fill="#4B4B63" cx="-220.784" cy="-486.937" rx="0.741" ry="0.45"/>
		</g>
	</g>
	<g>
		<path fill="#0C1917" d="M-224.992-481.388c0.98,1.081,1.005,4.886,1.005,4.886h0.377c0,0-0.16-3.795-1.192-5.141
			C-225.833-482.989-225.972-482.469-224.992-481.388z"/>
		<g>
			
				<ellipse transform="matrix(0.9443 -0.329 0.329 0.9443 145.945 -101.2498)" fill="#EAEAEA" cx="-226.216" cy="-481.886" rx="0.838" ry="0.492"/>
			
				<ellipse transform="matrix(0.9443 -0.329 0.329 0.9443 146.3021 -100.9549)" fill="#EAEAEA" cx="-225.166" cy="-482.794" rx="0.922" ry="0.512"/>
			
				<ellipse transform="matrix(0.9443 -0.329 0.329 0.9443 146.1668 -100.6317)" fill="#EAEAEA" cx="-224.279" cy="-482.232" rx="0.838" ry="0.491"/>
			
				<ellipse transform="matrix(0.9443 -0.329 0.329 0.9443 145.8332 -100.9139)" fill="#EAEAEA" cx="-225.28" cy="-481.388" rx="0.888" ry="0.529"/>
			
				<ellipse transform="matrix(0.9443 -0.329 0.329 0.9443 146.0483 -100.9629)" fill="#4B4B63" cx="-225.317" cy="-482.048" rx="0.534" ry="0.324"/>
		</g>
	</g>
	<g>
		<path fill="#3B5E49" d="M-224.699-495.996c-1.057,1.166-1.084,5.27-1.084,5.27h-0.407c0,0,0.173-4.093,1.285-5.545
			C-223.792-497.724-223.642-497.162-224.699-495.996z"/>
		<g>
			
				<ellipse transform="matrix(-0.9443 -0.329 0.329 -0.9443 -270.9643 -1038.9175)" fill="#EAB03D" cx="-223.378" cy="-496.534" rx="0.904" ry="0.53"/>
			
				<ellipse transform="matrix(-0.9443 -0.329 0.329 -0.9443 -272.8441 -1041.1934)" fill="#EAB03D" cx="-224.511" cy="-497.513" rx="0.994" ry="0.552"/>
			
				<ellipse transform="matrix(-0.9443 -0.329 0.329 -0.9443 -274.9047 -1040.3308)" fill="#EAB03D" cx="-225.468" cy="-496.908" rx="0.904" ry="0.53"/>
			
				<ellipse transform="matrix(-0.9443 -0.329 0.329 -0.9443 -273.1055 -1038.2041)" fill="#EAB03D" cx="-224.389" cy="-495.996" rx="0.958" ry="0.571"/>
			
				<ellipse transform="matrix(-0.9443 -0.329 0.329 -0.9443 -272.7932 -1039.5753)" fill="#4B4B63" cx="-224.348" cy="-496.708" rx="0.576" ry="0.349"/>
		</g>
	</g>
	<g>
		<path fill="#0C1917" d="M-229.504-492.716c0.836,0.923,0.858,4.169,0.858,4.169h0.322c0,0-0.137-3.239-1.017-4.387
			C-230.222-494.083-230.341-493.639-229.504-492.716z"/>
		<g>
			
				<ellipse transform="matrix(0.9443 -0.329 0.329 0.9443 149.4068 -103.3018)" fill="#EAEAEA" cx="-230.549" cy="-493.142" rx="0.715" ry="0.42"/>
			
				<ellipse transform="matrix(0.9443 -0.329 0.329 0.9443 149.7115 -103.0502)" fill="#EAEAEA" cx="-229.653" cy="-493.916" rx="0.786" ry="0.437"/>
			
				<ellipse transform="matrix(0.9443 -0.329 0.329 0.9443 149.596 -102.7743)" fill="#EAEAEA" cx="-228.896" cy="-493.437" rx="0.715" ry="0.419"/>
			
				<ellipse transform="matrix(0.9443 -0.329 0.329 0.9443 149.3113 -103.0152)" fill="#EAEAEA" cx="-229.75" cy="-492.716" rx="0.758" ry="0.451"/>
			
				<ellipse transform="matrix(0.9443 -0.329 0.329 0.9443 149.4949 -103.057)" fill="#4B4B63" cx="-229.782" cy="-493.28" rx="0.456" ry="0.276"/>
		</g>
	</g>
	
		<line fill="none" stroke="#070707" stroke-width="2" stroke-miterlimit="10" x1="-64.336" y1="-1021.762" x2="-64.336" y2="-1073.819"/>
	
		<line fill="none" stroke="#070707" stroke-width="2" stroke-miterlimit="10" x1="-77.088" y1="-1080.185" x2="-47.338" y2="-1064.435"/>
	
		<line fill="none" stroke="#070707" stroke-width="2" stroke-miterlimit="10" x1="-86.762" y1="-1075.435" x2="-65.01" y2="-1084.935"/>
	
		<line fill="none" stroke="#070707" stroke-width="2" stroke-miterlimit="10" x1="-58.214" y1="-1059.685" x2="-36.462" y2="-1069.185"/>
	
		<line fill="none" stroke="#070707" stroke-width="2" stroke-miterlimit="10" x1="-79.966" y1="-1070.685" x2="-58.214" y2="-1080.185"/>
	
		<line fill="none" stroke="#070707" stroke-width="2" stroke-miterlimit="10" x1="-66.938" y1="-1064.435" x2="-45.186" y2="-1073.935"/>
	
		<line fill="none" stroke="#070707" stroke-width="2" stroke-miterlimit="10" x1="-30.463" y1="-1001.685" x2="-30.463" y2="-1035.31"/>
	<g>
		<polygon fill="#E2E2E2" points="-137.275,-615.411 -167.2,-633.293 -178.91,-626.35 -178.91,-599.233 -148.985,-581.752 
			-137.275,-588.695 		"/>
		<polygon fill="#FFFFFF" points="-148.829,-608.35 -178.91,-626.186 -178.91,-599.348 -148.829,-581.513 		"/>
		<polygon fill="#D6D6D6" points="-148.985,-581.752 -137.275,-588.595 -137.275,-615.172 -148.829,-608.35 		"/>
		
			<ellipse transform="matrix(0.9433 -0.3318 0.3318 0.9433 191.8352 -90.4211)" fill="#333333" cx="-168.862" cy="-606.961" rx="7.545" ry="11.211"/>
		<path fill="#212121" d="M-161.745-609.465c-1.066-3.03-2.886-5.451-4.938-6.896c-1.176-0.427-2.375-0.486-3.491-0.093
			c-3.528,1.241-4.893,6.497-3.049,11.739s6.199,8.486,9.727,7.245c0.103-0.036,0.197-0.087,0.296-0.13
			C-160.769-599.955-160.074-604.715-161.745-609.465z"/>
		<path fill="#333333" d="M-160.83-603.455c-1.117-0.594-2.489-1.077-3.235-1.318c0.13-0.306,0.203-0.663,0.217-1.048
			c0.863,0.256,1.974,0.552,2.987,0.727c-0.101-1.326-0.364-2.704-0.851-4.088c-0.205-0.584-0.446-1.137-0.704-1.673
			c-0.806,0.474-1.7,1.404-2.39,2.219c-0.178-0.216-0.367-0.41-0.57-0.56c0.591-0.559,1.868-1.845,2.309-2.882
			c-0.428-0.721-0.896-1.389-1.403-1.986c-1.537-0.572-3.754-0.758-4.442-0.066c-0.801,0.806,0.803,3.513,1.594,4.732
			c-0.124,0.08-0.237,0.176-0.336,0.291c-1.075-1.405-3.177-3.948-4.089-3.62c-1.25,0.45-1.875,5.085-0.75,6.049
			c0.753,0.645,2.959,0.175,4.338-0.207c0.038,0.291,0.098,0.588,0.203,0.886c0.019,0.055,0.046,0.103,0.067,0.156
			c-1.252,0.025-3.429,0.189-3.87,1.014c-0.626,1.172,2.017,5.031,3.498,4.992c1.026-0.027,1.704-2.532,2.024-4.069
			c0.266,0.124,0.539,0.188,0.805,0.178c-0.018,0.97-0.002,4.303,1.052,5.028c0.491,0.338,1.432,0.176,2.387-0.238
			C-161.301-600.195-160.902-601.742-160.83-603.455z"/>
		
			<ellipse transform="matrix(0.9433 -0.3318 0.3318 0.9433 191.9963 -89.4775)" fill="#14142B" cx="-166.018" cy="-606.961" rx="0.879" ry="1.307"/>
		<polygon fill="#595959" points="-152.776,-591.871 -151.901,-591.35 -151.901,-603.725 -152.776,-604.246 		"/>
		<polygon fill="#595959" points="-154.901,-592.975 -154.026,-592.455 -154.026,-604.83 -154.901,-605.35 		"/>
		<polygon fill="#595959" points="-157.026,-594.172 -156.151,-593.651 -156.151,-606.026 -157.026,-606.547 		"/>
	</g>
	<g>
		<polygon fill="#E2E2E2" points="-220.502,-892.138 -250.427,-910.021 -262.137,-903.078 -262.137,-875.96 -232.212,-858.48 
			-220.502,-865.423 		"/>
		<polygon fill="#FFFFFF" points="-232.056,-885.078 -262.137,-902.913 -262.137,-876.076 -232.056,-858.24 		"/>
		<polygon fill="#D6D6D6" points="-232.212,-858.48 -220.502,-865.322 -220.502,-891.899 -232.056,-885.078 		"/>
		
			<ellipse transform="matrix(0.9433 -0.3318 0.3318 0.9433 278.9437 -133.7163)" fill="#4C4C4C" cx="-252.089" cy="-883.688" rx="7.545" ry="11.211"/>
		<path fill="#2B2B2B" d="M-244.972-886.192c-1.066-3.03-2.886-5.451-4.938-6.896c-1.176-0.427-2.375-0.486-3.491-0.093
			c-3.528,1.241-4.893,6.497-3.049,11.739c1.844,5.242,6.199,8.486,9.727,7.245c0.103-0.036,0.197-0.087,0.296-0.13
			C-243.996-876.682-243.301-881.442-244.972-886.192z"/>
		<path fill="#3F3F3F" d="M-244.057-880.182c-1.117-0.594-2.489-1.077-3.235-1.318c0.13-0.306,0.203-0.663,0.217-1.048
			c0.863,0.256,1.974,0.552,2.987,0.727c-0.101-1.326-0.364-2.704-0.851-4.088c-0.205-0.584-0.446-1.137-0.704-1.673
			c-0.806,0.474-1.7,1.404-2.39,2.219c-0.178-0.216-0.367-0.41-0.57-0.56c0.591-0.559,1.868-1.845,2.309-2.882
			c-0.428-0.721-0.896-1.389-1.403-1.986c-1.537-0.572-3.754-0.758-4.442-0.066c-0.801,0.806,0.803,3.513,1.594,4.732
			c-0.124,0.08-0.237,0.176-0.336,0.291c-1.075-1.405-3.177-3.948-4.089-3.62c-1.25,0.45-1.875,5.085-0.75,6.049
			c0.753,0.645,2.959,0.175,4.338-0.207c0.038,0.291,0.098,0.588,0.203,0.886c0.019,0.055,0.046,0.103,0.067,0.156
			c-1.252,0.025-3.429,0.189-3.87,1.014c-0.626,1.172,2.017,5.031,3.498,4.992c1.026-0.027,1.704-2.532,2.024-4.069
			c0.266,0.124,0.539,0.188,0.805,0.178c-0.018,0.97-0.002,4.303,1.052,5.028c0.491,0.338,1.432,0.176,2.387-0.238
			C-244.528-876.922-244.129-878.469-244.057-880.182z"/>
		
			<ellipse transform="matrix(0.9433 -0.3318 0.3318 0.9433 279.1049 -132.7727)" fill="#14142B" cx="-249.246" cy="-883.688" rx="0.879" ry="1.307"/>
		<polygon fill="#565656" points="-236.003,-868.598 -235.128,-868.078 -235.128,-880.453 -236.003,-880.973 		"/>
		<polygon fill="#565656" points="-238.128,-869.703 -237.253,-869.182 -237.253,-881.557 -238.128,-882.078 		"/>
		<polygon fill="#565656" points="-240.253,-870.899 -239.378,-870.379 -239.378,-882.754 -240.253,-883.274 		"/>
	</g>
	<g>
		<polygon fill="#E2E2E2" points="-55.164,-659.971 -25.239,-677.853 -13.528,-670.91 -13.528,-643.792 -43.453,-626.312 
			-55.164,-633.255 		"/>
		<polygon fill="#D6D6D6" points="-43.609,-652.91 -13.528,-670.745 -13.528,-643.908 -43.609,-626.072 		"/>
		<polygon fill="#FFFFFF" points="-43.453,-626.312 -55.164,-633.154 -55.164,-659.731 -43.609,-652.91 		"/>
		
			<ellipse transform="matrix(-0.9433 -0.3318 0.3318 -0.9433 170.3715 -1273.9506)" fill="#333333" cx="-23.576" cy="-651.521" rx="7.545" ry="11.211"/>
		<path fill="#14142B" d="M-30.694-654.024c1.066-3.03,2.886-5.451,4.938-6.896c1.176-0.427,2.375-0.486,3.491-0.093
			c3.528,1.241,4.893,6.497,3.049,11.739s-6.199,8.486-9.727,7.245c-0.103-0.036-0.197-0.087-0.296-0.13
			C-31.67-644.514-32.365-649.274-30.694-654.024z"/>
		<path fill="#333333" d="M-31.609-648.014c1.117-0.594,2.489-1.077,3.235-1.318c-0.13-0.306-0.203-0.663-0.217-1.048
			c-0.863,0.256-1.974,0.552-2.987,0.727c0.101-1.326,0.364-2.704,0.851-4.088c0.205-0.584,0.446-1.137,0.704-1.673
			c0.806,0.474,1.7,1.404,2.39,2.219c0.178-0.216,0.367-0.41,0.57-0.56c-0.591-0.559-1.868-1.845-2.309-2.882
			c0.428-0.721,0.896-1.389,1.403-1.986c1.537-0.572,3.754-0.758,4.442-0.066c0.801,0.806-0.803,3.513-1.594,4.732
			c0.124,0.08,0.237,0.176,0.336,0.291c1.075-1.405,3.177-3.948,4.089-3.62c1.25,0.45,1.875,5.085,0.75,6.049
			c-0.753,0.645-2.959,0.175-4.338-0.207c-0.038,0.291-0.098,0.588-0.203,0.886c-0.019,0.055-0.046,0.103-0.067,0.156
			c1.252,0.025,3.429,0.189,3.87,1.014c0.626,1.172-2.017,5.031-3.498,4.992c-1.026-0.027-1.704-2.532-2.024-4.069
			c-0.266,0.124-0.539,0.188-0.805,0.178c0.018,0.97,0.002,4.303-1.052,5.028c-0.491,0.338-1.432,0.176-2.387-0.238
			C-31.138-644.754-31.537-646.301-31.609-648.014z"/>
		
			<ellipse transform="matrix(-0.9433 -0.3318 0.3318 -0.9433 164.8449 -1274.8942)" fill="#14142B" cx="-26.42" cy="-651.521" rx="0.879" ry="1.307"/>
		<polygon fill="#595959" points="-39.663,-636.43 -40.538,-635.91 -40.538,-648.285 -39.663,-648.805 		"/>
		<polygon fill="#595959" points="-37.538,-637.535 -38.413,-637.014 -38.413,-649.389 -37.538,-649.91 		"/>
		<polygon fill="#595959" points="-35.413,-638.731 -36.288,-638.211 -36.288,-650.586 -35.413,-651.106 		"/>
	</g>
	<polygon fill="#353535" points="35.329,-536.909 34.165,-536.247 34.165,-598.336 35.329,-598.997 	"/>
	<g>
		<path fill="#020202" d="M-242.037-830.483c0.071-0.091,0.111-0.144,0.121-0.156l-0.798-0.603
			c-0.024,0.032-0.243,0.318-0.651,0.827l-0.927-0.319c0.423-0.322,0.676-0.522,0.702-0.543l-0.023-0.028
			c0.876-0.554,1.372-0.888,1.412-0.915l-0.851-1.235c-0.309,0.213-26.715,18.117-67.599,26.33c-2.388-0.18-4.865-0.435-7.416-0.757
			v1.517c0.679,0.085,1.357,0.169,2.024,0.244c-0.668,0.116-1.35,0.22-2.024,0.331v1.518c2.538-0.414,5.046-0.853,7.486-1.341
			c3.378,0.25,6.602,0.369,9.669,0.369c2.147,0,4.215-0.059,6.214-0.166c-7.166,2.606-14.982,5.017-23.368,7.017v1.016
			c9.777-2.32,18.798-5.189,26.914-8.286c11.639-1.006,20.597-3.721,27.21-6.703c3.023-1.363,5.689-2.825,8.029-4.304
			c-2.647,2.636-5.689,5.53-9.111,8.593c-10.474,6.741-27.261,13.496-53.042,14.569v1.493c21.266-0.88,36.53-5.585,47.213-11.006
			c-12.051,10.131-27.862,21.482-47.213,31.354v1.113c21.613-10.971,38.871-23.797,51.445-34.78
			c1.804-1.063,3.453-2.134,4.947-3.194c8.129-5.765,12.933-11.788,15.611-16.041c3.047-3.131,4.407-5.426,4.522-5.625
			L-242.037-830.483z M-304.945-806.817c23.24-5.302,41.355-13.505,52.021-19.15c-7.715,4.979-20.306,12.216-36.75,18.66
			C-294.303-806.833-299.385-806.637-304.945-806.817z M-257.456-813.761c2.129-2.062,4.039-3.991,5.737-5.76
			C-253.303-817.684-255.199-815.735-257.456-813.761z M-246.696-826.462c-0.73,0.834-1.564,1.767-2.492,2.782
			c-3.483,3.175-8.534,6.877-15.484,9.996c-5.401,2.424-12.393,4.666-21.174,5.915c22.519-9.274,37.22-19.71,41.174-22.678
			C-244.928-829.816-245.555-828.396-246.696-826.462z"/>
		<path fill="#020202" d="M-318.068-820.328c21.33-4.669,37.807-12.248,47.082-17.227c-8.248,5.396-23.736,14.295-44.473,20.807
			c-0.855-0.054-1.728-0.129-2.609-0.213v2.039c0.91-0.269,1.831-0.534,2.722-0.813c1.629,0.1,3.215,0.152,4.752,0.152
			c14.157,0,24.446-4.045,31.434-8.427c12.407-7.779,17.395-18.3,17.444-18.405l-0.907-0.421c-0.003,0.007-0.026,0.055-0.069,0.141
			l-0.438-0.635c-0.258,0.177-21.611,14.635-54.938,21.971V-820.328z M-262.909-842.276c-1.194,2.241-6.248,10.814-16.782,17.42
			c-7.185,4.504-17.933,8.635-32.891,8.238c30.228-9.982,48.717-24.713,48.95-24.902l-0.156-0.192
			C-263.406-841.953-263.11-842.144-262.909-842.276z"/>
	</g>
	<path fill="#020202" d="M110.582-572.588c-32.008-15.338-59.958-35.151-81.085-52.383c15.896,7.212,38.526,13.093,70.068,13.093
		c3.552,0,7.234-0.086,11.017-0.242v-1.495c-41.286,1.713-68.583-6.29-86.02-15.436c-5.969-5.001-11.31-9.721-15.954-13.974
		c2.449,1.385,5.123,2.744,8.053,4.036c8.875,3.911,20.877,7.473,36.454,8.82c16.33,6.11,35.337,11.599,56.508,14.944l0.156-0.987
		c-19.701-3.113-37.52-8.089-53.042-13.69c3.151,0.195,6.424,0.311,9.856,0.311c4.149,0,8.512-0.158,13.083-0.488
		c9.731,1.903,20.061,3.408,30.905,4.327v-1.51c-8.798-0.749-17.263-1.878-25.332-3.302c7.104-0.713,14.688-1.842,22.784-3.48
		c0.845,0.148,1.695,0.289,2.548,0.429v-2.51c-1.313,0.28-2.628,0.563-3.916,0.817c-9.219-1.675-17.921-3.832-26.042-6.281
		c5.437-0.473,11.252-1.39,17.454-2.832c4.062,0.594,8.244,1.076,12.504,1.468v-0.999c-3.346-0.309-6.646-0.671-9.87-1.108
		c3.19-0.805,6.479-1.749,9.87-2.842v-1.059c-4.346,1.412-8.53,2.585-12.543,3.524c-53.516-7.871-88.951-31.898-89.333-32.161
		l-0.567,0.823c0.046,0.032,0.6,0.408,1.629,1.057l-0.206,0.254c0.311,0.252,25.107,20.008,65.589,33.205
		c-20.287,0.725-34.816-4.817-44.483-10.868c-16.145-10.104-22.624-23.747-22.687-23.883l-0.907,0.421
		c0.064,0.139,6.642,14.013,23.016,24.28c9.226,5.785,22.805,11.123,41.499,11.123c2.034,0,4.133-0.069,6.29-0.201
		c8.129,2.545,16.861,4.811,26.13,6.599c-8.692,1.624-16.764,2.648-24.261,3.197c-55.409-10.875-91.221-34.6-91.64-34.882
		l-0.837,1.244c0.055,0.037,0.707,0.469,1.92,1.218l-0.082,0.103c0.317,0.25,22.057,17.177,58.613,31.663
		c-12.671-1.608-22.687-4.704-30.341-8.065c-5.901-2.591-10.789-5.484-14.784-8.32c-4.591-4.362-8.205-7.984-10.73-10.582
		c-1.307-2.387-1.84-3.845-1.857-3.891l-1.39,0.491c-0.603-0.646-0.942-1.019-0.982-1.064l-0.744,0.669
		c0.015,0.016,0.075,0.083,0.162,0.178l-0.604,0.358c0.155,0.261,1.989,3.286,6.101,7.412c3.606,5.603,10.09,13.556,21.082,21.172
		c3.434,2.38,7.459,4.806,12.128,7.137c21.603,17.919,50.955,39.103,84.819,55.271V-572.588z M16.047-671.998
		c13.074,7.347,41.544,21.188,79.306,27.162c-6.191,1.319-11.971,2.095-17.367,2.435C47.723-651.902,25.899-665.257,16.047-671.998z
		 M-2.52-659.237c13.782,7.493,40.784,20.266,76.504,27.986c-8.2,0.348-15.644,0.103-22.392-0.56
		C26.029-641.571,7.286-652.748-2.52-659.237z M14.592-635.049c-7.418-5.126-12.761-10.461-16.536-15.088
		c1.853,1.487,3.95,3.022,6.32,4.556c4.471,4.183,9.726,8.929,15.686,14.029C18.092-632.718,16.271-633.889,14.592-635.049z"/>
	<circle fill="#FFFFFF" cx="-64.438" cy="-1138.185" r="2.5"/>
	<circle fill="#FFFFFF" cx="-2.776" cy="-1068.497" r="1.813"/>
	<circle fill="#CCCCCC" cx="-151.358" cy="-1076.497" r="1.062"/>
	<circle fill="#FFFFFF" cx="-169.338" cy="-1098.011" r="1.75"/>
	<circle fill="#CCCCCC" cx="72.371" cy="-1036.529" r="1.219"/>
	<circle fill="#CCCCCC" cx="-54.562" cy="-1170.685" r="1.5"/>
	<circle fill="#CCCCCC" cx="-257.272" cy="-995.087" r="1.062"/>
	<circle fill="#FFFFFF" cx="-296.421" cy="-1023.018" r="1.75"/>
	<polygon opacity="0.2" fill="#020202" points="-166.018,-591.702 -158.092,-576.346 -134.623,-562.958 -134.111,-609.694 
		-137.275,-615.172 -137.275,-588.595 -148.985,-581.752 	"/>
	<polygon opacity="0.2" fill="#020202" points="-250.182,-868.976 -245.288,-858.24 -223.755,-844.847 -213.158,-850 
		-212.997,-881.526 -220.502,-891.899 -220.502,-865.322 -232.056,-858.24 	"/>
	<path opacity="0.2" fill="#404066" d="M-275.166-671.372c0,0,6.197,17.956,15.801,18.585c13.375,0.875,7.321,19.288,20.213,20.282
		c9.572,0.738,13.021,28.26,13.021,28.26l0,0v-59.36l-48.883-28.559L-275.166-671.372z"/>
	<path opacity="0.1" fill="#FFFFFF" d="M-170.013-838.298c0,0,5.045,16.997,14.65,17.625c13.375,0.875,8.375,12.25,21,21.5
		c7.744,5.674,9.661,27.843,9.661,27.843l3.796,2.157l0-11.811l-0.339-54.141l-48.768-28.828V-838.298z"/>
	<path opacity="0.1" fill="#070707" d="M-109.048-770.56l50.022-27.704l-0.226-36.082c0,0-22.892,13.185-23.739,25.298
		c-0.847,12.113-10.92,5.81-14.508,15.461c-3.588,9.652-11.266,12.006-11.266,12.006L-109.048-770.56z"/>
	<path opacity="0.1" fill="#070707" d="M-0.597-612.765l50.022-27.704l-0.226-36.082c0,0-22.892,13.185-23.739,25.298
		c-0.847,12.113-10.92,5.81-14.508,15.461c-3.588,9.652-11.266,12.006-11.266,12.006L-0.597-612.765z"/>
	<path opacity="0.1" fill="#404066" d="M-75.865-622.898c0,0-8.952,20.481-18.557,21.109c-13.375,0.875-7.321,19.288-20.213,20.282
		c-9.572,0.738-13.021,28.26-13.021,28.26l0,0v-59.359l51.639-31.084L-75.865-622.898z"/>
	<polygon fill="#E2E2E2" points="-106.373,-514.567 -115.287,-509.637 -115.287,-510.926 -106.373,-515.855 	"/>
	<polyline fill="#F99055" points="-111.909,-510.376 -108.44,-512.315 -108.44,-511.027 -111.909,-509.088 	"/>
	<polygon fill="#211E1D" points="-103.129,-501.839 -103.129,-495.886 -97.83,-498.934 -97.83,-505.023 	"/>
	<polygon fill="#EAB03D" points="97.956,-832.834 90.662,-726.239 83.674,-713.48 77.532,-725.005 81.912,-736.093 74.327,-847.847 
			"/>
	<polygon fill="#EAB03D" points="74.327,-731.018 87.162,-706.935 74.327,-714.352 	"/>
	<polygon fill="#4E4E68" points="76.28,-724.81 76.28,-715.31 83.367,-710.935 81.345,-714.316 88.912,-727.56 95.426,-831.188 
		76.787,-843 83.367,-735.24 77.75,-721.301 	"/>
	<circle fill="#FFFFFF" cx="86.217" cy="-828.726" r="1.729"/>
	<circle fill="#FFFFFF" cx="86.474" cy="-815.518" r="1.729"/>
	<circle fill="#FFFFFF" cx="86.474" cy="-802.365" r="1.729"/>
	<circle fill="#FFFFFF" cx="86.203" cy="-789.131" r="1.729"/>
	<circle fill="#FFFFFF" cx="86.203" cy="-776.193" r="1.729"/>
	<circle fill="#FFFFFF" cx="86.203" cy="-763.041" r="1.729"/>
	<circle fill="#FFFFFF" cx="86.717" cy="-750.352" r="1.729"/>
	<circle fill="#FFFFFF" cx="86.217" cy="-735.846" r="1.729"/>
	<circle fill="#FFFFFF" cx="82.596" cy="-724.261" r="1.729"/>
	<polygon fill="#201F3F" points="-204.235,-539.936 -198.38,-536.415 -177.034,-549.16 -177.034,-576.278 -182.889,-579.8 
		-204.235,-566.652 	"/>
	<polygon fill="#AF5954" points="-198.535,-563.013 -177.034,-576.114 -177.034,-549.276 -198.535,-536.175 	"/>
	<polygon fill="#12121E" points="-198.38,-536.415 -204.235,-539.836 -204.235,-566.413 -198.535,-563.013 	"/>
	<polygon fill="#FFFFFF" points="-180.505,-552.265 -193.545,-544.414 -193.545,-547.641 -180.505,-555.492 	"/>
	<polygon fill="#EAB03D" points="-180.505,-558.004 -193.545,-550.154 -193.545,-553.381 -180.505,-561.231 	"/>
	<path fill="#FFFFFF" d="M-180.505-564.455l-13.04,7.851l0,0c0,0,1.295-6.888,6.051-9.69
		C-182.737-569.097-180.505-564.455-180.505-564.455L-180.505-564.455z"/>
	<g>
		<path fill="#FFFFFF" d="M-101.229-540.525l-0.057-2.186l1.239-0.759l-0.222-8.566l-1.239,0.759l-0.057-2.186l4.785-2.931
			l0.057,2.186l-1.039,0.636l0.073,2.837l2.699-1.653l-0.073-2.837l-1.004,0.615l-0.057-2.186l4.75-2.91l0.057,2.186l-1.239,0.759
			l0.222,8.566l1.239-0.759l0.057,2.186l-4.75,2.91l-0.057-2.186l1.004-0.615l-0.092-3.535l-2.699,1.653l0.092,3.535l1.039-0.636
			l0.057,2.186L-101.229-540.525z"/>
		<path fill="#FFFFFF" d="M-82.501-554.103l0.054,2.074l-3.311,2.028l-0.018-0.711c-0.579,0.924-1.199,1.588-1.859,1.993
			c-0.684,0.419-1.28,0.526-1.79,0.322c-0.508-0.206-0.774-0.735-0.797-1.591c-0.022-0.861,0.22-1.744,0.727-2.646
			c0.507-0.903,1.173-1.608,2-2.114c0.46-0.282,0.994-0.454,1.6-0.517l-0.014-0.549c-0.012-0.458-0.141-0.762-0.386-0.912
			c-0.245-0.148-0.567-0.101-0.966,0.143c-0.494,0.303-0.91,0.796-1.25,1.483l-1.784,0.667c0.477-1.734,1.571-3.126,3.285-4.176
			c0.665-0.407,1.218-0.647,1.659-0.719c0.443-0.073,0.774-0.019,0.996,0.161c0.222,0.179,0.38,0.426,0.479,0.741
			c0.097,0.316,0.157,0.888,0.178,1.719l0.085,3.283L-82.501-554.103z M-85.844-553.331c-0.543-0.107-0.974-0.064-1.292,0.13
			c-0.252,0.154-0.479,0.391-0.68,0.709c-0.201,0.319-0.297,0.661-0.288,1.027c0.008,0.329,0.099,0.56,0.271,0.694
			c0.172,0.133,0.389,0.121,0.65-0.04c0.408-0.25,0.861-0.845,1.357-1.786L-85.844-553.331z"/>
		<path fill="#FFFFFF" d="M-82.145-559.253l-0.054-2.075l3.339-2.045l0.019,0.735c0.735-1.042,1.473-1.79,2.213-2.244
			c0.888-0.543,1.587-0.557,2.098-0.037c0.866-1.363,1.784-2.34,2.752-2.934c0.574-0.351,1.043-0.5,1.41-0.444
			c0.366,0.057,0.621,0.277,0.766,0.661c0.145,0.384,0.229,1.047,0.254,1.988l0.089,3.433l1.14-0.698l0.054,2.074l-3.34,2.046
			l-0.137-5.273c-0.024-0.943-0.347-1.224-0.969-0.843c-0.489,0.299-1.013,0.829-1.572,1.586l0.104,4l1.139-0.698l0.054,2.074
			l-3.339,2.045l-0.135-5.19c-0.026-0.998-0.338-1.313-0.937-0.947c-0.465,0.285-0.994,0.817-1.586,1.595l0.104,4l1.139-0.698
			l0.054,2.074l-4.479,2.743l-0.054-2.074l1.139-0.698l-0.126-4.854L-82.145-559.253z"/>
		<path fill="#FFFFFF" d="M-64.823-575.967l0.129,4.953c0.529-1.165,1.171-1.979,1.926-2.441c0.883-0.541,1.612-0.544,2.188-0.008
			c0.576,0.536,0.882,1.485,0.917,2.85c0.038,1.457-0.209,2.773-0.74,3.945c-0.532,1.172-1.219,2.017-2.065,2.534
			c-0.759,0.465-1.441,0.487-2.045,0.066l0.027,1.038l-3.397,2.081l-0.054-2.074l1.197-0.733l-0.228-8.79l-1.197,0.733l-0.054-2.073
			L-64.823-575.967z M-61.921-569.25c-0.02-0.769-0.157-1.274-0.408-1.517c-0.252-0.242-0.579-0.241-0.978,0.003
			c-0.38,0.232-0.699,0.624-0.96,1.174c-0.26,0.549-0.38,1.259-0.357,2.128c0.019,0.731,0.161,1.227,0.426,1.486
			c0.265,0.261,0.597,0.269,0.996,0.024c0.384-0.235,0.699-0.634,0.945-1.194C-62.011-567.705-61.899-568.406-61.921-569.25z"/>
		<path fill="#FFFFFF" d="M-50.416-573.755l0.054,2.074l-3.311,2.028l-0.02-0.767c-0.645,1.002-1.307,1.711-1.986,2.127
			c-0.665,0.407-1.192,0.483-1.582,0.228c-0.39-0.257-0.597-0.829-0.62-1.717l-0.111-4.265l-1.033,0.632l-0.054-2.075l3.227-1.976
			l0.146,5.609c0.012,0.446,0.072,0.72,0.18,0.82c0.109,0.1,0.301,0.065,0.576-0.103c0.371-0.227,0.771-0.689,1.202-1.388
			l-0.105-4.055l-1.061,0.65l-0.054-2.075l3.261-1.998l0.18,6.93L-50.416-573.755z"/>
		<path fill="#FFFFFF" d="M-44.964-577.094l0.054,2.074l-4.85,2.97l-0.054-2.074l1.275-0.781l-0.126-4.854l-1.197,0.733
			l-0.054-2.075l3.212-1.967l0.059,2.289c0.106-0.732,0.373-1.475,0.799-2.225c0.427-0.75,0.939-1.306,1.538-1.673
			c0.099-0.061,0.218-0.131,0.356-0.21l0.07,2.718c-0.556,0.34-1.007,0.698-1.354,1.073c-0.347,0.377-0.628,0.909-0.841,1.594
			c-0.214,0.686-0.311,1.4-0.292,2.143l0.029,1.107L-44.964-577.094z"/>
		<path fill="#FFFFFF" d="M-35.121-590.163l0.054,2.075l-1.139,0.698l0.173,6.655c0.077,2.973-1.086,5.196-3.488,6.667
			c-1.377,0.843-2.411,1.145-3.102,0.906l1.018-2.56c0.567,0.106,1.131-0.012,1.691-0.355c0.489-0.3,0.897-0.716,1.222-1.25
			c0.326-0.534,0.477-1.275,0.452-2.225l-0.018-0.688c-0.695,1.276-1.382,2.122-2.061,2.538c-0.797,0.488-1.489,0.469-2.074-0.056
			c-0.584-0.528-0.896-1.467-0.93-2.818c-0.036-1.358,0.226-2.647,0.782-3.867c0.557-1.22,1.253-2.085,2.089-2.597
			c0.802-0.491,1.475-0.483,2.018,0.026l-0.028-1.104L-35.121-590.163z M-38.336-583.592c-0.019-0.726-0.158-1.224-0.416-1.495
			c-0.257-0.27-0.601-0.274-1.028-0.013c-0.437,0.268-0.764,0.689-0.984,1.264c-0.219,0.575-0.319,1.204-0.301,1.886
			c0.018,0.683,0.152,1.165,0.403,1.45c0.25,0.284,0.584,0.298,1.002,0.042c0.385-0.236,0.707-0.636,0.964-1.2
			C-38.437-582.222-38.317-582.866-38.336-583.592z"/>
		<path fill="#FFFFFF" d="M-29.079-587.475l1.728-0.331c-0.678,1.909-1.78,3.33-3.304,4.264c-1.215,0.744-2.174,0.906-2.877,0.486
			c-0.704-0.419-1.073-1.313-1.108-2.676c-0.036-1.39,0.285-2.764,0.964-4.125c0.678-1.36,1.561-2.373,2.648-3.039
			c0.789-0.483,1.477-0.641,2.064-0.471c0.587,0.169,1.003,0.573,1.247,1.212c0.243,0.638,0.377,1.435,0.402,2.39l-5.134,3.145
			c0.054,0.799,0.268,1.257,0.64,1.375c0.372,0.118,0.759,0.055,1.163-0.193C-30.119-585.761-29.597-586.44-29.079-587.475z
			 M-29.571-590.01c-0.065-0.47-0.226-0.805-0.485-1.006c-0.259-0.201-0.605-0.169-1.036,0.095
			c-0.808,0.495-1.262,1.388-1.363,2.678L-29.571-590.01z"/>
		<path fill="#FFFFFF" d="M-21.681-591.355l0.054,2.074l-4.85,2.971l-0.054-2.074l1.275-0.781l-0.126-4.854l-1.197,0.733
			l-0.054-2.075l3.212-1.967l0.059,2.289c0.106-0.733,0.373-1.475,0.799-2.225c0.428-0.75,0.939-1.306,1.538-1.673
			c0.099-0.061,0.218-0.131,0.356-0.21l0.07,2.718c-0.555,0.34-1.006,0.698-1.354,1.073c-0.347,0.377-0.628,0.908-0.841,1.593
			c-0.214,0.686-0.311,1.4-0.292,2.144l0.029,1.107L-21.681-591.355z"/>
	</g>
	<g>
		<path fill="#EAB03D" d="M-72.227-546.95l-0.037-1.416l0.831-0.509l-0.144-5.547l-0.831,0.509l-0.037-1.415l3.217-1.971
			l1.535,4.045l1.288-5.774l3.279-2.008l0.037,1.415l-0.83,0.509l0.144,5.547l0.83-0.509l0.037,1.416l-3.228,1.977l-0.037-1.416
			l0.775-0.474l-0.144-5.547l-0.152,0.093l-1.807,8.18l-0.691,0.423l-2.191-5.731l-0.152,0.093l0.144,5.547l0.839-0.514l0.037,1.416
			L-72.227-546.95z"/>
		<path fill="#EAB03D" d="M-58.853-556.928l1.119-0.214c-0.439,1.236-1.153,2.157-2.14,2.761c-0.787,0.482-1.408,0.586-1.863,0.315
			c-0.455-0.272-0.694-0.85-0.717-1.733c-0.023-0.899,0.185-1.791,0.624-2.67c0.44-0.881,1.011-1.537,1.715-1.969
			c0.51-0.312,0.956-0.414,1.336-0.306c0.38,0.111,0.649,0.373,0.808,0.786c0.157,0.414,0.244,0.93,0.26,1.547l-3.324,2.036
			c0.035,0.517,0.173,0.813,0.414,0.892c0.242,0.076,0.493,0.035,0.754-0.125C-59.527-555.818-59.188-556.259-58.853-556.928z
			 M-59.172-558.568c-0.042-0.305-0.146-0.523-0.314-0.653c-0.167-0.129-0.391-0.109-0.67,0.063
			c-0.522,0.32-0.817,0.898-0.883,1.734L-59.172-558.568z"/>
		<path fill="#EAB03D" d="M-57.201-560.712l-0.035-1.343l2.107-1.291l0.014,0.541c0.419-0.684,0.85-1.162,1.293-1.433
			c0.9-0.551,1.37-0.077,1.409,1.425l0.06,2.324l0.674-0.413l0.035,1.344l-2.099,1.285l-0.092-3.529
			c-0.008-0.317-0.046-0.514-0.116-0.589c-0.069-0.077-0.179-0.068-0.33,0.024c-0.265,0.162-0.531,0.454-0.802,0.876l0.068,2.632
			l0.687-0.42l0.035,1.344l-2.794,1.711l-0.035-1.344l0.683-0.418l-0.082-3.144L-57.201-560.712z"/>
		<path fill="#EAB03D" d="M-45.978-564.392l0.035,1.344l-2.144,1.313l-0.013-0.497c-0.417,0.649-0.846,1.108-1.286,1.378
			c-0.431,0.264-0.772,0.313-1.024,0.147c-0.253-0.167-0.386-0.537-0.401-1.112l-0.072-2.762l-0.668,0.41l-0.035-1.343l2.088-1.279
			l0.094,3.631c0.007,0.289,0.047,0.466,0.117,0.531c0.07,0.065,0.195,0.042,0.374-0.067c0.24-0.146,0.499-0.446,0.778-0.898
			l-0.068-2.626l-0.687,0.421l-0.035-1.343l2.111-1.293l0.116,4.486L-45.978-564.392z"/>
	</g>
	<g>
		<polygon fill="#FFFFFF" points="-106.615,-534.609 -115.555,-529.226 -115.555,-531.439 -106.615,-536.821 		"/>
		<polygon fill="#EAB03D" points="-106.615,-538.544 -115.555,-533.161 -115.555,-535.374 -106.615,-540.756 		"/>
		<path fill="#FFFFFF" d="M-106.615-542.966l-8.94,5.382l0,0c0,0,0.888-4.722,4.149-6.643
			C-108.146-546.148-106.615-542.966-106.615-542.966L-106.615-542.966z"/>
	</g>
	<g>
		<polygon fill="#FFFFFF" points="-5.964,-594.779 -14.904,-589.397 -14.904,-591.609 -5.964,-596.991 		"/>
		<polygon fill="#EAB03D" points="-5.964,-598.714 -14.904,-593.331 -14.904,-595.544 -5.964,-600.926 		"/>
		<path fill="#FFFFFF" d="M-5.964-603.137l-8.94,5.382l0,0c0,0,0.888-4.722,4.149-6.643C-7.494-606.319-5.964-603.137-5.964-603.137
			L-5.964-603.137z"/>
	</g>
	<polygon fill="#EAB03D" points="-101.216,-533.655 -74.42,-549.891 -74.42,-551.076 -101.216,-534.84 	"/>
	<polygon fill="#EAB03D" points="-44.893,-566.626 -18.755,-582.469 -18.755,-583.654 -44.893,-567.811 	"/>
	<polygon fill="#5D826C" points="19.106,-527.497 7.396,-534.34 7.396,-596.506 18.951,-589.685 	"/>
	<g>
		
			<rect x="-275.053" y="-725.295" transform="matrix(0.8626 -0.5059 0.5059 0.8626 335.3684 -214.7414)" fill="#5E4F4D" width="94.782" height="1"/>
		
			<rect x="-263.625" y="-719.245" transform="matrix(0.8626 -0.5059 0.5059 0.8626 333.8781 -208.1291)" fill="#5E4F4D" width="94.782" height="1"/>
		
			<rect x="-253.914" y="-712.982" transform="matrix(0.8626 -0.5059 0.5059 0.8626 332.0464 -202.3587)" fill="#5E4F4D" width="94.783" height="1"/>
		
			<rect x="-242.486" y="-706.932" transform="matrix(0.8626 -0.5059 0.5059 0.8626 330.5561 -195.7464)" fill="#5E4F4D" width="94.783" height="1"/>
		
			<rect x="-231.235" y="-699.741" transform="matrix(0.8626 -0.5059 0.5059 0.8626 328.4639 -189.0672)" fill="#5E4F4D" width="94.783" height="1"/>
		
			<rect x="-219.806" y="-693.691" transform="matrix(0.8626 -0.5059 0.5059 0.8626 326.9713 -182.4523)" fill="#5E4F4D" width="94.782" height="1"/>
		
			<rect x="-210.096" y="-687.428" transform="matrix(0.8626 -0.5059 0.5059 0.8626 325.1394 -176.6819)" fill="#5E4F4D" width="94.783" height="1"/>
		
			<rect x="-198.667" y="-681.378" transform="matrix(0.8626 -0.5059 0.5059 0.8626 323.6492 -170.0694)" fill="#5E4F4D" width="94.783" height="1"/>
		
			<rect x="-187.303" y="-672.991" transform="matrix(0.8645 -0.5026 0.5026 0.8645 318.6363 -163.0008)" fill="#5E4F4D" width="88.591" height="1"/>
		
			<rect x="-184.561" y="-698.892" transform="matrix(0.8632 -0.5048 0.5048 0.8632 341.9901 -134.4605)" fill="#5E4F4D" width="214.803" height="1"/>
		
			<rect x="-174.85" y="-692.629" transform="matrix(0.8632 -0.5048 0.5048 0.8632 340.1562 -128.7018)" fill="#5E4F4D" width="214.802" height="1"/>
	</g>
	<g>
		<polygon fill="#09090C" points="-271.62,-734.059 -260.134,-727.664 -249.12,-734.059 -261.045,-740.134 		"/>
		<polygon fill="#12121E" points="-266.315,-707.72 -259.756,-704.069 -253.467,-707.72 -260.277,-711.189 		"/>
		<polygon fill="#D6D6E5" points="-271.62,-734.059 -266.315,-707.72 -259.756,-704.069 -260.134,-727.664 		"/>
		<polygon fill="#7A7A91" points="-249.12,-734.059 -253.467,-707.72 -259.756,-704.069 -260.134,-727.664 		"/>
	</g>
	<g>
		<polygon fill="#09090C" points="-141.13,-662.685 -129.644,-656.29 -118.63,-662.685 -130.555,-668.761 		"/>
		<polygon fill="#12121E" points="-135.826,-636.346 -129.267,-632.695 -122.978,-636.346 -129.787,-639.816 		"/>
		<polygon fill="#D6D6E5" points="-141.13,-662.685 -135.826,-636.346 -129.267,-632.695 -129.644,-656.29 		"/>
		<polygon fill="#7A7A91" points="-118.63,-662.685 -122.978,-636.346 -129.267,-632.695 -129.644,-656.29 		"/>
	</g>
	<g>
		<polygon fill="#303030" points="-226.131,-693.518 -282.921,-725.518 -282.921,-731.018 -226.131,-699.018 		"/>
		<polygon fill="#1E1B1A" points="-281.421,-731.518 -282.921,-731.018 -226.131,-699.018 -226.131,-701.018 		"/>
		<polygon fill="#303030" points="-226.131,-684.102 -282.921,-716.102 -282.921,-721.602 -226.131,-689.602 		"/>
		<polygon fill="#1E1B1A" points="-281.421,-722.102 -282.921,-721.602 -226.131,-689.602 -226.131,-691.602 		"/>
		<polygon fill="#303030" points="-226.131,-674.852 -282.921,-706.852 -282.921,-712.352 -226.131,-680.352 		"/>
		<polygon fill="#1E1B1A" points="-281.421,-712.852 -282.921,-712.352 -226.131,-680.352 -226.131,-682.352 		"/>
	</g>
	<g>
		<polygon fill="#EAEAEA" points="-134.044,-646.679 -226.131,-701.018 -226.131,-671.683 -134.044,-617.343 		"/>
		<polygon fill="#ACACC6" points="-134.044,-646.679 -128.012,-649.852 -128.012,-620.651 -134.044,-617.147 		"/>
		<polygon fill="#9F9FB7" points="-221.421,-703.685 -128.012,-649.852 -134.044,-646.679 -226.131,-701.018 		"/>
	</g>
	<g>
		<polygon opacity="0.3" fill="#020202" points="-218.624,-732.919 -175.836,-707.908 -156.674,-719.034 -200.226,-743.49 		"/>
		<polygon opacity="0.3" fill="#020202" points="-238.796,-717.013 -219.007,-704.91 -198.453,-716.844 -219.061,-728.351 		"/>
		<polygon fill="#545456" points="-233.715,-717.31 -227.085,-713.256 -220.2,-717.254 -227.104,-721.109 		"/>
		<polygon fill="#6E6E82" points="-227.085,-712.365 -233.715,-716.419 -233.715,-717.31 -227.085,-713.256 		"/>
		<polygon fill="#6E6E82" points="-220.2,-716.419 -227.085,-712.365 -227.085,-713.256 -220.2,-717.31 		"/>
		<path fill="#6A6A72" d="M-228.2-726.085v9.377c0,0.467,0.686,0.845,1.531,0.845c0.846,0,1.531-0.378,1.531-0.845v-9.377H-228.2z"
			/>
		<polygon fill="#809B8B" points="-219.201,-740.135 -176.413,-715.124 -157.25,-726.25 -200.803,-750.706 		"/>
		<polygon fill="#809B8B" points="-228.4,-755 -220.982,-741.62 -201.819,-752.746 -210.002,-765.571 		"/>
		<polygon fill="#9EB2A6" points="-219.201,-740.135 -219.201,-737.492 -176.413,-712.365 -176.413,-715.124 		"/>
		<polygon fill="#6F8979" points="-176.413,-715.124 -176.413,-712.365 -157.25,-723.881 -157.25,-726.25 		"/>
		<polygon fill="#9EB2A6" points="-220.982,-741.62 -221.997,-739.891 -229.457,-753.595 -228.4,-755 		"/>
		<polygon fill="#454559" points="-201.819,-752.746 -202.716,-751.146 -221.997,-739.891 -220.982,-741.62 		"/>
		<path fill="#D96D63" d="M-203.501-748.223c-1.701,5.889-6.327,13-6.327,13.567c0,0.567-0.481,0.975,0,2.669
			c0.481,1.693,0.045,2.653-0.391,3.656c2.26-0.932,2.792-0.96,4.231,0.742c1.117,1.32,5.237,0.337,5.929,1.339
			c1.487,2.151,6.78,2.28,7.841,1.888c1.061-0.392,6.768-15.822,5.511-17.258C-187.963-743.055-201.233-745.867-203.501-748.223z"/>
		<polygon fill="#1E1B1A" points="-242.159,-731.477 -226.669,-722.003 -210.58,-731.345 -226.711,-740.352 		"/>
		<polygon fill="#3F3B3A" points="-226.669,-719.921 -242.159,-729.395 -242.159,-731.477 -226.669,-722.003 		"/>
		<polygon fill="#3F3B3A" points="-210.58,-729.395 -226.669,-719.921 -226.669,-722.003 -210.58,-731.477 		"/>
		<g>
			<polygon fill="#56566D" points="-226.908,-730.384 -220.298,-728.661 -216.767,-732.329 -216.875,-732.707 -223.51,-733.881 			
				"/>
			<polygon fill="#D8A252" points="-227.263,-731.626 -220.653,-729.903 -217.121,-733.571 -223.865,-735.123 			"/>
			<polygon fill="#CECECE" points="-226.79,-731.503 -226.494,-730.466 -220.378,-728.877 -220.653,-729.903 			"/>
			<polygon fill="#9A9AA5" points="-216.826,-732.535 -220.361,-728.881 -220.653,-729.903 -217.117,-733.556 			"/>
		</g>
		<g>
			<path fill="#D96D63" d="M-230.511-737.706l0.604,3.68c0,0.259,0.457,0.47,1.02,0.47c0.563,0,1.02-0.21,1.02-0.47l0.604-3.68
				H-230.511z"/>
			<ellipse fill="#D8D8D8" cx="-228.887" cy="-737.706" rx="1.624" ry="0.748"/>
		</g>
	</g>
	<g>
		<path fill="#4C765E" d="M-260.38-745.505c0,0-4.944-16.133-2.569-21.063c2.375-4.929,4.125-3.792,6.5-6.75
			c2.375-2.958-0.625-12.759,2.5-16.949c3.125-4.19,17.375-2.041,22.125-5.046c-3.25,6.87-1.231,17.114-3.803,20.992
			c-2.572,3.878-6.947,6.378-8.447,8.003c-1.5,1.625-1.75,4.491-2.75,8.996C-247.825-752.818-260.38-745.505-260.38-745.505z"/>
		<path fill="#14332F" d="M-262.575-732.318c0,0,2.107-37.169,19-50.836c-15.856,14.083-16.5,50.836-16.5,50.836H-262.575z"/>
		<path fill="#38544F" d="M-254.397-744.69c0,0,0.647-11.904,3.61-14.871s2.983-2.589,5.522-4.141
			c2.539-1.552,3.487-7.351,6.892-9.606c3.405-2.256,11.267,3.111,15.719,2.096c-4.082,4.149-3.311,9.076-6.206,11.241
			c-2.895,2.165-5.866,1.549-7.417,2.355c-1.551,0.806-4.828,3.239-6.598,6.231C-244.644-748.394-254.397-744.69-254.397-744.69z"/>
		<path fill="#183833" d="M-261.176-733.035c0,0,8.516-26.315,28.623-34.554c-19.233,8.937-26.228,35.272-26.228,35.272
			L-261.176-733.035z"/>
		<path fill="#456B54" d="M-262.97-746.361c0,0,3.631-11.355,1.917-15.182c-1.714-3.827-1.867-3.481-3.688-5.835
			c-1.821-2.354-0.644-8.11-3.023-11.43c-2.38-3.32-11.637-1.101-15.437-3.634c2.339,5.33-0.135,9.66,1.8,12.713
			c1.935,3.053,4.931,3.535,6.094,4.84c1.163,1.305,3.36,4.745,3.95,8.17C-270.767-753.292-262.97-746.361-262.97-746.361z"/>
		<path fill="#183833" d="M-260.626-733.029c0,0,1.248-27.651-14.612-42.506c14.795,15.195,12.118,42.325,12.118,42.325
			L-260.626-733.029z"/>
	</g>
	<g>
		<path fill="#4C765E" d="M-130.99-676.282c0,0-7.102-17.872-4.858-23.69s4.337-4.687,6.762-8.266
			c2.426-3.579-1.885-14.437,1.279-19.484c3.164-5.048,19.55-3.918,24.669-7.769c-3.059,8.103,0.177,19.554-2.387,24.196
			c-2.565,4.642-7.304,7.885-8.859,9.869c-1.554,1.984-1.574,5.263-2.296,10.472C-117.401-685.745-130.99-676.282-130.99-676.282z"
			/>
		<path fill="#14332F" d="M-132.269-661.1c0,0-1.029-42.417,16.903-59.497c-16.716,17.458-14.063,59.267-14.063,59.267
			L-132.269-661.1z"/>
		<path fill="#38544F" d="M-124.118-675.908c0,0-0.362-13.582,2.731-17.225c3.093-3.643,3.15-3.216,5.892-5.213
			s3.284-8.671,6.945-11.547c3.66-2.876,13.086,2.497,18.05,0.934c-4.255,5.089-2.925,10.615-6.014,13.341
			c-3.089,2.726-6.521,2.3-8.209,3.358c-1.688,1.058-5.186,4.124-6.922,7.685S-124.118-675.908-124.118-675.908z"/>
		<path fill="#183833" d="M-130.746-662.044c0,0,7.251-30.677,29.333-41.888c-21.025,11.922-26.547,42.483-26.547,42.483
			L-130.746-662.044z"/>
		<path fill="#456B54" d="M-134.011-677.017c0,0,3.079-13.234,0.78-17.423s-2.441-3.783-4.726-6.289
			c-2.285-2.507-1.478-9.154-4.487-12.706c-3.009-3.552-13.321-0.179-17.87-2.706c3.147,5.839,0.736,10.986,3.215,14.276
			s5.926,3.562,7.368,4.937s4.254,5.08,5.239,8.918C-143.507-684.173-134.011-677.017-134.011-677.017z"/>
		<path fill="#183833" d="M-130.12-662.088c0,0-1.128-31.526-20.512-46.94c18.206,15.898,17.663,46.964,17.663,46.964
			L-130.12-662.088z"/>
	</g>
	<g id="Layer_2_2_" display="none">
	</g>
	<g>
		<polygon fill="#262626" points="-127.831,-642.228 55.086,-749.705 55.086,-755.205 -127.831,-647.728 		"/>
		<polygon fill="#3F3F3F" points="53.586,-755.81 55.086,-755.31 -127.831,-647.728 -127.831,-649.728 		"/>
		<polygon fill="#262626" points="-127.831,-632.506 55.086,-739.983 55.086,-745.483 -127.831,-638.006 		"/>
		<polygon fill="#3F3F3F" points="53.586,-746.088 55.086,-745.588 -127.831,-638.006 -127.831,-640.006 		"/>
		<polygon fill="#262626" points="-127.712,-622.264 55.204,-729.74 55.204,-735.24 -127.712,-627.764 		"/>
		<polygon fill="#3F3F3F" points="53.704,-735.846 55.204,-735.346 -127.712,-627.763 -127.712,-629.763 		"/>
	</g>
	<g>
		<g>
			<polygon fill="#09090C" points="-68.878,-680.924 -64.257,-678.492 -38.489,-693.861 -43.599,-695.938 			"/>
			<polygon fill="#D96D63" points="-68.878,-680.924 -68.878,-675.74 -65.092,-673.638 -64.257,-678.492 			"/>
			<polygon fill="#B55D59" points="-38.489,-693.861 -40.116,-688.283 -65.092,-673.638 -64.257,-678.492 			"/>
		</g>
		<g>
			<path fill="#0C1917" d="M-62.817-689.62c1.401,1.545,1.437,6.982,1.437,6.982h0.539c0,0-0.229-5.424-1.703-7.347
				S-64.218-691.165-62.817-689.62z"/>
			<g>
				
					<ellipse transform="matrix(0.9443 -0.329 0.329 0.9443 223.5216 -59.6718)" fill="#EFB659" cx="-64.567" cy="-690.333" rx="1.197" ry="0.703"/>
				
					<ellipse transform="matrix(0.9443 -0.329 0.329 0.9443 224.0318 -59.2503)" fill="#EFB659" cx="-63.066" cy="-691.63" rx="1.317" ry="0.731"/>
				
					<ellipse transform="matrix(0.9443 -0.329 0.329 0.9443 223.8385 -58.7884)" fill="#EFB659" cx="-61.798" cy="-690.827" rx="1.197" ry="0.702"/>
				
					<ellipse transform="matrix(0.9443 -0.329 0.329 0.9443 223.3617 -59.1917)" fill="#EFB659" cx="-63.228" cy="-689.62" rx="1.269" ry="0.756"/>
				
					<ellipse transform="matrix(0.9443 -0.329 0.329 0.9443 223.6691 -59.2618)" fill="#4B4B63" cx="-63.281" cy="-690.564" rx="0.763" ry="0.463"/>
			</g>
		</g>
		<g>
			<path fill="#0C1917" d="M-65.387-686.094c1.009,1.112,1.034,5.028,1.034,5.028h0.388c0,0-0.165-3.905-1.226-5.29
				C-66.252-687.742-66.395-687.207-65.387-686.094z"/>
			<g>
				
					<ellipse transform="matrix(0.9443 -0.329 0.329 0.9443 222.1803 -60.1486)" fill="#EAEAEA" cx="-66.646" cy="-686.608" rx="0.862" ry="0.506"/>
				
					<ellipse transform="matrix(0.9443 -0.329 0.329 0.9443 222.5477 -59.8451)" fill="#EAEAEA" cx="-65.566" cy="-687.541" rx="0.948" ry="0.526"/>
				
					<ellipse transform="matrix(0.9443 -0.329 0.329 0.9443 222.4084 -59.5125)" fill="#EAEAEA" cx="-64.653" cy="-686.964" rx="0.862" ry="0.505"/>
				
					<ellipse transform="matrix(0.9443 -0.329 0.329 0.9443 222.0651 -59.803)" fill="#EAEAEA" cx="-65.683" cy="-686.094" rx="0.914" ry="0.544"/>
				
					<ellipse transform="matrix(0.9443 -0.329 0.329 0.9443 222.2865 -59.8534)" fill="#4B4B63" cx="-65.721" cy="-686.774" rx="0.549" ry="0.333"/>
			</g>
		</g>
		<g>
			<path fill="#0C1917" d="M-57.079-690.872c-1.401,1.545-1.437,6.982-1.437,6.982h-0.539c0,0,0.229-5.424,1.703-7.347
				C-55.877-693.16-55.678-692.417-57.079-690.872z"/>
			<g>
				
					<ellipse transform="matrix(-0.9443 -0.329 0.329 -0.9443 119.9489 -1362.8721)" fill="#EAEAEA" cx="-55.329" cy="-691.584" rx="1.197" ry="0.703"/>
				
					<ellipse transform="matrix(-0.9443 -0.329 0.329 -0.9443 117.4582 -1365.8875)" fill="#EAEAEA" cx="-56.83" cy="-692.881" rx="1.317" ry="0.731"/>
				
					<ellipse transform="matrix(-0.9443 -0.329 0.329 -0.9443 114.728 -1364.7448)" fill="#EAEAEA" cx="-58.098" cy="-692.079" rx="1.197" ry="0.702"/>
				
					<ellipse transform="matrix(-0.9443 -0.329 0.329 -0.9443 117.1119 -1361.9268)" fill="#EAEAEA" cx="-56.668" cy="-690.871" rx="1.269" ry="0.756"/>
				
					<ellipse transform="matrix(-0.9443 -0.329 0.329 -0.9443 117.5257 -1363.7438)" fill="#4B4B63" cx="-56.615" cy="-691.815" rx="0.763" ry="0.463"/>
			</g>
		</g>
		<g>
			<path fill="#0C1917" d="M-51.388-692.436c-1.195,0.923-1.912,4.794-1.912,4.794l-0.384-0.069c0,0,0.853-3.837,2.148-5.021
				S-50.193-693.359-51.388-692.436z"/>
			<g>
				
					<ellipse transform="matrix(-0.8719 -0.4897 0.4897 -0.8719 245.5161 -1321.2188)" fill="#EFB659" cx="-50.05" cy="-692.722" rx="0.867" ry="0.509"/>
				
					<ellipse transform="matrix(-0.8719 -0.4897 0.4897 -0.8719 244.3685 -1323.7494)" fill="#EFB659" cx="-50.955" cy="-693.837" rx="0.954" ry="0.529"/>
				
					<ellipse transform="matrix(-0.8719 -0.4897 0.4897 -0.8719 242.284 -1323.4734)" fill="#EFB659" cx="-51.961" cy="-693.426" rx="0.867" ry="0.508"/>
				
					<ellipse transform="matrix(-0.8719 -0.4897 0.4897 -0.8719 243.3949 -1321.0979)" fill="#EFB659" cx="-51.095" cy="-692.384" rx="0.919" ry="0.547"/>
				
					<ellipse transform="matrix(-0.8719 -0.4897 0.4897 -0.8719 244.0164 -1322.2671)" fill="#4B4B63" cx="-50.937" cy="-693.05" rx="0.552" ry="0.335"/>
			</g>
		</g>
		<g>
			<path fill="#0C1917" d="M-41.991-698.483c-1.005,1.108-1.031,5.009-1.031,5.009h-0.387c0,0,0.164-3.891,1.222-5.271
				C-41.129-700.125-40.986-699.591-41.991-698.483z"/>
			<g>
				
					<ellipse transform="matrix(-0.9443 -0.329 0.329 -0.9443 150.7612 -1372.4786)" fill="#EAEAEA" cx="-40.736" cy="-698.994" rx="0.859" ry="0.504"/>
				
					<ellipse transform="matrix(-0.9443 -0.329 0.329 -0.9443 148.9742 -1374.6421)" fill="#EAEAEA" cx="-41.813" cy="-699.925" rx="0.945" ry="0.525"/>
				
					<ellipse transform="matrix(-0.9443 -0.329 0.329 -0.9443 147.0154 -1373.8223)" fill="#EAEAEA" cx="-42.723" cy="-699.349" rx="0.859" ry="0.503"/>
				
					<ellipse transform="matrix(-0.9443 -0.329 0.329 -0.9443 148.7258 -1371.8007)" fill="#EAEAEA" cx="-41.696" cy="-698.483" rx="0.91" ry="0.542"/>
				
					<ellipse transform="matrix(-0.9443 -0.329 0.329 -0.9443 149.0226 -1373.1041)" fill="#4B4B63" cx="-41.658" cy="-699.16" rx="0.547" ry="0.332"/>
			</g>
		</g>
		<g>
			<path fill="#0C1917" d="M-46.168-696.306c0.795,0.877,0.815,3.963,0.815,3.963h0.306c0,0-0.13-3.079-0.967-4.17
				S-46.963-697.183-46.168-696.306z"/>
			<g>
				
					<ellipse transform="matrix(0.9443 -0.329 0.329 0.9443 226.5889 -54.3005)" fill="#EAEAEA" cx="-47.161" cy="-696.711" rx="0.68" ry="0.399"/>
				
					<ellipse transform="matrix(0.9443 -0.329 0.329 0.9443 226.8786 -54.0613)" fill="#EAEAEA" cx="-46.31" cy="-697.447" rx="0.748" ry="0.415"/>
				
					<ellipse transform="matrix(0.9443 -0.329 0.329 0.9443 226.7688 -53.7991)" fill="#EAEAEA" cx="-45.59" cy="-696.992" rx="0.68" ry="0.398"/>
				
					<ellipse transform="matrix(0.9443 -0.329 0.329 0.9443 226.4982 -54.0281)" fill="#EAEAEA" cx="-46.402" cy="-696.306" rx="0.72" ry="0.429"/>
				
					<ellipse transform="matrix(0.9443 -0.329 0.329 0.9443 226.6727 -54.0678)" fill="#4B4B63" cx="-46.432" cy="-696.842" rx="0.433" ry="0.263"/>
			</g>
		</g>
	</g>
	<g>
		<g>
			<polygon fill="#09090C" points="-36.578,-699.934 -31.957,-697.502 -6.189,-712.871 -11.299,-714.948 			"/>
			<polygon fill="#D96D63" points="-36.578,-699.934 -36.578,-694.75 -32.792,-692.648 -31.957,-697.502 			"/>
			<polygon fill="#B55D59" points="-6.189,-712.871 -7.816,-707.293 -32.792,-692.648 -31.957,-697.502 			"/>
		</g>
		<g>
			<path fill="#0C1917" d="M-30.517-708.63c1.401,1.545,1.437,6.982,1.437,6.982h0.539c0,0-0.229-5.424-1.703-7.347
				S-31.918-710.175-30.517-708.63z"/>
			<g>
				
					<ellipse transform="matrix(0.9443 -0.329 0.329 0.9443 231.5739 -50.1034)" fill="#80809E" cx="-32.266" cy="-709.343" rx="1.197" ry="0.703"/>
				
					<ellipse transform="matrix(0.9443 -0.329 0.329 0.9443 232.0842 -49.6819)" fill="#80809E" cx="-30.766" cy="-710.64" rx="1.317" ry="0.731"/>
				
					<ellipse transform="matrix(0.9443 -0.329 0.329 0.9443 231.8908 -49.22)" fill="#80809E" cx="-29.498" cy="-709.837" rx="1.197" ry="0.702"/>
				
					<ellipse transform="matrix(0.9443 -0.329 0.329 0.9443 231.414 -49.6234)" fill="#80809E" cx="-30.928" cy="-708.63" rx="1.269" ry="0.756"/>
				
					<ellipse transform="matrix(0.9443 -0.329 0.329 0.9443 231.7214 -49.6934)" fill="#4B4B63" cx="-30.981" cy="-709.574" rx="0.763" ry="0.463"/>
			</g>
		</g>
		<g>
			<path fill="#0C1917" d="M-33.086-705.104c1.009,1.112,1.034,5.028,1.034,5.028h0.388c0,0-0.165-3.905-1.226-5.29
				C-33.952-706.752-34.095-706.217-33.086-705.104z"/>
			<g>
				
					<ellipse transform="matrix(0.9443 -0.329 0.329 0.9443 230.2326 -50.5802)" fill="#80809E" cx="-34.346" cy="-705.618" rx="0.862" ry="0.506"/>
				
					<ellipse transform="matrix(0.9443 -0.329 0.329 0.9443 230.6 -50.2768)" fill="#80809E" cx="-33.266" cy="-706.552" rx="0.948" ry="0.526"/>
				
					<ellipse transform="matrix(0.9443 -0.329 0.329 0.9443 230.4608 -49.9441)" fill="#80809E" cx="-32.352" cy="-705.974" rx="0.862" ry="0.505"/>
				
					<ellipse transform="matrix(0.9443 -0.329 0.329 0.9443 230.1174 -50.2346)" fill="#80809E" cx="-33.382" cy="-705.104" rx="0.914" ry="0.544"/>
				
					<ellipse transform="matrix(0.9443 -0.329 0.329 0.9443 230.3388 -50.285)" fill="#4B4B63" cx="-33.421" cy="-705.784" rx="0.549" ry="0.333"/>
			</g>
		</g>
		<g>
			<path fill="#0C1917" d="M-24.779-709.882c-1.401,1.545-1.437,6.982-1.437,6.982h-0.539c0,0,0.229-5.424,1.703-7.347
				C-23.577-712.17-23.378-711.427-24.779-709.882z"/>
			<g>
				
					<ellipse transform="matrix(-0.9443 -0.329 0.329 -0.9443 189.0056 -1389.2072)" fill="#EFB659" cx="-23.029" cy="-710.594" rx="1.197" ry="0.703"/>
				
					<ellipse transform="matrix(-0.9443 -0.329 0.329 -0.9443 186.5149 -1392.2227)" fill="#EFB659" cx="-24.53" cy="-711.891" rx="1.317" ry="0.731"/>
				
					<ellipse transform="matrix(-0.9443 -0.329 0.329 -0.9443 183.7847 -1391.0798)" fill="#EFB659" cx="-25.798" cy="-711.089" rx="1.197" ry="0.702"/>
				
					<ellipse transform="matrix(-0.9443 -0.329 0.329 -0.9443 186.1687 -1388.2621)" fill="#EFB659" cx="-24.368" cy="-709.882" rx="1.269" ry="0.756"/>
				
					<ellipse transform="matrix(-0.9443 -0.329 0.329 -0.9443 186.5824 -1390.0791)" fill="#4B4B63" cx="-24.314" cy="-710.825" rx="0.763" ry="0.463"/>
			</g>
		</g>
		<g>
			<path fill="#0C1917" d="M-19.088-711.446c-1.195,0.923-1.912,4.794-1.912,4.794l-0.384-0.068c0,0,0.853-3.837,2.148-5.021
				C-17.94-712.925-17.893-712.369-19.088-711.446z"/>
			<g>
				
					<ellipse transform="matrix(-0.8719 -0.4897 0.4897 -0.8719 315.2879 -1340.9872)" fill="#EAEAEA" cx="-17.75" cy="-711.732" rx="0.867" ry="0.509"/>
				
					<ellipse transform="matrix(-0.8719 -0.4897 0.4897 -0.8719 314.1404 -1343.5181)" fill="#EAEAEA" cx="-18.655" cy="-712.847" rx="0.954" ry="0.529"/>
				
					<ellipse transform="matrix(-0.8719 -0.4897 0.4897 -0.8719 312.0558 -1343.2418)" fill="#EAEAEA" cx="-19.661" cy="-712.436" rx="0.867" ry="0.508"/>
				
					<ellipse transform="matrix(-0.8719 -0.4897 0.4897 -0.8719 313.1668 -1340.8666)" fill="#EAEAEA" cx="-18.795" cy="-711.394" rx="0.919" ry="0.547"/>
				
					<ellipse transform="matrix(-0.8719 -0.4897 0.4897 -0.8719 313.7883 -1342.0355)" fill="#4B4B63" cx="-18.637" cy="-712.06" rx="0.552" ry="0.335"/>
			</g>
		</g>
		<g>
			<path fill="#0C1917" d="M-9.691-717.493c-1.005,1.108-1.031,5.009-1.031,5.009h-0.387c0,0,0.164-3.891,1.222-5.271
				C-8.829-719.135-8.686-718.602-9.691-717.493z"/>
			<g>
				
					<ellipse transform="matrix(-0.9443 -0.329 0.329 -0.9443 219.8179 -1398.8138)" fill="#EAEAEA" cx="-8.436" cy="-718.004" rx="0.859" ry="0.504"/>
				
					<ellipse transform="matrix(-0.9443 -0.329 0.329 -0.9443 218.0309 -1400.9773)" fill="#EAEAEA" cx="-9.512" cy="-718.935" rx="0.945" ry="0.525"/>
				
					<ellipse transform="matrix(-0.9443 -0.329 0.329 -0.9443 216.0721 -1400.1573)" fill="#EAEAEA" cx="-10.422" cy="-718.359" rx="0.859" ry="0.503"/>
				
					<ellipse transform="matrix(-0.9443 -0.329 0.329 -0.9443 217.7825 -1398.1357)" fill="#EAEAEA" cx="-9.396" cy="-717.493" rx="0.91" ry="0.542"/>
				
					<ellipse transform="matrix(-0.9443 -0.329 0.329 -0.9443 218.0793 -1399.4393)" fill="#4B4B63" cx="-9.358" cy="-718.17" rx="0.547" ry="0.332"/>
			</g>
		</g>
		<g>
			<path fill="#0C1917" d="M-13.868-715.316c0.795,0.877,0.815,3.963,0.815,3.963h0.306c0,0-0.13-3.079-0.967-4.17
				S-14.663-716.193-13.868-715.316z"/>
			<g>
				
					<ellipse transform="matrix(0.9443 -0.329 0.329 0.9443 234.6413 -44.7322)" fill="#80809E" cx="-14.861" cy="-715.721" rx="0.68" ry="0.399"/>
				
					<ellipse transform="matrix(0.9443 -0.329 0.329 0.9443 234.9309 -44.4929)" fill="#80809E" cx="-14.009" cy="-716.457" rx="0.748" ry="0.415"/>
				
					<ellipse transform="matrix(0.9443 -0.329 0.329 0.9443 234.8211 -44.2307)" fill="#80809E" cx="-13.289" cy="-716.002" rx="0.68" ry="0.398"/>
				
					<ellipse transform="matrix(0.9443 -0.329 0.329 0.9443 234.5505 -44.4597)" fill="#80809E" cx="-14.101" cy="-715.316" rx="0.72" ry="0.429"/>
				
					<ellipse transform="matrix(0.9443 -0.329 0.329 0.9443 234.725 -44.4994)" fill="#4B4B63" cx="-14.131" cy="-715.852" rx="0.433" ry="0.263"/>
			</g>
		</g>
	</g>
	<g>
		<g>
			<polygon fill="#09090C" points="-238.893,-704.171 -243.762,-701.739 -270.909,-717.108 -265.526,-719.185 			"/>
			<polygon fill="#B55D59" points="-238.893,-704.171 -238.893,-698.987 -242.882,-696.886 -243.762,-701.739 			"/>
			<polygon fill="#D96D63" points="-270.909,-717.108 -269.195,-711.53 -242.882,-696.886 -243.762,-701.739 			"/>
		</g>
		<g>
			<path fill="#0C1917" d="M-245.279-712.867c-1.476,1.545-1.514,6.982-1.514,6.982h-0.568c0,0,0.241-5.424,1.794-7.347
				S-243.803-714.412-245.279-712.867z"/>
			<g>
				<path fill="#EAEAEA" d="M-244.627-713.974c-0.135,0.367,0.29,0.84,0.947,1.058c0.658,0.218,1.3,0.097,1.435-0.27
					c0.135-0.367-0.29-0.84-0.947-1.058C-243.85-714.461-244.492-714.34-244.627-713.974z"/>
				<path fill="#EAEAEA" d="M-246.327-715.31c-0.14,0.381,0.333,0.884,1.057,1.124c0.724,0.239,1.424,0.124,1.564-0.257
					c0.14-0.381-0.333-0.884-1.057-1.124C-245.487-715.807-246.187-715.691-246.327-715.31z"/>
				<path fill="#EAEAEA" d="M-247.544-714.468c-0.134,0.366,0.29,0.839,0.948,1.056c0.658,0.218,1.3,0.097,1.434-0.269
					s-0.29-0.839-0.948-1.056S-247.41-714.834-247.544-714.468z"/>
				<path fill="#EAEAEA" d="M-246.108-713.285c-0.145,0.394,0.303,0.901,1,1.131s1.38,0.098,1.525-0.296
					c0.145-0.394-0.303-0.901-1-1.131S-245.964-713.679-246.108-713.285z"/>
				<path fill="#4B4B63" d="M-245.549-714.062c-0.089,0.241,0.18,0.549,0.599,0.688c0.419,0.139,0.831,0.055,0.919-0.186
					c0.089-0.241-0.18-0.549-0.599-0.688C-245.049-714.386-245.461-714.303-245.549-714.062z"/>
			</g>
		</g>
		<g>
			<path fill="#0C1917" d="M-242.572-709.342c-1.063,1.112-1.09,5.028-1.09,5.028h-0.409c0,0,0.174-3.905,1.292-5.29
				C-241.66-710.989-241.509-710.454-242.572-709.342z"/>
			<g>
				<path fill="#E5863E" d="M-242.102-710.138c-0.097,0.264,0.209,0.605,0.682,0.762s0.936,0.07,1.033-0.194
					c0.097-0.264-0.209-0.605-0.682-0.762S-242.005-710.402-242.102-710.138z"/>
				<path fill="#E5863E" d="M-243.326-711.101c-0.101,0.275,0.24,0.637,0.761,0.809s1.025,0.089,1.126-0.185
					c0.101-0.275-0.24-0.637-0.761-0.809S-243.226-711.375-243.326-711.101z"/>
				<path fill="#E5863E" d="M-244.203-710.494c-0.097,0.263,0.209,0.604,0.683,0.761c0.474,0.157,0.936,0.07,1.033-0.193
					s-0.209-0.604-0.683-0.761C-243.644-710.845-244.106-710.758-244.203-710.494z"/>
				<path fill="#E5863E" d="M-243.169-709.642c-0.104,0.284,0.218,0.649,0.72,0.815c0.502,0.166,0.994,0.07,1.098-0.213
					c0.104-0.284-0.218-0.649-0.72-0.815C-242.574-710.022-243.065-709.926-243.169-709.642z"/>
				<path fill="#4B4B63" d="M-242.766-710.202c-0.064,0.174,0.129,0.395,0.431,0.495c0.302,0.1,0.598,0.04,0.662-0.134
					s-0.129-0.396-0.431-0.495C-242.406-710.435-242.703-710.375-242.766-710.202z"/>
			</g>
		</g>
		<g>
			<path fill="#0C1917" d="M-251.324-714.119c1.476,1.545,1.514,6.982,1.514,6.982h0.568c0,0-0.241-5.424-1.794-7.347
				C-252.59-716.407-252.8-715.664-251.324-714.119z"/>
			<g>
				<path fill="#80809E" d="M-251.977-715.225c0.135,0.367-0.29,0.84-0.947,1.058c-0.658,0.218-1.3,0.097-1.435-0.27
					c-0.135-0.367,0.29-0.84,0.947-1.058C-252.753-715.712-252.111-715.592-251.977-715.225z"/>
				<path fill="#80809E" d="M-250.277-716.561c0.14,0.381-0.333,0.884-1.057,1.124c-0.724,0.239-1.424,0.124-1.564-0.257
					c-0.14-0.381,0.333-0.884,1.057-1.124C-251.117-717.058-250.417-716.943-250.277-716.561z"/>
				<path fill="#80809E" d="M-249.059-715.72c0.134,0.366-0.29,0.839-0.948,1.056s-1.3,0.097-1.434-0.269s0.29-0.839,0.948-1.056
					S-249.194-716.086-249.059-715.72z"/>
				<path fill="#80809E" d="M-250.495-714.536c0.145,0.394-0.303,0.901-1,1.131c-0.697,0.231-1.38,0.098-1.525-0.296
					c-0.145-0.394,0.303-0.901,1-1.131C-251.322-715.063-250.64-714.93-250.495-714.536z"/>
				<path fill="#4B4B63" d="M-251.054-715.313c0.089,0.241-0.18,0.549-0.599,0.688c-0.419,0.139-0.831,0.055-0.919-0.186
					c-0.089-0.241,0.18-0.549,0.599-0.688C-251.554-715.638-251.143-715.554-251.054-715.313z"/>
			</g>
		</g>
		<g>
			<path fill="#0C1917" d="M-257.32-715.683c1.259,0.923,2.014,4.794,2.014,4.794l0.405-0.068c0,0-0.898-3.837-2.263-5.021
				C-258.529-717.162-258.579-716.606-257.32-715.683z"/>
			<g>
				<path fill="#E5863E" d="M-257.933-716.393c0.145,0.245-0.094,0.634-0.534,0.868c-0.44,0.234-0.914,0.226-1.059-0.019
					c-0.145-0.245,0.094-0.634,0.534-0.868S-258.078-716.638-257.933-716.393z"/>
				<path fill="#E5863E" d="M-256.9-717.551c0.151,0.255-0.119,0.671-0.603,0.929c-0.484,0.258-0.998,0.26-1.149,0.005
					c-0.151-0.255,0.119-0.671,0.603-0.929C-257.565-717.803-257.051-717.806-256.9-717.551z"/>
				<path fill="#E5863E" d="M-255.92-717.098c0.145,0.245-0.094,0.633-0.534,0.867s-0.914,0.226-1.058-0.018
					s0.094-0.633,0.534-0.867S-256.064-717.342-255.92-717.098z"/>
				<path fill="#E5863E" d="M-256.784-716.081c0.156,0.264-0.096,0.679-0.562,0.927s-0.971,0.236-1.126-0.027
					s0.095-0.679,0.562-0.927C-257.445-716.357-256.94-716.344-256.784-716.081z"/>
				<path fill="#4B4B63" d="M-257.287-716.567c0.095,0.161-0.054,0.413-0.335,0.563c-0.28,0.149-0.585,0.14-0.68-0.021
					c-0.095-0.161,0.054-0.413,0.335-0.563C-257.687-716.738-257.383-716.729-257.287-716.567z"/>
			</g>
		</g>
		<g>
			<path fill="#0C1917" d="M-267.22-721.73c1.059,1.108,1.086,5.009,1.086,5.009h0.407c0,0-0.173-3.891-1.287-5.271
				C-268.128-723.372-268.279-722.839-267.22-721.73z"/>
			<g>
				<path fill="#EAEAEA" d="M-267.688-722.524c0.097,0.263-0.208,0.603-0.68,0.759s-0.933,0.069-1.029-0.194
					c-0.097-0.263,0.208-0.603,0.68-0.759S-267.784-722.787-267.688-722.524z"/>
				<path fill="#EAEAEA" d="M-266.468-723.483c0.1,0.274-0.239,0.635-0.758,0.806c-0.519,0.172-1.021,0.089-1.122-0.185
					c-0.1-0.274,0.239-0.635,0.758-0.806C-267.071-723.839-266.568-723.756-266.468-723.483z"/>
				<path fill="#FFFFFF" d="M-265.595-722.879c0.096,0.263-0.208,0.602-0.68,0.758s-0.933,0.07-1.029-0.193
					c-0.096-0.263,0.208-0.602,0.68-0.758S-265.691-723.141-265.595-722.879z"/>
				<path fill="#EAEAEA" d="M-266.625-722.03c0.104,0.283-0.218,0.646-0.718,0.812c-0.5,0.165-0.99,0.07-1.094-0.213
					c-0.104-0.283,0.218-0.646,0.718-0.812C-267.218-722.408-266.728-722.313-266.625-722.03z"/>
				<path fill="#4B4B63" d="M-267.026-722.587c0.064,0.173-0.129,0.394-0.43,0.494c-0.301,0.099-0.596,0.04-0.66-0.133
					c-0.064-0.173,0.129-0.394,0.43-0.494C-267.385-722.82-267.09-722.76-267.026-722.587z"/>
			</g>
		</g>
		<g>
			<path fill="#0C1917" d="M-262.819-719.554c-0.838,0.877-0.859,3.963-0.859,3.963h-0.322c0,0,0.137-3.079,1.018-4.17
				S-261.982-720.431-262.819-719.554z"/>
			<g>
				<path fill="#80809E" d="M-262.449-720.182c-0.076,0.208,0.164,0.477,0.538,0.6c0.373,0.123,0.738,0.055,0.814-0.153
					c0.076-0.208-0.164-0.477-0.538-0.6C-262.008-720.458-262.373-720.39-262.449-720.182z"/>
				<path fill="#80809E" d="M-263.414-720.94c-0.079,0.216,0.189,0.502,0.6,0.638c0.411,0.136,0.808,0.07,0.888-0.146
					c0.079-0.216-0.189-0.502-0.6-0.638C-262.937-721.222-263.335-721.157-263.414-720.94z"/>
				<path fill="#80809E" d="M-264.105-720.462c-0.076,0.208,0.165,0.476,0.538,0.6c0.373,0.124,0.738,0.055,0.814-0.152
					c0.076-0.208-0.165-0.476-0.538-0.6C-263.664-720.738-264.029-720.67-264.105-720.462z"/>
				<path fill="#80809E" d="M-263.29-719.791c-0.082,0.224,0.172,0.511,0.568,0.642c0.396,0.131,0.783,0.056,0.865-0.168
					s-0.172-0.511-0.568-0.642C-262.821-720.09-263.208-720.014-263.29-719.791z"/>
				<path fill="#4B4B63" d="M-262.973-720.232c-0.05,0.137,0.102,0.312,0.34,0.39c0.238,0.079,0.472,0.031,0.522-0.105
					s-0.102-0.312-0.34-0.39C-262.689-720.416-262.922-720.369-262.973-720.232z"/>
			</g>
		</g>
	</g>
</g>
</svg>
