<?xml version="1.0" encoding="utf-8"?>
<!-- Generator: Adobe Illustrator 17.0.0, SVG Export Plug-In . SVG Version: 6.00 Build 0)  -->
<!DOCTYPE svg PUBLIC "-//W3C//DTD SVG 1.1//EN" "http://www.w3.org/Graphics/SVG/1.1/DTD/svg11.dtd">
<svg version="1.1" xmlns="http://www.w3.org/2000/svg" xmlns:xlink="http://www.w3.org/1999/xlink" x="0px" y="0px"
	 width="728.263px" height="741.891px" viewBox="0 0 728.263 741.891" enable-background="new 0 0 728.263 741.891"
	 xml:space="preserve">
<g id="Layer_2_1_">
</g>
<g id="Layer_1">
	<g id="Layer_6">
		<g>
			<radialGradient id="SVGID_1_" cx="540.6315" cy="157.4455" r="619.059" gradientUnits="userSpaceOnUse">
				<stop  offset="0.1184" style="stop-color:#8E2C40;stop-opacity:0.9"/>
				<stop  offset="0.8571" style="stop-color:#F99055"/>
			</radialGradient>
			<polygon fill="url(#SVGID_1_)" points="450.453,0.035 -0.014,260.735 -0.014,581.506 277.781,741.891 728.249,481.192 
				728.249,160.421 			"/>
			<g>
				<radialGradient id="SVGID_2_" cx="540.6315" cy="157.4455" r="619.059" gradientUnits="userSpaceOnUse">
					<stop  offset="0.1184" style="stop-color:#C7596B;stop-opacity:0.9"/>
					<stop  offset="0.8571" style="stop-color:#F99055"/>
				</radialGradient>
				<polygon fill="url(#SVGID_2_)" points="450.467,0 0,260.699 0,581.47 277.796,741.856 728.263,481.156 728.263,160.385 				"/>
			</g>
			<radialGradient id="SVGID_3_" cx="540.6315" cy="157.4455" r="619.059" gradientUnits="userSpaceOnUse">
				<stop  offset="0.1184" style="stop-color:#8E2C40;stop-opacity:0.9"/>
				<stop  offset="0.8571" style="stop-color:#F99055"/>
			</radialGradient>
			<polygon fill="url(#SVGID_3_)" points="592.115,228.713 591.027,228.082 592.115,230.004 			"/>
		</g>
	</g>
	<polygon fill="#E6E6EF" points="413.233,42.454 51.375,251.873 51.375,251.873 51.375,542.715 412.08,368.675 	"/>
	<polygon fill="#3F3F54" points="111.563,513.671 397.041,673.89 681.297,509.382 408.209,371.404 	"/>
	<path opacity="0.2" enable-background="new    " d="M196.655,340.806c0.277-0.467,0.559-0.93,0.82-1.409
		c6.442-11.856-1.688-41.099,5.996-61.794c-12.858,9.834-54.015,6.949-61.962,19.84c-7.948,12.891,2.879,40.619-3.214,49.76
		c-6.092,9.141-11.349,6.251-16.985,21.111c-0.33,0.87-0.576,1.848-0.754,2.914c-1.161-1.25-2.516-2.583-4.544-4.845
		c-5.74-6.401-3.712-23.377-11.27-32.449c-7.558-9.072-33.458-0.458-44.886-6.912c7.905,14.912,1.848,28.057,8.076,36.46
		c6.228,8.402,14.886,9.096,18.507,12.608c3.621,3.513,10.684,12.974,13.159,22.774c2.09,8.274,19.414,22.587,24.76,26.845
		c2.571,13.439,3.57,25.137,3.952,32.672c-10.978,0.52-19.195,2.577-19.298,5.043h-0.006c0,0,0.001,0.012,0.003,0.024
		c0,0.008-0.003,0.015-0.003,0.023c0,0.096,0.014,0.192,0.039,0.286c0.468,4.034,5.114,44.035,5.642,48.576
		c19.749,9.113,42.145-3,42.145-3l1.642-45.576c0.024-0.095,0.039-0.19,0.039-0.287c0-0.008-0.003-0.015-0.003-0.023l0.003-0.023
		h-0.006c-0.091-2.179-6.519-4.038-15.59-4.801c1.714-6.899,4.773-17.613,9.657-29.75c6.108-3.097,25.853-13.566,29.527-21.235
		c4.359-9.096,13.146-16.924,17.386-19.627c4.24-2.703,12.859-1.616,20.619-8.577c7.76-6.961,4.419-21.075,15.107-34.071
		C225.157,348.583,207.814,340.284,196.655,340.806z M131.504,435.217c-1.04-5.181-2.332-10.762-3.94-16.57
		c0.249-1.411,0.507-2.949,0.758-4.577c1.598,4.929,3.077,9.073,4.045,11.699C132.027,429.047,131.743,432.202,131.504,435.217z
		 M137.834,425.623c3.36-2.546,8.265-6.402,13.223-10.779c-0.125,2.258-0.202,4.389-0.249,6.305
		c-6.709,13.309-11.141,25.539-13.738,33.714C136.991,447.525,137.1,437.337,137.834,425.623z M179.753,359.9
		c-2.138,5.315-4.14,10.214-7.319,12.568c-0.175,0.13-0.328,0.239-0.494,0.361c0.696-3.398,1.651-6.107,3.285-8.228
		C176.255,363.262,177.853,361.693,179.753,359.9z"/>
	<polygon opacity="0.5" enable-background="new    " points="353.468,595.883 375.538,661.822 397.041,673.89 510.94,607.652 
		497.486,590.804 	"/>
	<g>
		<g>
			
				<rect x="401.007" y="570.3" transform="matrix(0.8812 -0.4727 0.4727 0.8812 -205.4059 324.1743)" fill="#2E2E3D" width="282.65" height="1"/>
			
				<rect x="328.068" y="557.64" transform="matrix(0.9 -0.4358 0.4358 0.9 -195.0039 266.0939)" fill="#2E2E3D" width="308.987" height="1"/>
			
				<rect x="293.068" y="537.84" transform="matrix(0.9049 -0.4257 0.4257 0.9049 -186.751 240.9808)" fill="#2E2E3D" width="305.486" height="1"/>
			
				<rect x="246.702" y="526.458" transform="matrix(0.9017 -0.4324 0.4324 0.9017 -188.4968 224.9955)" fill="#2E2E3D" width="307.525" height="1.001"/>
			
				<rect x="178.345" y="463.252" transform="matrix(0.9037 -0.4282 0.4282 0.9037 -167.2509 184.0271)" fill="#2E2E3D" width="294.111" height="1.001"/>
			
				<rect x="219.742" y="506.235" transform="matrix(0.9017 -0.4324 0.4324 0.9017 -182.4026 211.3478)" fill="#2E2E3D" width="307.525" height="1.001"/>
			
				<rect x="191.237" y="488.347" transform="matrix(0.9017 -0.4324 0.4324 0.9017 -177.4692 197.2607)" fill="#2E2E3D" width="307.524" height="1.001"/>
		</g>
	</g>
	<polygon fill="#DCDCF9" points="399.914,96.927 399.914,288.605 304.127,334.912 304.127,150.792 	"/>
	<g>
		<path fill="#4C765E" d="M304.127,329.692l54.717-26.753c-0.046-6.533-1.12-15.03-3.99-19.449
			c7.169-11.82-9.109-17.104-10.959-9.153c-0.475-2.744-3.45-2.666-6.16,1.803c-1.961-1.423-1.427-3.319-3.923-0.711
			c-1.07,1.186-1.783,3.319-1.783,5.216c-0.892-3.319-2.14-9.01-5.884-5.691c0.178-2.608-1.605-8.062-4.101-4.979
			c-2.675-5.216-4.993-2.371-7.489,1.423c-0.892-2.134-4.101-7.113-4.993-2.134c-1.277-3.678-3.378-5.48-5.434-4.992
			L304.127,329.692L304.127,329.692z"/>
	</g>
	<g>
		<path fill="#38544F" d="M351.465,297.953c0,2.371,0.357,4.505,0.535,6.639c0.086,0.568,0.118,1.221,0.131,1.908l39.469-19.009
			v-55.619c-2.44-2.548-4.827,0.014-4.827,3.723c-3.21-1.186-3.031,1.66-2.675,4.742c-2.853,0.711-7.133-1.897-6.776,4.268
			c-1.605-0.474-3.031,0-3.031,2.371c-2.496-0.237-4.101-5.928-7.133-4.268c-2.14,0.948-2.14,5.453-1.427,7.825
			c-1.962,0-3.923-2.608-5.35,0.237c-0.713,2.134,0.357,5.928,1.248,7.35c-1.605,0.948-4.458,4.742-3.566,7.113
			c-5.706,0.948-7.311,5.691-3.031,11.381c-2.496,0.948-4.815,2.371-5.35,5.928c-0.535,3.794,1.783,4.742,2.318,7.587
			C352.357,292.026,351.465,295.582,351.465,297.953z"/>
	</g>
	
		<radialGradient id="SVGID_4_" cx="801.189" cy="24.3681" r="87.2291" gradientTransform="matrix(0.7521 0 0 -1 -198.924 337.171)" gradientUnits="userSpaceOnUse">
		<stop  offset="0.1379" style="stop-color:#F89E9C;stop-opacity:0.5"/>
		<stop  offset="1" style="stop-color:#000000;stop-opacity:0"/>
	</radialGradient>
	<polygon fill="url(#SVGID_4_)" points="401.216,301.714 458.625,329.645 460.148,283.746 419.317,264.427 419.317,259.85 
		439.242,251.955 401.642,196.294 	"/>
	<polygon fill="none" points="304.127,156.792 411.716,97.459 411.716,307.552 304.127,355.38 	"/>
	<path d="M391.725,135.174"/>
	<polygon fill="#191412" points="391.725,106.722 391.725,287.046 304.127,329.692 304.127,339.647 399.914,294.605 
		399.914,102.927 	"/>
	<ellipse fill="#F88F55" cx="333.282" cy="176.94" rx="19.844" ry="20.908"/>
	<g>
		<path fill="#FFFFFF" d="M324.117,183.788c3.202-0.293,6.404-0.587,9.643-0.17c1.258,0.122,3.57-0.089,4.509,0.775
			c2.282,2.643-0.632,5.049,2.95,5.196c2.325,0.025,3.803-2.487,5.901-3.392c3.687-1.288,7.392,1.224,11.011,2.081
			c5.791,1.371,12.765,1.445,17.121-4.182c-2.46-2.627-8.422-0.417-11.637-0.36c-1.601,0.147-3.914,0.358-5.576-0.678
			c-1.675-1.273-1.901-2.203-3.932-3.443c-3.478-1.583-7.748-1.192-11.532-1.796c-2.159-0.278-9.269-2.954-7.729,2.609
			c-1.908,1.125-15.428-4.529-14.845,3.261c1.626,0.326,3.38-0.31,5.159-0.472"/>
	</g>
	<g>
		<path fill="#FFFFFF" d="M391.944,194.476c-2.14,1.66-4.458-0.237-6.598,0c-2.496,0.474-3.923,1.66-6.598,1.186
			c-5.171-0.474-9.094,2.608-13.909,3.319c0.357,3.319,3.923,3.319,5.706,4.268c-0.713,3.557-5.35,2.134-7.489,1.66
			c-3.21-0.711-5.884-0.474-9.094,0c-0.713,0-5.528-0.237-5.171,1.423c0,0.948,4.993,1.66,5.706,1.897
			c3.21,1.186,23.895,5.691,22.646-3.319c0-0.948-1.427-2.371-1.783-3.082c1.783-0.948,5.171,0.711,7.311,1.186
			c3.923,0.711,5.35,0.711,8.916-1.423"/>
	</g>
	<g>
		<path fill="#FFFFFF" d="M331.315,141.937c3.745,0,8.916,0.237,12.661,0.711c1.783,0.237,3.923,0.948,5.706,0.237
			c2.318-1.186,2.675-3.082,5.35-3.319c3.923-0.474,8.203,1.423,11.947,1.66c3.21,0.237,10.164,2.371,12.661-1.186
			c-1.07-1.186-2.14-0.237-3.566-0.474c-1.605-0.237-2.853-1.186-4.28-1.66c-3.388-0.474-6.419,0.711-9.629-1.423
			c0.357-0.237,0.713-0.474,0.892-0.711c-1.605-1.186-4.815-0.711-6.776-0.474c-1.427,0.237-2.496,0.711-3.923,0.948
			c-0.535,0.237-1.248,0.948-1.427,1.186c-1.07,0-1.427-1.186-2.318-0.948c-1.248,0.237-2.14,1.423-3.388,1.66
			s-2.853-1.897-3.745-1.66c-2.675,0.711-8.203,4.979-10.521,5.453"/>
	</g>
	<path fill="#3F3F54" d="M308.934,402.022c0,0-5.845,6.975-12.031,5.767c-6.186-1.208-12.747,6.11-12.747,6.11
		s5.536-37.855-5-58.454c-9.58-18.73,11.025-48.5,5-65c-6.025-16.5,0-140.864,0-140.864s4.875-7.979,11.634-6.156
		c6.759,1.823,13.143-6.955,13.143-6.955s-13.491,40.463-0.623,107.941C325.731,335.761,308.934,402.022,308.934,402.022z"/>
	<path fill="#3F3F54" d="M414.566,342.802c0,0-5.845,6.975-12.031,5.767c-6.186-1.208-12.747,6.11-12.747,6.11
		s-20.843-51.734-10-90.234c10.843-38.5,14.657-74.001,11-93.001c-3.657-19-1-81.083-1-81.083s4.875-7.979,11.634-6.156
		c6.759,1.823,13.143-6.955,13.143-6.955V342.802z"/>
	<g id="Layer_3">
	</g>
	<g id="Layer_4" display="none">
		<rect x="-819.748" y="-42.69" display="inline" fill="#111028" width="1621" height="777"/>
	</g>
	<g id="Layer_5">
	</g>
	<polygon fill="#E6E6EF" points="412.08,64.34 634.829,192.433 635.38,488.847 412.08,376.997 	"/>
	<polygon fill="#C1C1D3" points="592.93,167.748 584.346,391.751 613.512,403.923 615.623,181.388 	"/>
	<polygon fill="#C1C1D3" points="412.08,64.34 412.08,376.736 437.229,389.517 430.682,75.016 	"/>
	<polygon fill="#C1C1D3" points="455.539,89.282 452.633,397.741 464.617,403.211 473.159,99.395 	"/>
	<polygon fill="#C1C1D3" points="492.145,110.292 485.753,418.872 504.604,427.753 513.431,122.509 	"/>
	<polygon fill="#C1C1D3" points="534.783,135.174 527.955,435.942 552.84,448.411 568.547,154.143 	"/>
	<polygon opacity="0.3" enable-background="new    " points="506.424,201.807 528.892,191.214 508.474,181.06 510.466,173.561 
		488.545,163.633 485.067,170.424 477.89,166.632 483.209,156.045 469.189,149.999 471.028,145.731 458.319,140.708 
		442.864,165.902 	"/>
	<g>
		<polygon fill="#D96D63" points="495.933,534.39 337.592,605.605 191.471,536.747 349.811,465.532 		"/>
		<polygon fill="#CE615B" points="216.055,548.331 358.103,469.44 386.951,483.639 232.695,556.173 		"/>
		<polygon fill="#BC5250" points="243.907,561.457 392.037,485.641 395.8,487.204 250.659,564.638 		"/>
		<polygon fill="#CE615B" points="272.005,574.697 402.37,490.3 417.992,497.661 281.044,578.957 		"/>
		<polygon fill="#BC5250" points="292.975,584.579 421.914,499.89 437.229,507.221 313.438,593.451 		"/>
		<polygon fill="#CE615B" points="322.988,598.722 443.707,509.779 449.326,512.427 327.39,600.797 		"/>
	</g>
	<path opacity="0.3" enable-background="new    " d="M506.049,287.995l19.871-2.323l-2.14-19.485l-3.566-18.594l-2.371-11.761
		h-6.521l-4.633,9.102l-2.367,11.55l-5.589,4.482l-1.984,6.639l-19.841-8.634c0,0,7.889-24.719,7.053-24.719
		s-14.635-6.966-14.635-6.966l-26.461,25.504L506.049,287.995z"/>
	<polygon opacity="0.5" enable-background="new    " points="313.438,370.623 314.098,355.38 411.716,331.589 411.058,371.006 
		318.233,413.944 317.59,404.147 313.678,402.177 	"/>
	<polygon opacity="0.5" enable-background="new    " points="464.955,339.393 477.447,380.512 477.447,409.928 411.716,377.887 
		411.716,327.101 	"/>
	<polygon opacity="0.4" enable-background="new    " points="408.153,374.172 318.233,415.288 317.727,446.641 295.569,456.917 
		332.36,505.41 340.969,500.862 393.045,477.229 430.756,483.983 471.285,478.744 515.535,463.182 477.447,444.641 477.447,410.272 
			"/>
	<polygon opacity="0.4" enable-background="new    " points="601.435,504.652 668.785,504.652 668.785,430.147 632.665,372.251 
		617.891,398.184 589.501,383.957 583.097,388.357 566.344,380.548 565.929,373.45 546.071,364.304 546.071,343.576 
		531.855,325.986 517.075,354.676 518.128,415.319 	"/>
	<path fill="#0C0C0C" stroke="#070707" stroke-miterlimit="10" d="M427.522,456.273c-0.756,2.09,0.079,4.711,1.865,5.853
		c1.786,1.142,3.847,0.374,4.603-1.716s-0.079-4.711-1.865-5.853C430.338,453.415,428.278,454.183,427.522,456.273z"/>
	<path fill="#0C0C0C" stroke="#070707" stroke-miterlimit="10" d="M389.414,450.81c0.541,2.218-0.556,4.679-2.451,5.497
		c-1.895,0.818-3.871-0.317-4.412-2.535c-0.541-2.218,0.556-4.679,2.451-5.497C386.897,447.457,388.873,448.592,389.414,450.81z"/>
	<polygon fill="#2D2D2D" points="383.676,451.813 409.376,443.329 432.629,458.426 436.343,454.385 415.77,437.832 418.239,426.82 
		413.674,425.711 404.612,436.881 381.712,447.628 	"/>
	<path fill="#424242" d="M406.718,415.11c0,0,0.084,20.702,0,23.171c3.967,3.591,7.343,0,7.343,0v-19.038"/>
	<ellipse fill="#111111" cx="528.681" cy="513.958" rx="17.973" ry="7.007"/>
	<ellipse fill="#262147" cx="528.681" cy="513.087" rx="4.318" ry="1.684"/>
	<polyline fill="none" points="662.201,499.986 411.716,373.887 132.497,500.518 	"/>
	<line fill="none" x1="411.716" y1="356.34" x2="411.716" y2="83.717"/>
	<polyline fill="#5B4C4B" points="458.625,329.645 458.625,335.705 351.16,382.84 304.127,360.395 304.127,355.38 	"/>
	<polygon fill="#776A6A" points="458.625,329.645 351.036,377.509 304.127,355.38 411.716,307.516 	"/>
	<polygon fill="#776A6A" points="477.447,371.036 477.447,444.297 601.435,504.652 601.435,430.147 	"/>
	<polygon fill="#665654" points="512.801,358.6 477.447,371.036 601.435,430.147 637.928,417.63 	"/>
	<polygon fill="#5B4C4B" points="601.435,504.652 637.928,488.324 637.928,417.63 601.435,430.147 	"/>
	<polygon fill="#5B4C4B" points="438.232,251.955 419.317,259.614 485.991,291.385 506.049,283.645 	"/>
	<polygon fill="#5B4C4B" points="438.232,165.902 419.317,173.561 485.991,205.333 506.049,197.593 	"/>
	<polygon fill="#4C765E" points="540.638,203.894 540.638,349.699 606.285,383.866 606.285,241.269 	"/>
	<polygon fill="#493E3E" points="481.295,378.912 481.295,439.986 597.293,496.972 596.756,433.895 	"/>
	<polygon fill="#303030" points="550.276,394.953 576.318,407.627 606.537,396.949 580.316,384.349 	"/>
	<ellipse fill="#0C0C0C" stroke="#070707" stroke-miterlimit="10" cx="577.225" cy="396.307" rx="14.733" ry="5.744"/>
	<polygon fill="#111111" points="550.276,394.953 550.276,401.316 575.929,414.364 606.537,403.088 606.537,396.949 
		576.318,407.627 	"/>
	<ellipse fill="#686868" cx="577.225" cy="395.593" rx="3.54" ry="1.38"/>
	<polygon fill="#303030" points="496.109,323.935 496.109,366.215 513.608,374.761 513.608,332.212 	"/>
	<path fill="#D3D3D3" stroke="#070707" stroke-miterlimit="10" d="M511.056,354.256c0.997,5.966-0.894,11.599-4.224,12.583
		s-6.837-3.055-7.834-9.021s0.894-11.599,4.224-12.583C506.551,344.252,510.059,348.29,511.056,354.256z"/>
	<path fill="#0C0C0C" stroke="#070707" stroke-miterlimit="10" d="M507.75,335.986c0.478,2.861-0.429,5.563-2.026,6.035
		s-3.279-1.465-3.757-4.326s0.429-5.563,2.026-6.035S507.272,333.125,507.75,335.986z"/>
	<polygon fill="#191919" points="513.608,374.761 531.855,368.294 531.855,325.986 513.608,332.212 	"/>
	<polygon fill="#3F3F3F" points="496.109,323.935 513.608,332.212 531.855,325.986 513.888,318.101 	"/>
	<polygon fill="#303030" points="504.858,373.45 530.901,386.124 561.12,375.445 534.899,362.846 	"/>
	<ellipse fill="#0C0C0C" stroke="#070707" stroke-miterlimit="10" cx="531.808" cy="374.804" rx="14.733" ry="5.744"/>
	<polygon fill="#111111" points="504.858,373.45 504.858,379.813 530.512,392.861 561.12,381.585 561.12,375.445 530.901,386.124 	
		"/>
	<ellipse fill="#562F2F" cx="531.808" cy="374.09" rx="3.54" ry="1.38"/>
	<path fill="#A3A3A3" stroke="#070707" stroke-width="0.25" stroke-miterlimit="10" d="M508.956,355.368
		c0.375,2.243-0.336,4.362-1.588,4.732s-2.571-1.149-2.946-3.392s0.336-4.362,1.588-4.732S508.581,353.124,508.956,355.368z"/>
	<path fill="#CECECE" d="M404.68,341.105c-0.03,0.832-1.414,1.42-3.092,1.314s-3.013-0.867-2.984-1.699s1.414-1.42,3.092-1.314
		C403.374,339.512,404.71,340.273,404.68,341.105z"/>
	<ellipse fill="#111111" cx="543.578" cy="508.748" rx="17.973" ry="7.007"/>
	<ellipse fill="#686868" cx="543.578" cy="507.876" rx="4.318" ry="1.684"/>
	<polygon fill="#F88F55" points="560.755,503.518 530.424,514.187 560.059,529.003 591.37,518.264 	"/>
	<ellipse fill="#111111" cx="521.06" cy="484.727" rx="17.973" ry="7.007"/>
	<ellipse fill="#562F2F" cx="521.06" cy="483.855" rx="4.318" ry="1.684"/>
	<polygon fill="#9B9B9B" points="529.9,524.387 499.569,535.057 529.204,549.873 560.514,539.133 	"/>
	<polygon fill="#232323" points="334.74,342.787 334.74,351.641 340.378,346.254 340.445,338.068 	"/>
	<polygon fill="#353535" points="333.035,353.212 342.151,344.855 348.903,346.03 340.445,355.025 	"/>
	<path fill="#4C4C4C" d="M304.127,359.819v66.725l46.527,23.922V382.84L304.127,359.819z M346.476,442.156l-38.171-19.321v-54.706
		l38.171,18.543V442.156z"/>
	<polygon fill="#1E1E1E" points="383.676,451.813 385.373,454.72 409.027,447.652 430.992,460.936 432.629,458.426 409.376,443.329 
			"/>
	<polygon fill="#333333" points="350.654,450.466 356.243,446.388 356.243,380.512 350.654,382.84 	"/>
	<polygon fill="#333333" points="313.438,370.623 313.438,419.539 346.476,436.373 346.476,442.156 308.305,422.835 
		308.305,368.129 	"/>
	<polygon fill="#776A6A" points="317.727,404.147 317.727,446.297 200.809,500.518 200.809,457.195 	"/>
	<polygon fill="#665654" points="284.895,389.727 318.233,404.147 201.315,457.195 166.902,442.698 	"/>
	<polygon fill="#5B4C4B" points="200.809,500.518 166.396,485.12 166.396,442.698 200.809,457.195 	"/>
	<polygon fill="#776A6A" points="314.098,411.574 314.098,442.232 205.22,493.275 205.22,460.73 	"/>
	<polygon fill="#717189" points="274.763,401.095 287.802,406.735 265.149,417.109 251.69,411.439 	"/>
	<polygon fill="#CE615B" points="274.783,399.213 274.783,404.925 261.67,411.073 261.67,405.133 	"/>
	<polygon fill="#4F4E66" points="251.69,411.439 251.69,413.226 251.69,417.109 265.43,422.569 287.802,412.132 287.802,411.073 
		287.802,406.735 265.149,417.109 	"/>
	<g>
		<g>
			<path fill="#070707" d="M305.96,500.111c7.275-8.571,19.657-10.554,24.985-21.112c3.042-6.028,3.512-18.574-6.04-18.481
				c-6.297,0.061-12.861,3.942-16.75,8.78c-1.166,1.451-1.879,3.924-0.057,5.23c3.336,2.391,6.649,0.945,9.516-1.443
				c3.133-2.61,11.527-14.978,3.01-16.263c-3.91-0.59-7.872,0.468-11.415-2.074c-1.826-1.31-3.043-3.241-3.891-5.278
				c-1.666-4.004-1.272-8.724-0.862-12.931c0.803-8.239,3.06-16.555,1.498-24.84c-0.576-3.056-2.115-6.193-4.427-8.307
				c-4.516-4.13-7.284-2.911-12.826-2.089c-3.288,0.488-5.622-0.795-8.265,1.74c-0.656,0.629,0.745,0.895,1.217,0.442
				c1.238-1.188,10.395-1.891,12.476-2.234c4.432-0.732,8.23,4.775,9.609,8.17c2.359,5.805,1.19,12.78,0.367,18.782
				c-1.142,8.325-4.686,24.073,5.727,28.528c3.764,1.61,13.023-0.358,13.025,4.725c0.002,4.225-4.405,9.446-7.375,11.921
				c-5.048,2.089-7.324,1.297-6.827-2.376c0.322-0.723,0.748-1.376,1.277-1.958c1.171-1.457,2.79-2.583,4.305-3.656
				c2.383-1.688,4.898-2.853,7.745-3.541c6.98-1.688,10.017,4.5,9.508,10.431c-0.471,5.49-3.665,10.222-7.704,13.737
				c-6.004,5.225-13.774,7.445-19.043,13.654C304.146,500.373,305.526,500.622,305.96,500.111L305.96,500.111z"/>
		</g>
	</g>
	<polygon fill="none" points="260.664,435.698 260.664,467.283 262.982,466.196 262.982,434.652 	"/>
	<g opacity="0.3">
		
			<rect x="288.053" y="410.793" transform="matrix(-0.4121 -0.9111 0.9111 -0.4121 7.6161 882.6202)" fill="#070707" width="1" height="56.12"/>
	</g>
	<path fill="none" stroke="#070707" stroke-miterlimit="10" d="M236.986,446.388"/>
	<path fill="none" stroke="#070707" stroke-miterlimit="10" d="M236.986,470.935"/>
	<path fill="none" stroke="#070707" stroke-miterlimit="10" d="M204.987,485.641"/>
	<path fill="none" stroke="#070707" stroke-miterlimit="10" d="M209.342,483.639"/>
	<path fill="none" stroke="#070707" stroke-miterlimit="10" d="M209.342,458.869"/>
	<path fill="none" stroke="#070707" stroke-miterlimit="10" d="M211.159,482.966"/>
	<path fill="none" stroke="#070707" stroke-miterlimit="10" d="M211.159,458.195"/>
	<path fill="none" stroke="#070707" stroke-miterlimit="10" d="M213.438,481.825"/>
	<path fill="none" stroke="#070707" stroke-miterlimit="10" d="M213.438,457.054"/>
	<path fill="none" stroke="#070707" stroke-miterlimit="10" d="M211.159,482.966"/>
	<path fill="none" stroke="#070707" stroke-miterlimit="10" d="M211.159,458.195"/>
	<path fill="none" stroke="#070707" stroke-miterlimit="10" d="M216.055,480.609"/>
	<path fill="none" stroke="#070707" stroke-miterlimit="10" d="M216.055,455.838"/>
	<path fill="none" stroke="#070707" stroke-miterlimit="10" d="M217.152,479.915"/>
	<path fill="none" stroke="#070707" stroke-miterlimit="10" d="M217.152,455.144"/>
	<path fill="none" stroke="#070707" stroke-miterlimit="10" d="M218.969,479.241"/>
	<path fill="none" stroke="#070707" stroke-miterlimit="10" d="M218.969,454.471"/>
	<path fill="none" stroke="#070707" stroke-miterlimit="10" d="M223.864,476.885"/>
	<path fill="none" stroke="#070707" stroke-miterlimit="10" d="M223.864,452.114"/>
	<path fill="none" stroke="#070707" stroke-miterlimit="10" d="M224.917,476.885"/>
	<path fill="none" stroke="#070707" stroke-miterlimit="10" d="M224.917,452.114"/>
	<path fill="none" stroke="#070707" stroke-miterlimit="10" d="M226.734,475.538"/>
	<path fill="none" stroke="#070707" stroke-miterlimit="10" d="M226.734,450.767"/>
	<path fill="none" stroke="#070707" stroke-miterlimit="10" d="M231.629,473.181"/>
	<path fill="none" stroke="#070707" stroke-miterlimit="10" d="M231.629,448.411"/>
	<path fill="none" stroke="#070707" stroke-miterlimit="10" d="M220.987,478.4"/>
	<path fill="none" stroke="#070707" stroke-miterlimit="10" d="M220.987,453.629"/>
	<path fill="none" stroke="#070707" stroke-miterlimit="10" d="M228.583,475.223"/>
	<path fill="none" stroke="#070707" stroke-miterlimit="10" d="M228.583,450.453"/>
	<polyline fill="none" stroke="#070707" stroke-miterlimit="10" points="287.802,410.575 265.398,421.054 251.69,415.543 	"/>
	<path fill="#0F0F0F" d="M415.849,383.591c0,0,30.693,21.787,30.321,23.654s-25.278,13.836-29.408,13.518
		s-34.011-22.373-37.321-21.762C395.298,390.445,415.849,383.591,415.849,383.591z"/>
	<polygon fill="#776A6A" points="419.317,173.561 419.317,178.138 486.097,210.132 506.049,201.706 506.049,197.593 
		485.991,205.333 	"/>
	<polygon fill="#776A6A" points="419.317,259.85 419.317,264.427 486.097,296.421 506.049,287.995 506.049,283.882 485.991,291.622 
			"/>
	<polygon opacity="0.5" enable-background="new    " points="200.809,500.518 153.754,491.182 153.754,464.499 166.396,442.698 
		166.396,485.12 	"/>
	<polygon opacity="0.5" enable-background="new    " points="187.224,399.213 174.36,413.153 174.36,430.874 172.134,440.349 
		187.224,446.388 204.987,446.72 	"/>
	<g>
		<polygon fill="#515151" points="241.502,383.491 241.502,429.122 204.987,446.72 204.987,399.82 		"/>
		<polygon points="237.611,390.736 237.611,426.54 208.96,440.349 208.96,403.549 		"/>
		<path fill="#A3A3A3" d="M234.75,393.67c2.102,15.038,0,30.33,0,30.33s-9.359,8.429-24.271,11.698c0-1.738,0-31.174,0-31.174
			S232.48,394.68,234.75,393.67z"/>
		<polygon fill="#303030" points="204.987,446.72 197.858,443.05 197.858,395.242 232.041,379.586 241.502,383.491 204.987,399.82 
					"/>
		<polygon fill="#1E1E1E" points="197.858,438.505 187.224,425.543 187.224,394.4 197.858,397.43 		"/>
		<polygon fill="#444444" points="187.224,394.4 208.96,384.299 224.319,383.123 197.858,395.242 197.858,397.43 		"/>
	</g>
	<polygon opacity="0.4" enable-background="new    " points="304.127,355.38 278.849,391.569 295.08,414.652 317.59,404.147 
		303.817,397.43 	"/>
	<polygon fill="#665654" points="596.92,460.874 574.656,450.266 574.64,423.449 572.247,422.309 572.247,449.118 550.908,438.95 
		550.892,412.105 548.499,410.965 548.499,437.802 527.567,427.829 527.552,401.305 525.159,400.165 525.159,426.681 
		504.247,416.717 504.231,390.213 501.838,389.073 501.838,415.569 482.906,406.548 482.906,409.762 501.838,418.891 
		501.838,448.027 504.266,449.037 504.249,420.054 525.159,430.137 525.159,459.119 527.587,460.129 527.57,431.299 
		548.499,441.391 548.499,469.919 550.927,470.929 550.91,442.554 572.247,452.842 572.247,481.263 574.675,482.273 
		574.658,454.005 596.92,464.739 	"/>
	<path opacity="0.4" enable-background="new    " d="M295.578,507.312c-2.628,0.424-9.22,7.509-8.964,8.853s4.247,1.095,5.688,0.838
		c1.441-0.257,3.967-2.457,6.322-2.761c2.355-0.304,7.501,0.294,9.103,0.813c1.847,0.599,3.375,2.974,4.617,3.899
		s5.067,1.728,6.187,0.591s-1.363-9.155-3.328-10.341C313.238,508.018,298.206,506.888,295.578,507.312z"/>
	<path fill="#AD4747" d="M297.789,500.196c-2.018,0.707-6.367,10.275-6.007,12c0.36,1.725,3.471,1.162,4.574,0.742
		s2.831-3.42,4.648-3.955c1.817-0.535,5.937-0.071,7.259,0.505c1.524,0.664,3.007,3.647,4.093,4.77
		c1.087,1.123,4.191,1.932,4.938,0.393c0.747-1.539-2.154-11.77-3.84-13.187S299.807,499.489,297.789,500.196z"/>
	<polygon fill="#303030" stroke="#070707" stroke-miterlimit="10" points="301.406,503.26 300.107,503.26 300.107,501.874 
		298.737,501.874 298.737,503.26 297.439,503.26 297.439,504.72 298.737,504.72 298.737,506.106 300.107,506.106 300.107,504.72 
		301.406,504.72 	"/>
	<ellipse fill="#303030" stroke="#070707" stroke-miterlimit="10" cx="308.311" cy="504.793" rx="0.745" ry="0.803"/>
	<ellipse fill="#303030" stroke="#070707" stroke-miterlimit="10" cx="311.657" cy="505.066" rx="0.745" ry="0.803"/>
	<ellipse fill="#303030" stroke="#070707" stroke-miterlimit="10" cx="310.166" cy="502.727" rx="0.745" ry="0.803"/>
	<ellipse fill="#303030" stroke="#070707" stroke-miterlimit="10" cx="309.802" cy="506.893" rx="0.745" ry="0.803"/>
	<polygon fill="#AAAAAA" points="251.69,420.661 256.84,428.467 248.887,431.772 243.907,423.461 	"/>
	<polygon fill="#686868" points="246.439,425.599 249.056,430.2 254.879,427.9 252.094,423.461 	"/>
	<line fill="none" stroke="#070707" stroke-miterlimit="10" x1="245.68" y1="424.112" x2="251.377" y2="422.064"/>
	<polygon opacity="0.6" enable-background="new    " points="287.802,412.132 283.491,419.539 264.344,428.561 255.639,424.926 
		251.69,417.109 265.43,422.569 	"/>
	<ellipse opacity="0.4" enable-background="new    " cx="234.262" cy="518.98" rx="18.208" ry="10.023"/>
	<g>
		<path fill="#1E1E1E" d="M240.321,519.918c-7.945,0.002-14.391-6.771-14.39-15.121c0.001-8.356,6.44-15.128,14.385-15.129
			c7.947-0.001,14.387,6.768,14.388,15.123C254.705,513.147,248.269,519.916,240.321,519.918z M242.288,513.978
			c1.579-0.057,3.066-0.219,4.541-0.505c0.07-0.014,0.15-0.091,0.186-0.162c0.994-1.94,1.985-3.882,2.97-5.827
			c0.033-0.065,0.036-0.177,0.005-0.243c-0.684-1.485-1.509-2.883-2.394-4.243c-0.04-0.062-0.155-0.111-0.229-0.104
			c-0.961,0.097-1.921,0.205-2.881,0.31c-1.065,0.116-2.13,0.228-3.193,0.356c-0.097,0.012-0.222,0.107-0.269,0.199
			c-0.73,1.435-1.446,2.878-2.176,4.313c-0.099,0.194-0.096,0.336,0.008,0.525c0.899,1.619,1.799,3.238,2.674,4.871
			C241.729,513.84,241.92,514.113,242.288,513.978z M243.696,492.845c0.004-0.032,0.008-0.065,0.012-0.097
			c-1.299,0.13-2.597,0.261-3.896,0.388c-0.148,0.015-0.227,0.08-0.275,0.235c-0.537,1.716-1.083,3.43-1.616,5.147
			c-0.027,0.086,0.007,0.232,0.065,0.302c0.327,0.391,0.676,0.762,1.006,1.15c0.703,0.826,1.397,1.66,2.104,2.482
			c0.066,0.077,0.206,0.131,0.306,0.123c0.685-0.06,1.368-0.138,2.052-0.213c1.272-0.14,2.544-0.279,3.815-0.431
			c0.086-0.01,0.206-0.1,0.236-0.182c0.438-1.201,0.861-2.409,1.297-3.611c0.055-0.152,0.035-0.247-0.065-0.365
			c-1.223-1.443-2.457-2.875-3.652-4.344C244.703,492.96,244.325,492.639,243.696,492.845z M239.113,517.133
			c0.042-0.035,0.12-0.077,0.166-0.142c0.56-0.793,1.12-1.587,1.667-2.39c0.046-0.068,0.037-0.227-0.007-0.307
			c-0.898-1.65-1.814-3.289-2.702-4.945c-0.152-0.284-0.343-0.378-0.62-0.434c-1.517-0.304-3.033-0.615-4.544-0.947
			c-0.217-0.048-0.306,0.001-0.414,0.182c-0.737,1.23-1.481,2.456-2.233,3.675c-0.107,0.173-0.104,0.297-0.013,0.47
			c0.626,1.186,1.321,2.322,2.124,3.386c0.156,0.206,0.332,0.291,0.561,0.333c1.445,0.266,2.889,0.537,4.333,0.806
			C237.977,516.922,238.524,517.023,239.113,517.133z M228.949,498.663c0.051,0.051,0.109,0.133,0.186,0.182
			c0.956,0.599,1.917,1.191,2.872,1.793c0.125,0.079,0.207,0.069,0.324-0.01c1.439-0.968,2.952-1.788,4.54-2.451
			c0.174-0.073,0.254-0.184,0.309-0.361c0.484-1.552,0.972-3.103,1.468-4.651c0.058-0.182,0.031-0.269-0.122-0.377
			c-0.739-0.523-1.518-0.959-2.349-1.299c-0.177-0.072-0.323-0.066-0.49,0c-1.572,0.619-3.002,1.491-4.259,2.664
			c-0.566,0.528-1.15,1.045-1.449,1.811c-0.323,0.828-0.648,1.655-0.971,2.482C228.991,498.496,228.981,498.55,228.949,498.663z
			 M228.436,499.526c-0.67,1.015-1.337,1.974-1.463,3.246c-0.182,1.838-0.14,3.652,0.276,5.45c0.304,1.315,0.388,1.462,1.339,2.238
			c0.346,0.283,0.714,0.536,1.085,0.811c0.076-0.119,0.125-0.193,0.172-0.269c0.702-1.156,1.395-2.319,2.111-3.465
			c0.184-0.294,0.282-0.561,0.17-0.912c-0.074-0.231-0.092-0.482-0.127-0.725c-0.201-1.386-0.32-2.778-0.318-4.182
			c0-0.083-0.051-0.203-0.114-0.243C230.538,500.827,229.504,500.189,228.436,499.526z M253.746,505.918
			c-0.844,0.682-1.698,1.166-2.574,1.615c-0.129,0.066-0.259,0.188-0.327,0.32c-0.953,1.848-1.885,3.708-2.847,5.551
			c-0.193,0.371-0.284,0.7-0.108,1.096c0.069,0.154,0.084,0.335,0.117,0.505c0.078,0.405,0.152,0.811,0.236,1.26
			C251.507,513.647,253.33,510.241,253.746,505.918z M245.442,491.683c-0.111,0.428-0.036,0.724,0.234,1.035
			c1.169,1.346,2.313,2.716,3.453,4.09c0.291,0.351,0.594,0.649,1.034,0.781c0.24,0.072,0.467,0.2,0.689,0.324
			c0.564,0.317,1.122,0.646,1.727,0.995C251.052,495.537,248.687,493.152,245.442,491.683z M233.735,517.105
			c1.226,1.062,5.675,2.188,6.974,1.796c-0.546-0.261-1.105-0.529-1.665-0.794c-0.062-0.029-0.134-0.039-0.202-0.052
			c-1.051-0.196-2.103-0.391-3.154-0.587C235.05,517.35,234.412,517.231,233.735,517.105z"/>
		<path fill="#C9C9C9" d="M242.288,513.978c-0.368,0.136-0.559-0.138-0.758-0.509c-0.876-1.633-1.775-3.252-2.674-4.871
			c-0.105-0.189-0.107-0.331-0.008-0.525c0.73-1.435,1.446-2.878,2.176-4.313c0.047-0.093,0.172-0.188,0.269-0.199
			c1.063-0.128,2.129-0.24,3.193-0.356c0.96-0.105,1.92-0.213,2.881-0.31c0.074-0.007,0.188,0.041,0.229,0.104
			c0.884,1.36,1.709,2.759,2.394,4.243c0.03,0.066,0.028,0.178-0.005,0.243c-0.985,1.945-1.975,3.887-2.97,5.827
			c-0.036,0.07-0.116,0.148-0.186,0.162C245.355,513.759,243.867,513.921,242.288,513.978z"/>
		<path fill="#C9C9C9" d="M243.696,492.845c0.629-0.206,1.007,0.115,1.389,0.584c1.195,1.468,2.429,2.901,3.652,4.344
			c0.1,0.118,0.12,0.212,0.065,0.365c-0.436,1.202-0.859,2.41-1.297,3.611c-0.03,0.082-0.15,0.172-0.236,0.182
			c-1.271,0.151-2.543,0.291-3.815,0.431c-0.684,0.075-1.367,0.153-2.052,0.213c-0.1,0.009-0.239-0.046-0.306-0.123
			c-0.707-0.822-1.401-1.656-2.104-2.482c-0.331-0.388-0.68-0.759-1.006-1.15c-0.058-0.07-0.092-0.216-0.065-0.302
			c0.533-1.718,1.079-3.431,1.616-5.147c0.048-0.155,0.127-0.22,0.275-0.235c1.299-0.127,2.597-0.258,3.896-0.388
			C243.704,492.78,243.7,492.812,243.696,492.845z"/>
		<path fill="#B2B2B2" d="M239.113,517.133c-0.589-0.109-1.137-0.211-1.684-0.313c-1.444-0.269-2.888-0.541-4.333-0.806
			c-0.229-0.042-0.405-0.127-0.561-0.333c-0.803-1.064-1.498-2.2-2.124-3.386c-0.091-0.173-0.093-0.297,0.013-0.47
			c0.753-1.22,1.496-2.445,2.233-3.675c0.108-0.181,0.197-0.23,0.414-0.182c1.512,0.332,3.027,0.643,4.544,0.947
			c0.278,0.056,0.468,0.15,0.62,0.434c0.888,1.656,1.804,3.295,2.702,4.945c0.044,0.08,0.053,0.239,0.007,0.307
			c-0.547,0.803-1.106,1.597-1.667,2.39C239.233,517.056,239.156,517.098,239.113,517.133z"/>
		<path fill="#B2B2B2" d="M228.949,498.663c0.032-0.113,0.042-0.167,0.062-0.218c0.323-0.828,0.648-1.654,0.971-2.482
			c0.299-0.767,0.883-1.283,1.449-1.811c1.257-1.173,2.687-2.044,4.259-2.664c0.167-0.066,0.313-0.072,0.49,0
			c0.831,0.34,1.61,0.776,2.349,1.299c0.153,0.108,0.18,0.195,0.122,0.377c-0.497,1.548-0.984,3.099-1.468,4.651
			c-0.055,0.177-0.135,0.288-0.309,0.361c-1.588,0.663-3.101,1.483-4.54,2.451c-0.118,0.079-0.2,0.089-0.324,0.01
			c-0.955-0.602-1.916-1.194-2.872-1.793C229.058,498.796,229,498.713,228.949,498.663z"/>
		<path fill="#999999" d="M228.436,499.526c1.068,0.663,2.102,1.301,3.13,1.95c0.063,0.04,0.114,0.16,0.114,0.243
			c-0.002,1.403,0.117,2.796,0.318,4.182c0.035,0.243,0.054,0.495,0.127,0.725c0.112,0.35,0.013,0.618-0.17,0.912
			c-0.716,1.147-1.409,2.309-2.111,3.465c-0.046,0.076-0.095,0.15-0.172,0.269c-0.371-0.276-0.739-0.529-1.085-0.811
			c-0.951-0.776-1.034-0.923-1.339-2.238c-0.416-1.798-0.458-3.612-0.276-5.45C227.098,501.5,227.766,500.541,228.436,499.526z"/>
		<path fill="#C9C9C9" d="M253.746,505.918c-0.416,4.323-2.239,7.73-5.503,10.347c-0.084-0.45-0.158-0.855-0.236-1.26
			c-0.033-0.17-0.048-0.351-0.117-0.505c-0.176-0.396-0.086-0.725,0.108-1.096c0.962-1.843,1.894-3.703,2.847-5.551
			c0.068-0.131,0.198-0.254,0.327-0.32C252.048,507.083,252.902,506.599,253.746,505.918z"/>
		<path fill="#E2E2E2" d="M245.442,491.683c3.245,1.469,5.61,3.855,7.137,7.225c-0.605-0.35-1.163-0.679-1.727-0.995
			c-0.222-0.124-0.449-0.252-0.689-0.324c-0.44-0.132-0.743-0.43-1.034-0.781c-1.14-1.373-2.284-2.744-3.453-4.09
			C245.406,492.407,245.331,492.111,245.442,491.683z"/>
		<path fill="#B2B2B2" d="M233.735,517.105c0.677,0.126,1.315,0.245,1.953,0.364c1.051,0.195,2.103,0.391,3.154,0.587
			c0.068,0.013,0.14,0.022,0.202,0.052c0.56,0.264,1.118,0.532,1.665,0.794C239.41,519.293,234.96,518.167,233.735,517.105z"/>
	</g>
	<g>
		<path opacity="0.2" enable-background="new    " d="M239.819,285.302l-10.664,10.325l3.428,39.313l7.237,2.384v15.618
			l10.783,1.147c0,0,0.058,23.649,0,24.255c-0.058,0.606,5.289-6.726,5.289-6.726l7.353-40.591l-12.642-28.733L239.819,285.302z"/>
		
			<linearGradient id="SVGID_5_" gradientUnits="userSpaceOnUse" x1="607.8982" y1="61.986" x2="607.8982" y2="-41.172" gradientTransform="matrix(0.7521 0 0 -1 -198.924 337.171)">
			<stop  offset="0.034" style="stop-color:#F58E56"/>
			<stop  offset="0.7621" style="stop-color:#F5DB56"/>
		</linearGradient>
		<polygon fill="url(#SVGID_5_)" points="270.601,279.159 262.695,275.185 239.819,285.302 240.855,328.067 246.172,332.354 
			248.764,328.734 248.764,342.41 253.869,347.777 256.559,343.252 255.891,371.617 258.849,378.343 266.585,322.068 
			276.734,306.071 267.416,300.005 		"/>
		
			<linearGradient id="SVGID_6_" gradientUnits="userSpaceOnUse" x1="611.8804" y1="58.012" x2="611.8804" y2="-37.617" gradientTransform="matrix(0.7521 0 0 -1 -198.924 337.171)">
			<stop  offset="0" style="stop-color:#F5DB56"/>
			<stop  offset="1" style="stop-color:#F58E56"/>
		</linearGradient>
		<polygon fill="url(#SVGID_6_)" points="245.809,289.176 246.172,332.354 255.082,329.064 253.869,347.777 260.519,345.628 
			258.849,374.788 276.734,306.071 267.44,309.393 270.601,279.159 		"/>
	</g>
	<g>
		<polygon fill="#5B2D47" points="515.657,418.48 514.264,417.531 514.264,394.529 515.657,395.477 		"/>
		<polygon fill="#5B5738" points="518.399,419.628 517.006,418.68 517.006,395.678 518.399,396.626 		"/>
		<polygon fill="#777777" points="519.859,420.336 518.467,419.387 518.467,396.385 519.859,397.333 		"/>
		<polygon fill="#606060" points="523.949,422.468 522.557,421.52 522.557,398.517 523.949,399.466 		"/>
		<polygon fill="#606060" points="512.638,416.989 511.246,416.04 511.246,393.038 512.638,393.986 		"/>
		<polygon fill="#3E3F2E" points="525.342,422.898 523.949,421.95 523.949,398.947 525.342,399.896 		"/>
		<polygon fill="#3C3249" points="510.194,416.242 508.802,415.294 508.802,392.291 510.194,393.24 		"/>
	</g>
	<polygon opacity="0.8" points="504.898,390.359 508.67,398.241 525.442,406.009 525.443,400.143 	"/>
	<polygon fill="#CECECE" points="401.141,345.509 375.769,356.797 364.707,349.558 390.079,338.271 	"/>
	<polygon fill="#333333" points="343.895,366.641 355.996,370.176 360.749,365.462 349.233,362.174 	"/>
	<path fill="#1E1E1E" d="M422.713,408.662l35.653-14.194l23.515-80.462c0,0-2.779-6.75-12.626-4.609
		c-11.573,2.516-24.094,20.248-24.094,20.248s-10.538-0.112-12.952,4.77c-2.415,4.882-2.809,40.51-4.699,45.029
		c-1.89,4.519-10.201-0.714-11.642,4.147S422.713,408.662,422.713,408.662z"/>
	<g>
		<polygon fill="#3C3249" points="538.806,429.365 537.413,428.417 537.413,405.414 538.806,406.363 		"/>
		<polygon fill="#5B5738" points="541.548,430.514 540.155,429.565 540.155,406.563 541.548,407.511 		"/>
		<polygon fill="#3C3249" points="543.008,431.221 541.616,430.272 541.616,407.27 543.008,408.219 		"/>
		<polygon fill="#606060" points="547.098,433.353 545.706,432.405 545.706,409.402 547.098,410.351 		"/>
		<polygon fill="#606060" points="535.788,427.874 534.395,426.925 534.395,403.923 535.788,404.871 		"/>
		<polygon fill="#3C3249" points="548.491,433.783 547.098,432.835 547.098,409.832 548.491,410.781 		"/>
		<polygon fill="#3C3249" points="533.344,427.127 531.951,426.179 531.951,403.177 533.344,404.125 		"/>
	</g>
	<g>
		<polygon fill="#5B2D47" points="515.351,449.221 513.958,448.272 513.958,425.27 515.351,426.218 		"/>
		<polygon fill="#5B5738" points="518.093,450.369 516.7,449.421 516.7,426.418 518.093,427.367 		"/>
		<polygon fill="#777777" points="519.553,451.077 518.161,450.128 518.161,427.126 519.553,428.074 		"/>
		<polygon fill="#606060" points="523.643,453.209 522.25,452.26 522.25,429.258 523.643,430.206 		"/>
		<polygon fill="#606060" points="512.332,447.729 510.94,446.781 510.94,423.779 512.332,424.727 		"/>
		<polygon fill="#3E3F2E" points="525.036,453.639 523.643,452.691 523.643,429.688 525.036,430.637 		"/>
		<polygon fill="#3C3249" points="509.888,446.983 508.496,446.035 508.496,423.032 509.888,423.981 		"/>
	</g>
	<g>
		<polygon fill="#606060" points="538.498,460.442 537.105,459.494 537.105,436.491 538.498,437.44 		"/>
		<polygon fill="#606060" points="541.24,461.591 539.847,460.642 539.847,437.64 541.24,438.588 		"/>
		<polygon fill="#777777" points="542.7,462.298 541.308,461.35 541.308,438.347 542.7,439.296 		"/>
		<polygon fill="#606060" points="546.79,464.43 545.398,463.482 545.398,440.479 546.79,441.428 		"/>
		<polygon fill="#606060" points="535.479,458.951 534.087,458.002 534.087,435 535.479,435.948 		"/>
		<polygon fill="#3E3F2E" points="548.183,464.86 546.79,463.912 546.79,440.909 548.183,441.858 		"/>
		<polygon fill="#3C5159" points="533.035,458.204 531.643,457.256 531.643,434.254 533.035,435.202 		"/>
	</g>
	<g>
		<polygon fill="#5B2D47" points="492.038,407.459 490.646,406.511 490.646,383.509 492.038,384.457 		"/>
		<polygon fill="#5B5738" points="494.78,408.608 493.388,407.659 493.388,384.657 494.78,385.605 		"/>
		<polygon fill="#777777" points="498.188,410.104 494.848,408.367 494.848,385.364 498.274,387.497 		"/>
		<polygon fill="#606060" points="500.331,411.447 498.938,410.499 498.938,387.497 500.331,388.445 		"/>
		<polygon fill="#606060" points="489.02,405.968 487.627,405.02 487.627,382.017 489.02,382.966 		"/>
		<polygon fill="#3E3F2E" points="501.723,411.878 500.331,410.929 500.331,387.927 501.723,388.875 		"/>
		<polygon fill="#3C5159" points="486.576,405.222 485.183,404.273 485.183,381.271 486.576,382.219 		"/>
	</g>
	<g>
		<polygon fill="#5B2D47" points="491.973,438.103 490.58,437.155 490.58,414.152 491.973,415.101 		"/>
		<polygon fill="#5B5738" points="494.715,439.252 493.322,438.303 493.322,415.301 494.715,416.249 		"/>
		<polygon fill="#5B2D47" points="496.175,439.959 494.782,439.011 494.782,416.008 496.175,416.957 		"/>
		<polygon fill="#606060" points="500.265,442.091 498.872,441.143 498.872,418.14 500.265,419.089 		"/>
		<polygon fill="#5B2D47" points="488.954,436.612 487.562,435.664 487.562,412.661 488.954,413.61 		"/>
		<polygon fill="#5B2D47" points="501.658,442.522 500.265,441.573 500.265,418.571 501.658,419.519 		"/>
		<polygon fill="#3C3249" points="486.51,435.866 485.117,434.917 485.117,411.915 486.51,412.863 		"/>
	</g>
	<g>
		<polygon fill="#5B2D47" points="562.397,441.015 561.005,440.066 561.005,417.064 562.397,418.012 		"/>
		<polygon fill="#5B5738" points="565.139,442.163 563.747,441.215 563.747,418.212 565.139,419.161 		"/>
		<polygon fill="#777777" points="566.6,442.87 565.207,441.922 565.207,418.92 566.6,419.868 		"/>
		<polygon fill="#606060" points="570.69,445.003 569.297,444.054 569.297,421.052 570.69,422 		"/>
		<polygon fill="#606060" points="559.379,439.523 557.986,438.575 557.986,415.572 559.379,416.521 		"/>
		<polygon fill="#3E3F2E" points="572.083,445.433 570.69,444.484 570.69,421.482 572.083,422.43 		"/>
		<polygon fill="#3C5159" points="556.935,438.777 555.542,437.828 555.542,414.826 556.935,415.774 		"/>
	</g>
	<g>
		<polygon fill="#5B2D47" points="586.939,483.579 585.547,482.63 585.547,459.628 586.939,460.576 		"/>
		<polygon fill="#5B5738" points="589.681,484.727 588.289,483.779 588.289,460.776 589.681,461.725 		"/>
		<polygon fill="#777777" points="591.142,485.434 589.749,484.486 589.749,461.484 591.142,462.432 		"/>
		<polygon fill="#606060" points="595.232,487.567 593.839,486.618 593.839,463.616 595.232,464.564 		"/>
		<polygon fill="#606060" points="583.921,482.087 582.528,481.139 582.528,458.136 583.921,459.085 		"/>
		<polygon fill="#3E3F2E" points="596.625,487.997 595.232,487.048 595.232,464.046 596.625,464.994 		"/>
		<polygon fill="#3C5159" points="581.477,481.341 580.084,480.392 580.084,457.39 581.477,458.338 		"/>
	</g>
	<g>
		<polygon fill="#5B2D47" points="562.332,471.491 560.939,470.542 560.939,447.54 562.332,448.488 		"/>
		<polygon fill="#5B5738" points="565.074,472.639 563.681,471.691 563.681,448.688 565.074,449.637 		"/>
		<polygon fill="#5B5738" points="566.534,473.346 565.142,472.398 565.142,449.396 566.534,450.344 		"/>
		<polygon fill="#606060" points="570.624,475.479 569.232,474.53 569.232,451.528 570.624,452.476 		"/>
		<polygon fill="#5B5738" points="559.313,469.999 557.921,469.051 557.921,446.048 559.313,446.997 		"/>
		<polygon fill="#5B5738" points="572.017,475.909 570.624,474.96 570.624,451.958 572.017,452.906 		"/>
		<polygon fill="#3C3249" points="556.869,469.253 555.477,468.304 555.477,445.302 556.869,446.25 		"/>
	</g>
	<g>
		<polygon fill="#5B2D47" points="585.042,452.176 583.649,451.227 583.649,428.225 585.042,429.173 		"/>
		<polygon fill="#415B56" points="587.784,453.324 586.391,452.376 586.391,429.373 587.784,430.322 		"/>
		<polygon fill="#777777" points="589.245,454.031 587.852,453.083 587.852,430.081 589.245,431.029 		"/>
		<polygon fill="#415B56" points="593.334,456.164 591.942,455.215 591.942,432.213 593.334,433.161 		"/>
		<polygon fill="#415B56" points="582.024,450.684 580.631,449.736 580.631,426.733 582.024,427.682 		"/>
		<polygon fill="#3E3F2E" points="594.727,456.594 593.334,455.645 593.334,432.643 594.727,433.591 		"/>
		<polygon fill="#3C3249" points="579.58,449.938 578.187,448.989 578.187,425.987 579.58,426.935 		"/>
	</g>
	<polygon opacity="0.8" points="552.287,443.188 556.059,451.069 572.83,458.837 572.831,452.971 	"/>
	<polygon opacity="0.8" points="576.106,454.975 579.878,462.857 596.649,470.624 596.65,464.758 	"/>
	<polygon opacity="0.8" points="551.039,412.102 554.811,419.984 571.582,427.751 571.583,421.885 	"/>
	<polygon opacity="0.8" points="574.858,423.889 578.63,431.771 595.401,439.538 595.402,433.672 	"/>
	<polygon opacity="0.8" points="528.117,401.402 531.889,409.284 548.66,417.051 548.661,411.185 	"/>
	<polygon opacity="0.8" points="506.146,421.445 509.918,429.327 525.159,436.386 525.159,430.137 	"/>
	<polygon opacity="0.8" points="527.955,431.608 531.727,439.49 548.498,447.257 548.499,441.391 	"/>
	<polygon opacity="0.8" points="481.295,378.912 485.067,386.794 501.838,394.561 501.839,388.695 	"/>
	<polygon opacity="0.8" points="482.543,409.997 486.315,417.879 503.086,425.647 503.087,419.781 	"/>
	<polygon opacity="0.2" enable-background="new    " points="202.051,268.271 164.602,269.752 164.602,225.849 223.864,196.294 
		274.162,192.746 216.89,245.258 	"/>
	<g>
		<path fill="#3A1C1C" d="M345.135,618.876c1.783,0.237,4.636-2.015,5.974-3.438c1.783-1.897,4.636-5.216,5.795-7.825
			c1.07-2.371,2.407-5.809,1.961-8.536c-0.357-2.608-2.051-4.624-2.051-7.232c0-2.015,0.981-3.082,1.962-4.505
			c1.07-1.423,1.694-2.964,2.496-4.624c0.802-1.66,1.159-3.201,1.872-4.861c0.713-1.778,2.407-2.964,2.853-4.742
			c-1.07,1.067-1.516,4.149-2.051,5.928c-0.624,1.778-1.337,3.319-1.961,5.098c-1.159,3.319-0.178,6.046,1.694,8.654
			c2.229,3.082,4.28,7.587,2.051,11.737c-1.872,3.438-4.547,5.809-7.133,8.18c-2.051,1.897-3.923,3.794-6.419,4.386
			c-1.07,0.237-2.14,0.119-3.121,0.711c-1.07,0.474-2.14,1.541-3.299,1.541"/>
	</g>
	<g>
		<path fill="#3A1C1C" d="M390.071,622.196c-0.446-5.572-0.981-11.144-0.624-16.716c0.178-3.082,1.07-5.691,1.248-8.654
			c0.297-5.134,1.342-6.615,1.342-8.749c0-2.134-0.45-4.648-0.45-6.782c0-2.49-1.516-5.098-2.318-7.232
			c-1.872-4.979-4.19-8.654-3.299-14.226c-1.516,1.423-1.516,6.046-0.981,8.18c0.535,2.727,1.694,5.216,2.496,7.706
			c1.962,6.165,2.853,11.5,1.605,18.257c-0.535,3.201-1.605,6.165-1.961,9.484c-0.357,4.031-0.178,8.536-1.248,12.448
			c-2.051,7.469-6.865,11.855-9.273,18.613c-0.357,1.067-0.802,2.134-1.07,3.082c1.872-3.794,4.815-5.162,7.4-8.245
			c2.229-2.49,4.636-6.93,7.4-7.286"/>
	</g>
	<path fill="#373751" d="M160.738,507.184c0,0-17.305,8.431-35.882,0c-0.523-4.425-5.344-45.249-5.344-45.249h46.57L160.738,507.184
		z"/>
	<ellipse fill="#0F0F0F" cx="142.797" cy="461.978" rx="23.285" ry="4.827"/>
	<polygon fill="#E6E6EF" points="121.063,475.068 126.128,482.266 132.236,476.929 137.834,484.594 145.214,478.645 
		150.304,486.433 158.266,478.928 160.746,485.622 164.108,478.645 164.602,474.461 161.678,480.142 158.266,473.433 
		150.558,481.507 145.469,473.433 138.343,479.933 132.236,472.337 126.383,476.929 121.063,471.105 	"/>
	<polygon fill="#D1D1D1" points="451.78,267.604 431.597,258.427 438.505,218.605 458.688,227.782 	"/>
	<polygon fill="#232323" points="468.291,274.337 457.275,269.328 461.046,247.593 472.062,252.601 	"/>
	<polygon fill="#232323" points="449.465,260.965 436.321,254.988 441.085,226.064 454.23,232.041 	"/>
	<polygon fill="#D1D1D1" points="466.883,269.14 460.148,266.078 462.453,252.789 469.189,255.851 	"/>
	<g>
		<path fill="#262D38" d="M494.349,282.931c0,0-6.739,4.532-15.09,0c-0.204-1.874-1.735-15.906-1.735-15.906h18.126L494.349,282.931
			z"/>
		<ellipse fill="#141414" cx="486.587" cy="267.025" rx="9.063" ry="2.727"/>
		<path fill="#232323" d="M478.094,267.969c1.278,1.04,4.593,1.782,8.493,1.782c3.9,0,7.215-0.743,8.493-1.782
			c-1.278-1.04-4.593-1.782-8.493-1.782C482.687,266.187,479.372,266.929,478.094,267.969z"/>
		<path fill="#193D2F" d="M482.597,267.969c0,0-6.542-16.454-6.185-20.597s2.26-8.147,6.423-8.7
			c4.163-0.552,8.208,1.795,9.397,6.628s-1.303,21.302-1.071,22.668C491.394,269.335,482.597,267.969,482.597,267.969z"/>
		<path fill="#112D21" d="M493.601,233.622c-0.655,2.979,2.913,14.855,1.367,19.659c-0.952,1.686-2.592,1.954-2.592,1.954
			l-0.278,3.735c0,0,6.438-2.221,6.795-4.279c0.357-2.058,2.824-15.328,1.828-20.437
			C499.726,229.144,494.256,230.643,493.601,233.622z"/>
		<path fill="#112D21" d="M476.873,244.887c-0.834-0.238-6.647-1.523-4.149-4.973c2.498-3.45,5.316,2.416,5.316,2.416
			S477.707,245.124,476.873,244.887z"/>
		<path fill="#112D21" d="M486.587,238.982c6.662,3.912,3.517,29.594,3.517,29.594"/>
		<path fill="#112D21" d="M484.476,238.593c3.204,1.862,2.917,29.983,2.917,29.983"/>
		<path fill="#112D21" d="M482.041,238.826c-1.805,5.454,3.067,29.474,3.067,29.474"/>
		<path fill="#112D21" d="M479.083,240.559c-2.287,10.01,4.725,27.581,4.725,27.581"/>
		<path fill="none" d="M498.344,231.071c1.629,5.908,0.374,20.606-0.757,23.279s-5.032,3.402-5.032,3.402"/>
		<path fill="none" d="M495.65,231.264c1.286,2.945,1.986,18.556,0.877,21.578c-1.109,3.021-4.244,3.641-4.244,3.641"/>
	</g>
	<g>
		<polygon fill="#5E2121" points="444.998,161.34 432.328,166.47 451.601,175.609 465.037,170.424 		"/>
		<polygon fill="#BC5250" points="432.328,166.47 432.328,175.609 451.601,184.883 451.601,175.609 		"/>
		<polygon fill="#6B2626" points="465.037,170.424 465.037,180.064 451.601,184.883 451.601,175.609 		"/>
		<polyline fill="none" points="432.328,169.621 451.601,178.457 465.037,173.704 		"/>
		<path fill="#280C0B" d="M456.696,176.655c0.963,3.141,3.43,1.865,3.531-0.978"/>
	</g>
	<g>
		<polygon fill="#171F3A" points="445.757,154.13 435.694,158.204 451,165.462 461.671,161.345 		"/>
		<polygon fill="#22294C" points="435.694,158.204 435.694,165.462 451,172.828 451,165.462 		"/>
		<polygon fill="#0B1328" points="461.671,161.345 461.671,169 451,172.828 451,165.462 		"/>
		<polyline fill="none" points="435.694,160.707 451,167.724 461.671,163.95 		"/>
		<path fill="none" d="M455.046,166.293c0.765,2.495,2.724,1.481,2.804-0.777"/>
	</g>
	<g>
		<polygon fill="#33513E" points="472.631,177.596 462.568,181.67 477.874,188.928 488.545,184.811 		"/>
		<polygon fill="#4C765E" points="462.568,181.67 462.568,188.928 477.874,196.294 477.874,188.928 		"/>
		<polygon fill="#3D634C" points="488.545,184.811 488.545,192.466 477.874,196.294 477.874,188.928 		"/>
		<polyline fill="none" points="462.568,184.173 477.874,191.19 488.545,187.415 		"/>
		<path fill="#423D31" d="M481.921,189.759c0.765,2.495,2.724,1.481,2.804-0.777"/>
	</g>
	<g>
		<path fill="#E2DDBF" d="M414.305,315.156c0,0-1.309,3.919-2.005,5.871c4.818,2.288,8.913,0,8.913,0l-2.451-5.871"/>
		<path fill="#FFFFFF" d="M411.186,300.479c0,0-3.342,10.662-4.011,12.682c10.472,4.489,18.494,0,18.494,0l-4.456-12.682H411.186z"
			/>
		<ellipse fill="#E2DDBF" cx="416.199" cy="300.479" rx="5.013" ry="1.234"/>
	</g>
	<g>
		<path fill="#0C0C0C" stroke="#070707" stroke-width="0.5" stroke-miterlimit="10" d="M547.686,372.71v2.051
			c0,0.709,1.474,1.284,3.293,1.284c1.819,0,3.293-0.575,3.293-1.284v-2.051H547.686z"/>
		
			<ellipse fill="#0C0C0C" stroke="#070707" stroke-width="0.5" stroke-miterlimit="10" cx="550.979" cy="372.71" rx="3.293" ry="1.284"/>
		<polygon fill="#5B5B5B" stroke="#070707" stroke-width="0.5" stroke-miterlimit="10" points="550.276,372.71 550.276,367.149 
			551.835,366.754 551.835,372.365 		"/>
		<path fill="#5B5B5B" stroke="#070707" stroke-width="0.5" stroke-miterlimit="10" d="M550.276,368.413
			c-8.277-0.277-8.277,4.386-14.578,7.057c0.378,0.23,1.1,0.689,1.456,0.886c6.746-2.907,4.785-6.125,13.122-6.441
			C550.276,369.322,550.276,369.085,550.276,368.413z"/>
		<polygon fill="#212121" stroke="#070707" stroke-width="0.5" stroke-miterlimit="10" points="535.241,375.364 537.49,376.62 
			533.558,377.887 531.204,376.477 		"/>
		
			<rect x="551.835" y="368.611" fill="#5B5B5B" stroke="#070707" stroke-width="0.5" stroke-miterlimit="10" width="2.08" height="1.423"/>
		
			<rect x="553.916" y="367.742" fill="#5B5B5B" stroke="#070707" stroke-width="0.5" stroke-miterlimit="10" width="2.378" height="3.122"/>
	</g>
	<g>
		<path fill="#0C0C0C" stroke="#070707" stroke-width="0.5" stroke-miterlimit="10" d="M593.182,394.428v2.051
			c0,0.709,1.474,1.284,3.293,1.284c1.819,0,3.293-0.575,3.293-1.284v-2.051H593.182z"/>
		
			<ellipse fill="#0C0C0C" stroke="#070707" stroke-width="0.5" stroke-miterlimit="10" cx="596.475" cy="394.428" rx="3.293" ry="1.284"/>
		<polygon fill="#5B5B5B" stroke="#070707" stroke-width="0.5" stroke-miterlimit="10" points="595.771,394.428 595.771,388.867 
			597.331,388.471 597.331,394.083 		"/>
		<path fill="#5B5B5B" stroke="#070707" stroke-width="0.5" stroke-miterlimit="10" d="M595.771,390.131
			c-8.277-0.277-8.277,4.386-14.578,7.057c0.378,0.23,1.1,0.689,1.456,0.887c6.746-2.907,4.785-6.125,13.122-6.441
			C595.771,391.04,595.771,390.803,595.771,390.131z"/>
		<polygon fill="#212121" stroke="#070707" stroke-width="0.5" stroke-miterlimit="10" points="580.737,397.082 582.986,398.338 
			579.054,399.605 576.7,398.195 		"/>
		
			<rect x="597.331" y="390.329" fill="#5B5B5B" stroke="#070707" stroke-width="0.5" stroke-miterlimit="10" width="2.08" height="1.423"/>
		
			<rect x="599.412" y="389.459" fill="#5B5B5B" stroke="#070707" stroke-width="0.5" stroke-miterlimit="10" width="2.378" height="3.122"/>
	</g>
	<polygon fill="#303030" points="596.92,370.199 596.92,412.48 614.418,421.025 614.418,378.477 	"/>
	<path fill="#D3D3D3" stroke="#070707" stroke-miterlimit="10" d="M611.866,400.521c0.997,5.966-0.894,11.599-4.224,12.583
		s-6.837-3.055-7.834-9.021s0.894-11.599,4.224-12.583C607.362,390.516,610.869,394.555,611.866,400.521z"/>
	<path fill="#0C0C0C" stroke="#070707" stroke-miterlimit="10" d="M608.56,382.251c0.478,2.861-0.429,5.563-2.026,6.035
		c-1.597,0.472-3.279-1.465-3.757-4.326s0.429-5.563,2.026-6.035S608.082,379.389,608.56,382.251z"/>
	<polygon fill="#191919" points="614.418,421.025 632.665,414.558 632.665,372.251 614.418,378.477 	"/>
	<polygon fill="#3F3F3F" points="596.92,370.199 614.418,378.477 632.665,372.251 614.698,364.366 	"/>
	<path fill="#A3A3A3" stroke="#070707" stroke-width="0.25" stroke-miterlimit="10" d="M609.929,401.632
		c0.375,2.243-0.336,4.362-1.588,4.732s-2.571-1.149-2.946-3.392s0.336-4.362,1.588-4.732S609.554,399.388,609.929,401.632z"/>
	<polygon fill="#3D3D3D" points="555.82,377.318 574.858,385.884 550.276,394.561 530.901,386.124 	"/>
	<polygon fill="#303030" points="530.512,392.861 550.276,401.402 550.276,394.561 530.901,386.124 	"/>
	<line fill="none" stroke="#070707" stroke-miterlimit="10" x1="540.153" y1="387.184" x2="547.408" y2="390.329"/>
	<line fill="none" stroke="#070707" stroke-miterlimit="10" x1="544.212" y1="385.679" x2="550.605" y2="383.231"/>
	<line fill="none" stroke="#070707" stroke-miterlimit="10" x1="549.946" y1="388.648" x2="556.339" y2="386.2"/>
	<polygon fill="#0C0C0C" stroke="#070707" stroke-miterlimit="10" points="543.361,385.217 545.807,386.4 545.807,383.1 
		543.661,382.298 	"/>
	<polygon fill="#0C0C0C" stroke="#070707" stroke-miterlimit="10" points="553.049,386.547 555.495,387.73 555.495,384.43 
		553.35,383.629 	"/>
	<g>
		<path fill="#0C0C0C" stroke="#070707" stroke-miterlimit="10" d="M553.017,379.221v2.805c0,0.219,0.402,0.396,0.898,0.396
			c0.496,0,0.898-0.177,0.898-0.396v-2.805H553.017z"/>
		<ellipse fill="#0C0C0C" stroke="#070707" stroke-miterlimit="10" cx="553.916" cy="378.948" rx="0.898" ry="0.396"/>
	</g>
	<g>
		<path fill="#0C0C0C" stroke="#070707" stroke-miterlimit="10" d="M556.116,378.557v2.805c0,0.219,0.402,0.396,0.898,0.396
			s0.898-0.177,0.898-0.396v-2.805H556.116z"/>
		<ellipse fill="#0C0C0C" stroke="#070707" stroke-miterlimit="10" cx="557.014" cy="378.283" rx="0.898" ry="0.396"/>
	</g>
	<g>
		<path fill="#0C0C0C" stroke="#070707" stroke-miterlimit="10" d="M558.122,382.298v2.805c0,0.219,0.402,0.396,0.898,0.396
			c0.496,0,0.898-0.177,0.898-0.396v-2.805H558.122z"/>
		<ellipse fill="#0C0C0C" stroke="#070707" stroke-miterlimit="10" cx="559.02" cy="382.024" rx="0.898" ry="0.396"/>
	</g>
	<g>
		<path fill="#0C0C0C" stroke="#070707" stroke-miterlimit="10" d="M561.22,381.633v2.805c0,0.219,0.402,0.396,0.898,0.396
			c0.496,0,0.898-0.177,0.898-0.396v-2.805H561.22z"/>
		<ellipse fill="#0C0C0C" stroke="#070707" stroke-miterlimit="10" cx="562.118" cy="381.359" rx="0.898" ry="0.396"/>
	</g>
	<g>
		<g>
			<path fill="#020202" d="M300.684,569.955c6.151,6.167,16.066,8.987,24.182,5.02c5.236-2.559,8.617-10.205,10.739-15.235
				c2.085-4.942,4.456-13.643-2.284-16.012c-6.394-2.247-4.372,5.289-2.898,8.497c4.263,9.282,14.372,11.542,23.815,12.096
				c12.002,0.704,25.227-0.836,36.895-3.687c10.944-2.674,20.048-8.541,27.448-16.961c10.169-11.569,16.256-24.858,33.396-26.609
				c13.551-1.384,28.427,3.389,40.637,8.853c12.914,5.779,23.932,14.451,29.777,27.54c2.768,6.198,4.071,12.988,3.51,19.754
				c-0.204,2.46-1.239,7.427-4.697,4.735c-1.97-1.534-3.218-4.029-4.265-6.221c-2.137-4.476-2.931-9.585-1.655-14.404
				c1.753-6.62,9.077-8.841,14.988-10.004c14.025-2.76,29.007-5.146,43.282-3.852c10.239,0.928,21.498-0.868,31.378-3.696
				c8.551-2.448,13.056-9.208,16.646-16.85c2.625-5.588,5.567-11.15,7.442-17.039c2.235-7.021,2.713-14.074,6.18-20.703
				c1.866-3.569,2.034-2.325,3.033-6.259c0.128-0.505,0.256-4.935,0.136-4.463c-1.454,5.723-4.776,10.531-6.973,15.949
				c-2.63,6.487-2.879,13.765-5.495,20.34c-4.445,11.169-9.638,25.044-22.245,28.653c-5.563,1.592-11.47,2.15-17.18,2.996
				c-7.622,1.129-15.054-0.304-22.703-0.066c-11.793,0.366-23.99,2.209-35.53,4.687c-7.779,1.67-14.254,5.725-15.053,14.223
				c-0.477,5.077,2.546,16.927,8.603,18.415c6.839,1.68,5.849-10.737,5.47-14.364c-1.321-12.627-8.661-23.544-18.456-31.155
				c-8.731-6.784-19.156-11.159-29.69-14.26c-10.046-2.957-21.426-5.268-31.843-2.863c-10.604,2.448-17.207,9.824-23.495,18.239
				c-8.858,11.855-18.166,20.79-32.831,24.701c-5.553,1.481-11.322,2.117-17.028,2.673c-8.164,0.795-16.447,1.498-24.61,0.378
				c-5.748-0.788-12.364-2.986-15.705-8.019c-1.102-1.66-6.702-12.42-0.705-10.313c8.136,2.859,0.532,17.395-1.927,21.623
				c-1.66,2.856-3.989,6.814-7.073,8.322c-7.359,3.596-16.456,0.212-21.869-5.216C301.687,569.053,300.319,569.589,300.684,569.955
				L300.684,569.955z"/>
		</g>
	</g>
	<polygon fill="#FFFFFF" stroke="#070707" stroke-miterlimit="10" points="497.486,590.804 418.419,625.98 353.468,595.883 
		425.41,554.842 	"/>
	<polygon fill="#D1942A" points="409.771,506.42 415.953,562.883 484.056,595.883 484.056,539.503 	"/>
	<path fill="#EAB03D" d="M416.45,479.622c-0.085-0.04-0.169-0.08-0.255-0.117l-0.096-0.044l-0.002,0.008
		c-0.862-0.357-1.769-0.56-2.71-0.56c-5.431,0-9.834,6.367-9.834,14.22c0,6,2.573,11.121,6.208,13.209l-0.019,0.081l75.285,33.699
		l5.567-27.692L416.45,479.622z"/>
	<ellipse fill="#B77A21" cx="488.175" cy="526.647" rx="9.834" ry="14.22"/>
	<polyline fill="none" stroke="#070707" stroke-miterlimit="10" points="431.92,619.974 449.183,496.159 433.14,480.786 	"/>
	<polygon fill="#B77A21" points="495.576,536.005 495.576,591.654 482.773,597.35 491.036,540.867 	"/>
	<g>
		<g>
			<path fill="#963636" d="M381.274,616.34l-0.92-0.391c6.905-16.274,6.064-34.729,6.056-34.914l0.998-0.051
				C387.418,581.171,388.271,599.849,381.274,616.34z"/>
		</g>
	</g>
	<path fill="#161616" d="M362.99,371.364c-1.007,1.43-10.524,0.261-17.533,0.826c-3.186,0.04-3.886-2.36-3.886-2.36
		s-7.296,6.12-3.282,14.081c4.013,7.962,13.298,3.374,16.305,11.913c3.006,8.54-5.704,13.932-7.19,15.212
		c-4.211,3.629-5.133-2.938-3.055-4.545c2.078-1.608,6.764-3.293,6.344-9.765c-0.421-6.473-17.428-3.518-18.118-13.172
		c-0.689-9.654,4.76-16.866,4.76-16.866s-1.184-19.844,10.894-18.743c12.077,1.1,15.507-2.188,15.507-2.188l0.921-1.403l2.129-5.465
		l2.715,3.405l6.309,0.909l3.072-3.222l0.943,4.928c0,0,2.181,5.029-0.571,7.965c-1.122,1.197-3.915,2.218-3.915,2.218
		s1.728,1.324,2.874,2.202c5.138,1.678,8.329,11.861,5.989,11.641c-2.34-0.22-6.605-7.087-9.24-6.627
		c-2.635,0.459-10.582,6.542-18.488,5.025C361.938,368.37,363.999,369.933,362.99,371.364z"/>
	<g opacity="0.4">
		<path d="M292.779,567.79c1.061-2.399,3.975-7.091,8.098-6.457c3.805,0.521,4.351,4.315,4.079,6.58
			c-0.259,2.977-1.171,4.897-0.008,7.848c0.993,2.359,0.737,5.455-0.802,7.625c-1.689,2.648-6.418,3.333-9.89,3.637
			c-2.842,0.173-7.249,1.209-9.643,0.066c-3.351-1.6-3.58-5.282-4.894-7.873c-1.482-3.063-1.347-4.255-0.459-7.482
			c0.738-2.749,2.248-6.463,6.671-6.667c2.213-0.042,2.229,0.789,3.825,1.591c2.393,1.143,3.002-0.057,5.199-0.932"/>
	</g>
	<g>
		<path fill="#0A0A0A" stroke="#000000" stroke-miterlimit="10" d="M296.516,558.98l-1.681-0.333
			c-0.3-0.029-2.764,0.221-3.064,0.246c-3.887,0.318-6.23,5.12-5.234,10.725c0.936,5.266,4.486,9.366,8.135,9.581l0,0.001
			l0.039-0.001c0.223,0.011,0.446,0.013,0.668-0.006c0.043-0.003,0.084-0.015,0.127-0.02l2.907-0.095l-0.113-1.194
			c2.031-1.847,3.022-5.423,2.312-9.416c-0.557-3.132-2.04-5.851-3.917-7.587L296.516,558.98z"/>
		<path fill="#0A0A0A" stroke="#000000" stroke-miterlimit="10" d="M267.736,565.586c1.85,0.098,3.422,2.369,3.511,5.072
			c0.089,2.703-1.34,4.813-3.19,4.715s-3.422-2.369-3.512-5.071C264.458,567.598,265.886,565.488,267.736,565.586z"/>
		<path fill="#020202" stroke="#000000" stroke-miterlimit="10" d="M303.989,568.32c0.996,5.605-1.346,10.407-5.234,10.725
			c-3.887,0.318-7.845-3.969-8.842-9.575c-0.996-5.605,1.346-10.407,5.234-10.725C299.034,558.428,302.993,562.715,303.989,568.32z"
			/>
		<path fill="#0C0C0C" stroke="#000000" stroke-miterlimit="10" d="M300.918,568.73c0.53,2.983-0.716,5.539-2.786,5.708
			c-2.068,0.169-4.175-2.112-4.705-5.095c-0.53-2.983,0.716-5.539,2.786-5.708C298.281,563.465,300.387,565.747,300.918,568.73z"/>
		<path fill="#0A0A0A" stroke="#000000" stroke-miterlimit="10" d="M276.411,560.059l-1.681-0.333
			c-0.3-0.029-2.764,0.221-3.064,0.246c-3.887,0.318-6.23,5.12-5.234,10.725c0.936,5.266,4.486,9.366,8.135,9.581l0,0.001
			l0.039-0.001c0.223,0.011,0.446,0.013,0.668-0.006c0.043-0.003,0.084-0.015,0.127-0.02l2.907-0.095l-0.113-1.194
			c2.031-1.847,3.022-5.423,2.312-9.416c-0.557-3.132-2.04-5.851-3.917-7.587L276.411,560.059z"/>
		<path fill="#191919" stroke="#000000" stroke-miterlimit="10" d="M283.572,569.3c0.996,5.605-1.346,10.407-5.234,10.725
			c-3.887,0.318-7.845-3.969-8.842-9.575c-0.996-5.605,1.346-10.407,5.234-10.725C278.617,559.408,282.576,563.695,283.572,569.3z"
			/>
		<path fill="#0C0C0C" stroke="#000000" stroke-miterlimit="10" d="M279.206,569.657c0.378,2.128-0.511,3.951-1.987,4.071
			c-1.476,0.12-2.978-1.507-3.357-3.635c-0.378-2.128,0.511-3.951,1.987-4.071C277.325,565.902,278.828,567.529,279.206,569.657z"/>
		<path fill="#020202" stroke="#000000" stroke-miterlimit="10" d="M269.509,560.432c0,0-1.457-13.52,7.101-16.194
			c-10.973,3.183-9.459,18.723-9.459,18.723L269.509,560.432z"/>
		<path fill="none" stroke="#000000" stroke-miterlimit="10" d="M282.617,543.559c15.032,2.98,12.874,24.834,12.86,26.443
			c-0.013,1.61,2.804,1.211,2.857-0.23c0.054-1.44,1.684-22.674-12.97-25.865c-0.959-0.209-1.988-0.334-3.092-0.365
			c-17.973-0.489-15.02,20.446-15.02,20.446"/>
		<path fill="#020202" d="M295.501,569.459c-0.063-1.594,2.011-22.093-11.655-25.803c16.94,1.846,14.479,24.421,14.489,26.117
			C298.345,571.468,295.565,571.053,295.501,569.459z"/>
	</g>
	<polygon fill="#333333" points="323.849,302.145 353.126,277.926 353.126,327.577 323.849,351.797 	"/>
	<polygon fill="#2B2B2B" points="325.876,303.613 351.774,282.188 351.774,326.11 325.876,347.534 	"/>
	<g>
		<polygon fill="#333333" points="356.243,277.449 405.544,270.578 405.544,320.229 356.243,327.101 		"/>
		<polygon fill="#232323" points="375.577,324.406 375.577,335.073 386.209,333.726 386.209,322.924 		"/>
		<polygon fill="#353535" points="371.361,335.802 390.267,333.221 394.487,335.802 374.315,338.72 		"/>
		<polygon fill="#474747" points="357.514,279.012 404.025,272.706 404.025,318.277 357.514,324.584 		"/>
	</g>
	<polygon opacity="0.5" enable-background="new    " points="576.318,407.627 576.318,414.364 600.6,414.277 596.92,407.627 
		596.92,400.347 	"/>
	<polygon opacity="0.5" enable-background="new    " points="513.778,370.199 545.807,367.742 534.899,362.846 	"/>
	<polygon opacity="0.5" enable-background="new    " points="623.006,422.748 614.418,421.025 631.952,414.811 637.419,417.39 	"/>
	
		<radialGradient id="SVGID_7_" cx="590.1201" cy="233.6919" r="578.4896" gradientTransform="matrix(0.7521 0 0 -1 -198.924 337.171)" gradientUnits="userSpaceOnUse">
		<stop  offset="0.1872" style="stop-color:#FFFFFF;stop-opacity:0"/>
		<stop  offset="0.3251" style="stop-color:#FFFFFF;stop-opacity:0.4"/>
		<stop  offset="0.8276" style="stop-color:#FFFFFF;stop-opacity:0"/>
	</radialGradient>
	<path opacity="0.9" fill="url(#SVGID_7_)" d="M306.22,153.337l80.412-45.432l210.352-19.19l52.76,107.501l45.948,84.028
		l-2.949,221.496L487.4,623.175L315.532,351.641c0,0,3.766-65.195-9.312-114.528C299.071,181.67,306.22,153.337,306.22,153.337z"/>
	<polygon fill="#919191" points="208.622,484.064 205.22,485.641 205.22,460.73 208.622,459.153 	"/>
	<polygon fill="#38434C" points="212.86,482.106 209.458,483.683 209.458,458.772 212.86,457.195 	"/>
	<polygon fill="#47513E" points="217.152,480.248 213.75,481.825 213.75,456.914 217.152,455.337 	"/>
	<polygon fill="#919191" points="220.001,478.95 216.599,480.527 216.599,455.616 220.001,454.039 	"/>
	<polygon fill="#38434C" points="223.082,477.574 219.68,479.151 219.68,454.24 223.082,452.663 	"/>
	<polygon fill="#5B5B5B" points="225.931,476.276 222.529,477.853 222.529,452.942 225.931,451.365 	"/>
	<polygon fill="#726739" points="229.845,474.551 226.444,476.128 226.444,451.217 229.845,449.639 	"/>
	<polygon fill="#38434C" points="234.137,472.692 230.736,474.269 230.736,449.358 234.137,447.781 	"/>
	<polygon fill="#919191" points="236.986,471.394 233.585,472.971 233.585,448.06 236.986,446.483 	"/>
	<polygon opacity="0.5" enable-background="new    " points="205.22,467.529 205.22,460.73 260.664,435.698 244.751,460.726 
		236.986,464.005 236.986,453.629 	"/>
	
		<radialGradient id="SVGID_8_" cx="1081.481" cy="-30.8866" r="9.8462" gradientTransform="matrix(0.7521 0 0 -1 -198.924 337.171)" gradientUnits="userSpaceOnUse">
		<stop  offset="0.07" style="stop-color:#FFDA7D;stop-opacity:0.6"/>
		<stop  offset="1" style="stop-color:#000000;stop-opacity:0"/>
	</radialGradient>
	<polygon fill="url(#SVGID_8_)" points="596.92,370.063 614.418,378.341 632.665,372.115 614.698,364.23 	"/>
	<g>
		
			<radialGradient id="SVGID_9_" cx="1075.3081" cy="-54.722" r="1.8543" gradientTransform="matrix(0.9005 -0.2765 -0.2591 -0.961 -366.0595 612.9204)" gradientUnits="userSpaceOnUse">
			<stop  offset="0.1379" style="stop-color:#FFEF6A"/>
			<stop  offset="0.9409" style="stop-color:#D4AB00"/>
		</radialGradient>
		<path fill="url(#SVGID_9_)" d="M618.661,368.16c0.099,0.367-0.219,0.787-0.71,0.938s-0.97-0.024-1.069-0.391
			s0.219-0.787,0.71-0.938C618.083,367.618,618.562,367.793,618.661,368.16z"/>
		
			<radialGradient id="SVGID_10_" cx="1092.6641" cy="-22.1485" r="0.9858" gradientTransform="matrix(0.937 0 0 -1 -411.5454 337.171)" gradientUnits="userSpaceOnUse">
			<stop  offset="0.1379" style="stop-color:#FFEF6A"/>
			<stop  offset="0.9409" style="stop-color:#D4AB00"/>
		</radialGradient>
		<polygon fill="url(#SVGID_10_)" points="611.985,360.283 611.374,358.356 613.263,359.319 		"/>
		
			<radialGradient id="SVGID_11_" cx="1094.9785" cy="-27.7374" r="5.2741" gradientTransform="matrix(0.937 0 0 -1 -411.5454 337.171)" gradientUnits="userSpaceOnUse">
			<stop  offset="0.1379" style="stop-color:#FFEF6A"/>
			<stop  offset="0.9409" style="stop-color:#D4AB00"/>
		</radialGradient>
		<path fill="url(#SVGID_11_)" d="M611.394,370.476c3.259,1.668,6.369,0,6.369,0s2.222-11.658-3.185-11.873
			C609.172,358.389,610.95,367.78,611.394,370.476z"/>
		
			<radialGradient id="SVGID_12_" cx="1097.006" cy="-22.6805" r="0.8646" gradientTransform="matrix(0.937 0 0 -1 -411.5454 337.171)" gradientUnits="userSpaceOnUse">
			<stop  offset="0.1379" style="stop-color:#FFEF6A"/>
			<stop  offset="0.9409" style="stop-color:#D4AB00"/>
		</radialGradient>
		<polygon fill="url(#SVGID_12_)" points="615.623,359.472 616.345,360.763 617.151,358.94 		"/>
		<polygon fill="none" stroke="#020202" stroke-width="0.5" stroke-miterlimit="10" points="612.067,363.622 612.27,364.343 
			612.89,363.76 		"/>
		
			<line fill="none" stroke="#020202" stroke-width="0.5" stroke-miterlimit="10" x1="610.956" y1="362.108" x2="611.714" y2="362.583"/>
		
			<line fill="none" stroke="#020202" stroke-width="0.5" stroke-miterlimit="10" x1="613.512" y1="362.683" x2="615.095" y2="362.108"/>
	</g>
	<g>
		<path fill="#25253A" d="M563.466,323.531c0.269,0.165,0.404,0.032,0.404-0.397v-2.711c0-0.431-0.135-0.728-0.404-0.894
			l-1.534-0.943c-1.534-0.943-2.301-3.028-2.301-6.256v-12.846c0-1.979-0.155-3.634-0.464-4.965c-0.31-1.33-0.814-2.491-1.514-3.48
			c-0.135-0.212-0.135-0.319,0-0.323c0.699-0.129,1.204-0.669,1.514-1.619c0.309-0.95,0.464-2.415,0.464-4.395v-12.523
			c0-1.635,0.188-2.725,0.565-3.268s0.955-0.575,1.736-0.095l1.534,0.943c0.269,0.165,0.404,0.033,0.404-0.397v-2.711
			c0-0.43-0.135-0.728-0.404-0.894l-2.543-1.563c-1.427-0.877-2.476-0.93-3.148-0.16c-0.673,0.77-1.009,2.403-1.009,4.899v13.685
			c0,1.807-0.168,3.071-0.504,3.789c-0.337,0.719-0.882,0.932-1.635,0.641c-0.242-0.106-0.363,0.035-0.363,0.422v2.582
			c0,0.345,0.121,0.634,0.363,0.869c0.753,0.679,1.298,1.573,1.635,2.683c0.336,1.11,0.504,2.592,0.504,4.441v14.008
			c0,2.539,0.336,4.606,1.009,6.204c0.672,1.596,1.721,2.833,3.148,3.71L563.466,323.531z"/>
		<path fill="#25253A" d="M568.834,319.02c0.242,0.149,0.404,0.077,0.484-0.219l8.92-38.476c0.081-0.424-0.027-0.727-0.323-0.909
			l-2.018-1.24c-0.242-0.149-0.404-0.076-0.485,0.219l-8.92,38.476c-0.081,0.424,0.026,0.726,0.323,0.908L568.834,319.02z"/>
		<path fill="#25253A" d="M588.853,310.218c-0.7,0.129-1.211,0.666-1.534,1.607c-0.323,0.942-0.484,2.403-0.484,4.382v12.846
			c0,3.228-0.767,4.37-2.301,3.427L583,331.537c-0.269-0.166-0.404-0.033-0.404,0.397v2.711c0,0.43,0.134,0.728,0.404,0.894
			l2.543,1.563c1.426,0.877,2.475,0.93,3.148,0.16c0.672-0.771,1.009-2.425,1.009-4.963v-14.008c0-1.807,0.175-3.066,0.525-3.776
			c0.349-0.71,0.888-0.949,1.615-0.718c0.242,0.063,0.363-0.077,0.363-0.422v-2.582c0-0.387-0.121-0.677-0.363-0.869
			c-0.727-0.661-1.265-1.552-1.615-2.671s-0.525-2.582-0.525-4.389v-13.685c0-2.495-0.337-4.542-1.009-6.139
			c-0.673-1.597-1.722-2.834-3.148-3.711L583,277.766c-0.269-0.166-0.404-0.032-0.404,0.397v2.711c0,0.431,0.134,0.728,0.404,0.894
			l1.534,0.943c0.78,0.48,1.358,1.222,1.736,2.229c0.377,1.006,0.565,2.327,0.565,3.962v12.523c0,1.98,0.161,3.639,0.484,4.978
			s0.834,2.503,1.534,3.492C588.988,310.064,588.988,310.171,588.853,310.218z"/>
		<path fill="#25253A" d="M599.567,316.719c0-2.952-0.806-6.092-2.08-8.703c-0.399-8.751-1.942-22.376-7.234-34.751
			c-4.281-10.01-10.226-17.346-17.7-21.816c-7.505-4.49-13.336-4.204-17.331,0.852c-4.707,5.956-5.838,17.195-5.967,25.486
			c-1.53,0.879-2.525,3.171-2.525,6.453c0,5.513,2.794,11.699,6.241,13.818v-19.963c-0.394-0.242-0.777-0.413-1.151-0.531
			c0.263-7.43,1.438-16.633,5.308-21.522c3.505-4.428,8.703-4.627,15.45-0.59c6.741,4.024,12.057,10.546,15.839,19.383
			c4.271,9.978,5.85,21.194,6.406,29.289c-0.481-0.485-0.98-0.904-1.497-1.222v16.187c-1.208,2.649-1.888,6.257-1.21,10.247
			c0.494,2.907,1.8,5.726,2.45,8.621c0.753,3.358,0.405,6.372-0.421,8.599c-1.874,5.054-6.74,4.469-10.809,2.628
			c0.59-2.281,0.253-5.987-1.774-7.741c-1.404-1.215-3.016-1.327-3.939-0.143c-1.426,1.829,1.125,5.054,2.401,6.324
			c0.718,0.716,1.478,1.28,2.255,1.731c-0.328,0.728-0.786,1.279-1.289,1.606c-4.389,2.845-6.644-7.718-9.652-12.672
			c-5.285-8.707-11.479-3.929-11.657,4.715c-0.005,0.241-0.005,15.66-0.001,15.907c0.006,0.317,0.912,0.627,0.903,0.168
			c-0.004-0.196-0.004-15.565-0.002-15.758c0.081-6.795,3.763-11.879,8.4-7.048c3.312,3.45,4.312,10.253,7.464,13.904
			c2.148,2.488,5.249,2.297,6.47,0.12c0.082-0.147,0.156-0.315,0.225-0.493c2.182,1.02,4.439,1.23,6.296,1.268
			c2.906,0.059,5.291-2.013,6.198-6.271c0.944-4.428-0.99-9.024-2.324-13.994c-0.867-3.229-0.68-6.327,0.015-8.895v0.953
			C596.773,324.983,599.567,322.232,599.567,316.719z M578.273,343.855c-0.543-1.702,0.392-2.548,1.071-2.728
			c1.063-0.282,2.317,0.984,2.977,2.986c0.606,1.838,0.563,3.44,0.177,4.665C581.155,348.057,579.051,346.294,578.273,343.855z"/>
		<polygon fill="#25253A" points="570.706,244.66 573.43,244.044 576.153,248.008 575.633,242.839 577.836,240.758 574.791,238.179 
			573.43,232.929 572.068,236.505 569.023,235.341 571.226,240.13 		"/>
		<polygon fill="#25253A" points="558.635,238.984 560.588,238.543 562.54,241.385 562.167,237.678 563.747,236.186 
			561.564,234.337 560.588,230.572 559.611,233.136 557.428,232.301 559.008,235.736 		"/>
		<polygon fill="#25253A" points="584.547,255.91 586.5,255.468 588.453,258.31 588.08,254.603 589.66,253.112 587.476,251.262 
			586.5,247.498 585.523,250.061 583.34,249.227 584.92,252.661 		"/>
	</g>
	<polygon opacity="0.2" fill="#070707" enable-background="new    " points="237.222,458.342 260.664,467.44 260.664,435.698 
		236.986,446.388 	"/>
	<g id="Layer_2">
	</g>
	<g>
		<path fill="#4C765E" d="M142.563,429.917c0,0-16.78-42.227-11.478-55.974c5.302-13.747,10.247-11.074,15.978-19.531
			s-4.453-34.11,3.023-46.036c7.476-11.927,46.191-9.257,58.286-18.355c-7.228,19.146,0.419,46.201-5.641,57.17
			c-6.06,10.968-17.258,18.63-20.931,23.318c-3.672,4.688-3.72,12.435-5.424,24.742
			C174.671,407.558,142.563,429.917,142.563,429.917z"/>
		<path fill="#14332F" d="M139.542,465.788c0,0-2.432-100.221,39.937-140.577c-39.495,41.249-33.227,140.033-33.227,140.033
			L139.542,465.788z"/>
		<path fill="#38544F" d="M158.8,430.801c0,0-0.854-32.091,6.454-40.698c7.308-8.607,7.443-7.598,13.921-12.317
			c6.478-4.719,7.76-20.487,16.409-27.283c8.649-6.796,30.918,5.9,42.647,2.207c-10.053,12.023-6.911,25.081-14.21,31.521
			c-7.299,6.44-15.406,5.435-19.395,7.935c-3.989,2.5-12.254,9.743-16.354,18.158C184.171,418.74,158.8,430.801,158.8,430.801z"/>
		<path fill="#183833" d="M143.14,463.557c0,0,17.133-72.481,69.307-98.97c-49.677,28.17-62.723,100.376-62.723,100.376
			L143.14,463.557z"/>
		<path fill="#456B54" d="M135.425,428.18c0,0,7.276-31.267,1.843-41.165c-5.433-9.898-5.768-8.937-11.167-14.859
			c-5.399-5.922-3.492-21.628-10.601-30.02c-7.109-8.393-31.473-0.423-42.223-6.395c7.436,13.796,1.738,25.958,7.597,33.731
			s14.003,8.415,17.409,11.665c3.406,3.25,10.05,12.003,12.379,21.07S135.425,428.18,135.425,428.18z"/>
		<path fill="#122824" d="M144.618,465.455c0,0-2.666-76.488-48.464-112.906c43.015,37.564,41.733,112.963,41.733,112.963
			L144.618,465.455z"/>
	</g>
	<ellipse fill="#111111" cx="591.298" cy="532.247" rx="17.973" ry="7.007"/>
	<ellipse fill="#686868" cx="591.298" cy="531.376" rx="4.318" ry="1.684"/>
	<polygon fill="#AF4741" points="557.328,519.384 529.273,532.057 558.908,546.873 587.943,534.13 	"/>
	<g>
		<polygon fill="#E6E6EF" points="299.071,203.521 299.071,245.671 226.052,279.626 226.052,236.303 		"/>
		<polygon fill="#B0B0C1" points="274.162,192.746 299.071,203.521 226.052,236.303 202.051,225.849 		"/>
		<polygon fill="#C1C1D3" points="226.052,279.626 202.051,268.271 202.051,225.849 226.052,236.303 		"/>
		<polygon fill="#191412" points="295.443,210.947 295.443,241.605 230.463,272.383 230.463,239.837 		"/>
		<polygon fill="#797989" points="284.156,234.938 267.84,242.096 267.84,223.219 295.443,210.947 		"/>
		<polygon fill="#5B5B5B" points="234.101,263.43 230.7,265.007 230.7,240.095 234.101,238.518 		"/>
		<polygon fill="#627775" points="238.34,261.473 234.938,263.049 234.938,238.138 238.34,236.561 		"/>
		<polygon fill="#935932" points="242.631,259.613 239.23,261.191 239.23,236.28 242.631,234.703 		"/>
		<polygon fill="#5B5B5B" points="245.48,258.316 242.079,259.893 242.079,234.982 245.48,233.405 		"/>
		<polygon fill="#38434C" points="248.561,256.94 245.16,258.517 245.16,233.607 248.561,232.029 		"/>
		<polygon fill="#627775" points="251.41,255.642 248.009,257.219 248.009,232.309 251.41,230.732 		"/>
		<polygon fill="#726739" points="255.325,253.917 251.923,255.493 251.923,230.582 255.325,229.005 		"/>
		<polygon fill="#38434C" points="259.617,252.059 256.215,253.635 256.215,228.724 259.617,227.147 		"/>
		<polygon fill="#935932" points="262.466,250.76 259.064,252.337 259.064,227.426 262.466,225.849 		"/>
		<polygon fill="#47513E" points="268.252,247.97 264.851,249.547 264.851,224.637 268.252,223.06 		"/>
	</g>
	<polygon fill="#E6E6EF" points="282.117,164.532 421.632,87.112 421.632,70.112 282.117,147.532 	"/>
	<polygon fill="#9393AD" points="282.788,147.531 421.743,69.627 413.117,65.34 274.162,143.244 	"/>
	<polygon fill="#9E9EB7" points="274.162,143.244 274.162,159.519 282.676,165.016 282.788,147.531 	"/>
	<polygon fill="#E0E0E0" points="235.295,398.567 210.479,409.102 210.479,406.735 235.075,396.293 	"/>
	<polygon fill="#8E8E8E" points="235.484,401.217 210.479,411.833 210.479,410.466 235.398,399.887 	"/>
	<polygon fill="#E0E0E0" points="235.684,406.577 210.479,417.278 210.479,416.911 235.669,406.217 	"/>
	<polygon fill="#777777" points="235.684,409.308 210.479,420.009 210.479,418.642 235.684,407.941 	"/>
	<polygon fill="#C4C4C4" points="235.593,403.445 210.479,413.199 210.479,412.832 235.538,402.194 	"/>
	<polygon fill="#8E8E8E" points="235.484,411.073 210.479,421.722 210.479,420.355 235.676,409.658 	"/>
	<polygon fill="#E0E0E0" points="235.408,416.864 210.479,427.167 210.479,426.8 235.484,416.184 	"/>
	<polygon fill="#8E8E8E" points="235.224,419.393 210.479,429.898 210.479,428.531 235.332,417.98 	"/>
	<polygon fill="#C4C4C4" points="235.684,412.292 210.479,423.088 210.479,422.721 235.684,411.833 	"/>
	<polygon fill="#E0E0E0" points="235.484,415.296 210.479,425.912 210.479,423.545 235.484,412.929 	"/>
	<polygon fill="#E0E0E0" points="234.909,423.605 210.479,433.977 210.479,431.61 235.077,421.054 	"/>
	<polygon fill="#9F9FAD" points="230.7,265.007 230.463,272.383 295.443,241.605 295.443,210.947 281.07,217.338 281.156,231.938 
		268.252,237.916 268.252,247.97 	"/>
	<polygon fill="#C1C1D3" points="295.443,241.605 276.734,233.986 276.734,219.266 295.443,210.947 	"/>
	<g>
		<path fill="#070707" d="M350.194,527.172l-2.492,11.761c0,0-0.982,2.957-4.351,1.606c-7.465-2.353-22.537-13.555-22.537-13.555
			s-1.39-1.823-0.129-3.895c1.261-2.073,5.161-2.516,7.266-1.503c2.044,0.984,3.906,1.854,6.956,2.484
			c3.05,0.63,6.238-1.523,6.238-1.523L350.194,527.172z"/>
		<path fill="#AAAAAA" d="M345.114,537.685c-7.465-2.353-22.537-13.555-22.537-13.555s-1.085-1.124-0.193-2.456
			c-0.527,0.224-1.432,1.016-1.765,1.563c-1.261,2.073,0.129,3.895,0.129,3.895s15.071,11.201,22.537,13.555
			c3.369,1.351,4.351-1.606,4.351-1.606l0.273-1.286C347.246,538.095,346.34,538.177,345.114,537.685z"/>
		<path fill="#070707" d="M321.087,545.474l-7.685,9.338c0,0-2.284,2.177-5.014-0.658c-6.333-5.707-16.254-23.01-16.254-23.01
			s-0.564-2.303,1.603-3.553c2.167-1.249,4.829,0.749,6.848,2.196s3.073,3.259,5.807,5.294s7.806,1.886,7.806,1.886L321.087,545.474
			z"/>
		<path fill="#AAAAAA" d="M311.588,552.661c-6.333-5.707-16.254-23.01-16.254-23.01s-0.238-1.048,0.26-2.114
			c-0.62-0.053-1.227,0.041-1.799,0.37c-2.167,1.249-1.603,3.553-1.603,3.553s9.921,17.303,16.254,23.01
			c2.73,2.835,5.014,0.658,5.014,0.658l0.841-1.021C313.513,554.056,312.581,553.692,311.588,552.661z"/>
		<path fill="#262626" d="M406.8,518.647c0,0-15.263-9.365-22.59-10.19c-7.327-0.825-14.443,2.151-14.443,2.151
			s-12.318,2.789-16.711,13.855c-4.393,11.065-6.868,27.057-6.868,27.057l11.484,4.557c0,0,4.223-18.418,10.938-28.506
			s16.62-1.242,16.62-1.242l14.386,6.49L406.8,518.647z"/>
		<path fill="#353535" d="M419.707,556.301c0,0-27.407,4.356-41.764-9.017c-0.658-0.612-16.655-16.657-22.729-18.738
			c-6.074-2.08-34.128,16.928-34.128,16.928l-8.216-10.144c0,0,40.694-30.542,50.315-30.199
			c9.621,0.341,46.438,22.836,46.438,22.836l16.319,6.913L419.707,556.301z"/>
		<polygon fill="#212121" points="320.09,539.986 359.028,515.411 396.446,528.408 400.273,533.116 397.202,554.937 355.26,527.593 
			322.184,544.671 		"/>
	</g>
	<g>
		<path fill="#373751" d="M398.855,549.302c-13.406-5.925-15.473-16.581-15.473-16.581s8.782-1.258,12.165-10.601
			c3.383-9.343,12.109-23.001,15.631-28.024c3.522-5.024,11.097-5.065,11.097-5.065l27.497-4.106
			C449.774,484.924,412.261,555.229,398.855,549.302z"/>
		<polygon fill="#B29B72" points="424.487,488.722 429.323,481.739 424.767,477.005 430.941,468.999 429.378,466.127 
			439.831,459.913 444.267,463.095 449.39,468.242 454.606,476.703 451.129,487.029 443.813,493.308 430.995,493.034 		"/>
		<polygon points="438.137,454.684 439.602,460.949 441.973,465.162 439.581,470.377 434.561,473.544 432.255,472.427 
			430.22,469.934 428.671,471.943 430.744,474.673 430.092,475.252 427.737,473.678 424.724,475.676 423.408,478.126 
			424.97,479.931 430.406,481.559 434.694,478.07 439.867,473.578 441.916,474.352 441.149,476.01 439.518,479.733 439.101,483.725 
			439.392,487.038 440.227,489.337 445.586,492.76 449.379,491.205 458.176,477.582 462.57,471.315 461.873,465.822 459.02,461.562 
			451.895,455.986 448.19,454.709 444.092,455.161 441.181,453.054 440.994,455.24 		"/>
		<polyline fill="#020202" points="436.083,462.461 435.825,464.571 437.476,465.317 436.438,463.846 436.083,462.461 		"/>
		<path fill="#B29B72" d="M412.063,493.64c-6.881,3.474-20.733,12.441-25.003,12.396c-3.858-0.041-27.674,4.372-30.868,2.475
			c-0.341-0.202-0.901-0.555-2.114-0.898c-0.647-0.183,0.901,2.248,0.901,2.248s-1.456-1.042-3.53-1.93
			c-1.245-0.532-6.618,1.368-6.825,2.655c-0.247,1.539,4.762,1.742,5.697,2.912c1.149,1.441,1.488,0.504,1.488,0.504
			s0.166,0.181,0.471,0.51c2.952,3.177,26.003,5.91,31.473,6.696c6.038,0.867,26.758-9.71,30.185-10.97
			C420.695,508.063,418.944,490.166,412.063,493.64z"/>
		<path fill="#C1AB80" d="M439.753,460.625l-9.675,5.729l1.464,2.572l-0.974,1.434l1.145,1.403c0,0,2.047-1.79,1.936-2.063
			c-0.111-0.273-2.296-2.59-2.296-2.59s2.3-1.632,2.463-1.575c0.163,0.057,1.869,0.614,1.867,0.257s0.269-2.067,0.269-2.067
			l2.213-0.146l2.835,0.035L439.753,460.625L439.753,460.625z"/>
		<polygon fill="#C1AB80" points="426.663,486.463 429.708,481.581 431.495,481.899 431.371,483.332 429.244,486.331 
			428.698,487.208 		"/>
		<path fill="#C1AB80" d="M416.165,495.504c0,0-15.51,11.469-24.267,13.578c-8.757,2.109-31.305,0.318-31.305,0.318
			s22.653-2.759,28.282-3.194c5.63-0.436,14.749-8.354,24.389-12.544C415.98,493.793,416.165,495.504,416.165,495.504z"/>
		<polygon fill="#5B5B5B" points="440.568,459.992 439.526,456.052 441.216,456.532 441.922,454.531 443.482,455.94 
			442.511,456.132 441.552,457.998 440.884,457.639 		"/>
		<polygon fill="#5B5B5B" points="427.235,474.54 426.14,475.856 425.161,476.473 424.552,478.17 425.401,479.316 425.523,478.048 
			425.788,476.953 427.148,476.064 		"/>
	</g>
	<polygon fill="#D1942A" points="408.108,534.833 433.14,480.786 485.875,460.452 500.624,475.315 482.773,597.35 431.92,619.974 	
		"/>
	<polygon fill="#B77A21" points="417.795,569.089 431.92,556.916 431.92,619.974 417.795,626.823 	"/>
	<polygon fill="#D1942A" points="343.511,536.005 353.468,595.883 417.795,625.469 417.795,569.089 	"/>
	<path fill="#EAB03D" d="M350.19,509.208c-0.085-0.04-0.169-0.08-0.255-0.117l-0.096-0.044l-0.002,0.008
		c-0.862-0.357-1.769-0.56-2.71-0.56c-5.431,0-9.834,6.367-9.834,14.22c0,6,2.573,11.121,6.208,13.209l-0.019,0.08l75.285,33.699
		l5.567-27.692L350.19,509.208z"/>
	<ellipse fill="#B77A21" cx="421.914" cy="556.233" rx="9.834" ry="14.22"/>
	<path fill="#AD4747" d="M376.25,520.738c-19.138,1.746-17.22,20.439-13.732,29.641c9.416,25.897-10.333,33.867-4.992,45.503
		s-15.41,23.925-15.41,23.925s16.063,1.148,14.822,6.172c-2.441,9.886,17.063,1.539,16.989,10.35
		c-0.074,8.811,16.241-20.059,16.927-10.35c0.785,11.103,11.764,21.248,18.917,24.262c-1.266-0.693,1.572-17.158-7.844-33.389
		c-9.416-16.231,8.021-30.606,1.627-54.107c-2.259-8.27-6.16-16.148-2.07-30.843C397.559,530.166,381.206,522.931,376.25,520.738z"
		/>
	<g>
		<g>
			<path fill="#963636" d="M391.083,627.195c-1.591-10.481-1.235-22.078-0.283-31.303c1.068-10.35,1.99-19.287-1.409-24.441
				l0.834-0.551c3.597,5.452,2.657,14.555,1.569,25.095c-3.33,20.284,8.67,28.284,8.67,47.45
				C391.215,634.862,391.083,627.195,391.083,627.195z"/>
		</g>
	</g>
	<g>
		<g>
			<path fill="#963636" d="M357.839,630.058c-1.874-0.863-1.086-4.543-1.086-4.543c0.212-0.084,21.177-8.732,21.177-33.645l0,0
				C378.632,618.945,359.713,628.838,357.839,630.058z"/>
		</g>
	</g>
	<polygon fill="#EAB03D" points="433.14,480.786 449.183,496.159 500.624,475.315 485.875,460.452 	"/>
	<polyline fill="#B77A21" points="449.183,496.159 431.92,619.974 482.773,597.35 500.624,475.315 449.183,496.159 	"/>
	<polygon opacity="0.4" points="352.094,587.618 311.657,556.916 314.3,554.107 322.184,544.671 339.158,556.916 346.476,559.723 
		346.03,551.151 333.999,539.099 337.293,537.953 343.284,540.688 	"/>
</g>
</svg>
