<?xml version="1.0" encoding="utf-8"?>
<!-- Generator: Adobe Illustrator 17.0.0, SVG Export Plug-In . SVG Version: 6.00 Build 0)  -->
<!DOCTYPE svg PUBLIC "-//W3C//DTD SVG 1.1//EN" "http://www.w3.org/Graphics/SVG/1.1/DTD/svg11.dtd">
<svg version="1.1" id="Layer_1" xmlns="http://www.w3.org/2000/svg" xmlns:xlink="http://www.w3.org/1999/xlink" x="0px" y="0px"
	 width="187.807px" height="218.059px" viewBox="0 0 187.807 218.059" enable-background="new 0 0 187.807 218.059"
	 xml:space="preserve">
<path fill="#4C765F" d="M93.904,0.549l-93.947,54.24V163.27l93.947,54.24l93.947-54.24V54.789L93.904,0.549z M66.068,161.52
	c-0.192,2.608-1.552,4.045-4.128,4.076c-5.359,0.063-10.721,0.058-16.079-0.021c-2.819-0.042-4.218-1.626-4.221-4.58
	c-0.015-11.397-0.006-22.793-0.006-34.19c-0.001-11.3-0.002-22.6,0-33.9c0.001-3.38,1.467-4.853,4.842-4.859
	c5.022-0.01,10.044-0.019,15.067-0.011c3.034,0.005,4.54,1.487,4.541,4.54c0.006,16.948-0.013,33.896-0.012,50.844
	c0,5.165,0.039,10.331,0.053,15.496C66.126,159.783,66.132,160.655,66.068,161.52z M53.786,81.456
	c-9.017-0.161-15.829-7.221-15.658-16.227c0.163-8.544,7.526-15.613,15.996-15.355c8.781,0.267,15.717,7.379,15.586,15.983
	C69.578,74.558,62.379,81.61,53.786,81.456z M152.985,160.928c0,3.386-1.242,4.652-4.591,4.669c-5.312,0.027-10.625,0.034-15.937,0
	c-3.176-0.02-4.465-1.346-4.467-4.508c-0.007-11.205-0.005-22.41,0.008-33.615c0.005-3.966-0.07-7.916-1.447-11.709
	c-1.675-4.613-4.873-7.302-9.825-7.732c-5.55-0.482-9.843,1.541-12.46,6.564c-1.831,3.515-2.697,7.285-2.684,11.282
	c0.038,11.832,0.009,23.665,0.008,35.497c0,2.607-1.48,4.216-4.064,4.233c-5.505,0.036-11.011,0.029-16.517-0.009
	c-2.456-0.017-3.933-1.644-3.935-4.212c-0.008-9.659-0.012-19.318-0.01-28.977c0.003-13.136,0.012-26.272,0.019-39.408
	c0.002-3.71,1.248-4.959,4.923-4.959c5.071,0,10.142-0.013,15.214-0.01c2.902,0.002,4.342,1.445,4.358,4.351
	c0.009,1.581,0.002,3.161,0.002,4.742c1.963-2.176,3.827-4.242,6.169-5.835c3.384-2.302,7.154-3.514,11.184-4.019
	c5.421-0.68,10.788-0.552,16.044,1.096c7.41,2.324,12.096,7.447,14.841,14.543c2.461,6.364,3.055,13.043,3.111,19.766
	C153.033,135.427,152.985,148.178,152.985,160.928z"/>
</svg>
