<?xml version="1.0" encoding="utf-8"?>
<!-- Generator: Adobe Illustrator 17.0.0, SVG Export Plug-In . SVG Version: 6.00 Build 0)  -->
<!DOCTYPE svg PUBLIC "-//W3C//DTD SVG 1.1//EN" "http://www.w3.org/Graphics/SVG/1.1/DTD/svg11.dtd">
<svg version="1.1" id="Layer_1" xmlns="http://www.w3.org/2000/svg" xmlns:xlink="http://www.w3.org/1999/xlink" x="0px" y="0px"
	 width="67.305px" height="179.303px" viewBox="178.725 111.679 67.305 179.303"
	 enable-background="new 178.725 111.679 67.305 179.303" xml:space="preserve">
<polygon fill="#CE9176" points="246.03,135.701 238.009,133.239 226.407,122.322 214.363,115.586 205.551,117.772 194.516,123.933 
	194.818,126.494 191.974,144.894 198.005,145.964 200.393,163.744 213.021,163.217 229.828,181.789 246.03,162.741 "/>
<g id="Layer_1_1_">
</g>
<g id="Layer_3">
</g>
<g id="Layer_4">
	<path fill="#4C765E" d="M246.03,290.982c0,0-56.155-96-25.827-119.829c1.756,2.035,11.206,11.995,11.206,11.995l14.578,74.833
		L246.03,290.982z"/>
	<polygon fill="#38544F" points="220.203,171.153 227.269,180.357 220.536,188.225 	"/>
	<polygon fill="#AF725A" points="213.021,163.217 228.149,146.346 223.392,136.052 222.629,145.937 	"/>
	<polygon fill="#AF725A" points="233.449,166.896 229.984,153.1 229.369,169.752 	"/>
	<polygon fill="#0B0B0B" points="187.711,129.456 198.592,126.964 209.778,117.948 215.761,128.741 210.835,142.389 
		198.005,145.964 198.519,149.792 206.074,147.536 206.254,149.099 198.912,152.717 198.694,167.063 213.021,163.217 
		222.544,147.041 223.392,136.052 220.41,124.422 223.9,123.269 233.396,132.16 238.714,131.555 220.606,112.2 207.378,111.679 
		195.121,116.207 186.539,115.439 188.434,120.531 178.725,120.081 185.228,123.719 182.473,126.526 	"/>
	<g>
		<path fill="#14142D" d="M217.669,199.065c0.115-0.301,0.225-0.615,0.35-0.886C217.835,198.492,217.733,198.782,217.669,199.065z"
			/>
	</g>
	<polygon fill="#14142D" points="197.504,132.746 202.391,132.159 200.435,135.656 	"/>
	<polygon fill="#AF725A" points="191.974,144.894 197.723,142.81 210.835,142.389 198.005,145.964 	"/>
</g>
<g id="Layer_2" display="none">
</g>
<polygon fill="#AF725A" points="245.987,135.688 238.009,133.239 236.489,131.808 234.441,132.041 245.987,139.973 "/>
<path fill="#252147" d="M246.03,161.557c-5.249,5.538-11.111,11.579-14.845,14.981c-8.128,7.407-11.484,13.182-15.324,20.047
	c-3.84,6.865-5.389,28.292,0.251,38.562c5.479,9.977,9.789,18.85,29.918,26.557V161.557z"/>
<path fill="#14142D" d="M245.987,254.926c-17.761-6.971-21.663-14.978-26.6-23.966c-4.206-7.658-5.197-21.232-3.439-29.426
	c-3.304,6.767-4.513,25.55,0.501,34.68c5.149,9.377,9.163,17.684,28.967,24.863c0.183,0.066,0.383,0.127,0.572,0.191V254.926z"/>
<path fill="#14142D" d="M245.987,218.602c-0.106-0.423-0.179-0.682-0.179-0.682s-1.328,4.539-2.317,7.923
	c-0.99,3.384-19.132,12.651-19.132,12.651s18.315-5.013,21.628-8.412V218.602z"/>
</svg>
