<?xml version="1.0" encoding="utf-8"?>
<!-- Generator: Adobe Illustrator 17.0.0, SVG Export Plug-In . SVG Version: 6.00 Build 0)  -->
<!DOCTYPE svg PUBLIC "-//W3C//DTD SVG 1.1//EN" "http://www.w3.org/Graphics/SVG/1.1/DTD/svg11.dtd">
<svg version="1.1" id="Layer_1" xmlns="http://www.w3.org/2000/svg" xmlns:xlink="http://www.w3.org/1999/xlink" x="0px" y="0px"
	 width="746.307px" height="325.068px" viewBox="0 0 746.307 325.068" enable-background="new 0 0 746.307 325.068"
	 xml:space="preserve">
<g id="Layer_1_1_">
</g>
<g id="Layer_3">
</g>
<g id="Layer_4">
	<polygon fill="#DCDCF9" points="525.879,70.278 404.154,0 206.767,114.234 206.767,254.79 328.492,325.068 525.879,210.834 	"/>
	
		<radialGradient id="SVGID_1_" cx="614.4039" cy="-403.1364" r="242.0687" gradientTransform="matrix(1 0 0 -1 -282.6 -79.652)" gradientUnits="userSpaceOnUse">
		<stop  offset="0.3696" style="stop-color:#1A1751;stop-opacity:0.8"/>
		<stop  offset="0.8571" style="stop-color:#000000;stop-opacity:0"/>
	</radialGradient>
	<polygon opacity="0.5" fill="url(#SVGID_1_)" points="206.767,114.234 206.767,254.79 328.492,325.068 525.879,210.834 
		525.879,70.278 374.273,36.978 	"/>
	<circle fill="#E67A5D" cx="454.147" cy="82.653" r="27.652"/>
	<circle fill="#F99055" cx="449.009" cy="81.5" r="23.03"/>
	<circle fill="#FFFFFF" cx="308.101" cy="103.733" r="2.288"/>
	<circle fill="#8382A3" cx="323.957" cy="60.757" r="2.288"/>
	<circle fill="#8382A3" cx="504.532" cy="77.719" r="2.288"/>
	<g>
		<path fill="#FFFFFF" d="M355.122,92.229c5.949-0.41,11.898-0.819,17.915-0.238c2.336,0.171,6.633-0.125,8.376,1.083
			c4.239,3.693-1.174,7.054,5.481,7.26c4.319,0.035,7.066-3.475,10.963-4.74c6.849-1.8,13.732,1.711,20.456,2.908
			c10.758,1.915,23.715,2.019,31.807-5.843c-4.57-3.67-15.647-0.583-21.618-0.503c-2.974,0.205-7.271,0.501-10.359-0.947
			c-3.111-1.778-3.533-3.077-7.305-4.81c-6.461-2.211-14.393-1.665-21.424-2.509c-4.011-0.388-17.219-4.127-14.359,3.645
			c-3.544,1.572-28.661-6.327-27.579,4.556c3.02,0.456,6.279-0.433,9.584-0.66"/>
	</g>
	<g>
		<path fill="#FFFFFF" d="M361.411,233.448c6.957,0,16.564,0.331,23.52,0.994c3.313,0.331,7.288,1.325,10.601,0.331
			c4.307-1.656,4.969-4.307,9.938-4.638c7.288-0.663,15.239,1.988,22.195,2.319c5.963,0.331,18.883,3.313,23.52-1.656
			c-1.988-1.656-3.975-0.331-6.625-0.663c-2.981-0.331-5.3-1.656-7.951-2.319c-6.294-0.663-11.926,0.994-17.889-1.988
			c0.663-0.331,1.325-0.663,1.656-0.994c-2.981-1.656-8.944-0.994-12.588-0.663c-2.65,0.331-4.638,0.994-7.288,1.325
			c-0.994,0.331-2.319,1.325-2.65,1.656c-1.988,0-2.65-1.656-4.307-1.325c-2.319,0.331-3.975,1.988-6.294,2.319
			s-5.3-1.325-6.957-0.994c-4.969,0.994-15.239,5.632-19.545,6.294"/>
	</g>
	<circle fill="#E8E8E8" cx="421.23" cy="118.142" r="1.162"/>
	<circle fill="#E8E8E8" cx="418.282" cy="44.219" r="1.079"/>
	<circle fill="#E8E8E8" cx="260.159" cy="216.374" r="0.87"/>
	<circle fill="#E8E8E8" cx="292.532" cy="86.719" r="0.87"/>
	<path opacity="0.1" enable-background="new    " d="M365.581,76.325c-38.803,19.988-110.248-23.774-160.163,6.182
		c-10.529-1.467-14.426,1.418-20.241,3.677c-0.534,0.207-1.143,0.588-1.804,1.097l1.028-1.497c0,0-15.809-3.62-24.855,16.754
		c-0.027,0.21-0.043,0.4-0.065,0.601l-11.417-3.092l-1.239-1.09l1.751-0.259l-14.817-14.815l-10.464-0.063l-9.564,3.901
		l-6.801-0.381l1.632,3.973l-7.683-0.099l5.234,2.702l-2.103,2.29l4.217,2.177l4.372-1.156l-0.325,1.282l0.548,12.255l3.972,0.391
		l0.507,3.011l0,0l0.388,2.301l0,0l0.207,11.34l11.217-3.416l5.884,6.081c-3.755,4.073-5.309,8.033-5.697,11.525
		c-7.334,1.928-26.142,7.554-42.22,18.152c-19.82-4.774-54.4,13.009-54.4,13.009s0.287-0.625,0,0l-19.143-7.724l-8.015,7.195
		l1.406,9.388l27.696,4.894c29.248,6.588,84.184-1.192,100.579-2.832c4.116,6.769,8.855,12.803,24.034,17.74
		c8.833,2.873,25.271,1.743,39.278-0.056c1.212,0.579,3.078,1.218,5.966,1.792c19.22-1.938,78.605,25.468,118.647,14.574
		c-9.092-4.537-6.533-13.636-6.533-13.636l-69.565-4.14l-36.916-0.288c7.769-1.268,13.138-2.393,13.138-2.393l7.478-44.512
		l72.645,2.275c0,0,12.614,23.7,48.44-8.628s-47.515-32.635-20.496-46.922c0.419-0.222,0.801-0.441,1.146-0.658
		c16.659,1.468,31.919,0.813,43.32-4.621C376.579,93.544,387.746,67.635,365.581,76.325z M163.91,112.157l-0.067-0.304l0.274-0.015
		C163.985,112.041,163.91,112.157,163.91,112.157z"/>
	<g>
		<path fill="#252147" d="M686.075,84.678l-2.825-1.501C684.223,83.625,685.17,84.12,686.075,84.678z"/>
		<path fill="#4E4E68" d="M680.301,276.913c-7.299,0.14-13.33-5.665-13.469-12.964c-0.009-0.453,0.006-0.901,0.042-1.344
			c-15.656-4.014-27.367-18.06-27.691-35.006c-0.389-20.36,15.8-37.181,36.16-37.57c0.647-0.012,1.291-0.007,1.93,0.014
			c-3.806-2.472-6.358-6.726-6.452-11.605c-0.114-5.969,3.49-11.135,8.678-13.313c-0.418-1.241-0.748-2.523-0.979-3.839
			c-11.214-1.558-19.947-11.074-20.171-22.752c-0.054-2.8,0.402-5.487,1.256-7.993c-8.118-4.395-13.706-12.909-13.895-22.797
			c-0.28-14.627,11.351-26.712,25.978-26.991c4.075-0.078,7.946,0.781,11.424,2.361c-0.086,0.101-10.382,12.275-7.917,27.055
			c0.624-18.311,10.878-25.489,10.878-25.489c4.38-2.75,9.539-4.385,15.087-4.491c16.277-0.311,29.725,12.632,30.036,28.909
			c0.198,10.339-4.957,19.531-12.912,24.945c7.488,4.549,12.561,12.709,12.741,22.117c0.103,5.408-1.427,10.467-4.132,14.709
			c11.081,3.675,19.171,14.013,19.407,26.349c0.272,14.241-10.014,26.224-23.662,28.484c4.874,4.922,7.943,11.647,8.085,19.119
			c0.295,15.43-11.974,28.178-27.404,28.473c-4.322,0.083-8.433-0.821-12.12-2.504C688.901,274.397,684.9,276.825,680.301,276.913z"
			/>
	</g>
	<path fill="#CE9176" d="M30.804,185.833c-7.586-0.877-15.898-7.476-20.051-7.832c-1.808-0.256-3.695,0.812-4.714,2.237
		c-0.752,1.053-5.069,7.382-5.617,8.295c-0.576,0.959-0.982,2.09,1.713,3.481c0.294,0.152,2.094-0.396,2.264-0.093
		c0.17,0.302-2.625,1.574-2.428,1.869c0.704,1.055,0.852,0.986,1.661,1.738c2.28,2.119,27.292,3.352,27.292,3.352
		S38.39,186.71,30.804,185.833z"/>
	<path fill="#4E4E68" d="M134.373,198.612c0,0-69.827,8.052-104.56,0.186c-4.249-10.317-0.94-13.962-0.94-13.962
		s32.704-14.417,52.524-9.643c20.471-13.493,45.377-18.931,45.377-18.931L134.373,198.612z"/>
	<path fill="#38544F" d="M176.429,213.696c56.685,8.151,127.76,57.861,157.541,18.728c-29.557,6.838-23.057-12.886-23.057-12.886
		l-125.779-7.485C185.135,212.052,175.591,210.562,176.429,213.696z"/>
	<path fill="#273F39" d="M190.61,215.002l50.739,0.396l69.565,4.14c0,0-2.559,9.099,6.533,13.636
		C277.405,244.068,218.02,216.662,198.8,218.6C190.961,217.04,190.61,215.002,190.61,215.002z"/>
	<g>
		<circle fill="#4E4E68" cx="622.808" cy="88.192" r="13.339"/>
		<circle fill="#4E4E68" cx="637.367" cy="65.052" r="6.219"/>
	</g>
	<path fill="#F88F55" d="M697.618,148.764c-1.622,2.676-2.534,5.826-2.47,9.185c0.082,4.294,1.742,8.185,4.411,11.14
		c-10.981,4.276-18.667,15.052-18.428,27.52c0.18,9.408,4.834,17.678,11.891,22.828c-7.176,1.545-12.644,7.576-13.402,14.965
		c-8.919-16.181-200.429-35.137-225.48-36.985c-9.617-0.709-10.3-25.388,6.218-25.388
		C521.242,172.028,691.394,154.144,697.618,148.764z"/>
	<path fill="#38544F" d="M346.133,161.851c35.826-32.329-47.515-32.635-20.496-46.922S224.631,96.172,224.631,96.172l-16.898,6.008
		l32.567,24.426l-18.118,26.531l-5.435,14.807l80.946,2.535C297.693,170.479,310.307,194.179,346.133,161.851z"/>
	<path fill="#273F39" d="M208.679,105.459l36.975-12.023l85.86,17.124c0,0-5.878,4.369-10.769,8.077
		c0.442,3.977-33.906-7.68-50.297-0.398s9.111,40.632-36.311,52.758S208.679,105.459,208.679,105.459z"/>
	<path fill="#4C765E" d="M191.642,101.483c0,0-41.82,26.025,8.095-3.932s121.36,13.806,160.163-6.182
		c22.165-8.69,10.998,17.219,10.204,18.282c-40.059,19.094-127.753-20.781-156.455-4.662S191.642,101.483,191.642,101.483z"/>
	<path fill="#4E4E68" d="M249.322,221.744l0.311,1.634c0,0,42.831,15.485,102.226-16.093c11.135-0.88,22.242,0.435,22.242,0.435
		l69.655-10.075l38.809-1.693l-5.383-13.828l-24.342-7.78l-1.849,7.148c0,0-48.149-23.018-65.41-23.827
		s-32.216,12.463-32.216,12.463s-51.578-27.078-86.262-8.812c-9.391,1.781-7.481,2.767-7.481,2.767l-3.316,29.962l6.171,9.447
		l-13.52,15.486"/>
	<path fill="#4C765E" d="M153.865,117.582c9.046-20.374,24.856-16.754,24.856-16.754l-17.802,25.92l-5.81,0.315
		C155.109,127.063,152.889,125.18,153.865,117.582z"/>
	<path fill="#4C765E" d="M127.041,169.536c0,0-9.892-12.228,3.449-25.228c1.441,1.561,8.66,9.382,8.66,9.382L127.041,169.536z"/>
	<polygon fill="#CE9176" points="137.2,153.665 123.431,139.435 113.468,140.184 111.112,126.2 106.32,125.513 108.081,110.901 
		107.775,108.885 116.331,103.727 123.236,101.767 132.929,106.772 142.383,115.091 156.386,118.883 158.229,127.201 	"/>
	<polygon fill="#AF725A" points="123.431,139.435 134.939,125.706 130.909,117.699 130.567,125.529 	"/>
	<polygon fill="#AF725A" points="139.668,141.802 136.567,130.994 136.519,144.167 	"/>
	<polygon fill="#0B0B0B" points="102.544,113.428 111.075,111.173 119.675,103.754 124.687,112.125 121.155,123.037 111.112,126.2 
		111.619,129.21 117.53,127.229 117.712,128.459 112.007,131.511 112.214,142.851 123.431,139.435 130.529,126.403 130.909,117.699 
		128.246,108.59 130.973,107.587 138.709,114.36 142.896,113.742 128.078,98.927 117.614,98.865 108.049,102.766 101.248,102.385 
		102.88,106.358 95.197,106.258 100.431,108.961 98.328,111.251 	"/>
	<path fill="#C15A74" d="M211.248,214.976l38.386,8.401c0,0,4.692-11.941,20.143-18.328c0,0-24.36-17.733-4.717-42.581
		c-19.254-5.153-38.607-2.623-38.607-2.623L211.248,214.976z"/>
	<path fill="#4E4E68" d="M217.571,212.716c0,0-46.672,9.787-64.016,4.147c-17.345-5.64-21.058-12.714-25.785-20.679
		c-4.727-7.965-4.068-24.935-1.215-30.46c2.853-5.525,5.352-10.176,11.578-16.243s20.097-22.28,20.097-22.28
		s15.215-23.622,21.267-25.973s10.023-5.383,21.561-3.477s50.257,26.784,53.418,32.786c3.162,6.003,2.833,8.779-2.975,16.462
		c-5.808,7.682-36.072,16.365-36.072,16.365l11.023-3.516L217.571,212.716z"/>
	<polygon fill="#191919" points="225.585,218.114 239.931,158.708 225.061,158.023 207.379,214.617 	"/>
	<polygon fill="#C15A74" points="233.941,183.514 258.304,189.1 257.648,178.445 236.35,173.537 234.931,179.413 	"/>
	<path fill="#4C765E" d="M377.892,208.94l-5.862-5.052l4.743-4.549l-6.252-3.228l7.96-7.627l3.768-5.101l-8.4-6.915
		c0,0,16.321-14.881,20.151-18.876c28.563,7.626,53.293,21.254,53.293,21.254s0.458-2.9,5.052-5.678s22.381,6.656,31.306,11.001
		s5.896,10.52,0.515,12.611C478.785,198.869,377.892,208.94,377.892,208.94z"/>
	<path fill="#36364C" d="M134.373,198.612c0,0,14.089-7.8,14.782-10.5s1.622-6.321,1.622-6.321s2.075,6.473,0.764,9.191
		C150.23,193.699,134.373,198.612,134.373,198.612z"/>
	<path fill="#36364C" d="M176.984,145.43c0,0-8.837,25.912-13.113,28.193c-4.276,2.281-10.013,5.341-10.013,5.341
		s11.17-0.496,15.296-3.773S176.984,145.43,176.984,145.43z"/>
	<path fill="#36364C" d="M212.216,162.809c0,0,25.357-4.286,37.216-13.764s4.933-17.228,4.933-17.228s-7.585,20.637-41.872,27.243
		C212.394,160.411,212.216,162.809,212.216,162.809z"/>
	<g>
		<path fill="#494A75" d="M196.944,102.955c9.158,1.513,40.218,16.97,52.387,25.524c-9.586-8.557-38.757-26.691-48.35-28.275
			c-11.069-1.828-14.879,1.081-20.684,3.336c-0.933,0.362-2.093,1.253-3.383,2.491C182.365,103.821,186.296,101.196,196.944,102.955
			z"/>
	</g>
	<path fill="#494A75" d="M210.45,152.321c0,0,11.511-14.159,23.059-20.407c-12.435,9.262-21.787,22.819-21.787,22.819
		L210.45,152.321z"/>
	<polygon fill="#679379" points="373.451,193.302 460.359,193.061 378.48,188.483 	"/>
	<path fill="#65657C" d="M271.282,204.618c33.945,2.417,61.693-5.911,81.068-10.075c8.887-1.91,15.718-1.055,21.101-1.241
		c1.805-2.209,5.029-4.819,5.029-4.819s-5.418,0.285-27.909-0.038c-4.47,1.358-32.34,11.655-87.003,6.648
		C264.442,197.05,264.622,199.298,271.282,204.618z"/>
	<polygon fill="#AF725A" points="158.229,127.201 156.386,118.883 142.383,115.091 141.144,114.001 139.533,114.239 
		152.927,122.798 152.484,133.827 	"/>
	<g>
		<g>
			<g>
				<path fill="#14142D" d="M128.049,167.635c0.082-0.241,0.161-0.491,0.253-0.709C128.164,167.177,128.092,167.41,128.049,167.635z
					"/>
			</g>
			<path fill="#36364C" d="M126.753,169.632c-2.431,5.434-2.892,20.306,1.31,27.386c4.315,7.272,7.706,13.73,23.541,18.88
				c12.239,3.98,40.087,1.52,52.279-0.699c-14.002,1.226-38.881,0.117-50.096-3.53c-15.835-5.15-19.226-11.608-23.541-18.88
				C126.722,186.85,125.581,176.151,126.753,169.632z"/>
		</g>
	</g>
	<path fill="#36364C" d="M123.04,157.194c0,0-21.454,5.131-41.643,17.999c-21.24-3.564-40.499,4.369-40.499,4.369
		s30.116-3.113,39.964,0.214c21.429-12.786,43.375-8.086,43.375-8.086l1.009-5.193L123.04,157.194z"/>
	<path fill="#65657C" d="M62.295,200.642c36.825,0.445,64.028-3.05,64.028-3.05l-1.93-3.63
		C124.393,193.962,104.158,198.795,62.295,200.642z"/>
	<path fill="#36364C" d="M267.104,161.315c34.087-18.854,86.262,8.812,86.262,8.812s15.207-16.304,39.801-12.034
		c-2.048,2.033-8.62,8.524-8.62,8.524s-19.465,2.01-28.983,6.66c-63.93-11.73-96.759,0.309-96.759,0.309
		S262.972,163.241,267.104,161.315z"/>
	<path fill="#38544F" d="M385.618,166.185c0,0,39.137,5.186,61.469,14.773c2.728-5.428,7.455-4.1,7.455-4.1l31.714,8.648
		c0,0-24.017-13.793-32.116-12.826c-1.797,0.486-5.638,1.948-6.683,5.264c-30.106-14.061-53.458-20.354-53.458-20.354
		L385.618,166.185z"/>
	<polygon fill="#38544F" points="383.069,193.275 391.788,183.213 385.342,176.201 392.511,168.854 388.608,176.414 
		394.315,184.026 388.452,193.26 	"/>
	<polygon fill="#38544F" points="388.021,207.78 384.206,203.606 388.045,199.499 384.226,194.531 390.374,199.269 386.745,203.444 
		391.327,207.402 	"/>
	<path fill="#777791" d="M691.335,138.799c-1.201,7.572,6.284,9.964,6.284,9.964s-7.038,10.156,1.941,20.325
		c-30.276,13.841-16.478,44.641-6.537,50.347c-15.051,3.993-13.7,14.316-13.514,16.017c-7.27,0.139-8.352,7.221-8.325,8.682
		c2.281-8.079,10.107-6.281,11.577-5.822c-5.719-12.553,13.067-17.052,15.243-17.824c-25.032-22.898-10.974-45.447,8.525-51.299
		c-14.595-5.078-6.27-21.795-6.27-21.795S691.702,145.611,691.335,138.799z"/>
	<path fill="#65657C" d="M254.894,222.411c0,0,29.455,10.107,78.834-7.991c-42.384,14.889-77.239,4.901-77.239,4.901
		L254.894,222.411z"/>
	<path fill="#679379" d="M210.457,95.022c27.187-14.432,96.755,3.289,116.492,4.394s33.799-5.681,33.799-5.681
		s-12.932,9.538-34.237,10.596C305.207,105.39,238.535,84.608,210.457,95.022z"/>
	<circle fill="#D96D63" cx="680.375" cy="146.208" r="2.572"/>
	<circle fill="#C15A74" cx="672.096" cy="155.207" r="1.527"/>
	<circle fill="#D96D63" cx="670.665" cy="134.203" r="4.991"/>
	<path fill="#393951" d="M731.198,109.096c0,0,0.344,16.796-12.912,24.945c22.642,13.55,10.152,34.237,8.608,36.826
		c31.214,9.268,22.642,50.991-4.255,54.833c20.834,16.809,0.824,42.369-7.845,44.884c27.592-21.236-0.613-44.56-2.359-46.718
		c37.424-16.681,24.974-43.821,8.24-52.998c10.317-9.926,8.48-27.678-7.535-37.477C729.504,123.216,731.198,109.096,731.198,109.096
		z"/>
	<polygon fill="#36364C" points="223.962,160.153 211.158,163.075 197.605,169.107 220.437,172.824 	"/>
	<polygon fill="#1B1939" points="186.729,145.926 183.809,141.144 188.464,133.235 201.867,139.055 216.381,138.718 
		220.092,138.519 204.798,152.968 	"/>
	<path fill="#CE9176" d="M210.908,162.133c0,0,1.389-5.544-3.347-12.777l-4.653-2.402c0,0-2.295-3.64-5.206-4.898
		c-2.911-1.257-8.871-0.652-11.426,0.73c-2.555,1.382-0.958,6.135-0.958,6.135s-2.039,2.998-2.111,4.803s2.604,7.233,3.986,8.687
		c1.382,1.455,4.565,5.426,9.096,5.924C200.819,168.833,210.908,162.133,210.908,162.133z"/>
	<path fill="#AF725A" d="M184.071,151.073c0,0,6.492-0.843,10.079-3.853c-3.66,1.291-8.831,1.701-8.831,1.701L184.071,151.073z"/>
	<path fill="#AF725A" d="M189.923,165.192c0,0,2.55,2.925,6.365,3.143c5.129,0.179,14.62-6.202,14.62-6.202l-0.067-4.849
		c0,0-8.176,7.422-14.983,8.647C193.11,166.523,189.923,165.192,189.923,165.192z"/>
	<path fill="#36364C" d="M183.809,141.144c0,0,9.813-5.564,1.138-20.038C187.307,133.623,183.809,141.144,183.809,141.144z"/>
	<path fill="#36364C" d="M220.196,137.219c-1.744,0.559,6.437-5.124,4.837-4.132c-14.701,9.118-37.591,0.725-37.591,0.725
		S209.8,148.794,220.196,137.219z"/>
	<path fill="#14142D" d="M208.805,151.472c0,0,11.994-14.678,23.421-23.019c-11.002,5.615-24.665,20.904-24.665,20.904
		L208.805,151.472z"/>
	<polygon fill="#38544F" points="174.564,105.25 159.144,114.967 153.865,117.582 156.386,118.883 158.229,127.201 	"/>
	<polygon fill="#38544F" points="129.315,145.516 135.14,152.601 130.028,158.995 	"/>
	<path opacity="0.8" fill="#14142D" enable-background="new    " d="M202.575,189.115c0,0,6.346,1.993,7.565,3.906
		c1.219,1.913-2.785,9.19-2.785,9.19s5.366-7.582,4.435-10.559C210.859,188.676,202.575,189.115,202.575,189.115z"/>
	<path opacity="0.8" fill="#14142D" enable-background="new    " d="M198.734,201.004c0,0,5.946,2.902,7.032,4.811
		c1.085,1.908-2.983,7.614-2.983,7.614s5.372-5.729,4.599-8.525S198.734,201.004,198.734,201.004z"/>
	<path opacity="0.8" fill="#14142D" enable-background="new    " d="M188.304,185.483c0,0,6.761,0.936,8.283,2.683
		s-1.499,9.903-1.499,9.903s4.365-8.705,2.981-11.593C196.686,183.588,188.304,185.483,188.304,185.483z"/>
	<path opacity="0.8" fill="#14142D" enable-background="new    " d="M183.986,198.598c0,0,6.41,2.174,7.727,3.989
		s-2.253,8.24-2.253,8.24s4.905-6.628,3.815-9.399C192.184,198.658,183.986,198.598,183.986,198.598z"/>
	<path opacity="0.8" fill="#14142D" enable-background="new    " d="M178.468,179.564c0,0,5.851,1.536,7.018,3.639
		c1.166,2.103-2.783,10.963-2.783,10.963s6.103-8.922,5.304-12.249C187.207,178.589,178.468,179.564,178.468,179.564z"/>
	<path opacity="0.8" fill="#14142D" enable-background="new    " d="M171.281,195.753c0,0,5.252,2.841,6.2,4.99
		c0.948,2.15-3.201,9.052-3.201,9.052s6.223-6.587,5.693-9.749C179.444,196.884,171.281,195.753,171.281,195.753z"/>
	<path fill="#9C425B" d="M239.931,158.708c12.739-0.052,25.234,3.557,25.234,3.557s-5.508,8.201-6.362,11.321
		c-12.788,1.048-22.454-0.049-22.454-0.049S238.696,163.376,239.931,158.708z"/>
	<polygon fill="#BC9669" points="216.932,194.367 211.807,210.04 217.176,211.206 218.888,204.874 220.577,205.421 219.269,211.66 
		224.467,212.789 228.357,196.652 	"/>
	<path fill="#AF725A" d="M29.813,198.797c0,0-17.83-0.849-23.984-2.284c-2.95-0.688-3.858-2.724-3.858-2.724s0.76,3.052,7.156,0.572
		c1.259,0.576,1.841,1.173,3.042,1.719c1.201,0.546,16.51-0.524,16.51-0.524L29.813,198.797z"/>
	<path fill="#AF725A" d="M4.399,191.92l4.239-6.089c0,0,2.996,2.526,3.034,3.6s-3.332,2.147-3.332,2.147L4.399,191.92z"/>
	<polygon fill="#14142D" points="109.631,117.376 114.214,115.177 112.761,117.992 	"/>
	<polygon fill="#AF725A" points="106.32,125.513 110.807,123.715 121.155,123.037 111.112,126.2 	"/>
	<path fill="#D96D63" d="M614.866,178.548c28.333-0.993,75.162-3.367,75.162-3.367l-4.2,3.462
		C685.828,178.644,649.205,179.859,614.866,178.548z"/>
	<path fill="#D96D63" d="M577.199,193.302c44,3.446,104.251,9.12,104.251,9.12l5.695,11.294
		C687.144,213.716,634.473,198.139,577.199,193.302z"/>
	<circle fill="#FFFFFF" cx="147.207" cy="41.143" r="1.674"/>
	<circle fill="#FFFFFF" cx="154.781" cy="246.1" r="1.164"/>
	<circle fill="#E8E8E8" cx="457.282" cy="144.469" r="1.162"/>
	
		<linearGradient id="SVGID_2_" gradientUnits="userSpaceOnUse" x1="321.3928" y1="-377.9243" x2="360.9634" y2="-377.9243" gradientTransform="matrix(0.7944 -0.4315 -0.4773 -0.8787 -299.4399 -9.2523)">
		<stop  offset="0" style="stop-color:#F68F57"/>
		<stop  offset="1" style="stop-color:#BA4A72"/>
	</linearGradient>
	<path fill="url(#SVGID_2_)" d="M146.082,155.877l-12.683,23.008l8.319,15.316l16.15,1.145l12.683-23.009l-8.319-15.316
		L146.082,155.877z M166.193,171.298l-10.963,20.135l-11.626-0.954l-5.921-10.902l10.958-20.125l7.244,0.531l-2.02,3.704
		l-3.036-0.222l-8.929,16.399l3.766,6.933l7.385,0.606l8.924-16.39l-1.741-3.206l-5.212,8.482l-1.613-2.291l-4.179,10.504
		l3.077-17.769l2.25,2.943l3.495-5.682l-0.077-0.006l0.091-0.017l2.153-3.67L166.193,171.298z"/>
</g>
<g id="Layer_2" display="none">
</g>
<g id="Layer_2_1_" display="none">
</g>
</svg>
