<?xml version="1.0" encoding="utf-8"?>
<!-- Generator: Adobe Illustrator 17.0.0, SVG Export Plug-In . SVG Version: 6.00 Build 0)  -->
<!DOCTYPE svg PUBLIC "-//W3C//DTD SVG 1.1//EN" "http://www.w3.org/Graphics/SVG/1.1/DTD/svg11.dtd">
<svg version="1.1" id="Layer_1" xmlns="http://www.w3.org/2000/svg" xmlns:xlink="http://www.w3.org/1999/xlink" x="0px" y="0px"
	 width="187.807px" height="218.059px" viewBox="0 0 187.807 218.059" enable-background="new 0 0 187.807 218.059"
	 xml:space="preserve">
<g>
	<path fill="#5D5E5E" d="M211.338,37.11"/>
</g>
<path fill="#F99055" d="M187.265,54.501l-40.578,56.184l-0.157-21.081l-45.805,27.487l-5.293-8.822l-4.381-7.301l46.622-27.977
	l-15.963-9.348l64.711-9.628L93.904,0.599L0,54.814v108.43l93.904,54.215l93.904-54.215V54.814L187.265,54.501z M166.198,149.623
	l-70.31,40.593l-70.309-40.593V68.436l70.309-40.593l42.554,23.977l-31.523,4.306l-11.031-6.572L44.381,79.291v59.476l51.507,29.738
	l51.509-29.738l0.26-13.533l18.542-23.764V149.623z"/>
</svg>
