<?xml version="1.0" encoding="utf-8"?>
<!-- Generator: Adobe Illustrator 17.0.0, SVG Export Plug-In . SVG Version: 6.00 Build 0)  -->
<!DOCTYPE svg PUBLIC "-//W3C//DTD SVG 1.1//EN" "http://www.w3.org/Graphics/SVG/1.1/DTD/svg11.dtd">
<svg version="1.1" id="Layer_1" xmlns="http://www.w3.org/2000/svg" xmlns:xlink="http://www.w3.org/1999/xlink" x="0px" y="0px"
	 width="475.393px" height="548.936px" viewBox="0 0 475.393 548.936" enable-background="new 0 0 475.393 548.936"
	 xml:space="preserve">
<g>
	<path fill="#FFFFFF" d="M475.393,411.702V137.234L237.696,0L0,137.234v274.468l237.696,137.233L475.393,411.702z M21,149.359
		l1-0.578L237.696,24.248l216.696,125.111v250.218l-1,0.578L237.696,524.688L21,399.577V149.359z"/>
	<polygon fill="#FFFFFF" points="391.891,359.691 391.891,245.712 370.891,256.444 370.891,257.157 291.526,299.867 
		291.526,245.269 176.185,312.392 197.17,324.094 270.526,281.641 270.526,335.015 370.891,281.005 370.891,347.566 
		369.891,348.145 240.751,422.703 110.612,347.566 110.612,197.296 111.612,196.718 240.751,122.159 361.741,192.014 
		381.566,179.21 240.751,97.911 89.612,185.171 89.612,359.691 240.751,446.951 	"/>
</g>
</svg>
