<?xml version="1.0" encoding="utf-8"?>
<!-- Generator: Adobe Illustrator 17.0.0, SVG Export Plug-In . SVG Version: 6.00 Build 0)  -->
<!DOCTYPE svg PUBLIC "-//W3C//DTD SVG 1.1//EN" "http://www.w3.org/Graphics/SVG/1.1/DTD/svg11.dtd">
<svg version="1.1" id="Layer_1" xmlns="http://www.w3.org/2000/svg" xmlns:xlink="http://www.w3.org/1999/xlink" x="0px" y="0px"
	 width="180.121px" height="141.829px" viewBox="0 0 180.121 141.829" enable-background="new 0 0 180.121 141.829"
	 xml:space="preserve">
<g id="Layer_1_1_">
</g>
<g id="Layer_2">
	<path opacity="0.6" enable-background="new    " d="M178.535,8.572l-5.783-6.548l-7.775,5.933H10.601
		c-1.987,0-3.598,1.611-3.598,3.598v116.949L1.19,132.94l6.797,7.756l0.006-0.001c0.656,0.694,1.579,1.132,2.609,1.132h161.922
		c1.987,0,7.598-1.451,7.598-7.598V11.556C180.121,10.314,179.492,9.219,178.535,8.572z"/>
	<path fill="#E5E5E5" d="M173.118,130.273c0,1.987-1.611,3.598-3.598,3.598H3.598c-1.987,0-3.598-1.611-3.598-3.598V3.598
		C0,1.611,1.611,0,3.598,0H169.52c1.987,0,3.598,1.611,3.598,3.598L173.118,130.273L173.118,130.273z"/>
	
		<linearGradient id="SVGID_1_" gradientUnits="userSpaceOnUse" x1="368.993" y1="-351.2899" x2="368.993" y2="-395.406" gradientTransform="matrix(1 0 0 -1 -282.6 -262.891)">
		<stop  offset="0" style="stop-color:#FFFFFF;stop-opacity:0"/>
		<stop  offset="1" style="stop-color:#9B9DA0;stop-opacity:0.4589"/>
	</linearGradient>
	<path fill="url(#SVGID_1_)" d="M1.19,88.399v41.874c0,1.236,1.006,2.242,2.242,2.242h165.922c1.237,0,2.242-1.006,2.242-2.242
		V88.399H1.19z"/>
	<path fill="#4C4C4D" d="M173.118,87.377V3.661c0-1.987-1.611-3.598-3.598-3.598H3.598C1.611,0.062,0,1.674,0,3.661v83.716
		C0,87.377,173.118,87.377,173.118,87.377z"/>
	<path fill="#232323" d="M3.598,1.563C2.441,1.563,1.5,2.504,1.5,3.661v82.216h170.118V3.661c0-1.157-0.941-2.098-2.099-2.098H3.598
		z"/>
	
		<linearGradient id="SVGID_2_" gradientUnits="userSpaceOnUse" x1="370.1245" y1="-391.88" x2="370.1245" y2="-363.042" gradientTransform="matrix(1 0 0 -1 -282.6 -262.891)">
		<stop  offset="0" style="stop-color:#FFFFFF;stop-opacity:0"/>
		<stop  offset="1" style="stop-color:#808284;stop-opacity:0.601"/>
	</linearGradient>
	<polygon fill="url(#SVGID_2_)" points="64.518,128.989 59.455,125.825 56.472,100.151 118.577,100.151 114.416,125.825 
		111.01,128.989 	"/>
	<path fill="#232323" d="M115.32,91.834c-3.175,0-23.415,0-28.49,0c0,0-0.314,0-0.874,0c-5.075,0-25.315,0-28.49,0
		c-3.526,0-5.549,3.854-4.758,6.656c0.791,2.802,6.204,27.334,6.204,27.334s-3.318-21.855-4.124-25.857
		c-0.392-3.04,0.689-5.851,3.898-5.851c2.885,0,22.284,0,27.269,0c0.56,0,0.874,0,0.874,0c4.985,0,24.384,0,27.269,0
		c3.209,0,4.291,2.811,3.898,5.851c-0.806,4.002-3.582,25.857-3.582,25.857s4.871-24.532,5.662-27.334
		C120.869,95.688,118.846,91.834,115.32,91.834z"/>
	<g>
		
			<rect x="30.906" y="85.732" transform="matrix(-0.765 -0.644 0.644 -0.765 22.0259 180.5858)" fill="#070808" width="26.104" height="1.085"/>
	</g>
	<g>
		
			<rect x="114.867" y="85.73" transform="matrix(0.765 -0.644 0.644 0.765 -25.5016 102.6543)" fill="#070808" width="26.104" height="1.085"/>
	</g>
	<polygon fill="#232323" points="58.28,92.919 55.839,94.004 54.29,96.716 53.67,98.885 119.3,98.885 118.758,95.902 
		115.639,92.919 	"/>
	
		<linearGradient id="SVGID_3_" gradientUnits="userSpaceOnUse" x1="309.4" y1="-355.869" x2="309.4" y2="-371.128" gradientTransform="matrix(1 0 0 -1 -282.6 -262.891)">
		<stop  offset="0" style="stop-color:#F9F4A8"/>
		<stop  offset="1" style="stop-color:#FFFFFF;stop-opacity:0.4589"/>
	</linearGradient>
	<path fill="url(#SVGID_3_)" d="M41.242,106.994c0,0.686-0.556,1.243-1.243,1.243H13.6c-0.686,0-1.243-0.556-1.243-1.243V94.221
		c0-0.686,0.556-1.243,1.243-1.243H40c0.686,0,1.243,0.556,1.243,1.243L41.242,106.994L41.242,106.994z"/>
	
		<linearGradient id="SVGID_4_" gradientUnits="userSpaceOnUse" x1="309.4" y1="-374.769" x2="309.4" y2="-390.028" gradientTransform="matrix(1 0 0 -1 -282.6 -262.891)">
		<stop  offset="0" style="stop-color:#F9F4A8"/>
		<stop  offset="1" style="stop-color:#FFFFFF;stop-opacity:0.4589"/>
	</linearGradient>
	<path fill="url(#SVGID_4_)" d="M41.242,125.894c0,0.686-0.556,1.243-1.243,1.243H13.6c-0.686,0-1.243-0.556-1.243-1.243v-12.773
		c0-0.686,0.556-1.243,1.243-1.243H40c0.686,0,1.243,0.556,1.243,1.243L41.242,125.894L41.242,125.894z"/>
	<path opacity="0.4" fill="#070808" enable-background="new    " d="M14.378,108.015V94.898c0-0.676-0.931,0.255-0.255,0.255h26.533
		c0.214,0,0.412,0.06,0.587,0.156v-1.081c0-0.686-0.556-1.243-1.243-1.243H13.6c-0.686,0-1.243,0.556-1.243,1.243v12.773
		c0,0.64,0.485,1.16,1.107,1.229C13.451,108.16,14.378,108.089,14.378,108.015z"/>
	<path opacity="0.4" fill="#070808" enable-background="new    " d="M14.378,126.915v-13.117c0-0.676-0.931,0.255-0.255,0.255
		h26.533c0.214,0,0.412,0.06,0.587,0.156v-1.081c0-0.686-0.556-1.243-1.243-1.243H13.6c-0.686,0-1.243,0.556-1.243,1.243v12.773
		c0,0.64,0.485,1.16,1.107,1.229C13.451,127.06,14.378,126.988,14.378,126.915z"/>
	<g>
		<path fill="#1E1E1E" d="M40,108.294H13.6c-0.75,0-1.359-0.61-1.359-1.36V94.161c0-0.75,0.61-1.359,1.359-1.359H40
			c0.75,0,1.36,0.61,1.36,1.359v12.773C41.36,107.684,40.749,108.294,40,108.294z M13.599,93.036c-0.621,0-1.125,0.505-1.125,1.125
			v12.773c0,0.621,0.505,1.126,1.125,1.126H40c0.621,0,1.126-0.505,1.126-1.126V94.161c0-0.621-0.505-1.125-1.126-1.125H13.599z"/>
	</g>
	<g>
		<path fill="#1E1E1E" d="M40,127.194H13.6c-0.75,0-1.359-0.61-1.359-1.359v-12.773c0-0.75,0.61-1.36,1.359-1.36H40
			c0.75,0,1.36,0.61,1.36,1.36v12.773C41.36,126.584,40.749,127.194,40,127.194z M13.599,111.936c-0.621,0-1.125,0.505-1.125,1.126
			v12.773c0,0.621,0.505,1.125,1.125,1.125H40c0.621,0,1.126-0.505,1.126-1.125v-12.773c0-0.621-0.505-1.126-1.126-1.126H13.599z"/>
	</g>
	<g>
		<path fill="#CCCCCC" d="M85.634,94.413c0.581,0,0.907,0,0.907,0c5.181,0,25.583,0,29.372,0c-0.716-0.549-1.599-0.893-2.616-0.893
			c-2.986,0-22.024,0-26.798,0c0,0-0.295,0-0.822,0c-4.773,0-23.811,0-26.798,0c-1.018,0-1.9,0.343-2.616,0.893
			C60.051,94.413,80.453,94.413,85.634,94.413z"/>
	</g>
	<path opacity="0.7" fill="#070808" enable-background="new    " d="M27.364,104.424c2.531,0,4.925,0.587,7.055,1.629
		c-1.994-1.414-4.424-2.253-7.055-2.253s-5.061,0.839-7.055,2.253C22.439,105.011,24.833,104.424,27.364,104.424z"/>
	<path opacity="0.7" fill="#070808" enable-background="new    " d="M27.364,123.51c2.531,0,4.925,0.587,7.055,1.629
		c-1.994-1.414-4.424-2.253-7.055-2.253s-5.061,0.839-7.055,2.253C22.439,124.097,24.833,123.51,27.364,123.51z"/>
	<polygon fill="#A83824" points="30.853,103.801 34.419,96.794 31.895,104.127 	"/>
	<polyline fill="#A83824" points="31.02,122.848 34.585,115.841 32.062,123.174 	"/>
	<g>
		<rect x="27.364" y="95.461" fill="#101010" width="0.364" height="2.042"/>
		
			<rect x="22.348" y="95.462" transform="matrix(-0.989 0.1478 -0.1478 -0.989 59.024 187.922)" fill="#101010" width="0.364" height="1.385"/>
		
			<rect x="17.414" y="95.729" transform="matrix(-0.8962 0.4437 -0.4437 -0.8962 76.4481 176.3106)" fill="#101010" width="0.364" height="2.741"/>
		
			<rect x="32.197" y="95.58" transform="matrix(0.989 0.1478 -0.1478 0.989 14.5849 -3.7284)" fill="#101010" width="0.364" height="1.385"/>
		
			<rect x="37.13" y="95.841" transform="matrix(0.8962 0.4437 -0.4437 0.8962 47.0057 -6.4626)" fill="#101010" width="0.364" height="2.741"/>
	</g>
	<g>
		<rect x="27.276" y="114.711" fill="#101010" width="0.364" height="2.042"/>
		
			<rect x="22.26" y="114.711" transform="matrix(-0.989 0.1478 -0.1478 -0.989 61.6949 226.2227)" fill="#101010" width="0.364" height="1.385"/>
		
			<rect x="17.327" y="114.979" transform="matrix(-0.8962 0.4437 -0.4437 -0.8962 84.823 212.8512)" fill="#101010" width="0.364" height="2.741"/>
		
			<rect x="32.109" y="114.83" transform="matrix(0.989 0.1478 -0.1478 0.989 17.4292 -3.5039)" fill="#101010" width="0.364" height="1.385"/>
		
			<rect x="37.042" y="115.091" transform="matrix(0.8962 0.4437 -0.4437 0.8962 55.5374 -4.425)" fill="#101010" width="0.364" height="2.741"/>
	</g>
	<circle opacity="0.6" fill="#070808" enable-background="new    " cx="148.542" cy="111.885" r="14.238"/>
	<circle fill="#C1C1C0" cx="146.375" cy="110.683" r="14.238"/>
	
		<linearGradient id="SVGID_5_" gradientUnits="userSpaceOnUse" x1="433.3989" y1="-367.9852" x2="421.5656" y2="-382.9852" gradientTransform="matrix(1 0 0 -1 -282.6 -262.891)">
		<stop  offset="0" style="stop-color:#CFCFCF"/>
		<stop  offset="1" style="stop-color:#FFFFFF"/>
	</linearGradient>
	<circle fill="url(#SVGID_5_)" cx="146.375" cy="110.702" r="13.571"/>
	<rect x="70.891" y="76.455" width="31.052" height="7.423"/>
	<polygon fill="#232323" points="14.77,40.877 14.77,40.877 14.77,40.877 	"/>
	<path opacity="0.4" fill="#070808" enable-background="new    " d="M155.082,101.377l2.414,0.436c0,0,0.791,0.873,1.346,1.989
		c-10.135,6.7-13.823,21.118-13.823,21.118l-2.551-0.528l2.989-12.507L155.082,101.377z"/>
	
		<linearGradient id="SVGID_6_" gradientUnits="userSpaceOnUse" x1="584.0471" y1="-218.1374" x2="584.0471" y2="-189.6634" gradientTransform="matrix(0.8325 0.5541 0.5541 -0.8325 -226.8635 -382.6661)">
		<stop  offset="0" style="stop-color:#CFCFCF"/>
		<stop  offset="1" style="stop-color:#FFFFFF"/>
	</linearGradient>
	<path fill="url(#SVGID_6_)" d="M135.254,119.59c0.896,1.121,1.974,2.127,3.232,2.964c1.258,0.838,2.602,1.444,3.982,1.838
		c0,0,2.446-7.172,6.134-12.825c3.688-5.654,8.894-9.754,8.894-9.754c-0.896-1.121-1.974-2.127-3.233-2.964
		c-1.258-0.838-2.602-1.444-3.982-1.838c0,0-1.565,5.999-5.599,12.023C140.648,115.057,135.254,119.59,135.254,119.59z"/>
</g>
</svg>
