<?xml version="1.0" encoding="utf-8"?>
<!-- Generator: Adobe Illustrator 17.0.0, SVG Export Plug-In . SVG Version: 6.00 Build 0)  -->
<!DOCTYPE svg PUBLIC "-//W3C//DTD SVG 1.1//EN" "http://www.w3.org/Graphics/SVG/1.1/DTD/svg11.dtd">
<svg version="1.1" xmlns="http://www.w3.org/2000/svg" xmlns:xlink="http://www.w3.org/1999/xlink" x="0px" y="0px"
	 width="22.901px" height="22.901px" viewBox="0 0 22.901 22.901" enable-background="new 0 0 22.901 22.901" xml:space="preserve">
<g id="Layer_1">
</g>
<g id="Layer_2">
	<radialGradient id="SVGID_1_" cx="11.4507" cy="11.4505" r="11.3335" gradientUnits="userSpaceOnUse">
		<stop  offset="0.3399" style="stop-color:#A0D9D9"/>
		<stop  offset="1" style="stop-color:#52C0A9"/>
	</radialGradient>
	<path fill="url(#SVGID_1_)" d="M22.784,20.85c0,1.068-0.866,1.934-1.934,1.934h-18.8c-1.068,0-1.934-0.866-1.934-1.934v-18.8
		c0-1.068,0.866-1.934,1.934-1.934h18.8c1.068,0,1.934,0.866,1.934,1.934V20.85z"/>
	<polygon fill="#232323" points="8.389,4.434 8.389,19.084 17.61,12.301 	"/>
	<g>
		<path fill="#121212" d="M20.851,22.901h-18.8C0.92,22.901,0,21.981,0,20.85v-18.8C0,0.92,0.92,0,2.051,0h18.8
			c1.131,0,2.051,0.92,2.051,2.051v18.8C22.901,21.981,21.982,22.901,20.851,22.901z M2.051,0.234c-1.002,0-1.817,0.815-1.817,1.817
			v18.8c0,1.002,0.815,1.817,1.817,1.817h18.8c1.002,0,1.817-0.815,1.817-1.817v-18.8c0-1.002-0.815-1.817-1.817-1.817H2.051z"/>
	</g>
</g>
</svg>
