<?xml version="1.0" encoding="utf-8"?>
<!-- Generator: Adobe Illustrator 17.0.0, SVG Export Plug-In . SVG Version: 6.00 Build 0)  -->
<!DOCTYPE svg PUBLIC "-//W3C//DTD SVG 1.1//EN" "http://www.w3.org/Graphics/SVG/1.1/DTD/svg11.dtd">
<svg version="1.1" id="Layer_1" xmlns="http://www.w3.org/2000/svg" xmlns:xlink="http://www.w3.org/1999/xlink" x="0px" y="0px"
	 width="419.138px" height="679.63px" viewBox="0 0 419.138 679.63" enable-background="new 0 0 419.138 679.63"
	 xml:space="preserve">
<g id="Layer_1_1_">
</g>
<g id="Layer_3">
</g>
<g id="Layer_4">
	<polygon fill="#DCDCF9" points="412.824,321.46 255.352,230.544 0,378.324 0,560.156 157.471,651.073 412.824,503.292 	"/>
	<radialGradient id="SVGID_1_" cx="232.069" cy="306.315" r="268.6038" gradientUnits="userSpaceOnUse">
		<stop  offset="0.3696" style="stop-color:#1A1751;stop-opacity:0.8"/>
		<stop  offset="0.8571" style="stop-color:#000000;stop-opacity:0"/>
	</radialGradient>
	<polygon opacity="0.5" fill="url(#SVGID_1_)" points="0,376.881 0,558.713 157.471,649.63 412.824,501.849 412.824,320.017 
		255.352,230.544 	"/>
	<circle fill="#E67A5D" cx="146.213" cy="392.45" r="35.772"/>
	<circle fill="#F99055" cx="139.568" cy="390.958" r="29.793"/>
	<path opacity="0.1" fill="#050606" enable-background="new    " d="M355.069,348.828c-44.986-32.015-37.258-137.718-99.898-176.439
		c-4.461-12.686-9.966-15.393-15.879-20.617c-0.543-0.48-1.325-0.943-2.279-1.391l2.279,0.287c0,0-5.106-19.871-33.256-18.215
		c-0.252,0.092-0.474,0.184-0.713,0.276l-3.151-14.627l0.506-2.025l1.307,1.818l8.053-25.253l-6.003-11.799l-9.936-8.487
		l-3.519-7.866l-3.519,4.14l-4.347-8.694v7.452l-3.795-1.035v6.003l3.837,4.244l-1.629,0.379l-13.457,7.728l1.865,4.692l-3.09,2.317
		l0,0l-2.361,1.771l0,0L153.46,100.3l10.349,10.625l-3.42,10.143c-6.757-1.857-12.11-1.305-16.261,0.284
		c-6.423-7.125-23.662-25-44.906-36.922C93.086,59.381,53.03,30.833,53.03,30.833s0.87-0.04,0,0l-2.427-26L37.863,0l-9.736,7.029
		L38.699,41c9.568,36.698,50.195,93.933,61.553,111.41c-5.22,8.554-9.252,17.383-5.992,37.31
		c1.897,11.596,12.706,29.417,22.858,44.117c0.053,1.698,0.418,4.167,1.448,7.746c13.333,20.479,16.991,103.135,52.474,141.82
		c-0.177-12.852,11.536-15.257,11.536-15.257l-35.718-80.595l-21.1-41.661c5.933,7.997,10.314,13.379,10.314,13.379l54.373-17.427
		l39.602,82.974c0,0-19.319,27.933,37.811,49.441s9.108-72.348,40.846-50.269c0.492,0.343,0.96,0.644,1.405,0.907
		c8.018,19.577,17.61,36.35,30.334,46.011C342.098,371.183,377.7,368.699,355.069,348.828z M197.756,142.94l0.302-0.252l0.176,0.299
		C197.93,142.957,197.756,142.94,197.756,142.94z"/>
	<g>
		<path fill="#252147" d="M156.138,599.392l-2.129-3.828C154.649,596.883,155.35,598.167,156.138,599.392z"/>
		<path fill="#4E4E68" d="M419.138,586.456c0-9.996-8.103-18.099-18.099-18.099c-0.621,0-1.234,0.032-1.838,0.093
			c-5.904-21.327-25.439-36.99-48.645-36.99c-27.881,0-50.483,22.602-50.483,50.483c0,0.886,0.024,1.767,0.069,2.642
			c-3.483-5.146-9.374-8.528-16.055-8.528c-8.174,0-15.151,5.068-17.997,12.228c-1.709-0.54-3.473-0.957-5.281-1.24
			c-2.426-15.31-15.681-27.016-31.674-27.016c-3.835,0-7.501,0.694-10.909,1.929c-6.229-10.997-18.029-18.424-31.571-18.424
			c-20.031,0-36.269,16.238-36.269,36.268c0,5.58,1.277,10.856,3.531,15.577c0.136-0.12,16.531-14.534,36.829-11.546
			c-25.049,1.333-34.607,15.558-34.607,15.558c-3.65,6.068-5.753,13.173-5.753,20.771c0,22.29,18.07,40.36,40.36,40.36
			c14.159,0,26.606-7.297,33.809-18.328c6.423,10.131,17.727,16.862,30.609,16.862c7.406,0,14.291-2.227,20.028-6.042
			c5.321,15.073,19.684,25.876,36.577,25.876c19.501,0,35.636-14.394,38.372-33.136c6.865,6.543,16.152,10.568,26.384,10.568
			c21.13,0,38.259-17.129,38.259-38.259c0-5.919-1.345-11.523-3.745-16.525C415.918,598.294,419.138,592.753,419.138,586.456z"/>
	</g>
	<g>
		<path fill="#FFFFFF" d="M228.599,443.667c-5.143,3-10.714-0.429-15.857,0c-6,0.857-9.428,3-15.857,2.143
			c-12.428-0.857-21.856,4.714-33.427,6c0.857,6,9.428,6,13.714,7.714c-1.714,6.428-12.857,3.857-17.999,3
			c-7.714-1.286-14.142-0.857-21.856,0c-1.714,0-13.285-0.429-12.428,2.571c0,1.714,12,3,13.714,3.428
			c7.714,2.143,57.426,10.285,54.426-6c0-1.714-3.428-4.286-4.286-5.571c4.286-1.714,12.428,1.286,17.571,2.143
			c9.428,1.286,12.857,1.286,21.428-2.571"/>
	</g>
	<path fill="#CE9176" d="M37.696,36.083C34.279,27.048,36.873,13.875,34.863,9c-0.761-2.181-3.057-3.682-5.25-4
		c-1.62-0.235-11.239-1.413-12.583-1.5c-1.412-0.091-2.918,0.109-2.918,3.945c0,0.419,1.66,2.124,1.418,2.491
		c-0.241,0.366-3.293-2.037-3.51-1.645c-0.777,1.404-0.614,1.529-0.99,2.876C9.971,14.959,23.1,43.789,23.1,43.789
		S41.113,45.119,37.696,36.083z"/>
	<path fill="#4E4E68" d="M83.438,159.913c0,0-49.574-73.814-60.889-117.42c9.131-10.764,15.148-9.159,15.148-9.159
		s35.184,28.393,41.32,53.443c27.047,15.179,47.613,40.018,47.613,40.018L83.438,159.913z"/>
	<path fill="#38544F" d="M90.889,215.939c23.735,68.445,9.108,177.185,70.377,187.948c-24.839-29.255,1.104-33.395,1.104-33.395
		L97.789,224.77C97.789,224.77,93.925,213.179,90.889,215.939z"/>
	<path fill="#273F39" d="M97.651,232.636l29.001,57.261l35.718,80.595c0,0-11.713,2.404-11.536,15.257
		c-35.483-38.686-39.141-121.341-52.474-141.82C95.564,234.214,97.651,232.636,97.651,232.636z"/>
	<g>
		<circle fill="#4E4E68" cx="111.864" cy="624.179" r="21.745"/>
		<circle fill="#4E4E68" cx="135.599" cy="586.456" r="10.138"/>
		<circle fill="#4E4E68" cx="408.918" cy="552.005" r="7.88"/>
		<circle fill="#4E4E68" cx="318.638" cy="523.107" r="6.869"/>
	</g>
	<path fill="#F88F55" d="M244.168,613.516c3.621-2.29,7.908-3.621,12.509-3.621c5.88,0,11.25,2.17,15.364,5.747
		c5.566-15.143,20.116-25.947,37.19-25.947c12.884,0,24.326,6.155,31.56,15.68c1.928-9.863,10.039-17.507,20.135-18.738
		c-22.383-11.786-55.885-33.588-59.071-67.831c-1.223-13.146-97.845-92.598-58.806-34.675
		C289.637,553.256,251.37,604.855,244.168,613.516z"/>
	<path fill="#38544F" d="M247.651,376.603c57.13,21.508,9.108-72.348,40.846-50.269s-37.534-124.419-37.534-124.419l-16.559-15.507
		l-8.556,50.782l-40.336-4.968l-19.798,2.484l44.127,92.456C209.84,327.162,190.521,355.095,247.651,376.603z"/>
	<path fill="#273F39" d="M231.266,189.375l34.972,34.583l30.581,106.447c0,0-8.322-4.071-15.328-7.417
		c-4.214,2.805-11.044-42.568-28.742-56.766c-17.697-14.198-40.384,33.822-80.374-10.197S231.266,189.375,231.266,189.375z"/>
	<path fill="#4C765E" d="M225.848,167.917c0,0-53.522-31.903,9.117,6.818s54.912,144.424,99.898,176.439
		c22.631,19.871-12.971,22.355-14.627,22.079c-44.71-33.947-50.782-155.658-85.557-178.565S225.848,167.917,225.848,167.917z"/>
	<path fill="#4E4E68" d="M124.146,302.543l-1.656,1.298c0,0,7.452,57.13,77.415,105.566c7.452,12.006,12.419,25.253,12.419,25.253
		l51.748,72.447l24.425,42.64l12.419-14.075l-5.382-31.877l-9.108,2.07c0,0-2.07-67.479-11.178-87.35s-32.705-28.979-32.705-28.979
		s0.504-73.689-40.156-102.075c-7.452-9.522-7.452-6.803-7.452-6.803l-35.603,13.661l-7.038,12.419l-25.253-6.21"/>
	<path fill="#4C765E" d="M185.829,134.798c28.151-1.656,33.257,18.215,33.257,18.215l-39.466-4.968l-3.726-6.348
		C175.894,141.698,176.722,138.11,185.829,134.798z"/>
	<path fill="#4C765E" d="M111.864,134.798c0,0,8.004-18.215,30.359-10.764c-0.919,2.526-5.52,15.179-5.52,15.179L111.864,134.798z"
		/>
	<polygon fill="#CE9176" points="135.599,137.006 143.603,113.271 136.979,102.507 151.331,91.744 149.321,85.958 166.768,79.458 
		168.856,77.944 179.62,84.568 185.829,91.192 185.829,104.991 181.965,120.446 185.829,138.386 177.55,145.285 	"/>
	<polygon fill="#AF725A" points="143.603,113.271 165.713,118.239 172.375,109.062 163.375,113.222 	"/>
	<polygon fill="#AF725A" points="150.365,132.896 160.714,123.137 145.88,130.729 	"/>
	<polygon fill="#0B0B0B" points="160.714,74.701 168.2,82.981 181.53,88.343 175.03,98.833 160.714,101.196 151.331,91.744 
		148.241,94.061 153.898,99.554 152.622,100.474 145.88,95.832 133.253,102.645 143.603,113.271 162.37,113.686 172.375,109.062 
		181.069,100.782 183.779,103.266 180.655,115.893 183.779,120.239 191.832,94.987 185.829,83.188 175.894,74.701 172.375,66.836 
		168.856,70.976 164.509,62.282 164.509,69.734 160.714,68.699 	"/>
	<path fill="#C15A74" d="M109.656,255.819l12.833,48.022c0,0,16.145-1.656,32.291,12.006c0,0,5.796-37.672,45.124-30.014
		c-5.382-24.632-19.457-44.917-19.457-44.917L109.656,255.819z"/>
	<path fill="#4E4E68" d="M115.866,261.615c0,0-38.086-46.78-41.812-69.549s2.07-31.049,8.28-40.984s25.667-19.043,33.533-19.043
		s14.545,0.11,24.977,3.588s36.706,9.66,36.706,9.66s35.382,3.394,41.536,8.832c6.154,5.438,11.868,8.142,16.421,22.217
		c4.554,14.075-0.939,72.033-5.852,79.071c-4.912,7.038-8.224,8.28-20.229,6.21c-12.006-2.07-39.328-31.049-39.328-31.049
		l10.35,10.35L115.866,261.615z"/>
	<polygon fill="#191919" points="114.45,273.756 189.55,255.405 181.689,238.294 107.815,251.262 	"/>
	<polygon fill="#C15A74" points="158.19,263.068 166.05,293.694 177.646,286.773 170.803,259.986 163.375,261.801 	"/>
	<path fill="#4C765E" d="M213.152,439.627l2.277-9.522l7.866,2.691v-8.901l13.193,4.521l7.92,1.275l2.898-13.454
		c0,0,26.198,9.71,32.912,11.695c8.005,36.53,7.038,72.237,7.038,72.237s3.525-1.168,9.315,2.383
		c5.789,3.551,5.508,29.019,5.803,41.573s-8.403,12.732-13.876,7.898S213.152,439.627,213.152,439.627z"/>
	<path fill="#36364C" d="M83.438,159.913c0,0,16.944,11.31,20.381,10.522c3.436-0.788,8.046-1.845,8.046-1.845
		s-6.072,6.088-9.887,6.192S83.438,159.913,83.438,159.913z"/>
	<path fill="#36364C" d="M167.943,176.945c0,0-34.254,5.105-39.3,1.622c-5.046-3.483-11.814-8.155-11.814-8.155
		s7.04,12.268,13.118,15.004S167.943,176.945,167.943,176.945z"/>
	<path fill="#36364C" d="M168.856,226.633c0,0,19.533,26.014,37.069,33.844s22.227-4.453,22.227-4.453s-27.599,3.451-54.922-31.255
		C171.655,225.441,168.856,226.633,168.856,226.633z"/>
	<g>
		<path fill="#494A75" d="M227.27,174.73c3.614,11.172,4.265,55.055,1.713,73.697c4.055-15.742,7.509-59.054,3.722-70.756
			c-4.369-13.503-9.849-16.097-15.753-21.314c-0.948-0.838-2.624-1.625-4.763-2.357C217.836,158.846,223.068,161.742,227.27,174.73z
			"/>
	</g>
	<path fill="#494A75" d="M179.62,218.56c0,0,22.596,4.722,36.32,14.075c-17.628-8.602-38.293-11.247-38.293-11.247L179.62,218.56z"
		/>
	<polygon fill="#679379" points="228.152,425.561 278.859,523.107 236.488,428.417 	"/>
	<path fill="#65657C" d="M156.14,317.288c16.983,39.558,42.447,65.914,58.371,85.276c7.304,8.881,10.307,17.055,13.641,22.997
		c3.531,0.747,8.335,2.856,8.335,2.856s-3.464-5.924-16.154-31.393c-4.121-4.236-31.868-29.587-57.963-93.935
		C160.677,305.207,158.255,306.714,156.14,317.288z"/>
	<polygon fill="#AF725A" points="177.55,145.285 185.829,138.386 181.965,120.446 182.472,118.421 181.269,116.747 179.422,136.77 
		166.768,142.673 	"/>
	<circle fill="#DCDCF9" cx="41.488" cy="147.065" r="3.208"/>
	<circle fill="#DCDCF9" cx="117.177" cy="34.146" r="5.313"/>
	<circle fill="#DCDCF9" cx="65.484" cy="281.827" r="8.071"/>
	<circle fill="#DCDCF9" cx="50.496" cy="324.606" r="5.799"/>
	<g>
		<g>
			<g>
				<path fill="#14142D" d="M114.586,134.827c0.319-0.047,0.646-0.104,0.944-0.127C115.167,134.692,114.864,134.745,114.586,134.827
					z"/>
			</g>
			<path fill="#36364C" d="M111.59,134.53c-7.519,0.42-24.502,8.533-30.023,17.366c-5.67,9.071-10.961,16.63-7.559,37.418
				c2.629,16.067,21.555,45.941,31.125,58.357c-9.504-15.028-22.695-43.636-25.105-58.357c-3.402-20.788,1.89-28.347,7.559-37.418
				C92.218,144.487,103.581,136.996,111.59,134.53z"/>
		</g>
	</g>
	<path fill="#36364C" d="M123.415,123.137c0,0-18.219-21.137-44.398-36.362c-8.32-25.943-28.414-42.987-28.414-42.987
		S71.58,75.832,73.555,88.832c26.809,16.667,34.261,44.063,34.261,44.063l6.422-1.879L123.415,123.137z"/>
	<path fill="#494A75" d="M39.325,80.075c20.871,41.65,40.586,70.198,40.586,70.198l2.96-4.276
		C82.872,145.997,65.696,126.058,39.325,80.075z"/>
	<path fill="#36364C" d="M202.389,287.461c40.974,27.373,40.156,102.075,40.156,102.075s27.151,7.631,36.625,37.753
		c-3.474-1.122-14.584-4.742-14.584-4.742s-13.556-20.713-24.307-28.713c-23.916-78.667-56.5-108.58-56.5-108.58
		S197.826,283.934,202.389,287.461z"/>
	<path fill="#38544F" d="M265.694,423.5c0,0,16.883,47,19.068,77.667c7.684-0.083,8.934,6,8.934,6l8.684,40.667
		c0,0,1.566-35-4.222-43.543c-1.588-1.738-5.462-5.207-9.795-4.457c-1.667-42-8.145-71.901-8.145-71.901L265.694,423.5z"/>
	<polygon fill="#38544F" points="233.764,436.357 250.135,440.317 254.275,429.002 266.694,432.797 255.93,432.797 250.687,443.629 
		236.905,442.398 	"/>
	<polygon fill="#38544F" points="220.334,450.34 222.812,443.629 229.656,445.561 233.023,438.385 231.266,448.045 224.468,446.389 
		222.678,453.837 	"/>
	<path fill="#777791" d="M230.363,605.175c10.333-1.842,13.805,8.341,13.805,8.341s13.719-9.9,27.874,2.125
		c18.155-41.808,60.677-23.725,68.749-10.266c5.072-20.708,19.239-19.129,21.572-18.919c0-9.956,9.667-11.623,11.667-11.623
		c-11,3.333-8.333,14-7.667,16c-17.333-7.5-23,18.333-24,21.333c-32-33.667-62.5-13.833-70,13.012c-7.333-19.846-30-8.012-30-8.012
		S239.696,605.5,230.363,605.175z"/>
	<path fill="#65657C" d="M126.63,309.192c0,0,5.733,38.974,54.733,83.974c-41.333-39-50.333-83.974-50.333-83.974H126.63z"/>
	<path fill="#679379" d="M244.03,185.316c32,22.184,52.454,110.664,62.667,133.49c10.212,22.826,26,34.694,26,34.694
		s-18.226-9-31.78-32.333C287.363,297.833,272.03,210.833,244.03,185.316z"/>
	<circle fill="#D96D63" cx="240.218" cy="589.978" r="3.522"/>
	<circle fill="#D96D63" cx="252.32" cy="578.409" r="2.091"/>
	<circle fill="#D96D63" cx="223.529" cy="577" r="6.833"/>
	<circle fill="#D96D63" cx="357.029" cy="570.5" r="4.333"/>
	<circle fill="#D96D63" cx="344.363" cy="560.5" r="3"/>
	<circle fill="#D96D63" cx="363.696" cy="550.167" r="2.333"/>
	<g>
		<path fill="#FFFFFF" d="M18.109,404.838c7.696-0.53,15.392-1.06,23.176-0.308c3.022,0.221,8.58-0.161,10.836,1.402
			c5.484,4.777-1.519,9.126,7.09,9.392c5.587,0.045,9.141-4.496,14.183-6.132c8.861-2.329,17.765,2.213,26.463,3.762
			c13.917,2.478,30.679,2.612,41.148-7.559c-5.911-4.748-20.242-0.754-27.967-0.651c-3.848,0.265-9.406,0.648-13.401-1.225
			c-4.025-2.3-4.57-3.981-9.45-6.222c-8.359-2.861-18.62-2.154-27.716-3.246c-5.189-0.502-22.276-5.339-18.576,4.716
			c-4.585,2.034-37.077-8.185-35.678,5.894c3.907,0.59,8.123-0.56,12.399-0.854"/>
	</g>
	<g>
		<path fill="#FFFFFF" d="M283.722,409.019c9,0,21.428,0.429,30.427,1.286c4.286,0.429,9.428,1.714,13.714,0.429
			c5.571-2.143,6.428-5.571,12.857-6c9.428-0.857,19.714,2.571,28.713,3c7.714,0.429,24.428,4.286,30.427-2.143
			c-2.571-2.143-5.143-0.429-8.571-0.857c-3.857-0.429-6.857-2.143-10.285-3c-8.143-0.857-15.428,1.286-23.142-2.571
			c0.857-0.429,1.714-0.857,2.143-1.286c-3.857-2.143-11.571-1.286-16.285-0.857c-3.428,0.429-6,1.286-9.428,1.714
			c-1.286,0.429-3,1.714-3.428,2.143c-2.571,0-3.428-2.143-5.571-1.714c-3,0.429-5.143,2.571-8.143,3s-6.857-1.714-9-1.286
			c-6.428,1.286-19.714,7.285-25.285,8.143"/>
	</g>
	<path fill="#393951" d="M190.745,660.522c0,0,23.001,0.032,33.809-18.328c19.141,30.64,47.132,13,50.637,10.82
		c13.505,42.486,70.394,29.66,74.949-7.26c23.555,28.08,58.021,0.019,61.236-11.914c-28.348,38.327-61.014,0.327-64.014-2.007
		C325.508,683.5,288.03,667.167,275.03,644.5c-13.318,14.383-37.667,12.333-51.5-9.333
		C210.03,657.833,190.745,660.522,190.745,660.522z"/>
	<polygon fill="#36364C" points="178.658,238.294 167.943,225.598 153.297,213.864 162.37,241.685 	"/>
	<polygon fill="#1B1939" points="173.042,188.186 176.722,182.13 188.313,182.771 189.55,201.215 198.351,217.333 200.729,221.389 
		175.612,212.583 	"/>
	<path fill="#CE9176" d="M168.856,224.77c0,0,7.038-1.656,12.419-11.178v-6.624c0,0,2.76-4.692,2.484-8.694
		s-4.416-10.35-7.452-12.419s-7.452,2.484-7.452,2.484s-4.554-0.552-6.624,0.414s-6.619,7.124-7.452,9.522
		c-0.833,2.398-3.45,8.28-1.38,13.661C155.471,217.319,168.856,224.77,168.856,224.77z"/>
	<path fill="#AF725A" d="M165.713,188.186c0,0,4.716,6.808,10.181,9.093c-3.575-3.365-7.038-8.939-7.038-8.939L165.713,188.186z"/>
	<path fill="#AF725A" d="M153.24,202.958c0,0-1.808,4.563,0.161,8.979c2.776,5.869,15.455,12.833,15.455,12.833l5.412-2.89
		c0,0-13.087-4.882-18.414-11.823C153.594,207.313,153.24,202.958,153.24,202.958z"/>
	<path fill="#36364C" d="M176.722,182.13c0,0,11.948,7.801,23.183-10.35C187.207,181.697,176.722,182.13,176.722,182.13z"/>
	<path fill="#36364C" d="M202.25,220.751c-1.641-1.636,9.495,4.261,7.451,3.039c-18.781-11.232-22.63-41.833-22.63-41.833
		S183.207,215.783,202.25,220.751z"/>
	<path fill="#36364C" d="M179.62,216.219c0,0,23.459,4.963,39.466,12.967c-12.695-9.108-37.81-15.593-37.81-15.593L179.62,216.219z"
		/>
	<polygon fill="#38544F" points="211.703,150.907 191.832,139.214 185.829,134.798 185.829,138.386 177.55,145.285 	"/>
	<polygon fill="#38544F" points="140.183,123.413 135.599,134.073 125.446,132.038 	"/>
	<path fill="#404059" d="M133.692,231.062c0,0,1.443,8.289,0,10.77c-1.443,2.48-11.947,2.203-11.947,2.203
		s11.637,1.632,14.442-1.142C138.993,240.118,133.692,231.062,133.692,231.062z"/>
	<path fill="#404059" d="M118.099,233.644c0,0,0.188,8.368-1.327,10.696c-1.515,2.328-10.289,1.066-10.289,1.066
		s9.557,2.713,12.252,0.222C121.429,243.136,118.099,233.644,118.099,233.644z"/>
	<path fill="#404059" d="M129.492,212.913c0,0,2.872,8.143,1.791,10.868c-1.081,2.725-12.001,4.063-12.001,4.063
		s12.318-0.145,14.761-3.377C136.487,221.235,129.492,212.913,129.492,212.913z"/>
	<path fill="#404059" d="M112.245,215.671c0,0,1.276,8.467,0,11s-10.57,2.25-10.57,2.25s10.296,1.667,12.778-1.167
		C116.936,224.921,112.245,215.671,112.245,215.671z"/>
	<path fill="#404059" d="M130.437,198.423c0,0,1.669,7.469-0.017,10s-13.937,3.234-13.937,3.234s13.57,1.682,16.847-1.147
		C136.606,207.68,130.437,198.423,130.437,198.423z"/>
	<path fill="#404059" d="M108.07,199.739c0,0-0.145,7.552-2.011,9.865c-1.866,2.313-12.033,1.656-12.033,1.656
		s11.015,3.172,14.262,0.742C111.536,209.571,108.07,199.739,108.07,199.739z"/>
	<path fill="#9C425B" d="M189.55,255.405c7.451,14.288,10.646,30.428,10.646,30.428s-12.414-1.432-16.417-0.58
		c-8.599-13.766-12.975-25.267-12.975-25.267S183.586,256.726,189.55,255.405z"/>
	<polygon fill="#BC9669" points="136.121,250.247 115.529,253.583 117.335,260.295 125.446,258.544 125.811,260.76 118.039,262.911 
		119.787,269.408 140.183,264.416 	"/>
	<path fill="#AF725A" d="M22.548,42.493c0,0-9.394-20.534-11.352-28.284c-0.939-3.715,0.823-5.917,0.823-5.917
		s-2.99,2.626,3.51,8.376c0.083,1.75-0.25,2.75-0.167,4.417s10.171,18.254,10.171,18.254L22.548,42.493z"/>
	<path fill="#AF725A" d="M15.53,9.936l9.304,1.231c0,0-1.1,4.833-2.285,5.5c-1.186,0.667-4.347-2.5-4.347-2.5L15.53,9.936z"/>
	<circle fill="#DCDCF9" cx="322.426" cy="244.017" r="6.23"/>
	<circle fill="#DCDCF9" cx="358.422" cy="233.068" r="5.225"/>
	<circle fill="#DCDCF9" cx="321.912" cy="174.572" r="3.216"/>
	<circle fill="#DCDCF9" cx="270.076" cy="140.215" r="3.382"/>
	<circle fill="#DCDCF9" cx="299.819" cy="101.833" r="3"/>
	<polygon fill="#14142D" points="160.389,84.958 165.521,88.833 161.514,88.833 	"/>
	<polygon fill="#AF725A" points="149.321,85.958 153.946,89.958 160.714,101.196 151.331,91.744 	"/>
	<path fill="#D96D63" d="M281.196,554.959c2.89,21.099-1.064,47.475-1.064,47.475l4.629-5.84
		C284.762,596.594,285.744,574.223,281.196,554.959z"/>
	<path fill="#D96D63" d="M296.196,560.5c8,16.833,21,29.478,21,29.478l15.61,7.5C332.806,597.478,307.136,577.382,296.196,560.5z"/>
	<circle fill="#E8E8E8" cx="128.133" cy="452.337" r="1.503"/>
	<circle fill="#E8E8E8" cx="298.214" cy="459.438" r="1.395"/>
	<circle fill="#E8E8E8" cx="69.071" cy="510.458" r="1.125"/>
	<circle fill="#E8E8E8" cx="324.821" cy="496.458" r="1.125"/>
</g>
<g id="Layer_2" display="none">
</g>
<linearGradient id="SVGID_2_" gradientUnits="userSpaceOnUse" x1="398.6907" y1="135.4567" x2="444.2562" y2="135.4567" gradientTransform="matrix(0.9575 0.2885 0.2885 -0.9575 -323.1945 174.4527)">
	<stop  offset="0" style="stop-color:#F58E56"/>
	<stop  offset="1" style="stop-color:#B94971"/>
</linearGradient>
<path fill="url(#SVGID_2_)" d="M131.314,145.686l-31.692,7.485l-5.791,19.216l13.746,14.623l31.692-7.485l5.791-19.216
	L131.314,145.686z M136.199,175l-27.61,6.665l-9.782-10.629l4.122-13.678l27.597-6.662l6.15,6.572l-5.082,1.224l-2.578-2.755
	l-22.487,5.428l-2.622,8.699l6.214,6.752l22.475-5.425l1.212-4.022l-12.173,2.303l0.53-3.187l-12.997,4.785l18.341-11.485
	l-0.517,4.245l8.158-1.54l-0.065-0.07l0.098,0.064l5.174-1.084L136.199,175z"/>
<g id="Layer_2_1_" display="none">
</g>
</svg>
