<?xml version="1.0" encoding="utf-8"?>
<!-- Generator: Adobe Illustrator 17.0.0, SVG Export Plug-In . SVG Version: 6.00 Build 0)  -->
<!DOCTYPE svg PUBLIC "-//W3C//DTD SVG 1.1//EN" "http://www.w3.org/Graphics/SVG/1.1/DTD/svg11.dtd">
<svg version="1.1" id="Layer_1" xmlns="http://www.w3.org/2000/svg" xmlns:xlink="http://www.w3.org/1999/xlink" x="0px" y="0px"
	 width="728.263px" height="741.891px" viewBox="0 0 728.263 741.891" enable-background="new 0 0 728.263 741.891"
	 xml:space="preserve">
<g id="Layer_6">
	<polygon fill="#2E2B54" points="450.453,0.035 -0.014,260.735 -0.014,581.506 277.781,741.891 728.249,481.192 728.249,160.421 	
		"/>
	
		<radialGradient id="SVGID_1_" cx="588.1846" cy="-375.2359" r="739.5497" gradientTransform="matrix(1 0 0 -1 -282.6 337.171)" gradientUnits="userSpaceOnUse">
		<stop  offset="0.2727" style="stop-color:#F58E56;stop-opacity:0.8"/>
		<stop  offset="1" style="stop-color:#000000;stop-opacity:0"/>
	</radialGradient>
	<polygon fill="url(#SVGID_1_)" points="450.467,0 0,260.699 0,581.47 277.796,741.856 728.263,481.156 728.263,160.385 	"/>
	
		<linearGradient id="SVGID_2_" gradientUnits="userSpaceOnUse" x1="873.627" y1="108.128" x2="874.715" y2="108.128" gradientTransform="matrix(1 0 0 -1 -282.6 337.171)">
		<stop  offset="0" style="stop-color:#F58E56"/>
		<stop  offset="1" style="stop-color:#B94971"/>
	</linearGradient>
	<polygon fill="url(#SVGID_2_)" points="592.115,228.713 591.027,228.082 592.115,230.004 	"/>
</g>
<polygon fill="#20202D" points="110.322,514.068 395.8,674.287 680.056,509.779 406.968,379.801 "/>
<path fill="#070707" d="M392.839,419.325l1.974,9.041c0,0,0.247,2.386-2.545,2.504c-5.983,0.712-20.103-2.377-20.103-2.377
	s-1.552-0.839-1.323-2.692c0.229-1.854,2.825-3.399,4.623-3.354c1.746,0.043,3.327,0.065,5.667-0.458s3.895-3.043,3.895-3.043
	L392.839,419.325z"/>
<path fill="#3F3F3F" d="M392.601,428.309c-5.983,0.712-20.103-2.377-20.103-2.377s-1.117-0.445-0.913-1.662
	c-0.299,0.324-0.683,1.166-0.744,1.656c-0.229,1.854,1.323,2.692,1.323,2.692s14.12,3.089,20.103,2.377
	c2.792-0.118,2.545-2.504,2.545-2.504l-0.216-0.989C394.227,427.922,393.617,428.266,392.601,428.309z"/>
<path fill="#070707" d="M364.607,423.461l-2.437,8.984c0,0-0.914,2.25-3.726,1.125c-6.25-2-18.688-11-18.688-11s-1.125-1.438,0-3
	s3.625-1.003,5.5-0.626s3.188,1.314,5.75,1.876s6.074-1.147,6.074-1.147L364.607,423.461z"/>
<path fill="#3F3F3F" d="M360.216,431.51c-6.25-2-18.688-11-18.688-11s-0.499-0.66-0.487-1.566c-0.452,0.159-0.848,0.417-1.145,0.829
	c-1.125,1.563,0,3,0,3s12.438,9,18.688,11c2.813,1.125,3.726-1.125,3.726-1.125l0.266-0.983
	C362.009,431.879,361.24,431.919,360.216,431.51z"/>
<polygon fill="#1D1B38" points="413.233,42.454 51.375,251.873 51.375,251.873 51.375,540.715 412.08,377.675 "/>
<linearGradient id="SVGID_3_" gradientUnits="userSpaceOnUse" x1="635.8871" y1="186.8326" x2="633.7796" y2="61.438" gradientTransform="matrix(1 0 0 -1 -282.6 337.171)">
	<stop  offset="0" style="stop-color:#34566A"/>
	<stop  offset="0.7864" style="stop-color:#262142"/>
</linearGradient>
<polygon fill="url(#SVGID_3_)" points="399.914,102.927 399.914,294.605 304.127,340.912 304.127,156.792 "/>
<g>
	<path fill="#0A1911" d="M304.127,329.692l54.717-26.753c-0.046-6.533-1.12-15.03-3.99-19.449
		c7.169-11.82-9.109-17.104-10.959-9.153c-0.475-2.744-3.45-2.666-6.16,1.803c-1.961-1.423-1.427-3.319-3.923-0.711
		c-1.07,1.186-1.783,3.319-1.783,5.216c-0.892-3.319-2.14-9.01-5.884-5.691c0.178-2.608-1.605-8.062-4.101-4.979
		c-2.675-5.216-4.993-2.371-7.489,1.423c-0.892-2.134-4.101-7.113-4.993-2.134c-1.277-3.678-3.378-5.48-5.434-4.992L304.127,329.692
		L304.127,329.692z"/>
</g>
<g>
	<path fill="#0E2319" d="M351.465,297.953c0,2.371,0.357,4.505,0.535,6.639c0.086,0.568,0.118,1.221,0.131,1.908l39.469-19.009
		v-55.619c-2.44-2.548-4.827,0.014-4.827,3.723c-3.21-1.186-3.031,1.66-2.675,4.742c-2.853,0.711-7.133-1.897-6.776,4.268
		c-1.605-0.474-3.031,0-3.031,2.371c-2.496-0.237-4.101-5.928-7.133-4.268c-2.14,0.948-2.14,5.453-1.427,7.825
		c-1.962,0-3.923-2.608-5.35,0.237c-0.713,2.134,0.357,5.928,1.248,7.35c-1.605,0.948-4.458,4.742-3.566,7.113
		c-5.706,0.948-7.311,5.691-3.031,11.381c-2.496,0.948-4.815,2.371-5.35,5.928c-0.535,3.794,1.783,4.742,2.318,7.587
		C352.357,292.026,351.465,295.582,351.465,297.953z"/>
</g>
<radialGradient id="SVGID_4_" cx="801.189" cy="24.3681" r="87.2291" gradientTransform="matrix(0.7521 0 0 -1 -198.924 337.171)" gradientUnits="userSpaceOnUse">
	<stop  offset="0.1379" style="stop-color:#F89E9C;stop-opacity:0.5"/>
	<stop  offset="1" style="stop-color:#000000;stop-opacity:0"/>
</radialGradient>
<polygon fill="url(#SVGID_4_)" points="401.216,301.714 458.625,329.645 460.148,283.746 419.317,264.427 419.317,259.85 
	439.242,251.955 401.642,196.294 "/>
<radialGradient id="SVGID_5_" cx="588.6235" cy="11.582" r="116.7286" gradientTransform="matrix(0.7521 0 0 -1 -198.924 337.171)" gradientUnits="userSpaceOnUse">
	<stop  offset="0.1379" style="stop-color:#5FE5AA;stop-opacity:0.7"/>
	<stop  offset="0.8079" style="stop-color:#000000;stop-opacity:0"/>
</radialGradient>
<ellipse fill="url(#SVGID_5_)" cx="243.78" cy="325.589" rx="87.789" ry="116.732"/>
<polygon fill="none" points="304.127,156.792 411.716,97.459 411.716,307.552 304.127,355.38 "/>
<path d="M391.725,135.174"/>
<polygon fill="#191412" points="391.725,106.722 391.725,287.046 304.127,329.692 304.127,339.647 399.914,294.605 399.914,102.927 
	"/>
<ellipse fill="#FFFFFF" cx="333.282" cy="176.94" rx="19.844" ry="20.908"/>
<g>
	<path fill="#222238" d="M324.117,183.788c3.202-0.293,6.404-0.587,9.643-0.17c1.258,0.122,3.57-0.089,4.509,0.775
		c2.282,2.643-0.632,5.049,2.95,5.196c2.325,0.025,3.803-2.487,5.901-3.392c3.687-1.288,7.392,1.224,11.011,2.081
		c5.791,1.371,12.765,1.445,17.121-4.182c-2.46-2.627-8.422-0.417-11.637-0.36c-1.601,0.147-3.914,0.358-5.576-0.678
		c-1.675-1.273-1.901-2.203-3.932-3.443c-3.478-1.583-7.748-1.192-11.532-1.796c-2.159-0.278-9.269-2.954-7.729,2.609
		c-1.908,1.125-15.428-4.529-14.845,3.261c1.626,0.326,3.38-0.31,5.159-0.472"/>
</g>
<g>
	<path fill="#222238" d="M391.944,194.476c-2.14,1.66-4.458-0.237-6.598,0c-2.496,0.474-3.923,1.66-6.598,1.186
		c-5.171-0.474-9.094,2.608-13.909,3.319c0.357,3.319,3.923,3.319,5.706,4.268c-0.713,3.557-5.35,2.134-7.489,1.66
		c-3.21-0.711-5.884-0.474-9.094,0c-0.713,0-5.528-0.237-5.171,1.423c0,0.948,4.993,1.66,5.706,1.897
		c3.21,1.186,23.895,5.691,22.646-3.319c0-0.948-1.427-2.371-1.783-3.082c1.783-0.948,5.171,0.711,7.311,1.186
		c3.923,0.711,5.35,0.711,8.916-1.423"/>
</g>
<g>
	<path fill="#222238" d="M331.315,141.937c3.745,0,8.916,0.237,12.661,0.711c1.783,0.237,3.923,0.948,5.706,0.237
		c2.318-1.186,2.675-3.082,5.35-3.319c3.923-0.474,8.203,1.423,11.947,1.66c3.21,0.237,10.164,2.371,12.661-1.186
		c-1.07-1.186-2.14-0.237-3.566-0.474c-1.605-0.237-2.853-1.186-4.28-1.66c-3.388-0.474-6.419,0.711-9.629-1.423
		c0.357-0.237,0.713-0.474,0.892-0.711c-1.605-1.186-4.815-0.711-6.776-0.474c-1.427,0.237-2.496,0.711-3.923,0.948
		c-0.535,0.237-1.248,0.948-1.427,1.186c-1.07,0-1.427-1.186-2.318-0.948c-1.248,0.237-2.14,1.423-3.388,1.66
		s-2.853-1.897-3.745-1.66c-2.675,0.711-8.203,4.979-10.521,5.453"/>
</g>
<path fill="#0B0B1C" d="M308.934,402.022c0,0-5.845,6.975-12.031,5.767c-6.186-1.208-12.747,6.11-12.747,6.11V149.581
	c0,0,4.875-7.979,11.634-6.156c6.759,1.823,13.143-6.955,13.143-6.955V402.022z"/>
<path fill="#0B0B1C" d="M414.566,342.802c0,0-5.845,6.975-12.031,5.767c-6.186-1.208-12.747,6.11-12.747,6.11V90.362
	c0,0,4.875-7.979,11.634-6.156c6.759,1.823,13.143-6.955,13.143-6.955V342.802z"/>
<g id="Layer_3">
</g>
<g id="Layer_4" display="none">
	<rect x="-819.748" y="-42.69" display="inline" fill="#111028" width="1621" height="777"/>
</g>
<g id="Layer_5">
</g>
<polygon fill="#2C2951" points="412.08,64.34 634.829,192.433 635.38,488.847 412.08,383.997 "/>
<polygon fill="#333356" points="592.93,167.748 584.346,391.751 613.512,403.923 615.623,181.388 "/>
<polygon fill="#333356" points="412.08,64.34 412.08,376.736 437.229,398.517 430.682,75.016 "/>
<polygon fill="#333356" points="455.539,89.282 452.51,406.914 464.493,412.384 473.159,99.395 "/>
<polygon fill="#333356" points="492.145,110.292 485.753,418.872 504.604,427.753 513.431,122.509 "/>
<polygon fill="#333356" points="534.783,135.174 527.955,435.942 552.84,448.411 568.547,154.143 "/>
<polygon opacity="0.5" enable-background="new    " points="506.424,201.807 528.892,191.214 508.474,181.06 510.466,173.561 
	488.545,163.633 485.067,170.424 477.89,166.632 483.209,156.045 469.189,149.999 471.028,145.731 458.319,140.708 442.864,165.902 
	"/>
<line fill="none" stroke="#403E59" stroke-miterlimit="10" x1="666.87" y1="503.992" x2="411.716" y2="631.81"/>
<line fill="none" stroke="#403E59" stroke-miterlimit="10" x1="621.612" y1="490.811" x2="343.511" y2="625.469"/>
<line fill="none" stroke="#403E59" stroke-miterlimit="10" x1="584.024" y1="473.32" x2="307.598" y2="603.359"/>
<line fill="none" stroke="#403E59" stroke-miterlimit="10" x1="539.106" y1="460.466" x2="261.823" y2="593.451"/>
<line fill="none" stroke="#403E59" stroke-miterlimit="10" x1="493.827" y1="383.935" x2="192.512" y2="526.728"/>
<g>
	<polygon fill="#373751" points="495.933,534.39 337.592,605.605 191.471,536.747 349.811,465.532 	"/>
	<polygon fill="#43435E" points="216.055,548.331 358.103,469.44 386.951,483.639 232.695,556.173 	"/>
	<polygon fill="#303047" points="243.907,561.457 392.037,485.641 395.8,487.204 250.659,564.638 	"/>
	<polygon fill="#43435E" points="272.005,574.697 402.37,490.3 417.992,497.661 281.044,578.957 	"/>
	<polygon fill="#303047" points="292.975,584.579 421.914,499.89 437.229,507.221 313.438,593.451 	"/>
	<polygon fill="#43435E" points="322.988,598.722 443.707,509.779 449.326,512.427 327.39,600.797 	"/>
</g>
<path opacity="0.5" enable-background="new    " d="M506.049,287.995l19.871-2.323l-2.14-19.485l-3.566-18.594l-2.371-11.761h-6.521
	l-4.633,9.102l-2.367,11.55l-5.589,4.482l-1.984,6.639l-19.841-8.634c0,0,7.889-24.719,7.053-24.719s-14.635-6.966-14.635-6.966
	l-26.461,25.504L506.049,287.995z"/>
<polygon opacity="0.8" enable-background="new    " points="313.438,370.623 314.098,355.38 411.716,331.589 411.058,377.006 
	318.233,418.944 317.59,404.147 313.678,402.177 "/>
<polygon opacity="0.8" enable-background="new    " points="464.955,339.393 477.447,380.512 477.447,409.928 411.716,377.887 
	411.716,327.101 "/>
<polygon opacity="0.7" enable-background="new    " points="408.153,376.828 318.233,418.944 317.727,446.297 295.569,456.573 
	332.36,505.066 340.969,500.518 393.045,476.885 430.756,483.639 471.285,478.4 515.535,462.838 477.447,444.297 477.447,409.928 
	"/>
<polygon opacity="0.6" enable-background="new    " points="353.468,595.883 375.538,663.561 395.8,674.287 510.94,607.652 
	497.486,590.804 "/>
<polygon opacity="0.7" enable-background="new    " points="601.435,504.652 668.785,504.652 668.785,430.147 632.665,372.251 
	617.891,398.184 589.501,383.957 583.097,388.357 566.344,380.548 565.929,373.45 546.071,364.304 546.071,343.576 531.855,325.986 
	517.075,354.676 518.128,415.319 "/>
<path fill="#0C0C0C" stroke="#070707" stroke-miterlimit="10" d="M427.522,456.273c-0.756,2.09,0.079,4.711,1.865,5.853
	c1.786,1.142,3.847,0.374,4.603-1.716s-0.079-4.711-1.865-5.853C430.338,453.415,428.278,454.183,427.522,456.273z"/>
<path fill="#0C0C0C" stroke="#070707" stroke-miterlimit="10" d="M389.414,450.81c0.541,2.218-0.556,4.679-2.451,5.497
	c-1.895,0.818-3.871-0.317-4.412-2.535c-0.541-2.218,0.556-4.679,2.451-5.497C386.897,447.457,388.873,448.592,389.414,450.81z"/>
<polygon fill="#1E1E1E" points="383.676,451.813 409.376,443.329 432.629,458.426 436.343,454.385 415.77,437.832 418.239,426.82 
	413.674,425.711 404.612,436.881 381.712,447.628 "/>
<path fill="#282828" d="M406.718,415.11c0,0,0.084,20.702,0,23.171c3.967,3.591,7.343,0,7.343,0v-19.038"/>
<ellipse fill="#111111" cx="528.681" cy="513.958" rx="17.973" ry="7.007"/>
<ellipse fill="#262147" cx="528.681" cy="513.087" rx="4.318" ry="1.684"/>
<polyline fill="none" points="662.201,499.986 411.716,377.887 132.497,500.518 "/>
<line fill="none" x1="411.716" y1="356.34" x2="411.716" y2="83.717"/>
<polyline fill="#302721" points="458.625,329.645 458.625,335.705 351.16,382.84 304.127,360.395 304.127,355.38 "/>
<polygon fill="#564132" points="458.625,329.645 351.036,377.509 304.127,355.38 411.716,307.516 "/>
<polygon fill="#444444" points="477.447,371.036 477.447,444.297 601.435,504.652 601.435,430.147 "/>
<polygon fill="#1E1E1E" points="512.801,358.6 477.447,371.036 601.435,430.147 637.928,417.63 "/>
<polygon fill="#1E1E1E" points="601.435,504.652 637.928,488.324 637.928,417.63 601.435,430.147 "/>
<polygon fill="#3F342B" points="438.232,251.955 419.317,259.614 485.991,291.385 506.049,283.645 "/>
<polygon fill="#3F342B" points="438.232,165.902 419.317,173.561 485.991,205.333 506.049,197.593 "/>
<polygon fill="#46465B" points="540.638,203.894 540.638,349.699 606.285,383.866 606.285,241.269 "/>
<polygon fill="#1E1E1E" points="481.295,378.912 481.295,439.986 597.293,496.972 596.756,433.895 "/>
<polygon fill="#303030" points="550.276,394.953 576.318,407.627 606.537,396.949 580.316,384.349 "/>
<ellipse fill="#0C0C0C" stroke="#070707" stroke-miterlimit="10" cx="577.225" cy="396.307" rx="14.733" ry="5.744"/>
<polygon fill="#111111" points="550.276,394.953 550.276,401.316 575.929,414.364 606.537,403.088 606.537,396.949 576.318,407.627 
	"/>
<ellipse fill="#686868" cx="577.225" cy="395.593" rx="3.54" ry="1.38"/>
<polygon fill="#303030" points="496.109,323.935 496.109,366.215 513.608,374.761 513.608,332.212 "/>
<path fill="#6D6D6D" stroke="#070707" stroke-miterlimit="10" d="M511.056,354.256c0.997,5.966-0.894,11.599-4.224,12.583
	s-6.837-3.055-7.834-9.021s0.894-11.599,4.224-12.583C506.551,344.252,510.059,348.29,511.056,354.256z"/>
<path fill="#0C0C0C" stroke="#070707" stroke-miterlimit="10" d="M507.75,335.986c0.478,2.861-0.429,5.563-2.026,6.035
	s-3.279-1.465-3.757-4.326s0.429-5.563,2.026-6.035S507.272,333.125,507.75,335.986z"/>
<polygon fill="#191919" points="513.608,374.761 531.855,368.294 531.855,325.986 513.608,332.212 "/>
<polygon fill="#3F3F3F" points="496.109,323.935 513.608,332.212 531.855,325.986 513.888,318.101 "/>
<polygon fill="#303030" points="504.858,373.45 530.901,386.124 561.12,375.445 534.899,362.846 "/>
<ellipse fill="#0C0C0C" stroke="#070707" stroke-miterlimit="10" cx="531.808" cy="374.804" rx="14.733" ry="5.744"/>
<polygon fill="#111111" points="504.858,373.45 504.858,379.813 530.512,392.861 561.12,381.585 561.12,375.445 530.901,386.124 "/>
<ellipse fill="#562F2F" cx="531.808" cy="374.09" rx="3.54" ry="1.38"/>
<path fill="#5E5E5E" stroke="#070707" stroke-width="0.25" stroke-miterlimit="10" d="M508.956,355.368
	c0.375,2.243-0.336,4.362-1.588,4.732s-2.571-1.149-2.946-3.392s0.336-4.362,1.588-4.732S508.581,353.124,508.956,355.368z"/>
<path fill="#FFFFFF" stroke="#070707" stroke-miterlimit="10" d="M404.68,341.105c-0.03,0.832-1.414,1.42-3.092,1.314
	s-3.013-0.867-2.984-1.699s1.414-1.42,3.092-1.314C403.374,339.512,404.71,340.273,404.68,341.105z"/>
<ellipse fill="#111111" cx="543.578" cy="508.748" rx="17.973" ry="7.007"/>
<ellipse fill="#686868" cx="543.578" cy="507.876" rx="4.318" ry="1.684"/>
<polygon fill="#3F2222" points="560.755,503.518 530.424,514.187 560.059,529.003 591.37,518.264 "/>
<ellipse fill="#111111" cx="521.06" cy="484.727" rx="17.973" ry="7.007"/>
<ellipse fill="#562F2F" cx="521.06" cy="483.855" rx="4.318" ry="1.684"/>
<polygon fill="#515151" points="529.9,524.387 499.569,535.057 529.204,549.873 560.514,539.133 "/>
<polygon fill="#161616" points="334.74,342.787 334.74,351.641 340.378,346.254 340.445,338.068 "/>
<polygon fill="#161616" points="333.035,353.212 342.151,344.855 348.903,346.03 340.445,355.025 "/>
<path fill="#303030" d="M304.127,359.819v66.725l46.527,23.922V382.84L304.127,359.819z M346.476,442.156l-38.171-19.321v-54.706
	l38.171,18.543V442.156z"/>
<polygon fill="#161616" points="383.676,451.813 385.373,454.72 409.027,447.652 430.992,460.936 432.629,458.426 409.376,443.329 
	"/>
<polygon fill="#1E1E1E" points="350.654,450.466 356.243,446.388 356.243,380.512 350.654,382.84 "/>
<polygon fill="#1E1E1E" points="313.438,370.623 313.438,419.539 346.476,436.373 346.476,442.156 308.305,422.835 308.305,368.129 
	"/>
<polygon fill="#303030" points="317.727,404.147 317.727,446.297 200.809,500.518 200.809,457.195 "/>
<polygon fill="#444444" points="284.895,389.727 318.233,404.147 201.315,457.195 166.902,442.698 "/>
<polygon fill="#1E1E1E" points="200.809,500.518 166.396,485.12 166.396,442.698 200.809,457.195 "/>
<polygon fill="#444444" points="314.098,411.574 314.098,442.232 205.22,493.275 205.22,460.73 "/>
<polygon fill="#3C4554" points="274.763,401.095 287.802,406.735 265.149,417.109 251.69,411.439 "/>
<polygon fill="#2D221F" points="274.783,399.213 274.783,404.925 261.67,411.073 261.67,405.133 "/>
<polygon fill="#2B333F" points="251.69,411.439 251.69,413.226 251.69,417.109 265.43,422.569 287.802,412.132 287.802,411.073 
	287.802,406.735 265.149,417.109 "/>
<g>
	<g>
		<path fill="#070707" d="M305.96,500.111c7.275-8.571,19.657-10.554,24.985-21.112c3.042-6.028,3.512-18.574-6.04-18.481
			c-6.297,0.061-12.861,3.942-16.75,8.78c-1.166,1.451-1.879,3.924-0.057,5.23c3.336,2.391,6.649,0.945,9.516-1.443
			c3.133-2.61,11.527-14.978,3.01-16.263c-3.91-0.59-7.872,0.468-11.415-2.074c-1.826-1.31-3.043-3.241-3.891-5.278
			c-1.666-4.004-1.272-8.724-0.862-12.931c0.803-8.239,3.06-16.555,1.498-24.84c-0.576-3.056-2.115-6.193-4.427-8.307
			c-4.516-4.13-7.284-2.911-12.826-2.089c-3.288,0.488-5.622-0.795-8.265,1.74c-0.656,0.629,0.745,0.895,1.217,0.442
			c1.238-1.188,10.395-1.891,12.476-2.234c4.432-0.732,8.23,4.775,9.609,8.17c2.359,5.805,1.19,12.78,0.367,18.782
			c-1.142,8.325-4.686,24.073,5.727,28.528c3.764,1.61,13.023-0.358,13.025,4.725c0.002,4.225-4.405,9.446-7.375,11.921
			c-5.048,2.089-7.324,1.297-6.827-2.376c0.322-0.723,0.748-1.376,1.277-1.958c1.171-1.457,2.79-2.583,4.305-3.656
			c2.383-1.688,4.898-2.853,7.745-3.541c6.98-1.688,10.017,4.5,9.508,10.431c-0.471,5.49-3.665,10.222-7.704,13.737
			c-6.004,5.225-13.774,7.445-19.043,13.654C304.146,500.373,305.526,500.622,305.96,500.111L305.96,500.111z"/>
	</g>
</g>
<polygon fill="none" points="260.664,435.698 260.664,467.283 262.982,466.196 262.982,434.652 "/>
<g opacity="0.3">
	
		<rect x="288.053" y="410.793" transform="matrix(-0.4121 -0.9111 0.9111 -0.4121 7.6161 882.6202)" fill="#070707" width="1" height="56.12"/>
</g>
<path fill="none" stroke="#070707" stroke-miterlimit="10" d="M236.986,446.388"/>
<path fill="none" stroke="#070707" stroke-miterlimit="10" d="M236.986,470.935"/>
<path fill="none" stroke="#070707" stroke-miterlimit="10" d="M204.987,485.641"/>
<path fill="none" stroke="#070707" stroke-miterlimit="10" d="M209.342,483.639"/>
<path fill="none" stroke="#070707" stroke-miterlimit="10" d="M209.342,458.869"/>
<path fill="none" stroke="#070707" stroke-miterlimit="10" d="M211.159,482.966"/>
<path fill="none" stroke="#070707" stroke-miterlimit="10" d="M211.159,458.195"/>
<path fill="none" stroke="#070707" stroke-miterlimit="10" d="M213.438,481.825"/>
<path fill="none" stroke="#070707" stroke-miterlimit="10" d="M213.438,457.054"/>
<path fill="none" stroke="#070707" stroke-miterlimit="10" d="M211.159,482.966"/>
<path fill="none" stroke="#070707" stroke-miterlimit="10" d="M211.159,458.195"/>
<path fill="none" stroke="#070707" stroke-miterlimit="10" d="M216.055,480.609"/>
<path fill="none" stroke="#070707" stroke-miterlimit="10" d="M216.055,455.838"/>
<path fill="none" stroke="#070707" stroke-miterlimit="10" d="M217.152,479.915"/>
<path fill="none" stroke="#070707" stroke-miterlimit="10" d="M217.152,455.144"/>
<path fill="none" stroke="#070707" stroke-miterlimit="10" d="M218.969,479.241"/>
<path fill="none" stroke="#070707" stroke-miterlimit="10" d="M218.969,454.471"/>
<path fill="none" stroke="#070707" stroke-miterlimit="10" d="M223.864,476.885"/>
<path fill="none" stroke="#070707" stroke-miterlimit="10" d="M223.864,452.114"/>
<path fill="none" stroke="#070707" stroke-miterlimit="10" d="M224.917,476.885"/>
<path fill="none" stroke="#070707" stroke-miterlimit="10" d="M224.917,452.114"/>
<path fill="none" stroke="#070707" stroke-miterlimit="10" d="M226.734,475.538"/>
<path fill="none" stroke="#070707" stroke-miterlimit="10" d="M226.734,450.767"/>
<path fill="none" stroke="#070707" stroke-miterlimit="10" d="M231.629,473.181"/>
<path fill="none" stroke="#070707" stroke-miterlimit="10" d="M231.629,448.411"/>
<path fill="none" stroke="#070707" stroke-miterlimit="10" d="M220.987,478.4"/>
<path fill="none" stroke="#070707" stroke-miterlimit="10" d="M220.987,453.629"/>
<path fill="none" stroke="#070707" stroke-miterlimit="10" d="M228.583,475.223"/>
<path fill="none" stroke="#070707" stroke-miterlimit="10" d="M228.583,450.453"/>
<polyline fill="none" stroke="#070707" stroke-miterlimit="10" points="287.802,410.575 265.398,421.054 251.69,415.543 "/>
<path fill="#262626" d="M416.255,377.509c0,0-13.673-1.74-19.075,0s-9.453,6.081-9.453,6.081s-7.76,5.856-7.34,15.01
	c0.42,9.154,3.745,21.158,3.745,21.158l9.5-0.438c0,0-2.867-14.259-1.348-23.462s11.268-6.132,11.268-6.132H415.7L416.255,377.509z"
	/>
<polygon points="415.849,383.591 446.17,407.245 416.762,420.763 379.441,399.001 "/>
<path fill="#353535" d="M437.229,399.843c0,0-17.851,11.731-32.157,6.892c-0.655-0.221-16.958-6.416-21.878-5.953
	s-18.587,22.679-18.587,22.679l-8.975-4.517c0,0,18.885-34.309,25.744-37.114c6.858-2.806,39.81,1.325,39.81,1.325l13.638-0.315
	L437.229,399.843z"/>
<path fill="#262559" d="M426.383,392.861c-13.673-1.94-18.276-11.073-18.276-11.073s7.641-3.39,8.316-12.728
	c0.675-9.338,5.09-23.957,6.997-29.413c1.907-5.457,8.765-7.434,8.765-7.434l16.31,9.88
	C448.497,342.092,440.056,394.802,426.383,392.861z"/>
<path fill="#776B5D" d="M407.731,339.393l18.822,0.253l-6.318,9.701l-14.149-5.539c0,0-5.064,0.313-4.938-0.922
	c0.127-1.235,2.903-0.893,3.692-1.066c2.013-2.081-5.918-1.256-4.821-3.101C403.595,336.322,407.731,339.393,407.731,339.393z"/>
<polygon fill="#776B5D" points="436.881,333.001 437.781,325.049 431.889,323.151 433.444,313.753 430.866,312.066 436.772,302.247 
	441.873,302.91 448.42,304.898 456.522,309.596 458.24,319.717 454.967,328.191 444.205,333.679 "/>
<polygon points="433.035,298.662 436.772,302.247 443.505,303.871 443.155,310.5 440.4,315.367 436.063,316.012 433.262,314.85 
	432.872,317.208 436.717,318.294 436.434,319.065 432.871,319.065 431.261,322.067 431.261,324.687 433.362,325.489 438.6,324.416 
	442.528,319.065 444.819,313.03 446.865,312.759 447.93,314.205 447.274,318.294 446.783,322.338 448.502,324.958 450.22,326.494 
	456.194,326.946 458.649,323.964 459.877,308.734 458.24,302.91 455.212,298.662 451.775,295.952 444.205,294.054 442.282,295.861 
	438.19,296.403 434.835,295.952 435.654,297.85 "/>
<polyline fill="#020202" points="434.797,306.033 436.826,309.596 438.031,308.297 435.739,307.392 434.797,306.033 "/>
<polygon fill="#51453B" points="419.317,173.561 419.317,178.138 486.097,210.132 506.049,201.706 506.049,197.593 485.991,205.333 
	"/>
<polygon fill="#51453B" points="419.317,259.85 419.317,264.427 486.097,296.421 506.049,287.995 506.049,283.882 485.991,291.622 
	"/>
<polygon opacity="0.8" enable-background="new    " points="200.809,500.518 153.754,491.182 153.754,464.499 166.396,442.698 
	166.396,485.12 "/>
<polygon opacity="0.8" enable-background="new    " points="187.224,399.213 174.36,413.153 174.36,430.874 172.134,440.349 
	187.224,446.388 204.987,446.72 "/>
<g>
	<polygon fill="#515151" points="241.502,383.491 241.502,429.122 204.987,446.72 204.987,399.82 	"/>
	<polygon points="237.611,390.736 237.611,426.54 208.96,440.349 208.96,403.549 	"/>
	<path fill="#57C9B3" d="M234.75,393.67c2.102,15.038,0,30.33,0,30.33s-9.359,8.429-24.271,11.698c0-1.738,0-31.174,0-31.174
		S232.48,394.68,234.75,393.67z"/>
	<polygon fill="#303030" points="204.987,446.72 197.858,443.05 197.858,395.242 232.041,379.586 241.502,383.491 204.987,399.82 	
		"/>
	<polygon fill="#1E1E1E" points="197.858,438.505 187.224,425.543 187.224,394.4 197.858,397.43 	"/>
	<polygon fill="#444444" points="187.224,394.4 208.96,384.299 224.319,383.123 197.858,395.242 197.858,397.43 	"/>
</g>
<polygon opacity="0.8" enable-background="new    " points="304.127,355.38 278.849,391.569 295.08,414.652 317.59,404.147 
	303.817,397.43 "/>
<polygon fill="#444444" points="596.92,460.874 574.656,450.266 574.64,423.449 572.247,422.309 572.247,449.118 550.908,438.95 
	550.892,412.105 548.499,410.965 548.499,437.802 527.567,427.829 527.552,401.305 525.159,400.165 525.159,426.681 
	504.247,416.717 504.231,390.213 501.838,389.073 501.838,415.569 482.906,406.548 482.906,409.762 501.838,418.891 
	501.838,448.027 504.266,449.037 504.249,420.054 525.159,430.137 525.159,459.119 527.587,460.129 527.57,431.299 548.499,441.391 
	548.499,469.919 550.927,470.929 550.91,442.554 572.247,452.842 572.247,481.263 574.675,482.273 574.658,454.005 596.92,464.739 
	"/>
<path opacity="0.8" enable-background="new    " d="M295.578,507.312c-2.628,0.424-9.22,7.509-8.964,8.853s4.247,1.095,5.688,0.838
	c1.441-0.257,3.967-2.457,6.322-2.761c2.355-0.304,7.501,0.294,9.103,0.813c1.847,0.599,3.375,2.974,4.617,3.899
	s5.067,1.728,6.187,0.591s-1.363-9.155-3.328-10.341C313.238,508.018,298.206,506.888,295.578,507.312z"/>
<path fill="#6D3A55" d="M297.789,500.196c-2.018,0.707-6.367,10.275-6.007,12c0.36,1.725,3.471,1.162,4.574,0.742
	s2.831-3.42,4.648-3.955c1.817-0.535,5.937-0.071,7.259,0.505c1.524,0.664,3.007,3.647,4.093,4.77
	c1.087,1.123,4.191,1.932,4.938,0.393c0.747-1.539-2.154-11.77-3.84-13.187S299.807,499.489,297.789,500.196z"/>
<polygon fill="#303030" stroke="#070707" stroke-miterlimit="10" points="301.406,503.26 300.107,503.26 300.107,501.874 
	298.737,501.874 298.737,503.26 297.439,503.26 297.439,504.72 298.737,504.72 298.737,506.106 300.107,506.106 300.107,504.72 
	301.406,504.72 "/>
<ellipse fill="#303030" stroke="#070707" stroke-miterlimit="10" cx="308.311" cy="504.793" rx="0.745" ry="0.803"/>
<ellipse fill="#303030" stroke="#070707" stroke-miterlimit="10" cx="311.657" cy="505.066" rx="0.745" ry="0.803"/>
<ellipse fill="#303030" stroke="#070707" stroke-miterlimit="10" cx="310.166" cy="502.727" rx="0.745" ry="0.803"/>
<ellipse fill="#303030" stroke="#070707" stroke-miterlimit="10" cx="309.802" cy="506.893" rx="0.745" ry="0.803"/>
<polygon fill="#757575" points="251.69,420.661 256.84,428.467 248.887,431.772 243.907,423.461 "/>
<polygon fill="#38475E" points="246.439,425.599 249.056,430.2 254.879,427.9 252.094,423.461 "/>
<line fill="none" stroke="#070707" stroke-miterlimit="10" x1="245.68" y1="424.112" x2="251.377" y2="422.064"/>
<polygon opacity="0.6" enable-background="new    " points="287.802,412.132 283.491,419.539 264.344,428.561 255.639,424.926 
	251.69,417.109 265.43,422.569 "/>
<ellipse opacity="0.6" enable-background="new    " cx="234.262" cy="518.98" rx="18.208" ry="10.023"/>
<g>
	<path d="M240.321,519.918c-7.945,0.002-14.391-6.771-14.39-15.121c0.001-8.356,6.44-15.128,14.385-15.129
		c7.947-0.001,14.387,6.768,14.388,15.123C254.705,513.147,248.269,519.916,240.321,519.918z M242.288,513.978
		c1.579-0.057,3.066-0.219,4.541-0.505c0.07-0.014,0.15-0.091,0.186-0.162c0.994-1.94,1.985-3.882,2.97-5.827
		c0.033-0.065,0.036-0.177,0.005-0.243c-0.684-1.485-1.509-2.883-2.394-4.243c-0.04-0.062-0.155-0.111-0.229-0.104
		c-0.961,0.097-1.921,0.205-2.881,0.31c-1.065,0.116-2.13,0.228-3.193,0.356c-0.097,0.012-0.222,0.107-0.269,0.199
		c-0.73,1.435-1.446,2.878-2.176,4.313c-0.099,0.194-0.096,0.336,0.008,0.525c0.899,1.619,1.799,3.238,2.674,4.871
		C241.729,513.84,241.92,514.113,242.288,513.978z M243.696,492.845c0.004-0.032,0.008-0.065,0.012-0.097
		c-1.299,0.13-2.597,0.261-3.896,0.388c-0.148,0.015-0.227,0.08-0.275,0.235c-0.537,1.716-1.083,3.43-1.616,5.147
		c-0.027,0.086,0.007,0.232,0.065,0.302c0.327,0.391,0.676,0.762,1.006,1.15c0.703,0.826,1.397,1.66,2.104,2.482
		c0.066,0.077,0.206,0.131,0.306,0.123c0.685-0.06,1.368-0.138,2.052-0.213c1.272-0.14,2.544-0.279,3.815-0.431
		c0.086-0.01,0.206-0.1,0.236-0.182c0.438-1.201,0.861-2.409,1.297-3.611c0.055-0.152,0.035-0.247-0.065-0.365
		c-1.223-1.443-2.457-2.875-3.652-4.344C244.703,492.96,244.325,492.639,243.696,492.845z M239.113,517.133
		c0.042-0.035,0.12-0.077,0.166-0.142c0.56-0.793,1.12-1.587,1.667-2.39c0.046-0.068,0.037-0.227-0.007-0.307
		c-0.898-1.65-1.814-3.289-2.702-4.945c-0.152-0.284-0.343-0.378-0.62-0.434c-1.517-0.304-3.033-0.615-4.544-0.947
		c-0.217-0.048-0.306,0.001-0.414,0.182c-0.737,1.23-1.481,2.456-2.233,3.675c-0.107,0.173-0.104,0.297-0.013,0.47
		c0.626,1.186,1.321,2.322,2.124,3.386c0.156,0.206,0.332,0.291,0.561,0.333c1.445,0.266,2.889,0.537,4.333,0.806
		C237.977,516.922,238.524,517.023,239.113,517.133z M228.949,498.663c0.051,0.051,0.109,0.133,0.186,0.182
		c0.956,0.599,1.917,1.191,2.872,1.793c0.125,0.079,0.207,0.069,0.324-0.01c1.439-0.968,2.952-1.788,4.54-2.451
		c0.174-0.073,0.254-0.184,0.309-0.361c0.484-1.552,0.972-3.103,1.468-4.651c0.058-0.182,0.031-0.269-0.122-0.377
		c-0.739-0.523-1.518-0.959-2.349-1.299c-0.177-0.072-0.323-0.066-0.49,0c-1.572,0.619-3.002,1.491-4.259,2.664
		c-0.566,0.528-1.15,1.045-1.449,1.811c-0.323,0.828-0.648,1.655-0.971,2.482C228.991,498.496,228.981,498.55,228.949,498.663z
		 M228.436,499.526c-0.67,1.015-1.337,1.974-1.463,3.246c-0.182,1.838-0.14,3.652,0.276,5.45c0.304,1.315,0.388,1.462,1.339,2.238
		c0.346,0.283,0.714,0.536,1.085,0.811c0.076-0.119,0.125-0.193,0.172-0.269c0.702-1.156,1.395-2.319,2.111-3.465
		c0.184-0.294,0.282-0.561,0.17-0.912c-0.074-0.231-0.092-0.482-0.127-0.725c-0.201-1.386-0.32-2.778-0.318-4.182
		c0-0.083-0.051-0.203-0.114-0.243C230.538,500.827,229.504,500.189,228.436,499.526z M253.746,505.918
		c-0.844,0.682-1.698,1.166-2.574,1.615c-0.129,0.066-0.259,0.188-0.327,0.32c-0.953,1.848-1.885,3.708-2.847,5.551
		c-0.193,0.371-0.284,0.7-0.108,1.096c0.069,0.154,0.084,0.335,0.117,0.505c0.078,0.405,0.152,0.811,0.236,1.26
		C251.507,513.647,253.33,510.241,253.746,505.918z M245.442,491.683c-0.111,0.428-0.036,0.724,0.234,1.035
		c1.169,1.346,2.313,2.716,3.453,4.09c0.291,0.351,0.594,0.649,1.034,0.781c0.24,0.072,0.467,0.2,0.689,0.324
		c0.564,0.317,1.122,0.646,1.727,0.995C251.052,495.537,248.687,493.152,245.442,491.683z M233.735,517.105
		c1.226,1.062,5.675,2.188,6.974,1.796c-0.546-0.261-1.105-0.529-1.665-0.794c-0.062-0.029-0.134-0.039-0.202-0.052
		c-1.051-0.196-2.103-0.391-3.154-0.587C235.05,517.35,234.412,517.231,233.735,517.105z"/>
	<path fill="#686868" d="M242.288,513.978c-0.368,0.136-0.559-0.138-0.758-0.509c-0.876-1.633-1.775-3.252-2.674-4.871
		c-0.105-0.189-0.107-0.331-0.008-0.525c0.73-1.435,1.446-2.878,2.176-4.313c0.047-0.093,0.172-0.188,0.269-0.199
		c1.063-0.128,2.129-0.24,3.193-0.356c0.96-0.105,1.92-0.213,2.881-0.31c0.074-0.007,0.188,0.041,0.229,0.104
		c0.884,1.36,1.709,2.759,2.394,4.243c0.03,0.066,0.028,0.178-0.005,0.243c-0.985,1.945-1.975,3.887-2.97,5.827
		c-0.036,0.07-0.116,0.148-0.186,0.162C245.355,513.759,243.867,513.921,242.288,513.978z"/>
	<path fill="#7C7C7C" d="M243.696,492.845c0.629-0.206,1.007,0.115,1.389,0.584c1.195,1.468,2.429,2.901,3.652,4.344
		c0.1,0.118,0.12,0.212,0.065,0.365c-0.436,1.202-0.859,2.41-1.297,3.611c-0.03,0.082-0.15,0.172-0.236,0.182
		c-1.271,0.151-2.543,0.291-3.815,0.431c-0.684,0.075-1.367,0.153-2.052,0.213c-0.1,0.009-0.239-0.046-0.306-0.123
		c-0.707-0.822-1.401-1.656-2.104-2.482c-0.331-0.388-0.68-0.759-1.006-1.15c-0.058-0.07-0.092-0.216-0.065-0.302
		c0.533-1.718,1.079-3.431,1.616-5.147c0.048-0.155,0.127-0.22,0.275-0.235c1.299-0.127,2.597-0.258,3.896-0.388
		C243.704,492.78,243.7,492.812,243.696,492.845z"/>
	<path fill="#545454" d="M239.113,517.133c-0.589-0.109-1.137-0.211-1.684-0.313c-1.444-0.269-2.888-0.541-4.333-0.806
		c-0.229-0.042-0.405-0.127-0.561-0.333c-0.803-1.064-1.498-2.2-2.124-3.386c-0.091-0.173-0.093-0.297,0.013-0.47
		c0.753-1.22,1.496-2.445,2.233-3.675c0.108-0.181,0.197-0.23,0.414-0.182c1.512,0.332,3.027,0.643,4.544,0.947
		c0.278,0.056,0.468,0.15,0.62,0.434c0.888,1.656,1.804,3.295,2.702,4.945c0.044,0.08,0.053,0.239,0.007,0.307
		c-0.547,0.803-1.106,1.597-1.667,2.39C239.233,517.056,239.156,517.098,239.113,517.133z"/>
	<path fill="#686868" d="M228.949,498.663c0.032-0.113,0.042-0.167,0.062-0.218c0.323-0.828,0.648-1.654,0.971-2.482
		c0.299-0.767,0.883-1.283,1.449-1.811c1.257-1.173,2.687-2.044,4.259-2.664c0.167-0.066,0.313-0.072,0.49,0
		c0.831,0.34,1.61,0.776,2.349,1.299c0.153,0.108,0.18,0.195,0.122,0.377c-0.497,1.548-0.984,3.099-1.468,4.651
		c-0.055,0.177-0.135,0.288-0.309,0.361c-1.588,0.663-3.101,1.483-4.54,2.451c-0.118,0.079-0.2,0.089-0.324,0.01
		c-0.955-0.602-1.916-1.194-2.872-1.793C229.058,498.796,229,498.713,228.949,498.663z"/>
	<path fill="#545454" d="M228.436,499.526c1.068,0.663,2.102,1.301,3.13,1.95c0.063,0.04,0.114,0.16,0.114,0.243
		c-0.002,1.403,0.117,2.796,0.318,4.182c0.035,0.243,0.054,0.495,0.127,0.725c0.112,0.35,0.013,0.618-0.17,0.912
		c-0.716,1.147-1.409,2.309-2.111,3.465c-0.046,0.076-0.095,0.15-0.172,0.269c-0.371-0.276-0.739-0.529-1.085-0.811
		c-0.951-0.776-1.034-0.923-1.339-2.238c-0.416-1.798-0.458-3.612-0.276-5.45C227.098,501.5,227.766,500.541,228.436,499.526z"/>
	<path fill="#686868" d="M253.746,505.918c-0.416,4.323-2.239,7.73-5.503,10.347c-0.084-0.45-0.158-0.855-0.236-1.26
		c-0.033-0.17-0.048-0.351-0.117-0.505c-0.176-0.396-0.086-0.725,0.108-1.096c0.962-1.843,1.894-3.703,2.847-5.551
		c0.068-0.131,0.198-0.254,0.327-0.32C252.048,507.083,252.902,506.599,253.746,505.918z"/>
	<path fill="#C6C6C6" d="M245.442,491.683c3.245,1.469,5.61,3.855,7.137,7.225c-0.605-0.35-1.163-0.679-1.727-0.995
		c-0.222-0.124-0.449-0.252-0.689-0.324c-0.44-0.132-0.743-0.43-1.034-0.781c-1.14-1.373-2.284-2.744-3.453-4.09
		C245.406,492.407,245.331,492.111,245.442,491.683z"/>
	<path fill="#3A3A3A" d="M233.735,517.105c0.677,0.126,1.315,0.245,1.953,0.364c1.051,0.195,2.103,0.391,3.154,0.587
		c0.068,0.013,0.14,0.022,0.202,0.052c0.56,0.264,1.118,0.532,1.665,0.794C239.41,519.293,234.96,518.167,233.735,517.105z"/>
</g>
<g>
	<path opacity="0.7" enable-background="new    " d="M239.819,285.302l-10.664,10.325l3.428,39.313l7.237,2.384v15.618l10.783,1.147
		c0,0,0.058,23.649,0,24.255c-0.058,0.606,5.289-6.726,5.289-6.726l7.353-40.591l-12.642-28.733L239.819,285.302z"/>
	
		<linearGradient id="SVGID_6_" gradientUnits="userSpaceOnUse" x1="607.8982" y1="61.986" x2="607.8982" y2="-41.172" gradientTransform="matrix(0.7521 0 0 -1 -198.924 337.171)">
		<stop  offset="0.034" style="stop-color:#F58E56"/>
		<stop  offset="0.7621" style="stop-color:#F5DB56"/>
	</linearGradient>
	<polygon fill="url(#SVGID_6_)" points="270.601,279.159 262.695,275.185 239.819,285.302 240.855,328.067 246.172,332.354 
		248.764,328.734 248.764,342.41 253.869,347.777 256.559,343.252 255.891,371.617 258.849,378.343 266.585,322.068 
		276.734,306.071 267.416,300.005 	"/>
	
		<linearGradient id="SVGID_7_" gradientUnits="userSpaceOnUse" x1="611.8804" y1="58.012" x2="611.8804" y2="-37.617" gradientTransform="matrix(0.7521 0 0 -1 -198.924 337.171)">
		<stop  offset="0" style="stop-color:#F5DB56"/>
		<stop  offset="1" style="stop-color:#F58E56"/>
	</linearGradient>
	<polygon fill="url(#SVGID_7_)" points="245.809,289.176 246.172,332.354 255.082,329.064 253.869,347.777 260.519,345.628 
		258.849,374.788 276.734,306.071 267.44,309.393 270.601,279.159 	"/>
</g>
<g>
	<polygon fill="#5B2D47" points="515.657,418.48 514.264,417.531 514.264,394.529 515.657,395.477 	"/>
	<polygon fill="#5B5738" points="518.399,419.628 517.006,418.68 517.006,395.678 518.399,396.626 	"/>
	<polygon fill="#777777" points="519.859,420.336 518.467,419.387 518.467,396.385 519.859,397.333 	"/>
	<polygon fill="#606060" points="523.949,422.468 522.557,421.52 522.557,398.517 523.949,399.466 	"/>
	<polygon fill="#606060" points="512.638,416.989 511.246,416.04 511.246,393.038 512.638,393.986 	"/>
	<polygon fill="#3E3F2E" points="525.342,422.898 523.949,421.95 523.949,398.947 525.342,399.896 	"/>
	<polygon fill="#3C3249" points="510.194,416.242 508.802,415.294 508.802,392.291 510.194,393.24 	"/>
</g>
<polygon opacity="0.8" points="504.898,390.359 508.67,398.241 525.442,406.009 525.443,400.143 "/>
<radialGradient id="SVGID_8_" cx="719.5385" cy="-12.2628" r="76.9831" gradientTransform="matrix(0.7521 0 0 -1 -198.924 337.171)" gradientUnits="userSpaceOnUse">
	<stop  offset="0.1379" style="stop-color:#D49148"/>
	<stop  offset="1" style="stop-color:#000000;stop-opacity:0"/>
</radialGradient>
<polygon fill="url(#SVGID_8_)" points="330.81,366.822 356.332,342.381 433.387,340.862 351.292,376.777 "/>
<polygon fill="#898989" points="398.604,346.885 373.232,358.173 362.17,350.934 387.542,339.647 "/>
<polygon fill="#333333" points="343.895,366.641 355.996,370.176 360.749,365.462 349.233,362.174 "/>
<path fill="#683329" d="M351.203,345.3l1.571,13.551c0,0,3.405,1.515,6.515,0c0.092-0.926,1.345-13.551,1.345-13.551H351.203z"/>
<ellipse fill="#FFFFFF" cx="355.918" cy="345.132" rx="4.716" ry="1.178"/>
<path fill="#776B5D" d="M424.105,339.007c-5.35,4.912-15.614,16.59-19.497,17.643c-3.509,0.951-21.227-3.678-24.609-4.58
	c-0.361-0.096-0.959-0.273-2.147-0.273c-0.633,0,1.393,1.808,1.393,1.808s-1.859-1.534-3.967-1.808
	c-1.265-0.164-3.307,0.195-3.165,1.415c0.17,1.459,1.877,1.175,3.024,1.997c1.411,1.012,2.294,2.963,2.294,2.963
	s0.197,0.122,0.558,0.342c3.49,2.125,22.344,13.429,27.506,12.741c5.697-0.76,21.776-15.657,24.561-17.677
	C435.626,349.875,429.455,334.095,424.105,339.007z"/>
<path d="M422.713,408.662l35.653-14.194l23.515-80.462c0,0-2.779-6.75-12.626-4.609c-11.573,2.516-24.094,20.248-24.094,20.248
	s-10.538-0.112-12.952,4.77c-2.415,4.882-2.809,40.51-4.699,45.029c-1.89,4.519-10.201-0.714-11.642,4.147
	S422.713,408.662,422.713,408.662z"/>
<path fill="#C1AB80" d="M437.025,302.873l-5.476,9.069l2.362,1.482l-0.169,1.625l1.576,0.654c0,0,0.901-2.398,0.687-2.575
	s-3.06-1.126-3.06-1.126s1.181-2.38,1.342-2.405s1.825-0.324,1.664-0.619c-0.161-0.295-0.698-1.836-0.698-1.836l1.772-1.108
	l1.825-3.16L437.025,302.873L437.025,302.873z"/>
<polygon fill="#C1AB80" points="437.68,330.156 438.031,324.746 439.656,324.213 440.192,325.458 439.763,328.896 439.701,329.867 
	"/>
<path fill="#C1AB80" d="M428.302,339.647c0,0-11.127,14.371-18.527,18.526s-26.851-4.312-26.851-4.312s18.381,4.315,23.374,2.479
	c4.993-1.837,11.234-11.352,18.902-17.62C427.696,338.143,428.302,339.647,428.302,339.647z"/>
<polygon fill="#212121" points="362.17,419.926 381.712,390.359 412.08,387.635 416.255,389.727 421.007,406.009 382.924,400.099 
	365.122,422.55 "/>
<g>
	<polygon fill="#3C3249" points="538.806,429.365 537.413,428.417 537.413,405.414 538.806,406.363 	"/>
	<polygon fill="#5B5738" points="541.548,430.514 540.155,429.565 540.155,406.563 541.548,407.511 	"/>
	<polygon fill="#3C3249" points="543.008,431.221 541.616,430.272 541.616,407.27 543.008,408.219 	"/>
	<polygon fill="#606060" points="547.098,433.353 545.706,432.405 545.706,409.402 547.098,410.351 	"/>
	<polygon fill="#606060" points="535.788,427.874 534.395,426.925 534.395,403.923 535.788,404.871 	"/>
	<polygon fill="#3C3249" points="548.491,433.783 547.098,432.835 547.098,409.832 548.491,410.781 	"/>
	<polygon fill="#3C3249" points="533.344,427.127 531.951,426.179 531.951,403.177 533.344,404.125 	"/>
</g>
<g>
	<polygon fill="#5B2D47" points="515.351,449.221 513.958,448.272 513.958,425.27 515.351,426.218 	"/>
	<polygon fill="#5B5738" points="518.093,450.369 516.7,449.421 516.7,426.418 518.093,427.367 	"/>
	<polygon fill="#777777" points="519.553,451.077 518.161,450.128 518.161,427.126 519.553,428.074 	"/>
	<polygon fill="#606060" points="523.643,453.209 522.25,452.26 522.25,429.258 523.643,430.206 	"/>
	<polygon fill="#606060" points="512.332,447.729 510.94,446.781 510.94,423.779 512.332,424.727 	"/>
	<polygon fill="#3E3F2E" points="525.036,453.639 523.643,452.691 523.643,429.688 525.036,430.637 	"/>
	<polygon fill="#3C3249" points="509.888,446.983 508.496,446.035 508.496,423.032 509.888,423.981 	"/>
</g>
<g>
	<polygon fill="#606060" points="538.498,460.442 537.105,459.494 537.105,436.491 538.498,437.44 	"/>
	<polygon fill="#606060" points="541.24,461.591 539.847,460.642 539.847,437.64 541.24,438.588 	"/>
	<polygon fill="#777777" points="542.7,462.298 541.308,461.35 541.308,438.347 542.7,439.296 	"/>
	<polygon fill="#606060" points="546.79,464.43 545.398,463.482 545.398,440.479 546.79,441.428 	"/>
	<polygon fill="#606060" points="535.479,458.951 534.087,458.002 534.087,435 535.479,435.948 	"/>
	<polygon fill="#3E3F2E" points="548.183,464.86 546.79,463.912 546.79,440.909 548.183,441.858 	"/>
	<polygon fill="#3C5159" points="533.035,458.204 531.643,457.256 531.643,434.254 533.035,435.202 	"/>
</g>
<g>
	<polygon fill="#5B2D47" points="492.038,407.459 490.646,406.511 490.646,383.509 492.038,384.457 	"/>
	<polygon fill="#5B5738" points="494.78,408.608 493.388,407.659 493.388,384.657 494.78,385.605 	"/>
	<polygon fill="#777777" points="498.188,410.104 494.848,408.367 494.848,385.364 498.274,387.497 	"/>
	<polygon fill="#606060" points="500.331,411.447 498.938,410.499 498.938,387.497 500.331,388.445 	"/>
	<polygon fill="#606060" points="489.02,405.968 487.627,405.02 487.627,382.017 489.02,382.966 	"/>
	<polygon fill="#3E3F2E" points="501.723,411.878 500.331,410.929 500.331,387.927 501.723,388.875 	"/>
	<polygon fill="#3C5159" points="486.576,405.222 485.183,404.273 485.183,381.271 486.576,382.219 	"/>
</g>
<g>
	<polygon fill="#5B2D47" points="491.973,438.103 490.58,437.155 490.58,414.152 491.973,415.101 	"/>
	<polygon fill="#5B5738" points="494.715,439.252 493.322,438.303 493.322,415.301 494.715,416.249 	"/>
	<polygon fill="#5B2D47" points="496.175,439.959 494.782,439.011 494.782,416.008 496.175,416.957 	"/>
	<polygon fill="#606060" points="500.265,442.091 498.872,441.143 498.872,418.14 500.265,419.089 	"/>
	<polygon fill="#5B2D47" points="488.954,436.612 487.562,435.664 487.562,412.661 488.954,413.61 	"/>
	<polygon fill="#5B2D47" points="501.658,442.522 500.265,441.573 500.265,418.571 501.658,419.519 	"/>
	<polygon fill="#3C3249" points="486.51,435.866 485.117,434.917 485.117,411.915 486.51,412.863 	"/>
</g>
<g>
	<polygon fill="#5B2D47" points="562.397,441.015 561.005,440.066 561.005,417.064 562.397,418.012 	"/>
	<polygon fill="#5B5738" points="565.139,442.163 563.747,441.215 563.747,418.212 565.139,419.161 	"/>
	<polygon fill="#777777" points="566.6,442.87 565.207,441.922 565.207,418.92 566.6,419.868 	"/>
	<polygon fill="#606060" points="570.69,445.003 569.297,444.054 569.297,421.052 570.69,422 	"/>
	<polygon fill="#606060" points="559.379,439.523 557.986,438.575 557.986,415.572 559.379,416.521 	"/>
	<polygon fill="#3E3F2E" points="572.083,445.433 570.69,444.484 570.69,421.482 572.083,422.43 	"/>
	<polygon fill="#3C5159" points="556.935,438.777 555.542,437.828 555.542,414.826 556.935,415.774 	"/>
</g>
<g>
	<polygon fill="#5B2D47" points="586.939,483.579 585.547,482.63 585.547,459.628 586.939,460.576 	"/>
	<polygon fill="#5B5738" points="589.681,484.727 588.289,483.779 588.289,460.776 589.681,461.725 	"/>
	<polygon fill="#777777" points="591.142,485.434 589.749,484.486 589.749,461.484 591.142,462.432 	"/>
	<polygon fill="#606060" points="595.232,487.567 593.839,486.618 593.839,463.616 595.232,464.564 	"/>
	<polygon fill="#606060" points="583.921,482.087 582.528,481.139 582.528,458.136 583.921,459.085 	"/>
	<polygon fill="#3E3F2E" points="596.625,487.997 595.232,487.048 595.232,464.046 596.625,464.994 	"/>
	<polygon fill="#3C5159" points="581.477,481.341 580.084,480.392 580.084,457.39 581.477,458.338 	"/>
</g>
<g>
	<polygon fill="#5B2D47" points="562.332,471.491 560.939,470.542 560.939,447.54 562.332,448.488 	"/>
	<polygon fill="#5B5738" points="565.074,472.639 563.681,471.691 563.681,448.688 565.074,449.637 	"/>
	<polygon fill="#5B5738" points="566.534,473.346 565.142,472.398 565.142,449.396 566.534,450.344 	"/>
	<polygon fill="#606060" points="570.624,475.479 569.232,474.53 569.232,451.528 570.624,452.476 	"/>
	<polygon fill="#5B5738" points="559.313,469.999 557.921,469.051 557.921,446.048 559.313,446.997 	"/>
	<polygon fill="#5B5738" points="572.017,475.909 570.624,474.96 570.624,451.958 572.017,452.906 	"/>
	<polygon fill="#3C3249" points="556.869,469.253 555.477,468.304 555.477,445.302 556.869,446.25 	"/>
</g>
<g>
	<polygon fill="#5B2D47" points="585.042,452.176 583.649,451.227 583.649,428.225 585.042,429.173 	"/>
	<polygon fill="#415B56" points="587.784,453.324 586.391,452.376 586.391,429.373 587.784,430.322 	"/>
	<polygon fill="#777777" points="589.245,454.031 587.852,453.083 587.852,430.081 589.245,431.029 	"/>
	<polygon fill="#415B56" points="593.334,456.164 591.942,455.215 591.942,432.213 593.334,433.161 	"/>
	<polygon fill="#415B56" points="582.024,450.684 580.631,449.736 580.631,426.733 582.024,427.682 	"/>
	<polygon fill="#3E3F2E" points="594.727,456.594 593.334,455.645 593.334,432.643 594.727,433.591 	"/>
	<polygon fill="#3C3249" points="579.58,449.938 578.187,448.989 578.187,425.987 579.58,426.935 	"/>
</g>
<polygon opacity="0.8" points="552.287,443.188 556.059,451.069 572.83,458.837 572.831,452.971 "/>
<polygon opacity="0.8" points="576.106,454.975 579.878,462.857 596.649,470.624 596.65,464.758 "/>
<polygon opacity="0.8" points="551.039,412.102 554.811,419.984 571.582,427.751 571.583,421.885 "/>
<polygon opacity="0.8" points="574.858,423.889 578.63,431.771 595.401,439.538 595.402,433.672 "/>
<polygon opacity="0.8" points="528.117,401.402 531.889,409.284 548.66,417.051 548.661,411.185 "/>
<polygon opacity="0.8" points="506.146,421.445 509.918,429.327 525.159,436.386 525.159,430.137 "/>
<polygon opacity="0.8" points="527.955,431.608 531.727,439.49 548.498,447.257 548.499,441.391 "/>
<polygon opacity="0.8" points="481.295,378.912 485.067,386.794 501.838,394.561 501.839,388.695 "/>
<polygon opacity="0.8" points="482.543,409.997 486.315,417.879 503.086,425.647 503.087,419.781 "/>
<polygon fill="#5B5B5B" points="437.419,301.984 434.797,299.178 436.414,298.823 436.108,296.847 438.031,297.321 437.311,297.914 
	437.347,299.89 436.632,299.89 "/>
<polygon fill="#5B5B5B" points="432.838,320.004 432.516,321.585 431.979,322.533 432.23,324.213 433.446,324.786 432.981,323.679 
	432.713,322.652 433.446,321.308 "/>
<radialGradient id="SVGID_9_" cx="813.6472" cy="18.7802" r="35.3081" gradientTransform="matrix(0.7521 0 0 -1 -198.924 337.171)" gradientUnits="userSpaceOnUse">
	<stop  offset="0.1379" style="stop-color:#D49148"/>
	<stop  offset="1" style="stop-color:#000000;stop-opacity:0"/>
</radialGradient>
<polygon fill="url(#SVGID_9_)" points="404.025,303.644 387.855,317.303 382.28,333.839 407.292,347.534 433.935,334.297 
	433.326,317.902 "/>
<polygon opacity="0.7" enable-background="new    " points="202.051,268.271 177.39,247.715 177.39,217.751 242.369,191.289 
	274.162,192.746 216.89,245.258 "/>
<g>
	<path fill="#3A1C1C" d="M345.135,618.876c1.783,0.237,4.636-2.015,5.974-3.438c1.783-1.897,4.636-5.216,5.795-7.825
		c1.07-2.371,2.407-5.809,1.961-8.536c-0.357-2.608-2.051-4.624-2.051-7.232c0-2.015,0.981-3.082,1.962-4.505
		c1.07-1.423,1.694-2.964,2.496-4.624c0.802-1.66,1.159-3.201,1.872-4.861c0.713-1.778,2.407-2.964,2.853-4.742
		c-1.07,1.067-1.516,4.149-2.051,5.928c-0.624,1.778-1.337,3.319-1.961,5.098c-1.159,3.319-0.178,6.046,1.694,8.654
		c2.229,3.082,4.28,7.587,2.051,11.737c-1.872,3.438-4.547,5.809-7.133,8.18c-2.051,1.897-3.923,3.794-6.419,4.386
		c-1.07,0.237-2.14,0.119-3.121,0.711c-1.07,0.474-2.14,1.541-3.299,1.541"/>
</g>
<g>
	<path fill="#3A1C1C" d="M390.071,622.196c-0.446-5.572-0.981-11.144-0.624-16.716c0.178-3.082,1.07-5.691,1.248-8.654
		c0.297-5.134,1.342-6.615,1.342-8.749c0-2.134-0.45-4.648-0.45-6.782c0-2.49-1.516-5.098-2.318-7.232
		c-1.872-4.979-4.19-8.654-3.299-14.226c-1.516,1.423-1.516,6.046-0.981,8.18c0.535,2.727,1.694,5.216,2.496,7.706
		c1.962,6.165,2.853,11.5,1.605,18.257c-0.535,3.201-1.605,6.165-1.961,9.484c-0.357,4.031-0.178,8.536-1.248,12.448
		c-2.051,7.469-6.865,11.855-9.273,18.613c-0.357,1.067-0.802,2.134-1.07,3.082c1.872-3.794,4.815-5.162,7.4-8.245
		c2.229-2.49,4.636-6.93,7.4-7.286"/>
</g>
<path fill="#191919" d="M160.738,507.184c0,0-17.305,8.431-35.882,0c-0.523-4.425-5.344-45.249-5.344-45.249h46.57L160.738,507.184z
	"/>
<ellipse fill="#0F0F0F" cx="142.797" cy="461.978" rx="23.285" ry="4.827"/>
<polygon fill="#444444" points="121.063,475.068 126.128,482.266 132.236,476.929 137.834,484.594 145.214,478.645 150.304,486.433 
	158.266,478.928 160.746,485.622 164.108,478.645 164.602,474.461 161.678,480.142 158.266,473.433 150.558,481.507 
	145.469,473.433 138.343,479.933 132.236,472.337 126.383,476.929 121.063,471.105 "/>
<polygon fill="#606060" points="451.78,267.604 431.597,258.427 438.505,218.605 458.688,227.782 "/>
<polygon fill="#232323" points="468.291,274.337 457.275,269.328 461.046,247.593 472.062,252.601 "/>
<polygon fill="#232323" points="449.465,260.965 436.321,254.988 441.085,226.064 454.23,232.041 "/>
<polygon fill="#606060" points="466.883,269.14 460.148,266.078 462.453,252.789 469.189,255.851 "/>
<g>
	<path fill="#262D38" d="M494.349,282.931c0,0-6.739,4.532-15.09,0c-0.204-1.874-1.735-15.906-1.735-15.906h18.126L494.349,282.931z
		"/>
	<ellipse fill="#141414" cx="486.587" cy="267.025" rx="9.063" ry="2.727"/>
	<path fill="#232323" d="M478.094,267.969c1.278,1.04,4.593,1.782,8.493,1.782c3.9,0,7.215-0.743,8.493-1.782
		c-1.278-1.04-4.593-1.782-8.493-1.782C482.687,266.187,479.372,266.929,478.094,267.969z"/>
	<path fill="#193D2F" d="M482.597,267.969c0,0-6.542-16.454-6.185-20.597s2.26-8.147,6.423-8.7c4.163-0.552,8.208,1.795,9.397,6.628
		s-1.303,21.302-1.071,22.668C491.394,269.335,482.597,267.969,482.597,267.969z"/>
	<path fill="#112D21" d="M493.601,233.622c-0.655,2.979,2.913,14.855,1.367,19.659c-0.952,1.686-2.592,1.954-2.592,1.954
		l-0.278,3.735c0,0,6.438-2.221,6.795-4.279c0.357-2.058,2.824-15.328,1.828-20.437
		C499.726,229.144,494.256,230.643,493.601,233.622z"/>
	<path fill="#112D21" d="M476.873,244.887c-0.834-0.238-6.647-1.523-4.149-4.973c2.498-3.45,5.316,2.416,5.316,2.416
		S477.707,245.124,476.873,244.887z"/>
	<path fill="#112D21" d="M486.587,238.982c6.662,3.912,3.517,29.594,3.517,29.594"/>
	<path fill="#112D21" d="M484.476,238.593c3.204,1.862,2.917,29.983,2.917,29.983"/>
	<path fill="#112D21" d="M482.041,238.826c-1.805,5.454,3.067,29.474,3.067,29.474"/>
	<path fill="#112D21" d="M479.083,240.559c-2.287,10.01,4.725,27.581,4.725,27.581"/>
	<path fill="none" d="M498.344,231.071c1.629,5.908,0.374,20.606-0.757,23.279s-5.032,3.402-5.032,3.402"/>
	<path fill="none" d="M495.65,231.264c1.286,2.945,1.986,18.556,0.877,21.578c-1.109,3.021-4.244,3.641-4.244,3.641"/>
</g>
<g>
	<polygon fill="#3D1513" points="444.998,161.34 432.328,166.47 451.601,175.609 465.037,170.424 	"/>
	<polygon fill="#5B2924" points="432.328,166.47 432.328,175.609 451.601,184.883 451.601,175.609 	"/>
	<polygon fill="#3F1615" points="465.037,170.424 465.037,180.064 451.601,184.883 451.601,175.609 	"/>
	<polyline fill="none" points="432.328,169.621 451.601,178.457 465.037,173.704 	"/>
	<path fill="#280C0B" d="M456.696,176.655c0.963,3.141,3.43,1.865,3.531-0.978"/>
</g>
<g>
	<polygon fill="#171F3A" points="445.757,154.13 435.694,158.204 451,165.462 461.671,161.345 	"/>
	<polygon fill="#22294C" points="435.694,158.204 435.694,165.462 451,172.828 451,165.462 	"/>
	<polygon fill="#0B1328" points="461.671,161.345 461.671,169 451,172.828 451,165.462 	"/>
	<polyline fill="none" points="435.694,160.707 451,167.724 461.671,163.95 	"/>
	<path fill="none" d="M455.046,166.293c0.765,2.495,2.724,1.481,2.804-0.777"/>
</g>
<g>
	<polygon fill="#423D31" points="472.631,177.596 462.568,181.67 477.874,188.928 488.545,184.811 	"/>
	<polygon fill="#595347" points="462.568,181.67 462.568,188.928 477.874,196.294 477.874,188.928 	"/>
	<polygon fill="#494338" points="488.545,184.811 488.545,192.466 477.874,196.294 477.874,188.928 	"/>
	<polyline fill="none" points="462.568,184.173 477.874,191.19 488.545,187.415 	"/>
	<path fill="#423D31" d="M481.921,189.759c0.765,2.495,2.724,1.481,2.804-0.777"/>
</g>
<g>
	<path fill="#E2DDBF" d="M414.305,315.156c0,0-1.309,3.919-2.005,5.871c4.818,2.288,8.913,0,8.913,0l-2.451-5.871"/>
	<path fill="#FFFFFF" d="M411.186,300.479c0,0-3.342,10.662-4.011,12.682c10.472,4.489,18.494,0,18.494,0l-4.456-12.682H411.186z"/>
	<ellipse fill="#E2DDBF" cx="416.199" cy="300.479" rx="5.013" ry="1.234"/>
</g>
<path fill="#111111" stroke="#070707" stroke-miterlimit="10" d="M408.765,527.788c-7.608-6.007-16.543,3.081-8.271,12.013"/>
<g>
	<path fill="#0C0C0C" stroke="#070707" stroke-miterlimit="10" d="M547.686,372.71v2.051c0,0.709,1.474,1.284,3.293,1.284
		c1.819,0,3.293-0.575,3.293-1.284v-2.051H547.686z"/>
	<ellipse fill="#0C0C0C" stroke="#070707" stroke-miterlimit="10" cx="550.979" cy="372.71" rx="3.293" ry="1.284"/>
	<polygon fill="#5B5B5B" stroke="#070707" stroke-miterlimit="10" points="550.276,372.71 550.276,367.149 551.835,366.754 
		551.835,372.365 	"/>
	<path fill="#5B5B5B" stroke="#070707" stroke-miterlimit="10" d="M550.276,368.413c-8.277-0.277-8.277,4.386-14.578,7.057
		c0.378,0.23,1.1,0.689,1.456,0.886c6.746-2.907,4.785-6.125,13.122-6.441C550.276,369.322,550.276,369.085,550.276,368.413z"/>
	<polygon fill="#212121" stroke="#070707" stroke-miterlimit="10" points="535.241,375.364 537.49,376.62 533.558,377.887 
		531.204,376.477 	"/>
	<rect x="551.835" y="368.611" fill="#5B5B5B" stroke="#070707" stroke-miterlimit="10" width="2.08" height="1.423"/>
	<rect x="553.916" y="367.742" fill="#5B5B5B" stroke="#070707" stroke-miterlimit="10" width="2.378" height="3.122"/>
</g>
<g>
	<path fill="#0C0C0C" stroke="#070707" stroke-miterlimit="10" d="M593.182,394.428v2.051c0,0.709,1.474,1.284,3.293,1.284
		c1.819,0,3.293-0.575,3.293-1.284v-2.051H593.182z"/>
	<ellipse fill="#0C0C0C" stroke="#070707" stroke-miterlimit="10" cx="596.475" cy="394.428" rx="3.293" ry="1.284"/>
	<polygon fill="#5B5B5B" stroke="#070707" stroke-miterlimit="10" points="595.771,394.428 595.771,388.867 597.331,388.471 
		597.331,394.083 	"/>
	<path fill="#5B5B5B" stroke="#070707" stroke-miterlimit="10" d="M595.771,390.131c-8.277-0.277-8.277,4.386-14.578,7.057
		c0.378,0.23,1.1,0.689,1.456,0.887c6.746-2.907,4.785-6.125,13.122-6.441C595.771,391.04,595.771,390.803,595.771,390.131z"/>
	<polygon fill="#212121" stroke="#070707" stroke-miterlimit="10" points="580.737,397.082 582.986,398.338 579.054,399.605 
		576.7,398.195 	"/>
	<rect x="597.331" y="390.329" fill="#5B5B5B" stroke="#070707" stroke-miterlimit="10" width="2.08" height="1.423"/>
	<rect x="599.412" y="389.459" fill="#5B5B5B" stroke="#070707" stroke-miterlimit="10" width="2.378" height="3.122"/>
</g>
<polygon fill="#303030" points="596.92,370.199 596.92,412.48 614.418,421.025 614.418,378.477 "/>
<path fill="#6D6D6D" stroke="#070707" stroke-miterlimit="10" d="M611.866,400.521c0.997,5.966-0.894,11.599-4.224,12.583
	s-6.837-3.055-7.834-9.021s0.894-11.599,4.224-12.583C607.362,390.516,610.869,394.555,611.866,400.521z"/>
<path fill="#0C0C0C" stroke="#070707" stroke-miterlimit="10" d="M608.56,382.251c0.478,2.861-0.429,5.563-2.026,6.035
	c-1.597,0.472-3.279-1.465-3.757-4.326s0.429-5.563,2.026-6.035S608.082,379.389,608.56,382.251z"/>
<polygon fill="#191919" points="614.418,421.025 632.665,414.558 632.665,372.251 614.418,378.477 "/>
<polygon fill="#3F3F3F" points="596.92,370.199 614.418,378.477 632.665,372.251 614.698,364.366 "/>
<path fill="#5E5E5E" stroke="#070707" stroke-width="0.25" stroke-miterlimit="10" d="M609.929,401.632
	c0.375,2.243-0.336,4.362-1.588,4.732s-2.571-1.149-2.946-3.392s0.336-4.362,1.588-4.732S609.554,399.388,609.929,401.632z"/>
<polygon fill="#3D3D3D" points="555.82,377.318 574.858,385.884 550.276,394.561 530.901,386.124 "/>
<polygon fill="#303030" points="530.512,392.861 550.276,401.402 550.276,394.561 530.901,386.124 "/>
<line fill="none" stroke="#070707" stroke-miterlimit="10" x1="540.153" y1="387.184" x2="547.408" y2="390.329"/>
<line fill="none" stroke="#070707" stroke-miterlimit="10" x1="544.212" y1="385.679" x2="550.605" y2="383.231"/>
<line fill="none" stroke="#070707" stroke-miterlimit="10" x1="549.946" y1="388.648" x2="556.339" y2="386.2"/>
<polygon fill="#0C0C0C" stroke="#070707" stroke-miterlimit="10" points="543.361,385.217 545.807,386.4 545.807,383.1 
	543.661,382.298 "/>
<polygon fill="#0C0C0C" stroke="#070707" stroke-miterlimit="10" points="553.049,386.547 555.495,387.73 555.495,384.43 
	553.35,383.629 "/>
<g>
	<path fill="#FFFFFF" d="M217.623,416.769c0.282,0.228,0.658,0.221,1.128-0.019c0.47-0.24,0.847-0.619,1.131-1.137
		c0.285-0.518,0.426-1.09,0.426-1.717v-1.941c0-0.035-0.008-0.06-0.026-0.076c-0.017-0.015-0.038-0.016-0.063-0.003l-1.373,0.702
		c-0.024,0.013-0.045,0.036-0.063,0.069c-0.017,0.033-0.025,0.067-0.025,0.102v1.106c0,0.035,0.008,0.06,0.025,0.076
		c0.018,0.015,0.039,0.016,0.063,0.003l0.193-0.098c0.025-0.013,0.037-0.002,0.037,0.034v0.668c0,0.166-0.029,0.318-0.088,0.452
		c-0.06,0.135-0.139,0.227-0.238,0.277c-0.094,0.048-0.171,0.036-0.23-0.038c-0.06-0.074-0.089-0.194-0.089-0.36v-3.383
		c0-0.167,0.029-0.318,0.089-0.453c0.059-0.134,0.136-0.225,0.23-0.274c0.099-0.051,0.178-0.04,0.238,0.035
		c0.059,0.074,0.088,0.194,0.088,0.361v0.408c0,0.035,0.009,0.059,0.026,0.075c0.018,0.017,0.038,0.018,0.063,0.005l1.053-0.539
		c0.025-0.013,0.046-0.036,0.063-0.07c0.017-0.033,0.026-0.066,0.026-0.101v-0.387c0-0.625-0.142-1.053-0.426-1.284
		c-0.285-0.23-0.662-0.225-1.131,0.015c-0.47,0.241-0.845,0.618-1.128,1.13c-0.282,0.514-0.423,1.084-0.423,1.709v3.372
		C217.2,416.114,217.34,416.541,217.623,416.769z"/>
	<path fill="#FFFFFF" d="M221.756,415.014l0.089-0.954c0-0.034,0.014-0.059,0.045-0.074l0.801-0.411
		c0.029-0.014,0.044-0.004,0.044,0.03l0.096,0.859c0.005,0.073,0.037,0.096,0.096,0.065l1.076-0.551
		c0.055-0.029,0.082-0.073,0.082-0.135l-0.008-0.038l-1.068-6.509c-0.01-0.071-0.042-0.093-0.096-0.065l-1.21,0.619
		c-0.054,0.028-0.086,0.083-0.096,0.164l-1.076,7.607c-0.014,0.097,0.01,0.13,0.074,0.097l1.053-0.54
		C221.718,415.147,221.75,415.092,221.756,415.014z M222.252,410.031c0.005-0.03,0.012-0.048,0.022-0.053
		c0.01-0.005,0.017,0.005,0.023,0.03l0.267,2.243c0,0.034-0.01,0.057-0.029,0.067l-0.497,0.255c-0.02,0.01-0.029-0.003-0.029-0.037
		L222.252,410.031z"/>
	<path fill="#FFFFFF" d="M225.617,413.115c0.017-0.033,0.025-0.067,0.025-0.102v-4.488c0-0.027,0.005-0.045,0.015-0.049
		c0.01-0.005,0.019,0.001,0.029,0.016l0.52,1.007c0.025,0.043,0.042,0.063,0.052,0.057c0.01-0.005,0.025-0.04,0.045-0.107
		l0.519-1.539c0.01-0.025,0.019-0.04,0.029-0.041c0.01-0.002,0.015,0.01,0.015,0.039v4.477c0,0.035,0.009,0.06,0.026,0.076
		c0.018,0.015,0.038,0.017,0.063,0.004l1.053-0.54c0.025-0.012,0.045-0.035,0.063-0.068c0.017-0.033,0.026-0.067,0.026-0.102V404.7
		c0-0.035-0.009-0.06-0.026-0.076c-0.018-0.015-0.038-0.016-0.063-0.004l-1.031,0.529c-0.055,0.027-0.092,0.074-0.111,0.14
		l-0.579,1.809c-0.014,0.035-0.029,0.043-0.044,0.023l-0.594-1.209c-0.025-0.043-0.062-0.052-0.111-0.027l-1.039,0.532
		c-0.025,0.013-0.045,0.036-0.063,0.069c-0.017,0.033-0.026,0.067-0.026,0.102v7.055c0,0.035,0.009,0.06,0.026,0.076
		c0.018,0.015,0.038,0.016,0.063,0.003l1.054-0.539C225.578,413.171,225.599,413.148,225.617,413.115z"/>
	<path fill="#FFFFFF" d="M229.857,405.155l1.491-0.763c0.025-0.013,0.045-0.035,0.063-0.069c0.017-0.033,0.026-0.067,0.026-0.101
		v-1.232c0-0.035-0.009-0.06-0.026-0.076c-0.018-0.015-0.038-0.016-0.063-0.003l-2.671,1.367c-0.024,0.013-0.045,0.035-0.063,0.069
		c-0.017,0.033-0.025,0.067-0.025,0.102v7.055c0,0.035,0.008,0.06,0.025,0.076c0.018,0.015,0.039,0.016,0.063,0.004l2.671-1.367
		c0.025-0.013,0.045-0.036,0.063-0.069c0.017-0.033,0.026-0.067,0.026-0.102v-1.232c0-0.034-0.009-0.059-0.026-0.075
		c-0.018-0.015-0.038-0.018-0.063-0.004l-1.491,0.763c-0.026,0.013-0.037,0.003-0.037-0.032v-1.325c0-0.035,0.012-0.059,0.037-0.072
		l0.816-0.418c0.024-0.013,0.045-0.035,0.063-0.068c0.017-0.033,0.025-0.067,0.025-0.102v-1.242c0-0.035-0.008-0.059-0.025-0.076
		c-0.018-0.015-0.039-0.017-0.063-0.004l-0.816,0.418c-0.026,0.013-0.037,0.002-0.037-0.032v-1.315
		C229.82,405.192,229.831,405.168,229.857,405.155z"/>
	<path fill="#FFFFFF" d="M219.919,417.992c-0.289-0.246-0.671-0.247-1.146-0.003c-0.48,0.245-0.862,0.637-1.146,1.177
		c-0.285,0.538-0.427,1.135-0.427,1.789v3.152c0,0.662,0.142,1.114,0.427,1.358c0.284,0.244,0.666,0.243,1.146-0.002
		c0.475-0.243,0.857-0.634,1.146-1.171s0.434-1.137,0.434-1.798v-3.152C220.353,418.686,220.208,418.236,219.919,417.992z
		 M219.121,423.196c0,0.187-0.031,0.351-0.093,0.49c-0.062,0.139-0.148,0.237-0.256,0.293c-0.109,0.056-0.193,0.045-0.252-0.033
		c-0.06-0.077-0.089-0.21-0.089-0.397v-3.299c0-0.188,0.029-0.351,0.089-0.489c0.059-0.137,0.143-0.235,0.252-0.29
		c0.109-0.056,0.194-0.046,0.256,0.03s0.093,0.208,0.093,0.396V423.196z"/>
	<path fill="#FFFFFF" d="M224.085,415.352l-1.121,0.574c-0.06,0.03-0.092,0.085-0.096,0.164l-0.393,4.366
		c0,0.021-0.006,0.036-0.019,0.046c-0.012,0.009-0.021,0.002-0.026-0.023l-0.423-3.948c-0.005-0.074-0.037-0.096-0.097-0.065
		l-1.15,0.589c-0.055,0.028-0.082,0.073-0.082,0.135l0.007,0.038l1.054,6.517c0.01,0.07,0.042,0.093,0.096,0.065l1.165-0.596
		c0.055-0.028,0.086-0.083,0.096-0.164l1.061-7.6C224.174,415.351,224.149,415.319,224.085,415.352z"/>
	<path fill="#FFFFFF" d="M227.32,413.696l-2.671,1.368c-0.024,0.013-0.045,0.035-0.063,0.069c-0.017,0.032-0.025,0.066-0.025,0.102
		v7.055c0,0.035,0.008,0.06,0.025,0.076c0.018,0.015,0.039,0.016,0.063,0.004l2.671-1.368c0.024-0.013,0.045-0.036,0.063-0.069
		c0.017-0.033,0.026-0.067,0.026-0.102v-1.232c0-0.034-0.009-0.059-0.026-0.075c-0.018-0.015-0.039-0.018-0.063-0.005l-1.491,0.763
		c-0.026,0.013-0.037,0.003-0.037-0.032v-1.325c0-0.035,0.012-0.059,0.037-0.072l0.816-0.418c0.025-0.013,0.046-0.035,0.064-0.069
		c0.017-0.033,0.025-0.066,0.025-0.102v-1.242c0-0.035-0.008-0.06-0.025-0.076c-0.018-0.015-0.039-0.016-0.064-0.004l-0.816,0.418
		c-0.026,0.013-0.037,0.002-0.037-0.032v-1.315c0-0.035,0.012-0.059,0.037-0.072l1.491-0.763c0.024-0.013,0.045-0.035,0.063-0.069
		c0.017-0.033,0.026-0.067,0.026-0.101v-1.232c0-0.035-0.009-0.06-0.026-0.076C227.365,413.684,227.344,413.683,227.32,413.696z"/>
	<path fill="#FFFFFF" d="M230.376,416.253c-0.005-0.011-0.005-0.023,0-0.036s0.012-0.025,0.022-0.038
		c0.183-0.281,0.326-0.603,0.426-0.965c0.102-0.36,0.152-0.737,0.152-1.126c0-0.438-0.06-0.799-0.181-1.082
		c-0.122-0.281-0.293-0.462-0.516-0.54c-0.222-0.077-0.477-0.042-0.764,0.105l-1.595,0.816c-0.025,0.013-0.046,0.036-0.064,0.069
		c-0.017,0.033-0.025,0.067-0.025,0.102v7.055c0,0.035,0.008,0.06,0.025,0.076c0.018,0.015,0.039,0.016,0.064,0.004l1.053-0.539
		c0.025-0.013,0.045-0.036,0.063-0.069c0.017-0.033,0.026-0.067,0.026-0.102v-2.734c0-0.035,0.012-0.058,0.037-0.071l0.111-0.057
		c0.019-0.01,0.032-0.002,0.037,0.023l0.505,2.508c0.015,0.062,0.05,0.079,0.104,0.051l1.083-0.554
		c0.055-0.029,0.081-0.077,0.081-0.146l-0.007-0.038L230.376,416.253z M229.627,415.373c-0.079,0.181-0.186,0.304-0.319,0.373
		l-0.207,0.107c-0.025,0.013-0.037,0.001-0.037-0.033v-1.482c0-0.035,0.012-0.058,0.037-0.071l0.207-0.107
		c0.133-0.068,0.24-0.052,0.319,0.045c0.079,0.1,0.119,0.278,0.119,0.535C229.746,414.982,229.706,415.195,229.627,415.373z"/>
</g>
<g>
	<path fill="#0C0C0C" stroke="#070707" stroke-miterlimit="10" d="M553.017,379.221v2.805c0,0.219,0.402,0.396,0.898,0.396
		c0.496,0,0.898-0.177,0.898-0.396v-2.805H553.017z"/>
	<ellipse fill="#0C0C0C" stroke="#070707" stroke-miterlimit="10" cx="553.916" cy="378.948" rx="0.898" ry="0.396"/>
</g>
<g>
	<path fill="#0C0C0C" stroke="#070707" stroke-miterlimit="10" d="M556.116,378.557v2.805c0,0.219,0.402,0.396,0.898,0.396
		s0.898-0.177,0.898-0.396v-2.805H556.116z"/>
	<ellipse fill="#0C0C0C" stroke="#070707" stroke-miterlimit="10" cx="557.014" cy="378.283" rx="0.898" ry="0.396"/>
</g>
<g>
	<path fill="#0C0C0C" stroke="#070707" stroke-miterlimit="10" d="M558.122,382.298v2.805c0,0.219,0.402,0.396,0.898,0.396
		c0.496,0,0.898-0.177,0.898-0.396v-2.805H558.122z"/>
	<ellipse fill="#0C0C0C" stroke="#070707" stroke-miterlimit="10" cx="559.02" cy="382.024" rx="0.898" ry="0.396"/>
</g>
<g>
	<path fill="#0C0C0C" stroke="#070707" stroke-miterlimit="10" d="M561.22,381.633v2.805c0,0.219,0.402,0.396,0.898,0.396
		c0.496,0,0.898-0.177,0.898-0.396v-2.805H561.22z"/>
	<ellipse fill="#0C0C0C" stroke="#070707" stroke-miterlimit="10" cx="562.118" cy="381.359" rx="0.898" ry="0.396"/>
</g>
<g>
	<g>
		<path fill="#020202" d="M300.684,569.955c6.151,6.167,16.066,8.987,24.182,5.02c5.236-2.559,8.617-10.205,10.739-15.235
			c2.085-4.942,4.456-13.643-2.284-16.012c-6.394-2.247-4.372,5.289-2.898,8.497c4.263,9.282,14.372,11.542,23.815,12.096
			c12.002,0.704,25.227-0.836,36.895-3.687c10.944-2.674,20.048-8.541,27.448-16.961c10.169-11.569,16.256-24.858,33.396-26.609
			c13.551-1.384,28.427,3.389,40.637,8.853c12.914,5.779,23.932,14.451,29.777,27.54c2.768,6.198,4.071,12.988,3.51,19.754
			c-0.204,2.46-1.239,7.427-4.697,4.735c-1.97-1.534-3.218-4.029-4.265-6.221c-2.137-4.476-2.931-9.585-1.655-14.404
			c1.753-6.62,9.077-8.841,14.988-10.004c14.025-2.76,29.007-5.146,43.282-3.852c10.239,0.928,21.498-0.868,31.378-3.696
			c8.551-2.448,13.056-9.208,16.646-16.85c2.625-5.588,5.567-11.15,7.442-17.039c2.235-7.021,2.713-14.074,6.18-20.703
			c1.866-3.569,3.616-6.98,4.615-10.914c0.128-0.505-1.326-0.28-1.446,0.192c-1.454,5.723-4.776,10.531-6.973,15.949
			c-2.63,6.487-2.879,13.765-5.495,20.34c-4.445,11.169-9.638,25.044-22.245,28.653c-5.563,1.592-11.47,2.15-17.18,2.996
			c-7.622,1.129-15.054-0.304-22.703-0.066c-11.793,0.366-23.99,2.209-35.53,4.687c-7.779,1.67-14.254,5.725-15.053,14.223
			c-0.477,5.077,2.546,16.927,8.603,18.415c6.839,1.68,5.849-10.737,5.47-14.364c-1.321-12.627-8.661-23.544-18.456-31.155
			c-8.731-6.784-19.156-11.159-29.69-14.26c-10.046-2.957-21.426-5.268-31.843-2.863c-10.604,2.448-17.207,9.824-23.495,18.239
			c-8.858,11.855-18.166,20.79-32.831,24.701c-5.553,1.481-11.322,2.117-17.028,2.673c-8.164,0.795-16.447,1.498-24.61,0.378
			c-5.748-0.788-12.364-2.986-15.705-8.019c-1.102-1.66-6.702-12.42-0.705-10.313c8.136,2.859,0.532,17.395-1.927,21.623
			c-1.66,2.856-3.989,6.814-7.073,8.322c-7.359,3.596-16.456,0.212-21.869-5.216C301.687,569.053,300.319,569.589,300.684,569.955
			L300.684,569.955z"/>
	</g>
</g>
<g>
	<polygon fill="#FFFFFF" stroke="#070707" stroke-miterlimit="10" points="497.486,590.804 418.419,625.98 353.468,595.883 
		425.41,554.842 	"/>
	<polygon fill="#514C36" stroke="#070707" stroke-miterlimit="10" points="409.771,506.42 415.953,562.883 484.056,595.883 
		484.056,539.503 	"/>
	<path fill="#7C7650" d="M416.45,479.622c-0.085-0.04-0.169-0.08-0.255-0.117l-0.096-0.044l-0.002,0.008
		c-0.862-0.357-1.769-0.56-2.71-0.56c-5.431,0-9.834,6.367-9.834,14.22c0,6,2.573,11.121,6.208,13.209l-0.019,0.081l75.285,33.699
		l5.567-27.692L416.45,479.622z"/>
	<ellipse fill="#3A3625" cx="488.175" cy="526.647" rx="9.834" ry="14.22"/>
	<polygon fill="#514C36" points="408.108,534.833 433.14,480.786 485.875,460.452 500.624,475.315 482.773,597.35 431.92,619.974 	
		"/>
	<polyline fill="none" stroke="#070707" stroke-miterlimit="10" points="431.92,619.974 449.183,496.159 433.14,480.786 	"/>
	<polygon fill="#514C36" points="343.511,536.005 353.468,595.883 417.795,625.469 417.795,569.089 	"/>
	<polygon fill="#3A3625" points="417.795,569.089 431.92,556.916 431.92,619.974 417.795,626.823 	"/>
	<path fill="#7C7650" d="M350.19,509.208c-0.085-0.04-0.169-0.08-0.255-0.117l-0.096-0.044l-0.002,0.008
		c-0.862-0.357-1.769-0.56-2.71-0.56c-5.431,0-9.834,6.367-9.834,14.22c0,6,2.573,11.121,6.208,13.209l-0.019,0.08l75.285,33.699
		l5.567-27.692L350.19,509.208z"/>
	<ellipse fill="#3A3625" cx="421.914" cy="556.233" rx="9.834" ry="14.22"/>
	<polygon fill="#3A3625" points="495.576,536.005 495.576,591.654 482.773,597.35 491.036,540.867 	"/>
	<polyline fill="#333021" points="449.183,496.159 431.92,619.974 482.773,597.35 500.624,475.315 449.183,496.159 	"/>
	<path fill="#3F2222" d="M376.25,520.738c-19.138,1.746-17.22,20.439-13.732,29.641c9.416,25.897-10.333,33.867-4.992,45.503
		s-15.41,23.925-15.41,23.925s16.063,1.148,14.822,6.172c-2.441,9.886,17.063,1.539,16.989,10.35
		c-0.074,8.811,16.241-20.059,16.927-10.35c0.785,11.103,11.764,21.248,18.917,24.262c-1.266-0.693,1.572-17.158-7.844-33.389
		c-9.416-16.231,8.021-30.606,1.627-54.107c-2.259-8.27-6.16-16.148-2.07-30.843C397.559,530.166,381.206,522.931,376.25,520.738z"
		/>
	<path fill="none" stroke="#070707" stroke-miterlimit="10" d="M389.808,571.176c6.539,9.912-2.354,32.398,1.046,54.804"/>
	<path fill="none" stroke="#070707" stroke-miterlimit="10" d="M380.814,616.145c7.033-16.576,6.095-35.135,6.095-35.135"/>
	<path fill="none" stroke="#070707" stroke-miterlimit="10" d="M378.43,591.87c0,25.563-21.492,34.11-21.492,34.11"/>
</g>
<path fill="#070707" d="M400.494,539.801c-9.391,0.46-17.585-7.875-20.557-8.837c-2.972-0.963-11.769,6.151-11.769,6.151
	s2.615-11.381,8.831-12.481c1.469-0.828,3.684-2.076,3.684-2.076l-4.164-3.205l0.48-8.147l2.552-10.17l2.862,5.385l3.824,1.534
	l6.918-6.079l0.811,7.538l1.664,4.249c0,0,3.428,4.364,17.574,5.068s9.53,23.457,9.53,23.457s5.121,9.231,2.744,20.282
	c-2.378,11.051-21.561,4.851-23.107,12.267c-1.545,7.415,3.598,10.131,5.738,12.33s0,9.642-4.276,4.756
	c-1.509-1.724-10.699-9.385-5.825-18.768s14.86-2.558,20.804-11.108s-1.189-18.494-1.189-18.494s-1.528,8.187-5.706,4.268
	c-3.807-3.571-18.704-0.883-19.635-2.701C391.349,543.2,394.008,540.104,400.494,539.801z"/>
<polygon fill="#2D2A1D" points="433.14,480.786 449.183,496.159 500.624,475.315 485.875,460.452 "/>
<g opacity="0.7">
	<path d="M295.422,563.749c-2.378-1.107-7.014-4.11-6.301-8.22c0.594-3.794,4.398-4.268,6.657-3.952
		c2.972,0.316,4.874,1.265,7.846,0.158c2.378-0.948,5.468-0.632,7.608,0.948c2.615,1.739,3.21,6.481,3.447,9.958
		c0.119,2.845,1.07,7.271-0.119,9.642c-1.664,3.32-5.35,3.478-7.965,4.742c-3.091,1.423-4.28,1.265-7.489,0.316
		c-2.734-0.79-6.419-2.371-6.538-6.797c0-2.213,0.832-2.213,1.664-3.794c1.189-2.371,0-3.003-0.832-5.216"/>
</g>
<g>
	<path fill="#0A0A0A" stroke="#000000" stroke-miterlimit="10" d="M309.414,559.03l-0.619-1.598
		c-0.136-0.269-1.667-2.216-1.849-2.456c-2.35-3.113-7.66-2.52-11.86,1.323c-3.946,3.61-5.508,8.804-3.735,12.001l-0.001,0.001
		l0.022,0.032c0.11,0.194,0.228,0.383,0.363,0.561c0.026,0.035,0.058,0.063,0.085,0.097l1.637,2.404l0.948-0.735
		c2.647,0.726,6.198-0.352,9.19-3.09c2.347-2.148,3.849-4.856,4.31-7.371L309.414,559.03z"/>
	<path fill="#0A0A0A" stroke="#000000" stroke-miterlimit="10" d="M288.423,538.262c0.908,1.615-0.168,4.159-2.403,5.681
		c-2.235,1.522-4.782,1.446-5.69-0.169s0.168-4.159,2.402-5.681C284.968,536.571,287.515,536.647,288.423,538.262z"/>
	<path fill="#020202" stroke="#000000" stroke-miterlimit="10" d="M305.527,570.343c-4.2,3.843-9.51,4.436-11.86,1.323
		c-2.35-3.112-0.849-8.751,3.351-12.595c4.2-3.843,9.51-4.436,11.86-1.323S309.728,566.5,305.527,570.343z"/>
	<path fill="#0C0C0C" stroke="#000000" stroke-miterlimit="10" d="M303.537,567.969c-2.235,2.045-5.061,2.361-6.312,0.704
		c-1.25-1.656-0.452-4.657,1.783-6.702c2.235-2.045,5.061-2.361,6.312-0.704C306.571,562.922,305.772,565.923,303.537,567.969z"/>
	<path fill="#0A0A0A" stroke="#000000" stroke-miterlimit="10" d="M297.736,542.628l-0.619-1.598
		c-0.136-0.269-1.667-2.216-1.849-2.456c-2.35-3.113-7.66-2.52-11.86,1.323c-3.946,3.61-5.508,8.804-3.735,12.001l-0.001,0.001
		l0.022,0.032c0.11,0.194,0.228,0.383,0.363,0.561c0.026,0.035,0.058,0.063,0.085,0.097l1.637,2.404l0.948-0.735
		c2.647,0.726,6.198-0.352,9.19-3.09c2.347-2.148,3.849-4.856,4.31-7.371L297.736,542.628z"/>
	<path fill="#191919" stroke="#000000" stroke-miterlimit="10" d="M293.766,553.625c-4.2,3.843-9.51,4.436-11.86,1.323
		c-2.35-3.112-0.849-8.751,3.351-12.595c4.2-3.843,9.51-4.436,11.86-1.323C299.467,544.143,297.966,549.782,293.766,553.625z"/>
	<path fill="#0C0C0C" stroke="#000000" stroke-miterlimit="10" d="M291.127,550.129c-1.595,1.459-3.61,1.684-4.502,0.502
		c-0.892-1.182-0.322-3.322,1.272-4.781c1.595-1.459,3.61-1.684,4.502-0.502C293.291,546.529,292.721,548.67,291.127,550.129z"/>
	<path fill="#020202" stroke="#000000" stroke-miterlimit="10" d="M293.725,536.999c0,0,10.638-8.471,17.479-2.675
		c-8.564-7.563-20.877,2.038-20.877,2.038L293.725,536.999z"/>
	<path fill="none" stroke="#000000" stroke-miterlimit="10" d="M314.994,539.034c5.533,14.291-14.079,24.171-15.445,25.021
		c-1.367,0.851,0.479,3.016,1.724,2.29s20.051-10.72,14.898-24.804c-0.337-0.922-0.782-1.858-1.348-2.807
		c-9.212-15.441-25.311-1.736-25.311-1.736"/>
	<path fill="#020202" d="M300.02,563.785c1.312-0.907,19.735-10.132,15.55-23.661c7.513,15.295-12.871,25.306-14.298,26.222
		C299.846,567.262,298.708,564.692,300.02,563.785z"/>
</g>
<polygon fill="#333333" points="323.849,302.145 353.126,277.926 353.126,327.577 323.849,351.797 "/>
<polygon fill="#D7F7EA" points="325.876,303.613 351.774,282.188 351.774,326.11 325.876,347.534 "/>
<g>
	<polygon fill="#333333" points="356.243,277.449 405.544,270.578 405.544,320.229 356.243,327.101 	"/>
	<polygon fill="#161616" points="375.577,324.406 375.577,335.073 386.209,333.726 386.209,322.924 	"/>
	<polygon fill="#161616" points="371.361,335.802 390.267,333.221 394.487,335.802 374.315,338.72 	"/>
	<polygon fill="#474747" points="357.514,279.012 404.025,272.706 404.025,318.277 357.514,324.584 	"/>
	<polygon fill="#353535" points="369.594,322.454 357.921,324.316 357.921,279.111 369.594,277.926 	"/>
	<line fill="none" stroke="#EFEC86" stroke-miterlimit="10" x1="372.106" y1="284.201" x2="384.008" y2="282.778"/>
	<line fill="none" stroke="#5E9679" stroke-miterlimit="10" x1="372.106" y1="287.095" x2="375.577" y2="286.68"/>
	<line fill="none" stroke="#D3D3D3" stroke-miterlimit="10" x1="376.973" y1="286.68" x2="388.876" y2="285.257"/>
	<line fill="none" stroke="#5E9679" stroke-miterlimit="10" x1="375.253" y1="289.554" x2="378.724" y2="289.139"/>
	<line fill="none" stroke="#D3D3D3" stroke-miterlimit="10" x1="380.12" y1="289.139" x2="392.022" y2="287.717"/>
	<line fill="none" stroke="#AD73A8" stroke-miterlimit="10" x1="379.484" y1="291.783" x2="391.386" y2="290.361"/>
	<line fill="none" stroke="#EFEC86" stroke-miterlimit="10" x1="383.458" y1="293.562" x2="389.409" y2="292.85"/>
	<line fill="none" stroke="#D3D3D3" stroke-miterlimit="10" x1="391.218" y1="292.495" x2="397.169" y2="291.783"/>
	<line fill="none" stroke="#D3D3D3" stroke-miterlimit="10" x1="379.697" y1="296.513" x2="391.599" y2="295.09"/>
	<line fill="none" stroke="#AD73A8" stroke-miterlimit="10" x1="375.253" y1="299.948" x2="380.523" y2="299.3"/>
	<line fill="none" stroke="#D3D3D3" stroke-miterlimit="10" x1="382.554" y1="299.029" x2="392.022" y2="298.111"/>
	<line fill="none" stroke="#D3D3D3" stroke-miterlimit="10" x1="372.106" y1="319.311" x2="384.008" y2="317.888"/>
	<line fill="none" stroke="#D3D3D3" stroke-miterlimit="10" x1="359.525" y1="285.223" x2="362.996" y2="284.808"/>
	<line fill="none" stroke="#D3D3D3" stroke-miterlimit="10" x1="359.525" y1="287.717" x2="362.996" y2="287.302"/>
	<line fill="none" stroke="#D3D3D3" stroke-miterlimit="10" x1="361.527" y1="290.088" x2="364.998" y2="289.673"/>
	<line fill="none" stroke="#D3D3D3" stroke-miterlimit="10" x1="360.286" y1="320.673" x2="363.758" y2="320.258"/>
</g>
<polygon opacity="0.8" enable-background="new    " points="576.318,407.627 576.318,414.364 600.6,414.277 596.92,407.627 
	596.92,400.347 "/>
<polygon opacity="0.8" enable-background="new    " points="513.778,370.199 545.807,367.742 534.899,362.846 "/>
<polygon opacity="0.8" enable-background="new    " points="623.006,422.748 614.418,421.025 631.952,414.811 637.419,417.39 "/>
<radialGradient id="SVGID_10_" cx="600.3828" cy="233.4883" r="573.8391" gradientTransform="matrix(0.7521 0 0 -1 -198.924 337.171)" gradientUnits="userSpaceOnUse">
	<stop  offset="0.3941" style="stop-color:#F8739C;stop-opacity:0.3"/>
	<stop  offset="1" style="stop-color:#000000;stop-opacity:0"/>
</radialGradient>
<polygon fill="url(#SVGID_10_)" points="310.291,154.056 390.703,108.624 613.038,87.801 653.815,196.936 699.763,280.964 
	699.763,572.632 516.053,662.732 310.291,339.695 "/>
<polygon fill="#5B5B5B" points="208.622,484.064 205.22,485.641 205.22,460.73 208.622,459.153 "/>
<polygon fill="#38434C" points="212.86,482.106 209.458,483.683 209.458,458.772 212.86,457.195 "/>
<polygon fill="#47513E" points="217.152,480.248 213.75,481.825 213.75,456.914 217.152,455.337 "/>
<polygon fill="#5B5B5B" points="220.001,478.95 216.599,480.527 216.599,455.616 220.001,454.039 "/>
<polygon fill="#38434C" points="223.082,477.574 219.68,479.151 219.68,454.24 223.082,452.663 "/>
<polygon fill="#5B5B5B" points="225.931,476.276 222.529,477.853 222.529,452.942 225.931,451.365 "/>
<polygon fill="#726739" points="229.845,474.551 226.444,476.128 226.444,451.217 229.845,449.639 "/>
<polygon fill="#38434C" points="234.137,472.692 230.736,474.269 230.736,449.358 234.137,447.781 "/>
<polygon fill="#5B5B5B" points="236.986,471.394 233.585,472.971 233.585,448.06 236.986,446.483 "/>
<polygon opacity="0.7" enable-background="new    " points="205.22,467.529 205.22,460.73 260.664,435.698 244.751,460.726 
	236.986,464.005 236.986,453.629 "/>
<radialGradient id="SVGID_11_" cx="550.344" cy="-35.5673" r="298.1827" gradientTransform="matrix(0.7521 0 0 -1 -198.924 337.171)" gradientUnits="userSpaceOnUse">
	<stop  offset="0.1379" style="stop-color:#5FE5AA;stop-opacity:0.5"/>
	<stop  offset="0.8079" style="stop-color:#000000;stop-opacity:0"/>
</radialGradient>
<polygon fill="url(#SVGID_11_)" points="210.571,436.032 348.994,581.071 343.602,541.201 337.385,526.659 340.536,511.425 
	346.567,505.929 362.669,500.224 461.762,468.557 234.842,394.004 210.571,404.858 "/>
<radialGradient id="SVGID_12_" cx="1081.481" cy="-30.8866" r="9.8462" gradientTransform="matrix(0.7521 0 0 -1 -198.924 337.171)" gradientUnits="userSpaceOnUse">
	<stop  offset="0.07" style="stop-color:#FFDA7D;stop-opacity:0.6"/>
	<stop  offset="1" style="stop-color:#000000;stop-opacity:0"/>
</radialGradient>
<polygon fill="url(#SVGID_12_)" points="596.92,370.063 614.418,378.341 632.665,372.115 614.698,364.23 "/>
<radialGradient id="SVGID_13_" cx="1089.2264" cy="-31.3609" r="26.4584" gradientTransform="matrix(0.7521 0 0 -1 -198.924 337.171)" gradientUnits="userSpaceOnUse">
	<stop  offset="0.07" style="stop-color:#C1DA7D;stop-opacity:0.6"/>
	<stop  offset="1" style="stop-color:#000000;stop-opacity:0"/>
</radialGradient>
<polygon fill="url(#SVGID_13_)" points="606.285,366.99 614.698,364.23 632.665,372.115 639.437,383.105 638.855,329.884 
	606.285,338.261 "/>
<g>
	
		<radialGradient id="SVGID_14_" cx="1075.3081" cy="-54.722" r="1.8543" gradientTransform="matrix(0.9005 -0.2765 -0.2591 -0.961 -366.0595 612.9204)" gradientUnits="userSpaceOnUse">
		<stop  offset="0.1379" style="stop-color:#FFEF6A"/>
		<stop  offset="0.9409" style="stop-color:#D4AB00"/>
	</radialGradient>
	<path fill="url(#SVGID_14_)" d="M618.661,368.16c0.099,0.367-0.219,0.787-0.71,0.938s-0.97-0.024-1.069-0.391
		s0.219-0.787,0.71-0.938C618.083,367.618,618.562,367.793,618.661,368.16z"/>
	
		<radialGradient id="SVGID_15_" cx="1092.6641" cy="-22.1485" r="0.9858" gradientTransform="matrix(0.937 0 0 -1 -411.5454 337.171)" gradientUnits="userSpaceOnUse">
		<stop  offset="0.1379" style="stop-color:#FFEF6A"/>
		<stop  offset="0.9409" style="stop-color:#D4AB00"/>
	</radialGradient>
	<polygon fill="url(#SVGID_15_)" points="611.985,360.283 611.374,358.356 613.263,359.319 	"/>
	
		<radialGradient id="SVGID_16_" cx="1094.9785" cy="-27.7374" r="5.2741" gradientTransform="matrix(0.937 0 0 -1 -411.5454 337.171)" gradientUnits="userSpaceOnUse">
		<stop  offset="0.1379" style="stop-color:#FFEF6A"/>
		<stop  offset="0.9409" style="stop-color:#D4AB00"/>
	</radialGradient>
	<path fill="url(#SVGID_16_)" d="M611.394,370.476c3.259,1.668,6.369,0,6.369,0s2.222-11.658-3.185-11.873
		C609.172,358.389,610.95,367.78,611.394,370.476z"/>
	
		<radialGradient id="SVGID_17_" cx="1097.006" cy="-22.6805" r="0.8646" gradientTransform="matrix(0.937 0 0 -1 -411.5454 337.171)" gradientUnits="userSpaceOnUse">
		<stop  offset="0.1379" style="stop-color:#FFEF6A"/>
		<stop  offset="0.9409" style="stop-color:#D4AB00"/>
	</radialGradient>
	<polygon fill="url(#SVGID_17_)" points="615.623,359.472 616.345,360.763 617.151,358.94 	"/>
	<polygon fill="none" stroke="#020202" stroke-width="0.5" stroke-miterlimit="10" points="612.067,363.622 612.27,364.343 
		612.89,363.76 	"/>
	
		<line fill="none" stroke="#020202" stroke-width="0.5" stroke-miterlimit="10" x1="610.956" y1="362.108" x2="611.714" y2="362.583"/>
	
		<line fill="none" stroke="#020202" stroke-width="0.5" stroke-miterlimit="10" x1="613.512" y1="362.683" x2="615.095" y2="362.108"/>
</g>
<g>
	<path fill="#25253A" d="M563.466,323.531c0.269,0.165,0.404,0.032,0.404-0.397v-2.711c0-0.431-0.135-0.728-0.404-0.894
		l-1.534-0.943c-1.534-0.943-2.301-3.028-2.301-6.256v-12.846c0-1.979-0.155-3.634-0.464-4.965c-0.31-1.33-0.814-2.491-1.514-3.48
		c-0.135-0.212-0.135-0.319,0-0.323c0.699-0.129,1.204-0.669,1.514-1.619c0.309-0.95,0.464-2.415,0.464-4.395v-12.523
		c0-1.635,0.188-2.725,0.565-3.268s0.955-0.575,1.736-0.095l1.534,0.943c0.269,0.165,0.404,0.033,0.404-0.397v-2.711
		c0-0.43-0.135-0.728-0.404-0.894l-2.543-1.563c-1.427-0.877-2.476-0.93-3.148-0.16c-0.673,0.77-1.009,2.403-1.009,4.899v13.685
		c0,1.807-0.168,3.071-0.504,3.789c-0.337,0.719-0.882,0.932-1.635,0.641c-0.242-0.106-0.363,0.035-0.363,0.422v2.582
		c0,0.345,0.121,0.634,0.363,0.869c0.753,0.679,1.298,1.573,1.635,2.683c0.336,1.11,0.504,2.592,0.504,4.441v14.008
		c0,2.539,0.336,4.606,1.009,6.204c0.672,1.596,1.721,2.833,3.148,3.71L563.466,323.531z"/>
	<path fill="#25253A" d="M568.834,319.02c0.242,0.149,0.404,0.077,0.484-0.219l8.92-38.476c0.081-0.424-0.027-0.727-0.323-0.909
		l-2.018-1.24c-0.242-0.149-0.404-0.076-0.485,0.219l-8.92,38.476c-0.081,0.424,0.026,0.726,0.323,0.908L568.834,319.02z"/>
	<path fill="#25253A" d="M588.853,310.218c-0.7,0.129-1.211,0.666-1.534,1.607c-0.323,0.942-0.484,2.403-0.484,4.382v12.846
		c0,3.228-0.767,4.37-2.301,3.427L583,331.537c-0.269-0.166-0.404-0.033-0.404,0.397v2.711c0,0.43,0.134,0.728,0.404,0.894
		l2.543,1.563c1.426,0.877,2.475,0.93,3.148,0.16c0.672-0.771,1.009-2.425,1.009-4.963v-14.008c0-1.807,0.175-3.066,0.525-3.776
		c0.349-0.71,0.888-0.949,1.615-0.718c0.242,0.063,0.363-0.077,0.363-0.422v-2.582c0-0.387-0.121-0.677-0.363-0.869
		c-0.727-0.661-1.265-1.552-1.615-2.671s-0.525-2.582-0.525-4.389v-13.685c0-2.495-0.337-4.542-1.009-6.139
		c-0.673-1.597-1.722-2.834-3.148-3.711L583,277.766c-0.269-0.166-0.404-0.032-0.404,0.397v2.711c0,0.431,0.134,0.728,0.404,0.894
		l1.534,0.943c0.78,0.48,1.358,1.222,1.736,2.229c0.377,1.006,0.565,2.327,0.565,3.962v12.523c0,1.98,0.161,3.639,0.484,4.978
		s0.834,2.503,1.534,3.492C588.988,310.064,588.988,310.171,588.853,310.218z"/>
	<path fill="#25253A" d="M599.567,316.719c0-2.952-0.806-6.092-2.08-8.703c-0.399-8.751-1.942-22.376-7.234-34.751
		c-4.281-10.01-10.226-17.346-17.7-21.816c-7.505-4.49-13.336-4.204-17.331,0.852c-4.707,5.956-5.838,17.195-5.967,25.486
		c-1.53,0.879-2.525,3.171-2.525,6.453c0,5.513,2.794,11.699,6.241,13.818v-19.963c-0.394-0.242-0.777-0.413-1.151-0.531
		c0.263-7.43,1.438-16.633,5.308-21.522c3.505-4.428,8.703-4.627,15.45-0.59c6.741,4.024,12.057,10.546,15.839,19.383
		c4.271,9.978,5.85,21.194,6.406,29.289c-0.481-0.485-0.98-0.904-1.497-1.222v16.187c-1.208,2.649-1.888,6.257-1.21,10.247
		c0.494,2.907,1.8,5.726,2.45,8.621c0.753,3.358,0.405,6.372-0.421,8.599c-1.874,5.054-6.74,4.469-10.809,2.628
		c0.59-2.281,0.253-5.987-1.774-7.741c-1.404-1.215-3.016-1.327-3.939-0.143c-1.426,1.829,1.125,5.054,2.401,6.324
		c0.718,0.716,1.478,1.28,2.255,1.731c-0.328,0.728-0.786,1.279-1.289,1.606c-4.389,2.845-6.644-7.718-9.652-12.672
		c-5.285-8.707-11.479-3.929-11.657,4.715c-0.005,0.241-0.005,15.66-0.001,15.907c0.006,0.317,0.912,0.627,0.903,0.168
		c-0.004-0.196-0.004-15.565-0.002-15.758c0.081-6.795,3.763-11.879,8.4-7.048c3.312,3.45,4.312,10.253,7.464,13.904
		c2.148,2.488,5.249,2.297,6.47,0.12c0.082-0.147,0.156-0.315,0.225-0.493c2.182,1.02,4.439,1.23,6.296,1.268
		c2.906,0.059,5.291-2.013,6.198-6.271c0.944-4.428-0.99-9.024-2.324-13.994c-0.867-3.229-0.68-6.327,0.015-8.895v0.953
		C596.773,324.983,599.567,322.232,599.567,316.719z M578.273,343.855c-0.543-1.702,0.392-2.548,1.071-2.728
		c1.063-0.282,2.317,0.984,2.977,2.986c0.606,1.838,0.563,3.44,0.177,4.665C581.155,348.057,579.051,346.294,578.273,343.855z"/>
	<polygon fill="#25253A" points="570.706,244.66 573.43,244.044 576.153,248.008 575.633,242.839 577.836,240.758 574.791,238.179 
		573.43,232.929 572.068,236.505 569.023,235.341 571.226,240.13 	"/>
	<polygon fill="#25253A" points="558.635,238.984 560.588,238.543 562.54,241.385 562.167,237.678 563.747,236.186 561.564,234.337 
		560.588,230.572 559.611,233.136 557.428,232.301 559.008,235.736 	"/>
	<polygon fill="#25253A" points="584.547,255.91 586.5,255.468 588.453,258.31 588.08,254.603 589.66,253.112 587.476,251.262 
		586.5,247.498 585.523,250.061 583.34,249.227 584.92,252.661 	"/>
</g>
<polygon opacity="0.2" fill="#070707" enable-background="new    " points="237.222,458.342 260.664,467.44 260.664,435.698 
	236.986,446.388 "/>
<g id="Layer_2">
</g>
<g>
	<path fill="#304743" d="M142.563,429.917c0,0-16.78-42.227-11.478-55.974c5.302-13.747,10.247-11.074,15.978-19.531
		s-4.453-34.11,3.023-46.036c7.476-11.927,46.191-9.257,58.286-18.355c-7.228,19.146,0.419,46.201-5.641,57.17
		c-6.06,10.968-17.258,18.63-20.931,23.318c-3.672,4.688-3.72,12.435-5.424,24.742C174.671,407.558,142.563,429.917,142.563,429.917
		z"/>
	<path fill="#14332F" d="M139.542,465.788c0,0-2.432-100.221,39.937-140.577c-39.495,41.249-33.227,140.033-33.227,140.033
		L139.542,465.788z"/>
	<path fill="#38544F" d="M158.8,430.801c0,0-0.854-32.091,6.454-40.698c7.308-8.607,7.443-7.598,13.921-12.317
		c6.478-4.719,7.76-20.487,16.409-27.283c8.649-6.796,30.918,5.9,42.647,2.207c-10.053,12.023-6.911,25.081-14.21,31.521
		c-7.299,6.44-15.406,5.435-19.395,7.935c-3.989,2.5-12.254,9.743-16.354,18.158C184.171,418.74,158.8,430.801,158.8,430.801z"/>
	<path fill="#183833" d="M143.14,463.557c0,0,17.133-72.481,69.307-98.97c-49.677,28.17-62.723,100.376-62.723,100.376
		L143.14,463.557z"/>
	<path fill="#263532" d="M135.425,428.18c0,0,7.276-31.267,1.843-41.165c-5.433-9.898-5.768-8.937-11.167-14.859
		c-5.399-5.922-3.492-21.628-10.601-30.02c-7.109-8.393-31.473-0.423-42.223-6.395c7.436,13.796,1.738,25.958,7.597,33.731
		s14.003,8.415,17.409,11.665c3.406,3.25,10.05,12.003,12.379,21.07S135.425,428.18,135.425,428.18z"/>
	<path fill="#122824" d="M144.618,463.455c0,0-2.666-74.488-48.464-110.906c43.015,37.564,41.733,110.963,41.733,110.963
		L144.618,463.455z"/>
</g>
<ellipse fill="#111111" cx="591.298" cy="532.247" rx="17.973" ry="7.007"/>
<ellipse fill="#686868" cx="591.298" cy="531.376" rx="4.318" ry="1.684"/>
<polygon fill="#3A3625" points="557.328,519.384 529.273,532.057 558.908,546.873 587.943,534.13 "/>
<g>
	<polygon fill="#3F342B" points="299.071,203.521 299.071,245.671 226.052,279.626 226.052,236.303 	"/>
	<polygon fill="#261F1B" points="274.162,192.746 299.071,203.521 226.052,236.303 202.051,225.849 	"/>
	<polygon fill="#191412" points="226.052,279.626 202.051,268.271 202.051,225.849 226.052,236.303 	"/>
	<polygon fill="#191412" points="295.443,210.947 295.443,241.605 230.463,272.383 230.463,239.837 	"/>
	<polygon fill="#3F342B" points="284.156,234.938 267.84,242.096 267.84,223.219 284.156,215.965 	"/>
	<polygon fill="#5B5B5B" points="234.101,263.43 230.7,265.007 230.7,240.095 234.101,238.518 	"/>
	<polygon fill="#364947" points="238.34,261.473 234.938,263.049 234.938,238.138 238.34,236.561 	"/>
	<polygon fill="#604129" points="242.631,259.613 239.23,261.191 239.23,236.28 242.631,234.703 	"/>
	<polygon fill="#5B5B5B" points="245.48,258.316 242.079,259.893 242.079,234.982 245.48,233.405 	"/>
	<polygon fill="#38434C" points="248.561,256.94 245.16,258.517 245.16,233.607 248.561,232.029 	"/>
	<polygon fill="#5B5B5B" points="251.41,255.642 248.009,257.219 248.009,232.309 251.41,230.732 	"/>
	<polygon fill="#726739" points="255.325,253.917 251.923,255.493 251.923,230.582 255.325,229.005 	"/>
	<polygon fill="#38434C" points="259.617,252.059 256.215,253.635 256.215,228.724 259.617,227.147 	"/>
	<polygon fill="#604129" points="262.466,250.76 259.064,252.337 259.064,227.426 262.466,225.849 	"/>
	<polygon fill="#47513E" points="268.252,247.97 264.851,249.547 264.851,224.637 268.252,223.06 	"/>
</g>
<polygon fill="#2C2951" points="282.117,164.532 421.632,87.112 421.632,70.112 282.117,147.532 "/>
<polygon fill="#13132D" points="282.788,147.531 421.743,69.627 413.117,65.34 274.162,143.244 "/>
<polygon fill="#0B0B1C" points="274.162,143.244 274.162,159.519 282.676,165.016 282.788,147.531 "/>
</svg>
