<?xml version="1.0" encoding="utf-8"?>
<!-- Generator: Adobe Illustrator 17.0.0, SVG Export Plug-In . SVG Version: 6.00 Build 0)  -->
<!DOCTYPE svg PUBLIC "-//W3C//DTD SVG 1.1//EN" "http://www.w3.org/Graphics/SVG/1.1/DTD/svg11.dtd">
<svg version="1.1" id="Layer_1" xmlns="http://www.w3.org/2000/svg" xmlns:xlink="http://www.w3.org/1999/xlink" x="0px" y="0px"
	 width="187.807px" height="218.059px" viewBox="0 0 187.807 218.059" enable-background="new 0 0 187.807 218.059"
	 xml:space="preserve">
<g>
	<path fill="#4C765F" d="M61.236,85.36c3.015,2.138,4.035,5.045,3.13,8.581c3.914,0.957,5.538,3.512,5.609,7.275
		c2.807,0.009,4.737,1.284,5.756,3.782c3.986-0.897,4.997-0.486,7.064,2.771c0.833-0.039,1.64-0.077,2.314-0.109
		c0.691-1.423,1.335-2.751,1.815-3.741c-0.325-1.464-0.592-2.669-0.898-4.047c-3.341-1.563-3.964-4.684-1.988-7.659
		c-3.87-2.641-3.502-6.774-0.206-9.34c-2.884-3.155-2.823-8.491,2.956-10.871c-1.91-5.593,1.374-9.938,6.929-10.333
		c0.221-3.172,1.501-5.78,4.571-7.288c-0.313-0.487-0.549-0.854-0.788-1.227c-3.04,1.352-5.576,0.877-7.531-1.779
		c-3.467,2.177-4.769,2.232-8.644,0.381c-1.776,4.103-4.971,5.424-9.255,4.449c-0.728,4.148-3.161,6.433-7.223,7.093
		c1.759,5.192,0.481,9.279-4.15,12.164C63.237,78.665,63.198,81.932,61.236,85.36z"/>
	<path fill="#4C765F" d="M98.323,135.981c-1.564-2.478-1.213-4.789,0.558-6.907c-2.725-2.509-2.947-4.375-1.017-7.413
		c-0.476-0.932-0.931-1.823-1.35-2.645c-1.309,0-2.624,0-4.051,0c-0.132,1.7-1.073,2.853-2.735,3.321
		c0.341,3.546-1.604,5.902-5.527,5.891c-0.232,1.855-0.779,3.582-2.509,4.655c-1.76,1.092-3.575,0.947-5.367,0.151
		c-2.367,5.204-5.75,6.132-10.974,3.106c-4.577,4.302-8.142,4.072-12.162-0.498c-1.964,0.273-3.745,0.861-5.432,0.66
		c-1.639-0.196-3.182-1.201-4.761-1.848c0.804,1.205,1.905,2.295,2.297,3.598c0.395,1.315,0.087,2.841,0.087,4.466
		c2.907,1.158,4.061,3.764,3.984,6.581c1.984,0.667,3.953,0.89,5.325,1.912c1.408,1.049,2.232,2.879,3.282,4.326
		c1.546,0,3.41-0.375,5.02,0.104c1.658,0.493,3.07,1.817,4.658,2.821c4.001-3.814,7.158-4.35,12.376-1.851
		c1.552-3.671,4.451-5.301,8.454-5.248c0.468-3.623,2.494-5.876,6.019-6.759C93.579,140.577,94.786,137.773,98.323,135.981z"/>
	<path fill="#4C765F" d="M90.774,84.296c0.263,1.322,0.767,2.528,0.659,3.676c-0.112,1.199-0.813,2.342-1.276,3.562
		c2.518,2.289,2.717,3.941,0.779,7.314c0.408,0.565,0.816,1.132,1.071,1.486c1.378,0,2.552,0.018,3.725-0.012
		c0.32-0.008,0.718-0.069,0.94-0.264c0.815-0.715,1.572-1.498,2.449-2.351c-0.487-2.879,1.408-5.666,5.546-5.588
		c0.772-4.695,3.346-6.278,7.902-4.82c0.789-2.237,2.178-3.888,4.543-4.596c2.454-0.734,4.494,0.118,6.339,1.641
		c3.358-4.049,8.883-4.491,12.216,0.424c1.91-0.27,3.688-0.859,5.375-0.662c1.654,0.193,3.213,1.187,5.08,1.937
		c-3.244-3.94-3.244-3.94-2.297-8.036c-3.207-1.286-4.456-3.827-4.305-7.226c-4.483,0.254-7.224-1.769-8.329-6.084
		c-4.111,1.328-6.327,0.667-9.739-2.811c-3.667,3.757-7.804,4.867-12.66,2.036c-1.553,3.911-4.642,5.318-8.513,5.341
		c-0.437,3.714-2.591,5.781-5.946,6.751C95.321,79.875,93.974,82.616,90.774,84.296z"/>
	<path fill="#4C765F" d="M45.004,114.6c1.668,1.841,2.198,4.092,2.224,6.496c4.097-0.401,6.986,1.188,8.803,4.755
		c3.42-1.601,6.328-0.747,8.894,1.643c3.487-2.817,5.35-3.011,9.256-0.932c1.278-2.532,3.462-3.442,6.146-3.092
		c1.262-3.781,2.532-4.696,5.901-4.479c0.558-0.888,1.083-1.722,1.59-2.528c-0.703-1.039-1.442-2.131-1.879-2.776
		c-1.763-0.366-3.132-0.65-4.788-0.993c-2.727,1.954-4.969,1.47-7.472-1.942c-4.3,1.783-6.886,0.48-8.277-4.169
		c-4.797,0.727-8.722-2.066-8.226-7.893c-5.859-1.359-7.477-4.46-5.747-11.087c-3.594-2.167-4.725-5.399-4.006-9.519
		c-0.595,3.342-2.442,5.289-5.71,5.655c0.401,3.594-1.06,5.979-4.184,7.416c2.653,3.746,2.197,7.146-0.916,10.262
		c3.222,2.779,3.967,6.062,2.353,9.927C41.459,111.676,43.399,112.83,45.004,114.6z"/>
	<path fill="#4C765F" d="M94.313,0L0,54.452v108.903l94.313,54.452l94.313-54.452V54.452L94.313,0z M163.223,126.011
		c-0.58,2.688-2.403,4.32-4.921,5.246c2.984,4.445,0.529,10.331-5.516,10.452c-0.875,4.871-3.042,6.528-7.651,5.688
		c-0.433,1.91-1.648,3.2-3.525,3.763c0.499,6.585-1.912,9.46-9.728,11.561c0.545,3.041-0.1,5.809-2.563,7.868
		c-2.409,2.013-5.163,2.307-8.205,1.107c-0.672,2.617-2.02,4.597-4.619,5.551c-2.651,0.973-4.922,0.25-7.115-1.502
		c-1.258,2.347-2.984,4.051-5.713,4.093c-2.607,0.04-4.623-1.159-6.032-3.635c-1.633,1.099-3.369,1.621-5.289,0.794
		c-1.816-0.782-3.049-2.033-3.475-4.136c-3.146,0.834-5.332-0.21-6.366-3.359c-4.512,5.542-12.407,5.185-16.113-1.435
		c-2.476,1.824-5.1,2.914-8.233,1.696c-3.07-1.193-4.512-3.531-4.998-6.778c-2.558,0.689-4.969,0.49-7.008-1.35
		c-2.041-1.841-2.723-4.145-2.166-6.921c-5.905,0.052-8.913-5.102-6.165-10.107c-3.782-2.794-4.226-6.105-1.151-9.41
		c-1.481-1.571-2.165-3.394-1.193-5.646c-2.934-1.044-5.064-2.921-6.18-5.8c-1.142-2.946-0.675-5.738,1.1-8.524
		c-3.081-1.016-5.162-3.025-5.721-6.201c-0.556-3.16,0.636-5.736,3.357-7.738c-2.042-1.875-2.967-4.199-2.434-6.897
		c0.532-2.692,2.335-4.37,4.902-5.243c-3.077-5.17-0.019-10.209,5.549-10.506c0.568-4.65,2.516-6.156,7.081-5.813
		c1.393-1.474,2.612-2.765,4.042-4.278c-0.683-4.652,2.127-10.086,9.725-10.806c-1.351-6.79,4.679-11.46,10.795-9.141
		c0.706-2.513,2.06-4.533,4.65-5.443c2.608-0.917,4.936-0.33,7.131,1.442c1.273-2.289,2.97-3.973,5.715-4.075
		c2.731-0.102,4.688,1.196,5.973,3.542c3.449-2.14,7.656-1.054,8.89,3.355c3.527-0.532,4.683,0.079,6.367,3.444
		c2.195-2.641,4.928-4.164,8.397-3.846c3.496,0.321,5.961,2.265,7.63,5.364c2.49-2.053,5.175-3.016,8.277-1.775
		c2.996,1.198,4.538,3.532,5.002,6.764c2.573-0.641,5.014-0.524,7.054,1.352c2.018,1.857,2.664,4.181,2.106,6.983
		c2.592,0.046,4.897,0.701,6.265,3.108c1.307,2.3,1.202,4.599-0.161,6.821c3.939,3.541,4.251,5.924,1.237,9.578
		c1.589,1.582,2.023,3.472,1.204,5.565c6.864,3.808,8.332,7.978,5.12,14.335c6.907,2.554,7.38,10.186,2.335,13.992
		C162.753,121.03,163.811,123.287,163.223,126.011z"/>
	<path fill="#4C765F" d="M127.632,135.008c-2.954-2.169-4.058-4.992-3.141-8.606c-3.894-0.875-5.572-3.456-5.629-7.253
		c-2.859,0.064-4.728-1.285-5.774-3.747c-3.514,1.097-5.196,0.415-6.948-2.735c-0.897,0-1.798,0-2.518,0
		c-0.83,1.337-1.579,2.545-2.105,3.391c0.505,1.536,0.939,2.854,1.479,4.497c3.294,1.449,3.631,4.767,1.852,7.601
		c4.062,2.849,3.268,6.744,0.25,9.241c3.469,4.583,1.58,9.202-3.006,10.917c1.997,5.9-1.568,10.037-6.939,10.435
		c-0.118,3.208-1.623,5.626-4.544,7.245c0.297,0.479,0.543,0.875,0.775,1.248c3.112-1.321,5.644-0.808,7.599,1.826
		c2.806-2.264,5.61-2.18,8.545-0.301c1.774-4.124,4.818-5.697,9.173-4.512c0.723-4.183,3.182-6.514,7.294-7.208
		c-1.846-5.217-0.27-9.162,4.099-12.138C125.605,141.724,125.586,138.425,127.632,135.008z"/>
	<path fill="#4C765F" d="M149.914,109.042c-2.54-0.325-4.493-1.506-6.093-3.251c-1.672-1.823-2.246-4.081-2.186-6.522
		c-4.122,0.478-6.962-1.199-8.823-4.753c-3.393,1.645-6.302,0.792-8.94-1.672c-2.796,2.831-5.886,3.052-9.202,0.987
		c-1.359,2.615-3.538,3.399-6.162,3.078c-1.155,3.749-2.507,4.742-6.03,4.558c-0.303,0.649-0.597,1.28-0.843,1.806
		c0.718,1.291,1.386,2.491,1.835,3.297c1.516,0.456,2.722,0.819,4.092,1.231c2.805-2.117,5.323-1.578,7.55,1.845
		c4.348-1.776,6.638-0.63,8.431,4.277c2.34-0.543,4.486-0.096,6.255,1.597c1.775,1.699,2.09,3.902,1.771,6.199
		c5.487,0.785,8.359,5.944,5.944,10.552c1.298,1.686,2.784,3.012,3.46,4.668c0.649,1.59,0.457,3.523,0.652,5.469
		c0.396-3.438,2.239-5.391,5.522-5.782c-0.384-3.58,1.097-5.958,4.166-7.384c-2.54-3.984-2.316-6.407,0.927-10.26
		C149.073,116.292,148.276,112.968,149.914,109.042z"/>
</g>
</svg>
