<?xml version="1.0" encoding="utf-8"?>
<!-- Generator: Adobe Illustrator 17.0.0, SVG Export Plug-In . SVG Version: 6.00 Build 0)  -->
<!DOCTYPE svg PUBLIC "-//W3C//DTD SVG 1.1//EN" "http://www.w3.org/Graphics/SVG/1.1/DTD/svg11.dtd">
<svg version="1.1" id="Layer_1" xmlns="http://www.w3.org/2000/svg" xmlns:xlink="http://www.w3.org/1999/xlink" x="0px" y="0px"
	 width="187.807px" height="218.059px" viewBox="0 0 187.807 218.059" enable-background="new 0 0 187.807 218.059"
	 xml:space="preserve">
<path fill="#4C765F" d="M93.904,0L0,54.215v108.431l70.936,40.955c0.139-0.439,0.242-0.902,0.257-1.41
	c0.176-5.781,0.05-22.657,0.05-28.026c-4.731,0-9.111,0.15-13.476-0.04c-4.967-0.217-9.61-1.52-13.503-4.901
	c-2.668-2.317-3.83-5.472-5.25-8.535c-2.203-4.75-4.869-9.145-9.631-11.888c-1.103-0.635-1.996-1.746-2.782-2.791
	c-0.99-1.318-0.704-2.188,0.958-2.35c1.87-0.182,3.897-0.201,5.67,0.329c5.203,1.555,8.97,5.019,11.703,9.671
	c1.674,2.849,3.838,5.26,6.668,7.021c5.536,3.445,11.311,2.463,17.132,0.951c1.864-0.484,3.072-1.352,3.135-3.49
	c0.027-0.926,0.398-1.903,0.831-2.744c1.275-2.481,2.66-4.905,3.767-6.925c-5.214-1.309-10.889-2.296-16.25-4.175
	c-9.934-3.483-17.473-9.828-21.369-19.948c-2.633-6.84-3.711-13.923-3.806-21.232c-0.121-9.377,2.572-17.679,8.717-24.83
	c0.369-0.43,0.571-1.335,0.388-1.857c-2.571-7.354-1.797-14.57,0.547-21.813c0.579-1.79,1.603-2.189,3.16-2.082
	c0.959,0.066,1.938,0.133,2.863,0.372c6.771,1.749,13.024,4.675,18.831,8.543c1.058,0.705,2.001,0.795,3.209,0.488
	c14.313-3.642,28.642-3.641,42.952,0.017c1.224,0.313,2.132,0.072,3.215-0.511c4.5-2.424,8.989-4.9,13.647-6.987
	c2.371-1.062,5.072-1.458,7.665-1.92c1.059-0.189,2.424-0.355,3.005,1.219c2.729,7.38,3.714,14.831,1.017,22.444
	c-0.314,0.887-0.229,1.497,0.432,2.246c3.691,4.183,6.249,8.983,7.56,14.425c1.715,7.116,1.325,14.254,0.135,21.38
	c-1.022,6.123-2.974,11.938-6.514,17.09c-5.101,7.424-12.571,11.521-20.913,14.071c-4.393,1.343-9,1.987-13.532,2.951
	c0.019,0.036,0.065,0.214,0.177,0.328c3.559,3.625,5.295,8.09,5.42,13.056c0.236,9.417,0.347,28.478,0.25,37.898
	c-0.009,0.872,0.11,2.426,0.341,3.528l70.193-40.526V54.215L93.904,0z"/>
<g>
	<path fill="#5D5E5E" d="M211.338,37.11"/>
</g>
</svg>
