<?xml version="1.0" encoding="utf-8"?>
<!-- Generator: Adobe Illustrator 17.0.0, SVG Export Plug-In . SVG Version: 6.00 Build 0)  -->
<!DOCTYPE svg PUBLIC "-//W3C//DTD SVG 1.1//EN" "http://www.w3.org/Graphics/SVG/1.1/DTD/svg11.dtd">
<svg version="1.1" xmlns="http://www.w3.org/2000/svg" xmlns:xlink="http://www.w3.org/1999/xlink" x="0px" y="0px"
	 width="48.922px" height="48.922px" viewBox="0 0 48.922 48.922" enable-background="new 0 0 48.922 48.922" xml:space="preserve">
<g id="Layer_1">
</g>
<g id="Layer_2">
	<g>
		<path fill="#FFFFFF" d="M24.461,48.922C10.973,48.922,0,37.949,0,24.461C0,10.973,10.973,0,24.461,0s24.461,10.973,24.461,24.461
			C48.922,37.949,37.949,48.922,24.461,48.922z M24.461,3C12.627,3,3,12.627,3,24.461c0,11.833,9.627,21.461,21.461,21.461
			s21.461-9.627,21.461-21.461C45.922,12.627,36.294,3,24.461,3z"/>
	</g>
	<g>
		<rect x="13.318" y="22.961" fill="#FFFFFF" width="23.636" height="3"/>
	</g>
	<g>
		<rect x="22.961" y="12.643" fill="#FFFFFF" width="3" height="23.636"/>
	</g>
</g>
</svg>
