<?xml version="1.0" encoding="utf-8"?>
<!-- Generator: Adobe Illustrator 17.0.0, SVG Export Plug-In . SVG Version: 6.00 Build 0)  -->
<!DOCTYPE svg PUBLIC "-//W3C//DTD SVG 1.1//EN" "http://www.w3.org/Graphics/SVG/1.1/DTD/svg11.dtd">
<svg version="1.1" xmlns="http://www.w3.org/2000/svg" xmlns:xlink="http://www.w3.org/1999/xlink" x="0px" y="0px"
	 width="74.851px" height="74.851px" viewBox="0 0 74.851 74.851" enable-background="new 0 0 74.851 74.851" xml:space="preserve">
<g id="Layer_1">
</g>
<g id="Layer_2">
	<circle fill="#070808" cx="37.426" cy="37.426" r="24.318"/>
	<path fill="#C1C1C0" d="M37.426,0C16.756,0,0,16.756,0,37.426c0,20.67,16.756,37.426,37.426,37.426
		c20.67,0,37.426-16.756,37.426-37.426C74.851,16.756,58.095,0,37.426,0z M46.918,6.87c-0.588,1.514-6.59,18.482-7.051,19.785
		c-2.102-0.688-4.158,0-4.158,0L29.018,6.87C29.018,6.87,36.793,3.978,46.918,6.87z M16.359,60.394
		C8.729,53.137,7.277,44.97,7.277,44.97l20.443-4.275c0,0,0.451,2.121,2.11,3.583C28.941,45.337,17.366,59.119,16.359,60.394z
		 M37.426,40.688c-1.802,0-3.262-1.461-3.262-3.262c0-1.802,1.461-3.262,3.262-3.262c1.802,0,3.262,1.461,3.262,3.262
		C40.688,39.227,39.227,40.688,37.426,40.688z M59.545,60.124c-1.073-1.219-13.366-14.366-14.309-15.376
		c1.579-1.548,1.916-3.691,1.916-3.691l20.642,3.181C67.794,44.238,66.778,52.471,59.545,60.124z"/>
	<circle opacity="0.05" fill="#070808" cx="37.426" cy="37.426" r="24.318"/>
	<rect x="8.351" y="34.649" fill="#232323" width="0" height="0"/>
</g>
</svg>
